%TF.GenerationSoftware,KiCad,Pcbnew,7.0.2-0*%
%TF.CreationDate,2023-09-02T14:44:19-07:00*%
%TF.ProjectId,LanguageCard,4c616e67-7561-4676-9543-6172642e6b69,2*%
%TF.SameCoordinates,Original*%
%TF.FileFunction,Drillmap*%
%TF.FilePolarity,Positive*%
%FSLAX45Y45*%
G04 Gerber Fmt 4.5, Leading zero omitted, Abs format (unit mm)*
G04 Created by KiCad (PCBNEW 7.0.2-0) date 2023-09-02 14:44:19*
%MOMM*%
%LPD*%
G01*
G04 APERTURE LIST*
%ADD10C,0.100000*%
%ADD11C,0.200000*%
%ADD12C,0.050800*%
%ADD13C,0.080000*%
%ADD14C,0.090000*%
%ADD15C,0.150000*%
G04 APERTURE END LIST*
D10*
X7810500Y-9398000D02*
G75*
G03*
X7937500Y-9525000I127000J0D01*
G01*
X17684750Y-2540000D02*
X10350500Y-2540000D01*
X10318750Y-10223500D02*
X10382250Y-10287000D01*
X16986250Y-9525000D02*
X17684750Y-9525000D01*
X7810500Y-9398000D02*
X7810500Y-5080000D01*
X10318750Y-9652000D02*
G75*
G03*
X10191750Y-9525000I-127000J0D01*
G01*
X17811750Y-9398000D02*
X17811750Y-2667000D01*
X10318750Y-9652000D02*
X10318750Y-10223500D01*
X7937500Y-9525000D02*
X10191750Y-9525000D01*
X17684750Y-9525000D02*
G75*
G03*
X17811750Y-9398000I0J127000D01*
G01*
X17811750Y-2667000D02*
G75*
G03*
X17684750Y-2540000I-127000J0D01*
G01*
X16795750Y-10287000D02*
X10382250Y-10287000D01*
X16859250Y-9652000D02*
X16859250Y-10223500D01*
X16986250Y-9525000D02*
G75*
G03*
X16859250Y-9652000I0J-127000D01*
G01*
X16859250Y-10223500D02*
X16795750Y-10287000D01*
X10350500Y-2540000D02*
G75*
G03*
X7810500Y-5080000I0J-2540000D01*
G01*
D11*
D12*
X10452100Y-9182100D02*
X10502900Y-9232900D01*
X10502900Y-9182100D02*
X10452100Y-9232900D01*
X10579100Y-8928100D02*
X10629900Y-8978900D01*
X10629900Y-8928100D02*
X10579100Y-8978900D01*
X10642600Y-4927600D02*
X10693400Y-4978400D01*
X10693400Y-4927600D02*
X10642600Y-4978400D01*
X10706100Y-8674100D02*
X10756900Y-8724900D01*
X10756900Y-8674100D02*
X10706100Y-8724900D01*
X12547600Y-5308600D02*
X12598400Y-5359400D01*
X12598400Y-5308600D02*
X12547600Y-5359400D01*
X12674600Y-5054600D02*
X12725400Y-5105400D01*
X12725400Y-5054600D02*
X12674600Y-5105400D01*
X12674600Y-6324600D02*
X12725400Y-6375400D01*
X12725400Y-6324600D02*
X12674600Y-6375400D01*
X13055600Y-8356600D02*
X13106400Y-8407400D01*
X13106400Y-8356600D02*
X13055600Y-8407400D01*
X13182600Y-6578600D02*
X13233400Y-6629400D01*
X13233400Y-6578600D02*
X13182600Y-6629400D01*
X13690600Y-4546600D02*
X13741400Y-4597400D01*
X13741400Y-4546600D02*
X13690600Y-4597400D01*
X13944600Y-4546600D02*
X13995400Y-4597400D01*
X13995400Y-4546600D02*
X13944600Y-4597400D01*
X14071600Y-4673600D02*
X14122400Y-4724400D01*
X14122400Y-4673600D02*
X14071600Y-4724400D01*
X14706600Y-8928100D02*
X14757400Y-8978900D01*
X14757400Y-8928100D02*
X14706600Y-8978900D01*
X14960600Y-6134100D02*
X15011400Y-6184900D01*
X15011400Y-6134100D02*
X14960600Y-6184900D01*
X15087600Y-5562600D02*
X15138400Y-5613400D01*
X15138400Y-5562600D02*
X15087600Y-5613400D01*
X15151100Y-7150100D02*
X15201900Y-7200900D01*
X15201900Y-7150100D02*
X15151100Y-7200900D01*
X15849600Y-7848600D02*
X15900400Y-7899400D01*
X15900400Y-7848600D02*
X15849600Y-7899400D01*
X16103600Y-3276600D02*
X16154400Y-3327400D01*
X16154400Y-3276600D02*
X16103600Y-3327400D01*
X16103600Y-9372600D02*
X16154400Y-9423400D01*
X16154400Y-9372600D02*
X16103600Y-9423400D01*
X16357600Y-9372600D02*
X16408400Y-9423400D01*
X16408400Y-9372600D02*
X16357600Y-9423400D01*
X17056100Y-3848100D02*
X17106900Y-3898900D01*
X17106900Y-3848100D02*
X17056100Y-3898900D01*
X17246600Y-3657600D02*
X17297400Y-3708400D01*
X17297400Y-3657600D02*
X17246600Y-3708400D01*
D13*
X8168000Y-4953000D02*
G75*
G03*
X8168000Y-4953000I-40000J0D01*
G01*
X8168000Y-5207000D02*
G75*
G03*
X8168000Y-5207000I-40000J0D01*
G01*
X8168000Y-5461000D02*
G75*
G03*
X8168000Y-5461000I-40000J0D01*
G01*
X8168000Y-5715000D02*
G75*
G03*
X8168000Y-5715000I-40000J0D01*
G01*
X8168000Y-5969000D02*
G75*
G03*
X8168000Y-5969000I-40000J0D01*
G01*
X8168000Y-6223000D02*
G75*
G03*
X8168000Y-6223000I-40000J0D01*
G01*
X8168000Y-6477000D02*
G75*
G03*
X8168000Y-6477000I-40000J0D01*
G01*
X8168000Y-6731000D02*
G75*
G03*
X8168000Y-6731000I-40000J0D01*
G01*
X8168000Y-6985000D02*
G75*
G03*
X8168000Y-6985000I-40000J0D01*
G01*
X8168000Y-7239000D02*
G75*
G03*
X8168000Y-7239000I-40000J0D01*
G01*
X8168000Y-7493000D02*
G75*
G03*
X8168000Y-7493000I-40000J0D01*
G01*
X8168000Y-7747000D02*
G75*
G03*
X8168000Y-7747000I-40000J0D01*
G01*
X8168000Y-8001000D02*
G75*
G03*
X8168000Y-8001000I-40000J0D01*
G01*
X8168000Y-8255000D02*
G75*
G03*
X8168000Y-8255000I-40000J0D01*
G01*
X8930000Y-4953000D02*
G75*
G03*
X8930000Y-4953000I-40000J0D01*
G01*
X8930000Y-5207000D02*
G75*
G03*
X8930000Y-5207000I-40000J0D01*
G01*
X8930000Y-5461000D02*
G75*
G03*
X8930000Y-5461000I-40000J0D01*
G01*
X8930000Y-5715000D02*
G75*
G03*
X8930000Y-5715000I-40000J0D01*
G01*
X8930000Y-5969000D02*
G75*
G03*
X8930000Y-5969000I-40000J0D01*
G01*
X8930000Y-6223000D02*
G75*
G03*
X8930000Y-6223000I-40000J0D01*
G01*
X8930000Y-6477000D02*
G75*
G03*
X8930000Y-6477000I-40000J0D01*
G01*
X8930000Y-6731000D02*
G75*
G03*
X8930000Y-6731000I-40000J0D01*
G01*
X8930000Y-6985000D02*
G75*
G03*
X8930000Y-6985000I-40000J0D01*
G01*
X8930000Y-7239000D02*
G75*
G03*
X8930000Y-7239000I-40000J0D01*
G01*
X8930000Y-7493000D02*
G75*
G03*
X8930000Y-7493000I-40000J0D01*
G01*
X8930000Y-7747000D02*
G75*
G03*
X8930000Y-7747000I-40000J0D01*
G01*
X8930000Y-8001000D02*
G75*
G03*
X8930000Y-8001000I-40000J0D01*
G01*
X8930000Y-8255000D02*
G75*
G03*
X8930000Y-8255000I-40000J0D01*
G01*
X9247500Y-4066000D02*
G75*
G03*
X9247500Y-4066000I-40000J0D01*
G01*
X9247500Y-4316000D02*
G75*
G03*
X9247500Y-4316000I-40000J0D01*
G01*
X9247500Y-8574500D02*
G75*
G03*
X9247500Y-8574500I-40000J0D01*
G01*
X9247500Y-8824500D02*
G75*
G03*
X9247500Y-8824500I-40000J0D01*
G01*
X9565000Y-4953000D02*
G75*
G03*
X9565000Y-4953000I-40000J0D01*
G01*
X9565000Y-5207000D02*
G75*
G03*
X9565000Y-5207000I-40000J0D01*
G01*
X9565000Y-5461000D02*
G75*
G03*
X9565000Y-5461000I-40000J0D01*
G01*
X9565000Y-5715000D02*
G75*
G03*
X9565000Y-5715000I-40000J0D01*
G01*
X9565000Y-5969000D02*
G75*
G03*
X9565000Y-5969000I-40000J0D01*
G01*
X9565000Y-6223000D02*
G75*
G03*
X9565000Y-6223000I-40000J0D01*
G01*
X9565000Y-6477000D02*
G75*
G03*
X9565000Y-6477000I-40000J0D01*
G01*
X9565000Y-6731000D02*
G75*
G03*
X9565000Y-6731000I-40000J0D01*
G01*
X9565000Y-6985000D02*
G75*
G03*
X9565000Y-6985000I-40000J0D01*
G01*
X9565000Y-7239000D02*
G75*
G03*
X9565000Y-7239000I-40000J0D01*
G01*
X9565000Y-7493000D02*
G75*
G03*
X9565000Y-7493000I-40000J0D01*
G01*
X9565000Y-7747000D02*
G75*
G03*
X9565000Y-7747000I-40000J0D01*
G01*
X9565000Y-8001000D02*
G75*
G03*
X9565000Y-8001000I-40000J0D01*
G01*
X9565000Y-8255000D02*
G75*
G03*
X9565000Y-8255000I-40000J0D01*
G01*
X10327000Y-4953000D02*
G75*
G03*
X10327000Y-4953000I-40000J0D01*
G01*
X10327000Y-5207000D02*
G75*
G03*
X10327000Y-5207000I-40000J0D01*
G01*
X10327000Y-5461000D02*
G75*
G03*
X10327000Y-5461000I-40000J0D01*
G01*
X10327000Y-5715000D02*
G75*
G03*
X10327000Y-5715000I-40000J0D01*
G01*
X10327000Y-5969000D02*
G75*
G03*
X10327000Y-5969000I-40000J0D01*
G01*
X10327000Y-6223000D02*
G75*
G03*
X10327000Y-6223000I-40000J0D01*
G01*
X10327000Y-6477000D02*
G75*
G03*
X10327000Y-6477000I-40000J0D01*
G01*
X10327000Y-6731000D02*
G75*
G03*
X10327000Y-6731000I-40000J0D01*
G01*
X10327000Y-6985000D02*
G75*
G03*
X10327000Y-6985000I-40000J0D01*
G01*
X10327000Y-7239000D02*
G75*
G03*
X10327000Y-7239000I-40000J0D01*
G01*
X10327000Y-7493000D02*
G75*
G03*
X10327000Y-7493000I-40000J0D01*
G01*
X10327000Y-7747000D02*
G75*
G03*
X10327000Y-7747000I-40000J0D01*
G01*
X10327000Y-8001000D02*
G75*
G03*
X10327000Y-8001000I-40000J0D01*
G01*
X10327000Y-8255000D02*
G75*
G03*
X10327000Y-8255000I-40000J0D01*
G01*
X10390500Y-2794000D02*
G75*
G03*
X10390500Y-2794000I-40000J0D01*
G01*
X10390500Y-3810000D02*
G75*
G03*
X10390500Y-3810000I-40000J0D01*
G01*
X10708000Y-2794000D02*
G75*
G03*
X10708000Y-2794000I-40000J0D01*
G01*
X10708000Y-3810000D02*
G75*
G03*
X10708000Y-3810000I-40000J0D01*
G01*
X10962000Y-4953000D02*
G75*
G03*
X10962000Y-4953000I-40000J0D01*
G01*
X10962000Y-5207000D02*
G75*
G03*
X10962000Y-5207000I-40000J0D01*
G01*
X10962000Y-5461000D02*
G75*
G03*
X10962000Y-5461000I-40000J0D01*
G01*
X10962000Y-5461000D02*
G75*
G03*
X10962000Y-5461000I-40000J0D01*
G01*
X10962000Y-5715000D02*
G75*
G03*
X10962000Y-5715000I-40000J0D01*
G01*
X10962000Y-5715000D02*
G75*
G03*
X10962000Y-5715000I-40000J0D01*
G01*
X10962000Y-5969000D02*
G75*
G03*
X10962000Y-5969000I-40000J0D01*
G01*
X10962000Y-5969000D02*
G75*
G03*
X10962000Y-5969000I-40000J0D01*
G01*
X10962000Y-6223000D02*
G75*
G03*
X10962000Y-6223000I-40000J0D01*
G01*
X10962000Y-6223000D02*
G75*
G03*
X10962000Y-6223000I-40000J0D01*
G01*
X10962000Y-6477000D02*
G75*
G03*
X10962000Y-6477000I-40000J0D01*
G01*
X10962000Y-6477000D02*
G75*
G03*
X10962000Y-6477000I-40000J0D01*
G01*
X10962000Y-6731000D02*
G75*
G03*
X10962000Y-6731000I-40000J0D01*
G01*
X10962000Y-6731000D02*
G75*
G03*
X10962000Y-6731000I-40000J0D01*
G01*
X10962000Y-6985000D02*
G75*
G03*
X10962000Y-6985000I-40000J0D01*
G01*
X10962000Y-6985000D02*
G75*
G03*
X10962000Y-6985000I-40000J0D01*
G01*
X10962000Y-7239000D02*
G75*
G03*
X10962000Y-7239000I-40000J0D01*
G01*
X10962000Y-7239000D02*
G75*
G03*
X10962000Y-7239000I-40000J0D01*
G01*
X10962000Y-7493000D02*
G75*
G03*
X10962000Y-7493000I-40000J0D01*
G01*
X10962000Y-7493000D02*
G75*
G03*
X10962000Y-7493000I-40000J0D01*
G01*
X10962000Y-7747000D02*
G75*
G03*
X10962000Y-7747000I-40000J0D01*
G01*
X10962000Y-7747000D02*
G75*
G03*
X10962000Y-7747000I-40000J0D01*
G01*
X10962000Y-8001000D02*
G75*
G03*
X10962000Y-8001000I-40000J0D01*
G01*
X10962000Y-8001000D02*
G75*
G03*
X10962000Y-8001000I-40000J0D01*
G01*
X10962000Y-8255000D02*
G75*
G03*
X10962000Y-8255000I-40000J0D01*
G01*
X10962000Y-8255000D02*
G75*
G03*
X10962000Y-8255000I-40000J0D01*
G01*
X11216000Y-3562489D02*
G75*
G03*
X11216000Y-3562489I-40000J0D01*
G01*
X11216000Y-3812489D02*
G75*
G03*
X11216000Y-3812489I-40000J0D01*
G01*
X11724000Y-2923000D02*
G75*
G03*
X11724000Y-2923000I-40000J0D01*
G01*
X11724000Y-3173000D02*
G75*
G03*
X11724000Y-3173000I-40000J0D01*
G01*
X12359000Y-2921000D02*
G75*
G03*
X12359000Y-2921000I-40000J0D01*
G01*
X12359000Y-3683000D02*
G75*
G03*
X12359000Y-3683000I-40000J0D01*
G01*
X12486000Y-4953000D02*
G75*
G03*
X12486000Y-4953000I-40000J0D01*
G01*
X12486000Y-5207000D02*
G75*
G03*
X12486000Y-5207000I-40000J0D01*
G01*
X12486000Y-5461000D02*
G75*
G03*
X12486000Y-5461000I-40000J0D01*
G01*
X12486000Y-5461000D02*
G75*
G03*
X12486000Y-5461000I-40000J0D01*
G01*
X12486000Y-5715000D02*
G75*
G03*
X12486000Y-5715000I-40000J0D01*
G01*
X12486000Y-5715000D02*
G75*
G03*
X12486000Y-5715000I-40000J0D01*
G01*
X12486000Y-5969000D02*
G75*
G03*
X12486000Y-5969000I-40000J0D01*
G01*
X12486000Y-5969000D02*
G75*
G03*
X12486000Y-5969000I-40000J0D01*
G01*
X12486000Y-6223000D02*
G75*
G03*
X12486000Y-6223000I-40000J0D01*
G01*
X12486000Y-6223000D02*
G75*
G03*
X12486000Y-6223000I-40000J0D01*
G01*
X12486000Y-6477000D02*
G75*
G03*
X12486000Y-6477000I-40000J0D01*
G01*
X12486000Y-6477000D02*
G75*
G03*
X12486000Y-6477000I-40000J0D01*
G01*
X12486000Y-6731000D02*
G75*
G03*
X12486000Y-6731000I-40000J0D01*
G01*
X12486000Y-6731000D02*
G75*
G03*
X12486000Y-6731000I-40000J0D01*
G01*
X12486000Y-6985000D02*
G75*
G03*
X12486000Y-6985000I-40000J0D01*
G01*
X12486000Y-6985000D02*
G75*
G03*
X12486000Y-6985000I-40000J0D01*
G01*
X12486000Y-7239000D02*
G75*
G03*
X12486000Y-7239000I-40000J0D01*
G01*
X12486000Y-7239000D02*
G75*
G03*
X12486000Y-7239000I-40000J0D01*
G01*
X12486000Y-7493000D02*
G75*
G03*
X12486000Y-7493000I-40000J0D01*
G01*
X12486000Y-7493000D02*
G75*
G03*
X12486000Y-7493000I-40000J0D01*
G01*
X12486000Y-7747000D02*
G75*
G03*
X12486000Y-7747000I-40000J0D01*
G01*
X12486000Y-7747000D02*
G75*
G03*
X12486000Y-7747000I-40000J0D01*
G01*
X12486000Y-8001000D02*
G75*
G03*
X12486000Y-8001000I-40000J0D01*
G01*
X12486000Y-8001000D02*
G75*
G03*
X12486000Y-8001000I-40000J0D01*
G01*
X12486000Y-8255000D02*
G75*
G03*
X12486000Y-8255000I-40000J0D01*
G01*
X12486000Y-8255000D02*
G75*
G03*
X12486000Y-8255000I-40000J0D01*
G01*
X12613000Y-2921000D02*
G75*
G03*
X12613000Y-2921000I-40000J0D01*
G01*
X12613000Y-3683000D02*
G75*
G03*
X12613000Y-3683000I-40000J0D01*
G01*
X12867000Y-2921000D02*
G75*
G03*
X12867000Y-2921000I-40000J0D01*
G01*
X12867000Y-3683000D02*
G75*
G03*
X12867000Y-3683000I-40000J0D01*
G01*
X13121000Y-2921000D02*
G75*
G03*
X13121000Y-2921000I-40000J0D01*
G01*
X13121000Y-3683000D02*
G75*
G03*
X13121000Y-3683000I-40000J0D01*
G01*
X13123000Y-5842000D02*
G75*
G03*
X13123000Y-5842000I-40000J0D01*
G01*
X13123000Y-7747000D02*
G75*
G03*
X13123000Y-7747000I-40000J0D01*
G01*
X13248000Y-4066000D02*
G75*
G03*
X13248000Y-4066000I-40000J0D01*
G01*
X13248000Y-4316000D02*
G75*
G03*
X13248000Y-4316000I-40000J0D01*
G01*
X13373000Y-5842000D02*
G75*
G03*
X13373000Y-5842000I-40000J0D01*
G01*
X13373000Y-7747000D02*
G75*
G03*
X13373000Y-7747000I-40000J0D01*
G01*
X13375000Y-2921000D02*
G75*
G03*
X13375000Y-2921000I-40000J0D01*
G01*
X13375000Y-3683000D02*
G75*
G03*
X13375000Y-3683000I-40000J0D01*
G01*
X13629000Y-2921000D02*
G75*
G03*
X13629000Y-2921000I-40000J0D01*
G01*
X13629000Y-3683000D02*
G75*
G03*
X13629000Y-3683000I-40000J0D01*
G01*
X13629000Y-4191000D02*
G75*
G03*
X13629000Y-4191000I-40000J0D01*
G01*
X13629000Y-4953000D02*
G75*
G03*
X13629000Y-4953000I-40000J0D01*
G01*
X13629000Y-6731000D02*
G75*
G03*
X13629000Y-6731000I-40000J0D01*
G01*
X13629000Y-7493000D02*
G75*
G03*
X13629000Y-7493000I-40000J0D01*
G01*
X13629500Y-8001000D02*
G75*
G03*
X13629500Y-8001000I-40000J0D01*
G01*
X13629500Y-8763000D02*
G75*
G03*
X13629500Y-8763000I-40000J0D01*
G01*
X13756000Y-5334000D02*
G75*
G03*
X13756000Y-5334000I-40000J0D01*
G01*
X13756000Y-6350000D02*
G75*
G03*
X13756000Y-6350000I-40000J0D01*
G01*
X13883000Y-2921000D02*
G75*
G03*
X13883000Y-2921000I-40000J0D01*
G01*
X13883000Y-3683000D02*
G75*
G03*
X13883000Y-3683000I-40000J0D01*
G01*
X13883000Y-4191000D02*
G75*
G03*
X13883000Y-4191000I-40000J0D01*
G01*
X13883000Y-4953000D02*
G75*
G03*
X13883000Y-4953000I-40000J0D01*
G01*
X13883000Y-6731000D02*
G75*
G03*
X13883000Y-6731000I-40000J0D01*
G01*
X13883000Y-7493000D02*
G75*
G03*
X13883000Y-7493000I-40000J0D01*
G01*
X13883500Y-8001000D02*
G75*
G03*
X13883500Y-8001000I-40000J0D01*
G01*
X13883500Y-8763000D02*
G75*
G03*
X13883500Y-8763000I-40000J0D01*
G01*
X14137000Y-2921000D02*
G75*
G03*
X14137000Y-2921000I-40000J0D01*
G01*
X14137000Y-3683000D02*
G75*
G03*
X14137000Y-3683000I-40000J0D01*
G01*
X14137000Y-4191000D02*
G75*
G03*
X14137000Y-4191000I-40000J0D01*
G01*
X14137000Y-4953000D02*
G75*
G03*
X14137000Y-4953000I-40000J0D01*
G01*
X14137000Y-5334000D02*
G75*
G03*
X14137000Y-5334000I-40000J0D01*
G01*
X14137000Y-6350000D02*
G75*
G03*
X14137000Y-6350000I-40000J0D01*
G01*
X14137000Y-6731000D02*
G75*
G03*
X14137000Y-6731000I-40000J0D01*
G01*
X14137000Y-7493000D02*
G75*
G03*
X14137000Y-7493000I-40000J0D01*
G01*
X14137500Y-8001000D02*
G75*
G03*
X14137500Y-8001000I-40000J0D01*
G01*
X14137500Y-8763000D02*
G75*
G03*
X14137500Y-8763000I-40000J0D01*
G01*
X14391000Y-4191000D02*
G75*
G03*
X14391000Y-4191000I-40000J0D01*
G01*
X14391000Y-4953000D02*
G75*
G03*
X14391000Y-4953000I-40000J0D01*
G01*
X14391000Y-6731000D02*
G75*
G03*
X14391000Y-6731000I-40000J0D01*
G01*
X14391000Y-7493000D02*
G75*
G03*
X14391000Y-7493000I-40000J0D01*
G01*
X14391500Y-8001000D02*
G75*
G03*
X14391500Y-8001000I-40000J0D01*
G01*
X14391500Y-8763000D02*
G75*
G03*
X14391500Y-8763000I-40000J0D01*
G01*
X14645000Y-4191000D02*
G75*
G03*
X14645000Y-4191000I-40000J0D01*
G01*
X14645000Y-4953000D02*
G75*
G03*
X14645000Y-4953000I-40000J0D01*
G01*
X14645000Y-6731000D02*
G75*
G03*
X14645000Y-6731000I-40000J0D01*
G01*
X14645000Y-7493000D02*
G75*
G03*
X14645000Y-7493000I-40000J0D01*
G01*
X14645500Y-8001000D02*
G75*
G03*
X14645500Y-8001000I-40000J0D01*
G01*
X14645500Y-8763000D02*
G75*
G03*
X14645500Y-8763000I-40000J0D01*
G01*
X14899000Y-2921000D02*
G75*
G03*
X14899000Y-2921000I-40000J0D01*
G01*
X14899000Y-3937000D02*
G75*
G03*
X14899000Y-3937000I-40000J0D01*
G01*
X14899000Y-4191000D02*
G75*
G03*
X14899000Y-4191000I-40000J0D01*
G01*
X14899000Y-4953000D02*
G75*
G03*
X14899000Y-4953000I-40000J0D01*
G01*
X14899000Y-5334000D02*
G75*
G03*
X14899000Y-5334000I-40000J0D01*
G01*
X14899000Y-6350000D02*
G75*
G03*
X14899000Y-6350000I-40000J0D01*
G01*
X14899000Y-6731000D02*
G75*
G03*
X14899000Y-6731000I-40000J0D01*
G01*
X14899000Y-7493000D02*
G75*
G03*
X14899000Y-7493000I-40000J0D01*
G01*
X14899500Y-8001000D02*
G75*
G03*
X14899500Y-8001000I-40000J0D01*
G01*
X14899500Y-8763000D02*
G75*
G03*
X14899500Y-8763000I-40000J0D01*
G01*
X15153000Y-4191000D02*
G75*
G03*
X15153000Y-4191000I-40000J0D01*
G01*
X15153000Y-4953000D02*
G75*
G03*
X15153000Y-4953000I-40000J0D01*
G01*
X15153000Y-6731000D02*
G75*
G03*
X15153000Y-6731000I-40000J0D01*
G01*
X15153000Y-7493000D02*
G75*
G03*
X15153000Y-7493000I-40000J0D01*
G01*
X15153500Y-8001000D02*
G75*
G03*
X15153500Y-8001000I-40000J0D01*
G01*
X15153500Y-8763000D02*
G75*
G03*
X15153500Y-8763000I-40000J0D01*
G01*
X15345500Y-5842000D02*
G75*
G03*
X15345500Y-5842000I-40000J0D01*
G01*
X15346000Y-7747000D02*
G75*
G03*
X15346000Y-7747000I-40000J0D01*
G01*
X15470500Y-3939000D02*
G75*
G03*
X15470500Y-3939000I-40000J0D01*
G01*
X15470500Y-4189000D02*
G75*
G03*
X15470500Y-4189000I-40000J0D01*
G01*
X15595500Y-5842000D02*
G75*
G03*
X15595500Y-5842000I-40000J0D01*
G01*
X15596000Y-7747000D02*
G75*
G03*
X15596000Y-7747000I-40000J0D01*
G01*
X15788000Y-4191000D02*
G75*
G03*
X15788000Y-4191000I-40000J0D01*
G01*
X15788000Y-4953000D02*
G75*
G03*
X15788000Y-4953000I-40000J0D01*
G01*
X15788000Y-6731000D02*
G75*
G03*
X15788000Y-6731000I-40000J0D01*
G01*
X15788000Y-7493000D02*
G75*
G03*
X15788000Y-7493000I-40000J0D01*
G01*
X15788000Y-8001000D02*
G75*
G03*
X15788000Y-8001000I-40000J0D01*
G01*
X15788000Y-8763000D02*
G75*
G03*
X15788000Y-8763000I-40000J0D01*
G01*
X15915000Y-2921000D02*
G75*
G03*
X15915000Y-2921000I-40000J0D01*
G01*
X15915000Y-3937000D02*
G75*
G03*
X15915000Y-3937000I-40000J0D01*
G01*
X16042000Y-4191000D02*
G75*
G03*
X16042000Y-4191000I-40000J0D01*
G01*
X16042000Y-4953000D02*
G75*
G03*
X16042000Y-4953000I-40000J0D01*
G01*
X16042000Y-6731000D02*
G75*
G03*
X16042000Y-6731000I-40000J0D01*
G01*
X16042000Y-7493000D02*
G75*
G03*
X16042000Y-7493000I-40000J0D01*
G01*
X16042000Y-8001000D02*
G75*
G03*
X16042000Y-8001000I-40000J0D01*
G01*
X16042000Y-8763000D02*
G75*
G03*
X16042000Y-8763000I-40000J0D01*
G01*
X16296000Y-4191000D02*
G75*
G03*
X16296000Y-4191000I-40000J0D01*
G01*
X16296000Y-4953000D02*
G75*
G03*
X16296000Y-4953000I-40000J0D01*
G01*
X16296000Y-6731000D02*
G75*
G03*
X16296000Y-6731000I-40000J0D01*
G01*
X16296000Y-7493000D02*
G75*
G03*
X16296000Y-7493000I-40000J0D01*
G01*
X16296000Y-8001000D02*
G75*
G03*
X16296000Y-8001000I-40000J0D01*
G01*
X16296000Y-8763000D02*
G75*
G03*
X16296000Y-8763000I-40000J0D01*
G01*
X16550000Y-4191000D02*
G75*
G03*
X16550000Y-4191000I-40000J0D01*
G01*
X16550000Y-4953000D02*
G75*
G03*
X16550000Y-4953000I-40000J0D01*
G01*
X16550000Y-6731000D02*
G75*
G03*
X16550000Y-6731000I-40000J0D01*
G01*
X16550000Y-7493000D02*
G75*
G03*
X16550000Y-7493000I-40000J0D01*
G01*
X16550000Y-8001000D02*
G75*
G03*
X16550000Y-8001000I-40000J0D01*
G01*
X16550000Y-8763000D02*
G75*
G03*
X16550000Y-8763000I-40000J0D01*
G01*
X16804000Y-4191000D02*
G75*
G03*
X16804000Y-4191000I-40000J0D01*
G01*
X16804000Y-4953000D02*
G75*
G03*
X16804000Y-4953000I-40000J0D01*
G01*
X16804000Y-6731000D02*
G75*
G03*
X16804000Y-6731000I-40000J0D01*
G01*
X16804000Y-7493000D02*
G75*
G03*
X16804000Y-7493000I-40000J0D01*
G01*
X16804000Y-8001000D02*
G75*
G03*
X16804000Y-8001000I-40000J0D01*
G01*
X16804000Y-8763000D02*
G75*
G03*
X16804000Y-8763000I-40000J0D01*
G01*
X16931000Y-2921000D02*
G75*
G03*
X16931000Y-2921000I-40000J0D01*
G01*
X16931000Y-3937000D02*
G75*
G03*
X16931000Y-3937000I-40000J0D01*
G01*
X17058000Y-4191000D02*
G75*
G03*
X17058000Y-4191000I-40000J0D01*
G01*
X17058000Y-4953000D02*
G75*
G03*
X17058000Y-4953000I-40000J0D01*
G01*
X17058000Y-6731000D02*
G75*
G03*
X17058000Y-6731000I-40000J0D01*
G01*
X17058000Y-7493000D02*
G75*
G03*
X17058000Y-7493000I-40000J0D01*
G01*
X17058000Y-8001000D02*
G75*
G03*
X17058000Y-8001000I-40000J0D01*
G01*
X17058000Y-8763000D02*
G75*
G03*
X17058000Y-8763000I-40000J0D01*
G01*
X17312000Y-4191000D02*
G75*
G03*
X17312000Y-4191000I-40000J0D01*
G01*
X17312000Y-4953000D02*
G75*
G03*
X17312000Y-4953000I-40000J0D01*
G01*
X17312000Y-6731000D02*
G75*
G03*
X17312000Y-6731000I-40000J0D01*
G01*
X17312000Y-7493000D02*
G75*
G03*
X17312000Y-7493000I-40000J0D01*
G01*
X17312000Y-8001000D02*
G75*
G03*
X17312000Y-8001000I-40000J0D01*
G01*
X17312000Y-8763000D02*
G75*
G03*
X17312000Y-8763000I-40000J0D01*
G01*
X17629500Y-3812000D02*
G75*
G03*
X17629500Y-3812000I-40000J0D01*
G01*
X17629500Y-4062000D02*
G75*
G03*
X17629500Y-4062000I-40000J0D01*
G01*
D14*
X10033000Y-2876000D02*
X10033000Y-2966000D01*
X9988000Y-2921000D02*
X10078000Y-2921000D01*
X10033000Y-3638000D02*
X10033000Y-3728000D01*
X9988000Y-3683000D02*
X10078000Y-3683000D01*
X15240000Y-3003000D02*
X15240000Y-3093000D01*
X15195000Y-3048000D02*
X15285000Y-3048000D01*
X15494000Y-3003000D02*
X15494000Y-3093000D01*
X15449000Y-3048000D02*
X15539000Y-3048000D01*
X16256000Y-3003000D02*
X16256000Y-3093000D01*
X16211000Y-3048000D02*
X16301000Y-3048000D01*
X16510000Y-3003000D02*
X16510000Y-3093000D01*
X16465000Y-3048000D02*
X16555000Y-3048000D01*
X17272000Y-3003000D02*
X17272000Y-3093000D01*
X17227000Y-3048000D02*
X17317000Y-3048000D01*
X17526000Y-3003000D02*
X17526000Y-3093000D01*
X17481000Y-3048000D02*
X17571000Y-3048000D01*
D10*
X16862856Y-5623356D02*
X16862856Y-5552644D01*
X16792144Y-5552644D01*
X16792144Y-5623356D01*
X16862856Y-5623356D01*
X16862856Y-5877356D02*
X16862856Y-5806644D01*
X16792144Y-5806644D01*
X16792144Y-5877356D01*
X16862856Y-5877356D01*
X16862856Y-6131356D02*
X16862856Y-6060644D01*
X16792144Y-6060644D01*
X16792144Y-6131356D01*
X16862856Y-6131356D01*
X17116856Y-5623356D02*
X17116856Y-5552644D01*
X17046144Y-5552644D01*
X17046144Y-5623356D01*
X17116856Y-5623356D01*
X17116856Y-5877356D02*
X17116856Y-5806644D01*
X17046144Y-5806644D01*
X17046144Y-5877356D01*
X17116856Y-5877356D01*
X17116856Y-6131356D02*
X17116856Y-6060644D01*
X17046144Y-6060644D01*
X17046144Y-6131356D01*
X17116856Y-6131356D01*
D15*
X16002000Y-5447100D02*
X16077000Y-5372100D01*
X16002000Y-5297100D01*
X15927000Y-5372100D01*
X16002000Y-5447100D01*
X16002000Y-5917000D02*
X16077000Y-5842000D01*
X16002000Y-5767000D01*
X15927000Y-5842000D01*
X16002000Y-5917000D01*
X16002000Y-6386900D02*
X16077000Y-6311900D01*
X16002000Y-6236900D01*
X15927000Y-6311900D01*
X16002000Y-6386900D01*
X16383000Y-5447100D02*
X16458000Y-5372100D01*
X16383000Y-5297100D01*
X16308000Y-5372100D01*
X16383000Y-5447100D01*
X16383000Y-5917000D02*
X16458000Y-5842000D01*
X16383000Y-5767000D01*
X16308000Y-5842000D01*
X16383000Y-5917000D01*
X16383000Y-6386900D02*
X16458000Y-6311900D01*
X16383000Y-6236900D01*
X16308000Y-6311900D01*
X16383000Y-6386900D01*
X17653000Y-5663000D02*
X17728000Y-5588000D01*
X17653000Y-5513000D01*
X17578000Y-5588000D01*
X17653000Y-5663000D01*
X17653000Y-6171000D02*
X17728000Y-6096000D01*
X17653000Y-6021000D01*
X17578000Y-6096000D01*
X17653000Y-6171000D01*
D11*
X8053119Y-10604524D02*
X8053119Y-10404524D01*
X8053119Y-10404524D02*
X8100738Y-10404524D01*
X8100738Y-10404524D02*
X8129309Y-10414048D01*
X8129309Y-10414048D02*
X8148357Y-10433095D01*
X8148357Y-10433095D02*
X8157881Y-10452143D01*
X8157881Y-10452143D02*
X8167405Y-10490238D01*
X8167405Y-10490238D02*
X8167405Y-10518810D01*
X8167405Y-10518810D02*
X8157881Y-10556905D01*
X8157881Y-10556905D02*
X8148357Y-10575952D01*
X8148357Y-10575952D02*
X8129309Y-10595000D01*
X8129309Y-10595000D02*
X8100738Y-10604524D01*
X8100738Y-10604524D02*
X8053119Y-10604524D01*
X8253119Y-10604524D02*
X8253119Y-10471190D01*
X8253119Y-10509286D02*
X8262643Y-10490238D01*
X8262643Y-10490238D02*
X8272167Y-10480714D01*
X8272167Y-10480714D02*
X8291214Y-10471190D01*
X8291214Y-10471190D02*
X8310262Y-10471190D01*
X8376928Y-10604524D02*
X8376928Y-10471190D01*
X8376928Y-10404524D02*
X8367405Y-10414048D01*
X8367405Y-10414048D02*
X8376928Y-10423571D01*
X8376928Y-10423571D02*
X8386452Y-10414048D01*
X8386452Y-10414048D02*
X8376928Y-10404524D01*
X8376928Y-10404524D02*
X8376928Y-10423571D01*
X8500738Y-10604524D02*
X8481690Y-10595000D01*
X8481690Y-10595000D02*
X8472167Y-10575952D01*
X8472167Y-10575952D02*
X8472167Y-10404524D01*
X8605500Y-10604524D02*
X8586452Y-10595000D01*
X8586452Y-10595000D02*
X8576929Y-10575952D01*
X8576929Y-10575952D02*
X8576929Y-10404524D01*
X8834071Y-10604524D02*
X8834071Y-10404524D01*
X8834071Y-10404524D02*
X8900738Y-10547381D01*
X8900738Y-10547381D02*
X8967405Y-10404524D01*
X8967405Y-10404524D02*
X8967405Y-10604524D01*
X9148357Y-10604524D02*
X9148357Y-10499762D01*
X9148357Y-10499762D02*
X9138833Y-10480714D01*
X9138833Y-10480714D02*
X9119786Y-10471190D01*
X9119786Y-10471190D02*
X9081690Y-10471190D01*
X9081690Y-10471190D02*
X9062643Y-10480714D01*
X9148357Y-10595000D02*
X9129310Y-10604524D01*
X9129310Y-10604524D02*
X9081690Y-10604524D01*
X9081690Y-10604524D02*
X9062643Y-10595000D01*
X9062643Y-10595000D02*
X9053119Y-10575952D01*
X9053119Y-10575952D02*
X9053119Y-10556905D01*
X9053119Y-10556905D02*
X9062643Y-10537857D01*
X9062643Y-10537857D02*
X9081690Y-10528333D01*
X9081690Y-10528333D02*
X9129310Y-10528333D01*
X9129310Y-10528333D02*
X9148357Y-10518810D01*
X9243595Y-10471190D02*
X9243595Y-10671190D01*
X9243595Y-10480714D02*
X9262643Y-10471190D01*
X9262643Y-10471190D02*
X9300738Y-10471190D01*
X9300738Y-10471190D02*
X9319786Y-10480714D01*
X9319786Y-10480714D02*
X9329310Y-10490238D01*
X9329310Y-10490238D02*
X9338833Y-10509286D01*
X9338833Y-10509286D02*
X9338833Y-10566429D01*
X9338833Y-10566429D02*
X9329310Y-10585476D01*
X9329310Y-10585476D02*
X9319786Y-10595000D01*
X9319786Y-10595000D02*
X9300738Y-10604524D01*
X9300738Y-10604524D02*
X9262643Y-10604524D01*
X9262643Y-10604524D02*
X9243595Y-10595000D01*
X9424548Y-10585476D02*
X9434071Y-10595000D01*
X9434071Y-10595000D02*
X9424548Y-10604524D01*
X9424548Y-10604524D02*
X9415024Y-10595000D01*
X9415024Y-10595000D02*
X9424548Y-10585476D01*
X9424548Y-10585476D02*
X9424548Y-10604524D01*
X9424548Y-10480714D02*
X9434071Y-10490238D01*
X9434071Y-10490238D02*
X9424548Y-10499762D01*
X9424548Y-10499762D02*
X9415024Y-10490238D01*
X9415024Y-10490238D02*
X9424548Y-10480714D01*
X9424548Y-10480714D02*
X9424548Y-10499762D01*
D12*
X7754700Y-10906600D02*
X7805500Y-10957400D01*
X7805500Y-10906600D02*
X7754700Y-10957400D01*
D11*
X8091214Y-10824524D02*
X8110262Y-10824524D01*
X8110262Y-10824524D02*
X8129309Y-10834048D01*
X8129309Y-10834048D02*
X8138833Y-10843571D01*
X8138833Y-10843571D02*
X8148357Y-10862619D01*
X8148357Y-10862619D02*
X8157881Y-10900714D01*
X8157881Y-10900714D02*
X8157881Y-10948333D01*
X8157881Y-10948333D02*
X8148357Y-10986429D01*
X8148357Y-10986429D02*
X8138833Y-11005476D01*
X8138833Y-11005476D02*
X8129309Y-11015000D01*
X8129309Y-11015000D02*
X8110262Y-11024524D01*
X8110262Y-11024524D02*
X8091214Y-11024524D01*
X8091214Y-11024524D02*
X8072167Y-11015000D01*
X8072167Y-11015000D02*
X8062643Y-11005476D01*
X8062643Y-11005476D02*
X8053119Y-10986429D01*
X8053119Y-10986429D02*
X8043595Y-10948333D01*
X8043595Y-10948333D02*
X8043595Y-10900714D01*
X8043595Y-10900714D02*
X8053119Y-10862619D01*
X8053119Y-10862619D02*
X8062643Y-10843571D01*
X8062643Y-10843571D02*
X8072167Y-10834048D01*
X8072167Y-10834048D02*
X8091214Y-10824524D01*
X8243595Y-11005476D02*
X8253119Y-11015000D01*
X8253119Y-11015000D02*
X8243595Y-11024524D01*
X8243595Y-11024524D02*
X8234071Y-11015000D01*
X8234071Y-11015000D02*
X8243595Y-11005476D01*
X8243595Y-11005476D02*
X8243595Y-11024524D01*
X8434071Y-10824524D02*
X8338833Y-10824524D01*
X8338833Y-10824524D02*
X8329309Y-10919762D01*
X8329309Y-10919762D02*
X8338833Y-10910238D01*
X8338833Y-10910238D02*
X8357881Y-10900714D01*
X8357881Y-10900714D02*
X8405500Y-10900714D01*
X8405500Y-10900714D02*
X8424548Y-10910238D01*
X8424548Y-10910238D02*
X8434071Y-10919762D01*
X8434071Y-10919762D02*
X8443595Y-10938810D01*
X8443595Y-10938810D02*
X8443595Y-10986429D01*
X8443595Y-10986429D02*
X8434071Y-11005476D01*
X8434071Y-11005476D02*
X8424548Y-11015000D01*
X8424548Y-11015000D02*
X8405500Y-11024524D01*
X8405500Y-11024524D02*
X8357881Y-11024524D01*
X8357881Y-11024524D02*
X8338833Y-11015000D01*
X8338833Y-11015000D02*
X8329309Y-11005476D01*
X8567405Y-10824524D02*
X8586452Y-10824524D01*
X8586452Y-10824524D02*
X8605500Y-10834048D01*
X8605500Y-10834048D02*
X8615024Y-10843571D01*
X8615024Y-10843571D02*
X8624548Y-10862619D01*
X8624548Y-10862619D02*
X8634071Y-10900714D01*
X8634071Y-10900714D02*
X8634071Y-10948333D01*
X8634071Y-10948333D02*
X8624548Y-10986429D01*
X8624548Y-10986429D02*
X8615024Y-11005476D01*
X8615024Y-11005476D02*
X8605500Y-11015000D01*
X8605500Y-11015000D02*
X8586452Y-11024524D01*
X8586452Y-11024524D02*
X8567405Y-11024524D01*
X8567405Y-11024524D02*
X8548357Y-11015000D01*
X8548357Y-11015000D02*
X8538833Y-11005476D01*
X8538833Y-11005476D02*
X8529310Y-10986429D01*
X8529310Y-10986429D02*
X8519786Y-10948333D01*
X8519786Y-10948333D02*
X8519786Y-10900714D01*
X8519786Y-10900714D02*
X8529310Y-10862619D01*
X8529310Y-10862619D02*
X8538833Y-10843571D01*
X8538833Y-10843571D02*
X8548357Y-10834048D01*
X8548357Y-10834048D02*
X8567405Y-10824524D01*
X8748357Y-10910238D02*
X8729310Y-10900714D01*
X8729310Y-10900714D02*
X8719786Y-10891190D01*
X8719786Y-10891190D02*
X8710262Y-10872143D01*
X8710262Y-10872143D02*
X8710262Y-10862619D01*
X8710262Y-10862619D02*
X8719786Y-10843571D01*
X8719786Y-10843571D02*
X8729310Y-10834048D01*
X8729310Y-10834048D02*
X8748357Y-10824524D01*
X8748357Y-10824524D02*
X8786452Y-10824524D01*
X8786452Y-10824524D02*
X8805500Y-10834048D01*
X8805500Y-10834048D02*
X8815024Y-10843571D01*
X8815024Y-10843571D02*
X8824548Y-10862619D01*
X8824548Y-10862619D02*
X8824548Y-10872143D01*
X8824548Y-10872143D02*
X8815024Y-10891190D01*
X8815024Y-10891190D02*
X8805500Y-10900714D01*
X8805500Y-10900714D02*
X8786452Y-10910238D01*
X8786452Y-10910238D02*
X8748357Y-10910238D01*
X8748357Y-10910238D02*
X8729310Y-10919762D01*
X8729310Y-10919762D02*
X8719786Y-10929286D01*
X8719786Y-10929286D02*
X8710262Y-10948333D01*
X8710262Y-10948333D02*
X8710262Y-10986429D01*
X8710262Y-10986429D02*
X8719786Y-11005476D01*
X8719786Y-11005476D02*
X8729310Y-11015000D01*
X8729310Y-11015000D02*
X8748357Y-11024524D01*
X8748357Y-11024524D02*
X8786452Y-11024524D01*
X8786452Y-11024524D02*
X8805500Y-11015000D01*
X8805500Y-11015000D02*
X8815024Y-11005476D01*
X8815024Y-11005476D02*
X8824548Y-10986429D01*
X8824548Y-10986429D02*
X8824548Y-10948333D01*
X8824548Y-10948333D02*
X8815024Y-10929286D01*
X8815024Y-10929286D02*
X8805500Y-10919762D01*
X8805500Y-10919762D02*
X8786452Y-10910238D01*
X8910262Y-11024524D02*
X8910262Y-10891190D01*
X8910262Y-10910238D02*
X8919786Y-10900714D01*
X8919786Y-10900714D02*
X8938833Y-10891190D01*
X8938833Y-10891190D02*
X8967405Y-10891190D01*
X8967405Y-10891190D02*
X8986452Y-10900714D01*
X8986452Y-10900714D02*
X8995976Y-10919762D01*
X8995976Y-10919762D02*
X8995976Y-11024524D01*
X8995976Y-10919762D02*
X9005500Y-10900714D01*
X9005500Y-10900714D02*
X9024548Y-10891190D01*
X9024548Y-10891190D02*
X9053119Y-10891190D01*
X9053119Y-10891190D02*
X9072167Y-10900714D01*
X9072167Y-10900714D02*
X9081691Y-10919762D01*
X9081691Y-10919762D02*
X9081691Y-11024524D01*
X9176929Y-11024524D02*
X9176929Y-10891190D01*
X9176929Y-10910238D02*
X9186452Y-10900714D01*
X9186452Y-10900714D02*
X9205500Y-10891190D01*
X9205500Y-10891190D02*
X9234072Y-10891190D01*
X9234072Y-10891190D02*
X9253119Y-10900714D01*
X9253119Y-10900714D02*
X9262643Y-10919762D01*
X9262643Y-10919762D02*
X9262643Y-11024524D01*
X9262643Y-10919762D02*
X9272167Y-10900714D01*
X9272167Y-10900714D02*
X9291214Y-10891190D01*
X9291214Y-10891190D02*
X9319786Y-10891190D01*
X9319786Y-10891190D02*
X9338833Y-10900714D01*
X9338833Y-10900714D02*
X9348357Y-10919762D01*
X9348357Y-10919762D02*
X9348357Y-11024524D01*
X9738833Y-10815000D02*
X9567405Y-11072143D01*
X9995976Y-10824524D02*
X10015024Y-10824524D01*
X10015024Y-10824524D02*
X10034072Y-10834048D01*
X10034072Y-10834048D02*
X10043595Y-10843571D01*
X10043595Y-10843571D02*
X10053119Y-10862619D01*
X10053119Y-10862619D02*
X10062643Y-10900714D01*
X10062643Y-10900714D02*
X10062643Y-10948333D01*
X10062643Y-10948333D02*
X10053119Y-10986429D01*
X10053119Y-10986429D02*
X10043595Y-11005476D01*
X10043595Y-11005476D02*
X10034072Y-11015000D01*
X10034072Y-11015000D02*
X10015024Y-11024524D01*
X10015024Y-11024524D02*
X9995976Y-11024524D01*
X9995976Y-11024524D02*
X9976929Y-11015000D01*
X9976929Y-11015000D02*
X9967405Y-11005476D01*
X9967405Y-11005476D02*
X9957881Y-10986429D01*
X9957881Y-10986429D02*
X9948357Y-10948333D01*
X9948357Y-10948333D02*
X9948357Y-10900714D01*
X9948357Y-10900714D02*
X9957881Y-10862619D01*
X9957881Y-10862619D02*
X9967405Y-10843571D01*
X9967405Y-10843571D02*
X9976929Y-10834048D01*
X9976929Y-10834048D02*
X9995976Y-10824524D01*
X10148357Y-11005476D02*
X10157881Y-11015000D01*
X10157881Y-11015000D02*
X10148357Y-11024524D01*
X10148357Y-11024524D02*
X10138834Y-11015000D01*
X10138834Y-11015000D02*
X10148357Y-11005476D01*
X10148357Y-11005476D02*
X10148357Y-11024524D01*
X10281691Y-10824524D02*
X10300738Y-10824524D01*
X10300738Y-10824524D02*
X10319786Y-10834048D01*
X10319786Y-10834048D02*
X10329310Y-10843571D01*
X10329310Y-10843571D02*
X10338834Y-10862619D01*
X10338834Y-10862619D02*
X10348357Y-10900714D01*
X10348357Y-10900714D02*
X10348357Y-10948333D01*
X10348357Y-10948333D02*
X10338834Y-10986429D01*
X10338834Y-10986429D02*
X10329310Y-11005476D01*
X10329310Y-11005476D02*
X10319786Y-11015000D01*
X10319786Y-11015000D02*
X10300738Y-11024524D01*
X10300738Y-11024524D02*
X10281691Y-11024524D01*
X10281691Y-11024524D02*
X10262643Y-11015000D01*
X10262643Y-11015000D02*
X10253119Y-11005476D01*
X10253119Y-11005476D02*
X10243595Y-10986429D01*
X10243595Y-10986429D02*
X10234072Y-10948333D01*
X10234072Y-10948333D02*
X10234072Y-10900714D01*
X10234072Y-10900714D02*
X10243595Y-10862619D01*
X10243595Y-10862619D02*
X10253119Y-10843571D01*
X10253119Y-10843571D02*
X10262643Y-10834048D01*
X10262643Y-10834048D02*
X10281691Y-10824524D01*
X10424548Y-10843571D02*
X10434072Y-10834048D01*
X10434072Y-10834048D02*
X10453119Y-10824524D01*
X10453119Y-10824524D02*
X10500738Y-10824524D01*
X10500738Y-10824524D02*
X10519786Y-10834048D01*
X10519786Y-10834048D02*
X10529310Y-10843571D01*
X10529310Y-10843571D02*
X10538834Y-10862619D01*
X10538834Y-10862619D02*
X10538834Y-10881667D01*
X10538834Y-10881667D02*
X10529310Y-10910238D01*
X10529310Y-10910238D02*
X10415024Y-11024524D01*
X10415024Y-11024524D02*
X10538834Y-11024524D01*
X10662643Y-10824524D02*
X10681691Y-10824524D01*
X10681691Y-10824524D02*
X10700738Y-10834048D01*
X10700738Y-10834048D02*
X10710262Y-10843571D01*
X10710262Y-10843571D02*
X10719786Y-10862619D01*
X10719786Y-10862619D02*
X10729310Y-10900714D01*
X10729310Y-10900714D02*
X10729310Y-10948333D01*
X10729310Y-10948333D02*
X10719786Y-10986429D01*
X10719786Y-10986429D02*
X10710262Y-11005476D01*
X10710262Y-11005476D02*
X10700738Y-11015000D01*
X10700738Y-11015000D02*
X10681691Y-11024524D01*
X10681691Y-11024524D02*
X10662643Y-11024524D01*
X10662643Y-11024524D02*
X10643595Y-11015000D01*
X10643595Y-11015000D02*
X10634072Y-11005476D01*
X10634072Y-11005476D02*
X10624548Y-10986429D01*
X10624548Y-10986429D02*
X10615024Y-10948333D01*
X10615024Y-10948333D02*
X10615024Y-10900714D01*
X10615024Y-10900714D02*
X10624548Y-10862619D01*
X10624548Y-10862619D02*
X10634072Y-10843571D01*
X10634072Y-10843571D02*
X10643595Y-10834048D01*
X10643595Y-10834048D02*
X10662643Y-10824524D01*
X10853119Y-10824524D02*
X10872167Y-10824524D01*
X10872167Y-10824524D02*
X10891215Y-10834048D01*
X10891215Y-10834048D02*
X10900738Y-10843571D01*
X10900738Y-10843571D02*
X10910262Y-10862619D01*
X10910262Y-10862619D02*
X10919786Y-10900714D01*
X10919786Y-10900714D02*
X10919786Y-10948333D01*
X10919786Y-10948333D02*
X10910262Y-10986429D01*
X10910262Y-10986429D02*
X10900738Y-11005476D01*
X10900738Y-11005476D02*
X10891215Y-11015000D01*
X10891215Y-11015000D02*
X10872167Y-11024524D01*
X10872167Y-11024524D02*
X10853119Y-11024524D01*
X10853119Y-11024524D02*
X10834072Y-11015000D01*
X10834072Y-11015000D02*
X10824548Y-11005476D01*
X10824548Y-11005476D02*
X10815024Y-10986429D01*
X10815024Y-10986429D02*
X10805500Y-10948333D01*
X10805500Y-10948333D02*
X10805500Y-10900714D01*
X10805500Y-10900714D02*
X10815024Y-10862619D01*
X10815024Y-10862619D02*
X10824548Y-10843571D01*
X10824548Y-10843571D02*
X10834072Y-10834048D01*
X10834072Y-10834048D02*
X10853119Y-10824524D01*
X10995976Y-10824524D02*
X10995976Y-10862619D01*
X11072167Y-10824524D02*
X11072167Y-10862619D01*
X11367405Y-11100714D02*
X11357881Y-11091190D01*
X11357881Y-11091190D02*
X11338834Y-11062619D01*
X11338834Y-11062619D02*
X11329310Y-11043571D01*
X11329310Y-11043571D02*
X11319786Y-11015000D01*
X11319786Y-11015000D02*
X11310262Y-10967381D01*
X11310262Y-10967381D02*
X11310262Y-10929286D01*
X11310262Y-10929286D02*
X11319786Y-10881667D01*
X11319786Y-10881667D02*
X11329310Y-10853095D01*
X11329310Y-10853095D02*
X11338834Y-10834048D01*
X11338834Y-10834048D02*
X11357881Y-10805476D01*
X11357881Y-10805476D02*
X11367405Y-10795952D01*
X11434072Y-10843571D02*
X11443595Y-10834048D01*
X11443595Y-10834048D02*
X11462643Y-10824524D01*
X11462643Y-10824524D02*
X11510262Y-10824524D01*
X11510262Y-10824524D02*
X11529310Y-10834048D01*
X11529310Y-10834048D02*
X11538834Y-10843571D01*
X11538834Y-10843571D02*
X11548357Y-10862619D01*
X11548357Y-10862619D02*
X11548357Y-10881667D01*
X11548357Y-10881667D02*
X11538834Y-10910238D01*
X11538834Y-10910238D02*
X11424548Y-11024524D01*
X11424548Y-11024524D02*
X11548357Y-11024524D01*
X11624548Y-10843571D02*
X11634072Y-10834048D01*
X11634072Y-10834048D02*
X11653119Y-10824524D01*
X11653119Y-10824524D02*
X11700738Y-10824524D01*
X11700738Y-10824524D02*
X11719786Y-10834048D01*
X11719786Y-10834048D02*
X11729310Y-10843571D01*
X11729310Y-10843571D02*
X11738834Y-10862619D01*
X11738834Y-10862619D02*
X11738834Y-10881667D01*
X11738834Y-10881667D02*
X11729310Y-10910238D01*
X11729310Y-10910238D02*
X11615024Y-11024524D01*
X11615024Y-11024524D02*
X11738834Y-11024524D01*
X11976929Y-11024524D02*
X11976929Y-10824524D01*
X12062643Y-11024524D02*
X12062643Y-10919762D01*
X12062643Y-10919762D02*
X12053119Y-10900714D01*
X12053119Y-10900714D02*
X12034072Y-10891190D01*
X12034072Y-10891190D02*
X12005500Y-10891190D01*
X12005500Y-10891190D02*
X11986453Y-10900714D01*
X11986453Y-10900714D02*
X11976929Y-10910238D01*
X12186453Y-11024524D02*
X12167405Y-11015000D01*
X12167405Y-11015000D02*
X12157881Y-11005476D01*
X12157881Y-11005476D02*
X12148357Y-10986429D01*
X12148357Y-10986429D02*
X12148357Y-10929286D01*
X12148357Y-10929286D02*
X12157881Y-10910238D01*
X12157881Y-10910238D02*
X12167405Y-10900714D01*
X12167405Y-10900714D02*
X12186453Y-10891190D01*
X12186453Y-10891190D02*
X12215024Y-10891190D01*
X12215024Y-10891190D02*
X12234072Y-10900714D01*
X12234072Y-10900714D02*
X12243596Y-10910238D01*
X12243596Y-10910238D02*
X12253119Y-10929286D01*
X12253119Y-10929286D02*
X12253119Y-10986429D01*
X12253119Y-10986429D02*
X12243596Y-11005476D01*
X12243596Y-11005476D02*
X12234072Y-11015000D01*
X12234072Y-11015000D02*
X12215024Y-11024524D01*
X12215024Y-11024524D02*
X12186453Y-11024524D01*
X12367405Y-11024524D02*
X12348357Y-11015000D01*
X12348357Y-11015000D02*
X12338834Y-10995952D01*
X12338834Y-10995952D02*
X12338834Y-10824524D01*
X12519786Y-11015000D02*
X12500738Y-11024524D01*
X12500738Y-11024524D02*
X12462643Y-11024524D01*
X12462643Y-11024524D02*
X12443596Y-11015000D01*
X12443596Y-11015000D02*
X12434072Y-10995952D01*
X12434072Y-10995952D02*
X12434072Y-10919762D01*
X12434072Y-10919762D02*
X12443596Y-10900714D01*
X12443596Y-10900714D02*
X12462643Y-10891190D01*
X12462643Y-10891190D02*
X12500738Y-10891190D01*
X12500738Y-10891190D02*
X12519786Y-10900714D01*
X12519786Y-10900714D02*
X12529310Y-10919762D01*
X12529310Y-10919762D02*
X12529310Y-10938810D01*
X12529310Y-10938810D02*
X12434072Y-10957857D01*
X12605500Y-11015000D02*
X12624548Y-11024524D01*
X12624548Y-11024524D02*
X12662643Y-11024524D01*
X12662643Y-11024524D02*
X12681691Y-11015000D01*
X12681691Y-11015000D02*
X12691215Y-10995952D01*
X12691215Y-10995952D02*
X12691215Y-10986429D01*
X12691215Y-10986429D02*
X12681691Y-10967381D01*
X12681691Y-10967381D02*
X12662643Y-10957857D01*
X12662643Y-10957857D02*
X12634072Y-10957857D01*
X12634072Y-10957857D02*
X12615024Y-10948333D01*
X12615024Y-10948333D02*
X12605500Y-10929286D01*
X12605500Y-10929286D02*
X12605500Y-10919762D01*
X12605500Y-10919762D02*
X12615024Y-10900714D01*
X12615024Y-10900714D02*
X12634072Y-10891190D01*
X12634072Y-10891190D02*
X12662643Y-10891190D01*
X12662643Y-10891190D02*
X12681691Y-10900714D01*
X12757881Y-11100714D02*
X12767405Y-11091190D01*
X12767405Y-11091190D02*
X12786453Y-11062619D01*
X12786453Y-11062619D02*
X12795977Y-11043571D01*
X12795977Y-11043571D02*
X12805500Y-11015000D01*
X12805500Y-11015000D02*
X12815024Y-10967381D01*
X12815024Y-10967381D02*
X12815024Y-10929286D01*
X12815024Y-10929286D02*
X12805500Y-10881667D01*
X12805500Y-10881667D02*
X12795977Y-10853095D01*
X12795977Y-10853095D02*
X12786453Y-10834048D01*
X12786453Y-10834048D02*
X12767405Y-10805476D01*
X12767405Y-10805476D02*
X12757881Y-10795952D01*
D13*
X7805500Y-11196000D02*
G75*
G03*
X7805500Y-11196000I-40000J0D01*
G01*
D11*
X8091214Y-11088524D02*
X8110262Y-11088524D01*
X8110262Y-11088524D02*
X8129309Y-11098048D01*
X8129309Y-11098048D02*
X8138833Y-11107571D01*
X8138833Y-11107571D02*
X8148357Y-11126619D01*
X8148357Y-11126619D02*
X8157881Y-11164714D01*
X8157881Y-11164714D02*
X8157881Y-11212333D01*
X8157881Y-11212333D02*
X8148357Y-11250428D01*
X8148357Y-11250428D02*
X8138833Y-11269476D01*
X8138833Y-11269476D02*
X8129309Y-11279000D01*
X8129309Y-11279000D02*
X8110262Y-11288524D01*
X8110262Y-11288524D02*
X8091214Y-11288524D01*
X8091214Y-11288524D02*
X8072167Y-11279000D01*
X8072167Y-11279000D02*
X8062643Y-11269476D01*
X8062643Y-11269476D02*
X8053119Y-11250428D01*
X8053119Y-11250428D02*
X8043595Y-11212333D01*
X8043595Y-11212333D02*
X8043595Y-11164714D01*
X8043595Y-11164714D02*
X8053119Y-11126619D01*
X8053119Y-11126619D02*
X8062643Y-11107571D01*
X8062643Y-11107571D02*
X8072167Y-11098048D01*
X8072167Y-11098048D02*
X8091214Y-11088524D01*
X8243595Y-11269476D02*
X8253119Y-11279000D01*
X8253119Y-11279000D02*
X8243595Y-11288524D01*
X8243595Y-11288524D02*
X8234071Y-11279000D01*
X8234071Y-11279000D02*
X8243595Y-11269476D01*
X8243595Y-11269476D02*
X8243595Y-11288524D01*
X8367405Y-11174238D02*
X8348357Y-11164714D01*
X8348357Y-11164714D02*
X8338833Y-11155190D01*
X8338833Y-11155190D02*
X8329309Y-11136143D01*
X8329309Y-11136143D02*
X8329309Y-11126619D01*
X8329309Y-11126619D02*
X8338833Y-11107571D01*
X8338833Y-11107571D02*
X8348357Y-11098048D01*
X8348357Y-11098048D02*
X8367405Y-11088524D01*
X8367405Y-11088524D02*
X8405500Y-11088524D01*
X8405500Y-11088524D02*
X8424548Y-11098048D01*
X8424548Y-11098048D02*
X8434071Y-11107571D01*
X8434071Y-11107571D02*
X8443595Y-11126619D01*
X8443595Y-11126619D02*
X8443595Y-11136143D01*
X8443595Y-11136143D02*
X8434071Y-11155190D01*
X8434071Y-11155190D02*
X8424548Y-11164714D01*
X8424548Y-11164714D02*
X8405500Y-11174238D01*
X8405500Y-11174238D02*
X8367405Y-11174238D01*
X8367405Y-11174238D02*
X8348357Y-11183762D01*
X8348357Y-11183762D02*
X8338833Y-11193286D01*
X8338833Y-11193286D02*
X8329309Y-11212333D01*
X8329309Y-11212333D02*
X8329309Y-11250428D01*
X8329309Y-11250428D02*
X8338833Y-11269476D01*
X8338833Y-11269476D02*
X8348357Y-11279000D01*
X8348357Y-11279000D02*
X8367405Y-11288524D01*
X8367405Y-11288524D02*
X8405500Y-11288524D01*
X8405500Y-11288524D02*
X8424548Y-11279000D01*
X8424548Y-11279000D02*
X8434071Y-11269476D01*
X8434071Y-11269476D02*
X8443595Y-11250428D01*
X8443595Y-11250428D02*
X8443595Y-11212333D01*
X8443595Y-11212333D02*
X8434071Y-11193286D01*
X8434071Y-11193286D02*
X8424548Y-11183762D01*
X8424548Y-11183762D02*
X8405500Y-11174238D01*
X8567405Y-11088524D02*
X8586452Y-11088524D01*
X8586452Y-11088524D02*
X8605500Y-11098048D01*
X8605500Y-11098048D02*
X8615024Y-11107571D01*
X8615024Y-11107571D02*
X8624548Y-11126619D01*
X8624548Y-11126619D02*
X8634071Y-11164714D01*
X8634071Y-11164714D02*
X8634071Y-11212333D01*
X8634071Y-11212333D02*
X8624548Y-11250428D01*
X8624548Y-11250428D02*
X8615024Y-11269476D01*
X8615024Y-11269476D02*
X8605500Y-11279000D01*
X8605500Y-11279000D02*
X8586452Y-11288524D01*
X8586452Y-11288524D02*
X8567405Y-11288524D01*
X8567405Y-11288524D02*
X8548357Y-11279000D01*
X8548357Y-11279000D02*
X8538833Y-11269476D01*
X8538833Y-11269476D02*
X8529310Y-11250428D01*
X8529310Y-11250428D02*
X8519786Y-11212333D01*
X8519786Y-11212333D02*
X8519786Y-11164714D01*
X8519786Y-11164714D02*
X8529310Y-11126619D01*
X8529310Y-11126619D02*
X8538833Y-11107571D01*
X8538833Y-11107571D02*
X8548357Y-11098048D01*
X8548357Y-11098048D02*
X8567405Y-11088524D01*
X8757881Y-11088524D02*
X8776929Y-11088524D01*
X8776929Y-11088524D02*
X8795976Y-11098048D01*
X8795976Y-11098048D02*
X8805500Y-11107571D01*
X8805500Y-11107571D02*
X8815024Y-11126619D01*
X8815024Y-11126619D02*
X8824548Y-11164714D01*
X8824548Y-11164714D02*
X8824548Y-11212333D01*
X8824548Y-11212333D02*
X8815024Y-11250428D01*
X8815024Y-11250428D02*
X8805500Y-11269476D01*
X8805500Y-11269476D02*
X8795976Y-11279000D01*
X8795976Y-11279000D02*
X8776929Y-11288524D01*
X8776929Y-11288524D02*
X8757881Y-11288524D01*
X8757881Y-11288524D02*
X8738833Y-11279000D01*
X8738833Y-11279000D02*
X8729310Y-11269476D01*
X8729310Y-11269476D02*
X8719786Y-11250428D01*
X8719786Y-11250428D02*
X8710262Y-11212333D01*
X8710262Y-11212333D02*
X8710262Y-11164714D01*
X8710262Y-11164714D02*
X8719786Y-11126619D01*
X8719786Y-11126619D02*
X8729310Y-11107571D01*
X8729310Y-11107571D02*
X8738833Y-11098048D01*
X8738833Y-11098048D02*
X8757881Y-11088524D01*
X8910262Y-11288524D02*
X8910262Y-11155190D01*
X8910262Y-11174238D02*
X8919786Y-11164714D01*
X8919786Y-11164714D02*
X8938833Y-11155190D01*
X8938833Y-11155190D02*
X8967405Y-11155190D01*
X8967405Y-11155190D02*
X8986452Y-11164714D01*
X8986452Y-11164714D02*
X8995976Y-11183762D01*
X8995976Y-11183762D02*
X8995976Y-11288524D01*
X8995976Y-11183762D02*
X9005500Y-11164714D01*
X9005500Y-11164714D02*
X9024548Y-11155190D01*
X9024548Y-11155190D02*
X9053119Y-11155190D01*
X9053119Y-11155190D02*
X9072167Y-11164714D01*
X9072167Y-11164714D02*
X9081691Y-11183762D01*
X9081691Y-11183762D02*
X9081691Y-11288524D01*
X9176929Y-11288524D02*
X9176929Y-11155190D01*
X9176929Y-11174238D02*
X9186452Y-11164714D01*
X9186452Y-11164714D02*
X9205500Y-11155190D01*
X9205500Y-11155190D02*
X9234072Y-11155190D01*
X9234072Y-11155190D02*
X9253119Y-11164714D01*
X9253119Y-11164714D02*
X9262643Y-11183762D01*
X9262643Y-11183762D02*
X9262643Y-11288524D01*
X9262643Y-11183762D02*
X9272167Y-11164714D01*
X9272167Y-11164714D02*
X9291214Y-11155190D01*
X9291214Y-11155190D02*
X9319786Y-11155190D01*
X9319786Y-11155190D02*
X9338833Y-11164714D01*
X9338833Y-11164714D02*
X9348357Y-11183762D01*
X9348357Y-11183762D02*
X9348357Y-11288524D01*
X9738833Y-11079000D02*
X9567405Y-11336143D01*
X9995976Y-11088524D02*
X10015024Y-11088524D01*
X10015024Y-11088524D02*
X10034072Y-11098048D01*
X10034072Y-11098048D02*
X10043595Y-11107571D01*
X10043595Y-11107571D02*
X10053119Y-11126619D01*
X10053119Y-11126619D02*
X10062643Y-11164714D01*
X10062643Y-11164714D02*
X10062643Y-11212333D01*
X10062643Y-11212333D02*
X10053119Y-11250428D01*
X10053119Y-11250428D02*
X10043595Y-11269476D01*
X10043595Y-11269476D02*
X10034072Y-11279000D01*
X10034072Y-11279000D02*
X10015024Y-11288524D01*
X10015024Y-11288524D02*
X9995976Y-11288524D01*
X9995976Y-11288524D02*
X9976929Y-11279000D01*
X9976929Y-11279000D02*
X9967405Y-11269476D01*
X9967405Y-11269476D02*
X9957881Y-11250428D01*
X9957881Y-11250428D02*
X9948357Y-11212333D01*
X9948357Y-11212333D02*
X9948357Y-11164714D01*
X9948357Y-11164714D02*
X9957881Y-11126619D01*
X9957881Y-11126619D02*
X9967405Y-11107571D01*
X9967405Y-11107571D02*
X9976929Y-11098048D01*
X9976929Y-11098048D02*
X9995976Y-11088524D01*
X10148357Y-11269476D02*
X10157881Y-11279000D01*
X10157881Y-11279000D02*
X10148357Y-11288524D01*
X10148357Y-11288524D02*
X10138834Y-11279000D01*
X10138834Y-11279000D02*
X10148357Y-11269476D01*
X10148357Y-11269476D02*
X10148357Y-11288524D01*
X10281691Y-11088524D02*
X10300738Y-11088524D01*
X10300738Y-11088524D02*
X10319786Y-11098048D01*
X10319786Y-11098048D02*
X10329310Y-11107571D01*
X10329310Y-11107571D02*
X10338834Y-11126619D01*
X10338834Y-11126619D02*
X10348357Y-11164714D01*
X10348357Y-11164714D02*
X10348357Y-11212333D01*
X10348357Y-11212333D02*
X10338834Y-11250428D01*
X10338834Y-11250428D02*
X10329310Y-11269476D01*
X10329310Y-11269476D02*
X10319786Y-11279000D01*
X10319786Y-11279000D02*
X10300738Y-11288524D01*
X10300738Y-11288524D02*
X10281691Y-11288524D01*
X10281691Y-11288524D02*
X10262643Y-11279000D01*
X10262643Y-11279000D02*
X10253119Y-11269476D01*
X10253119Y-11269476D02*
X10243595Y-11250428D01*
X10243595Y-11250428D02*
X10234072Y-11212333D01*
X10234072Y-11212333D02*
X10234072Y-11164714D01*
X10234072Y-11164714D02*
X10243595Y-11126619D01*
X10243595Y-11126619D02*
X10253119Y-11107571D01*
X10253119Y-11107571D02*
X10262643Y-11098048D01*
X10262643Y-11098048D02*
X10281691Y-11088524D01*
X10415024Y-11088524D02*
X10538834Y-11088524D01*
X10538834Y-11088524D02*
X10472167Y-11164714D01*
X10472167Y-11164714D02*
X10500738Y-11164714D01*
X10500738Y-11164714D02*
X10519786Y-11174238D01*
X10519786Y-11174238D02*
X10529310Y-11183762D01*
X10529310Y-11183762D02*
X10538834Y-11202809D01*
X10538834Y-11202809D02*
X10538834Y-11250428D01*
X10538834Y-11250428D02*
X10529310Y-11269476D01*
X10529310Y-11269476D02*
X10519786Y-11279000D01*
X10519786Y-11279000D02*
X10500738Y-11288524D01*
X10500738Y-11288524D02*
X10443595Y-11288524D01*
X10443595Y-11288524D02*
X10424548Y-11279000D01*
X10424548Y-11279000D02*
X10415024Y-11269476D01*
X10729310Y-11288524D02*
X10615024Y-11288524D01*
X10672167Y-11288524D02*
X10672167Y-11088524D01*
X10672167Y-11088524D02*
X10653119Y-11117095D01*
X10653119Y-11117095D02*
X10634072Y-11136143D01*
X10634072Y-11136143D02*
X10615024Y-11145667D01*
X10910262Y-11088524D02*
X10815024Y-11088524D01*
X10815024Y-11088524D02*
X10805500Y-11183762D01*
X10805500Y-11183762D02*
X10815024Y-11174238D01*
X10815024Y-11174238D02*
X10834072Y-11164714D01*
X10834072Y-11164714D02*
X10881691Y-11164714D01*
X10881691Y-11164714D02*
X10900738Y-11174238D01*
X10900738Y-11174238D02*
X10910262Y-11183762D01*
X10910262Y-11183762D02*
X10919786Y-11202809D01*
X10919786Y-11202809D02*
X10919786Y-11250428D01*
X10919786Y-11250428D02*
X10910262Y-11269476D01*
X10910262Y-11269476D02*
X10900738Y-11279000D01*
X10900738Y-11279000D02*
X10881691Y-11288524D01*
X10881691Y-11288524D02*
X10834072Y-11288524D01*
X10834072Y-11288524D02*
X10815024Y-11279000D01*
X10815024Y-11279000D02*
X10805500Y-11269476D01*
X10995976Y-11088524D02*
X10995976Y-11126619D01*
X11072167Y-11088524D02*
X11072167Y-11126619D01*
X11367405Y-11364714D02*
X11357881Y-11355190D01*
X11357881Y-11355190D02*
X11338834Y-11326619D01*
X11338834Y-11326619D02*
X11329310Y-11307571D01*
X11329310Y-11307571D02*
X11319786Y-11279000D01*
X11319786Y-11279000D02*
X11310262Y-11231381D01*
X11310262Y-11231381D02*
X11310262Y-11193286D01*
X11310262Y-11193286D02*
X11319786Y-11145667D01*
X11319786Y-11145667D02*
X11329310Y-11117095D01*
X11329310Y-11117095D02*
X11338834Y-11098048D01*
X11338834Y-11098048D02*
X11357881Y-11069476D01*
X11357881Y-11069476D02*
X11367405Y-11059952D01*
X11434072Y-11107571D02*
X11443595Y-11098048D01*
X11443595Y-11098048D02*
X11462643Y-11088524D01*
X11462643Y-11088524D02*
X11510262Y-11088524D01*
X11510262Y-11088524D02*
X11529310Y-11098048D01*
X11529310Y-11098048D02*
X11538834Y-11107571D01*
X11538834Y-11107571D02*
X11548357Y-11126619D01*
X11548357Y-11126619D02*
X11548357Y-11145667D01*
X11548357Y-11145667D02*
X11538834Y-11174238D01*
X11538834Y-11174238D02*
X11424548Y-11288524D01*
X11424548Y-11288524D02*
X11548357Y-11288524D01*
X11719786Y-11155190D02*
X11719786Y-11288524D01*
X11672167Y-11079000D02*
X11624548Y-11221857D01*
X11624548Y-11221857D02*
X11748357Y-11221857D01*
X11910262Y-11088524D02*
X11872167Y-11088524D01*
X11872167Y-11088524D02*
X11853119Y-11098048D01*
X11853119Y-11098048D02*
X11843595Y-11107571D01*
X11843595Y-11107571D02*
X11824548Y-11136143D01*
X11824548Y-11136143D02*
X11815024Y-11174238D01*
X11815024Y-11174238D02*
X11815024Y-11250428D01*
X11815024Y-11250428D02*
X11824548Y-11269476D01*
X11824548Y-11269476D02*
X11834072Y-11279000D01*
X11834072Y-11279000D02*
X11853119Y-11288524D01*
X11853119Y-11288524D02*
X11891215Y-11288524D01*
X11891215Y-11288524D02*
X11910262Y-11279000D01*
X11910262Y-11279000D02*
X11919786Y-11269476D01*
X11919786Y-11269476D02*
X11929310Y-11250428D01*
X11929310Y-11250428D02*
X11929310Y-11202809D01*
X11929310Y-11202809D02*
X11919786Y-11183762D01*
X11919786Y-11183762D02*
X11910262Y-11174238D01*
X11910262Y-11174238D02*
X11891215Y-11164714D01*
X11891215Y-11164714D02*
X11853119Y-11164714D01*
X11853119Y-11164714D02*
X11834072Y-11174238D01*
X11834072Y-11174238D02*
X11824548Y-11183762D01*
X11824548Y-11183762D02*
X11815024Y-11202809D01*
X12167405Y-11288524D02*
X12167405Y-11088524D01*
X12253119Y-11288524D02*
X12253119Y-11183762D01*
X12253119Y-11183762D02*
X12243596Y-11164714D01*
X12243596Y-11164714D02*
X12224548Y-11155190D01*
X12224548Y-11155190D02*
X12195976Y-11155190D01*
X12195976Y-11155190D02*
X12176929Y-11164714D01*
X12176929Y-11164714D02*
X12167405Y-11174238D01*
X12376929Y-11288524D02*
X12357881Y-11279000D01*
X12357881Y-11279000D02*
X12348357Y-11269476D01*
X12348357Y-11269476D02*
X12338834Y-11250428D01*
X12338834Y-11250428D02*
X12338834Y-11193286D01*
X12338834Y-11193286D02*
X12348357Y-11174238D01*
X12348357Y-11174238D02*
X12357881Y-11164714D01*
X12357881Y-11164714D02*
X12376929Y-11155190D01*
X12376929Y-11155190D02*
X12405500Y-11155190D01*
X12405500Y-11155190D02*
X12424548Y-11164714D01*
X12424548Y-11164714D02*
X12434072Y-11174238D01*
X12434072Y-11174238D02*
X12443596Y-11193286D01*
X12443596Y-11193286D02*
X12443596Y-11250428D01*
X12443596Y-11250428D02*
X12434072Y-11269476D01*
X12434072Y-11269476D02*
X12424548Y-11279000D01*
X12424548Y-11279000D02*
X12405500Y-11288524D01*
X12405500Y-11288524D02*
X12376929Y-11288524D01*
X12557881Y-11288524D02*
X12538834Y-11279000D01*
X12538834Y-11279000D02*
X12529310Y-11259952D01*
X12529310Y-11259952D02*
X12529310Y-11088524D01*
X12710262Y-11279000D02*
X12691215Y-11288524D01*
X12691215Y-11288524D02*
X12653119Y-11288524D01*
X12653119Y-11288524D02*
X12634072Y-11279000D01*
X12634072Y-11279000D02*
X12624548Y-11259952D01*
X12624548Y-11259952D02*
X12624548Y-11183762D01*
X12624548Y-11183762D02*
X12634072Y-11164714D01*
X12634072Y-11164714D02*
X12653119Y-11155190D01*
X12653119Y-11155190D02*
X12691215Y-11155190D01*
X12691215Y-11155190D02*
X12710262Y-11164714D01*
X12710262Y-11164714D02*
X12719786Y-11183762D01*
X12719786Y-11183762D02*
X12719786Y-11202809D01*
X12719786Y-11202809D02*
X12624548Y-11221857D01*
X12795977Y-11279000D02*
X12815024Y-11288524D01*
X12815024Y-11288524D02*
X12853119Y-11288524D01*
X12853119Y-11288524D02*
X12872167Y-11279000D01*
X12872167Y-11279000D02*
X12881691Y-11259952D01*
X12881691Y-11259952D02*
X12881691Y-11250428D01*
X12881691Y-11250428D02*
X12872167Y-11231381D01*
X12872167Y-11231381D02*
X12853119Y-11221857D01*
X12853119Y-11221857D02*
X12824548Y-11221857D01*
X12824548Y-11221857D02*
X12805500Y-11212333D01*
X12805500Y-11212333D02*
X12795977Y-11193286D01*
X12795977Y-11193286D02*
X12795977Y-11183762D01*
X12795977Y-11183762D02*
X12805500Y-11164714D01*
X12805500Y-11164714D02*
X12824548Y-11155190D01*
X12824548Y-11155190D02*
X12853119Y-11155190D01*
X12853119Y-11155190D02*
X12872167Y-11164714D01*
X12948358Y-11364714D02*
X12957881Y-11355190D01*
X12957881Y-11355190D02*
X12976929Y-11326619D01*
X12976929Y-11326619D02*
X12986453Y-11307571D01*
X12986453Y-11307571D02*
X12995977Y-11279000D01*
X12995977Y-11279000D02*
X13005500Y-11231381D01*
X13005500Y-11231381D02*
X13005500Y-11193286D01*
X13005500Y-11193286D02*
X12995977Y-11145667D01*
X12995977Y-11145667D02*
X12986453Y-11117095D01*
X12986453Y-11117095D02*
X12976929Y-11098048D01*
X12976929Y-11098048D02*
X12957881Y-11069476D01*
X12957881Y-11069476D02*
X12948358Y-11059952D01*
D14*
X7760500Y-11415000D02*
X7760500Y-11505000D01*
X7715500Y-11460000D02*
X7805500Y-11460000D01*
D11*
X8091214Y-11352524D02*
X8110262Y-11352524D01*
X8110262Y-11352524D02*
X8129309Y-11362048D01*
X8129309Y-11362048D02*
X8138833Y-11371571D01*
X8138833Y-11371571D02*
X8148357Y-11390619D01*
X8148357Y-11390619D02*
X8157881Y-11428714D01*
X8157881Y-11428714D02*
X8157881Y-11476333D01*
X8157881Y-11476333D02*
X8148357Y-11514428D01*
X8148357Y-11514428D02*
X8138833Y-11533476D01*
X8138833Y-11533476D02*
X8129309Y-11543000D01*
X8129309Y-11543000D02*
X8110262Y-11552524D01*
X8110262Y-11552524D02*
X8091214Y-11552524D01*
X8091214Y-11552524D02*
X8072167Y-11543000D01*
X8072167Y-11543000D02*
X8062643Y-11533476D01*
X8062643Y-11533476D02*
X8053119Y-11514428D01*
X8053119Y-11514428D02*
X8043595Y-11476333D01*
X8043595Y-11476333D02*
X8043595Y-11428714D01*
X8043595Y-11428714D02*
X8053119Y-11390619D01*
X8053119Y-11390619D02*
X8062643Y-11371571D01*
X8062643Y-11371571D02*
X8072167Y-11362048D01*
X8072167Y-11362048D02*
X8091214Y-11352524D01*
X8243595Y-11533476D02*
X8253119Y-11543000D01*
X8253119Y-11543000D02*
X8243595Y-11552524D01*
X8243595Y-11552524D02*
X8234071Y-11543000D01*
X8234071Y-11543000D02*
X8243595Y-11533476D01*
X8243595Y-11533476D02*
X8243595Y-11552524D01*
X8348357Y-11552524D02*
X8386452Y-11552524D01*
X8386452Y-11552524D02*
X8405500Y-11543000D01*
X8405500Y-11543000D02*
X8415024Y-11533476D01*
X8415024Y-11533476D02*
X8434071Y-11504905D01*
X8434071Y-11504905D02*
X8443595Y-11466809D01*
X8443595Y-11466809D02*
X8443595Y-11390619D01*
X8443595Y-11390619D02*
X8434071Y-11371571D01*
X8434071Y-11371571D02*
X8424548Y-11362048D01*
X8424548Y-11362048D02*
X8405500Y-11352524D01*
X8405500Y-11352524D02*
X8367405Y-11352524D01*
X8367405Y-11352524D02*
X8348357Y-11362048D01*
X8348357Y-11362048D02*
X8338833Y-11371571D01*
X8338833Y-11371571D02*
X8329309Y-11390619D01*
X8329309Y-11390619D02*
X8329309Y-11438238D01*
X8329309Y-11438238D02*
X8338833Y-11457286D01*
X8338833Y-11457286D02*
X8348357Y-11466809D01*
X8348357Y-11466809D02*
X8367405Y-11476333D01*
X8367405Y-11476333D02*
X8405500Y-11476333D01*
X8405500Y-11476333D02*
X8424548Y-11466809D01*
X8424548Y-11466809D02*
X8434071Y-11457286D01*
X8434071Y-11457286D02*
X8443595Y-11438238D01*
X8567405Y-11352524D02*
X8586452Y-11352524D01*
X8586452Y-11352524D02*
X8605500Y-11362048D01*
X8605500Y-11362048D02*
X8615024Y-11371571D01*
X8615024Y-11371571D02*
X8624548Y-11390619D01*
X8624548Y-11390619D02*
X8634071Y-11428714D01*
X8634071Y-11428714D02*
X8634071Y-11476333D01*
X8634071Y-11476333D02*
X8624548Y-11514428D01*
X8624548Y-11514428D02*
X8615024Y-11533476D01*
X8615024Y-11533476D02*
X8605500Y-11543000D01*
X8605500Y-11543000D02*
X8586452Y-11552524D01*
X8586452Y-11552524D02*
X8567405Y-11552524D01*
X8567405Y-11552524D02*
X8548357Y-11543000D01*
X8548357Y-11543000D02*
X8538833Y-11533476D01*
X8538833Y-11533476D02*
X8529310Y-11514428D01*
X8529310Y-11514428D02*
X8519786Y-11476333D01*
X8519786Y-11476333D02*
X8519786Y-11428714D01*
X8519786Y-11428714D02*
X8529310Y-11390619D01*
X8529310Y-11390619D02*
X8538833Y-11371571D01*
X8538833Y-11371571D02*
X8548357Y-11362048D01*
X8548357Y-11362048D02*
X8567405Y-11352524D01*
X8757881Y-11352524D02*
X8776929Y-11352524D01*
X8776929Y-11352524D02*
X8795976Y-11362048D01*
X8795976Y-11362048D02*
X8805500Y-11371571D01*
X8805500Y-11371571D02*
X8815024Y-11390619D01*
X8815024Y-11390619D02*
X8824548Y-11428714D01*
X8824548Y-11428714D02*
X8824548Y-11476333D01*
X8824548Y-11476333D02*
X8815024Y-11514428D01*
X8815024Y-11514428D02*
X8805500Y-11533476D01*
X8805500Y-11533476D02*
X8795976Y-11543000D01*
X8795976Y-11543000D02*
X8776929Y-11552524D01*
X8776929Y-11552524D02*
X8757881Y-11552524D01*
X8757881Y-11552524D02*
X8738833Y-11543000D01*
X8738833Y-11543000D02*
X8729310Y-11533476D01*
X8729310Y-11533476D02*
X8719786Y-11514428D01*
X8719786Y-11514428D02*
X8710262Y-11476333D01*
X8710262Y-11476333D02*
X8710262Y-11428714D01*
X8710262Y-11428714D02*
X8719786Y-11390619D01*
X8719786Y-11390619D02*
X8729310Y-11371571D01*
X8729310Y-11371571D02*
X8738833Y-11362048D01*
X8738833Y-11362048D02*
X8757881Y-11352524D01*
X8910262Y-11552524D02*
X8910262Y-11419190D01*
X8910262Y-11438238D02*
X8919786Y-11428714D01*
X8919786Y-11428714D02*
X8938833Y-11419190D01*
X8938833Y-11419190D02*
X8967405Y-11419190D01*
X8967405Y-11419190D02*
X8986452Y-11428714D01*
X8986452Y-11428714D02*
X8995976Y-11447762D01*
X8995976Y-11447762D02*
X8995976Y-11552524D01*
X8995976Y-11447762D02*
X9005500Y-11428714D01*
X9005500Y-11428714D02*
X9024548Y-11419190D01*
X9024548Y-11419190D02*
X9053119Y-11419190D01*
X9053119Y-11419190D02*
X9072167Y-11428714D01*
X9072167Y-11428714D02*
X9081691Y-11447762D01*
X9081691Y-11447762D02*
X9081691Y-11552524D01*
X9176929Y-11552524D02*
X9176929Y-11419190D01*
X9176929Y-11438238D02*
X9186452Y-11428714D01*
X9186452Y-11428714D02*
X9205500Y-11419190D01*
X9205500Y-11419190D02*
X9234072Y-11419190D01*
X9234072Y-11419190D02*
X9253119Y-11428714D01*
X9253119Y-11428714D02*
X9262643Y-11447762D01*
X9262643Y-11447762D02*
X9262643Y-11552524D01*
X9262643Y-11447762D02*
X9272167Y-11428714D01*
X9272167Y-11428714D02*
X9291214Y-11419190D01*
X9291214Y-11419190D02*
X9319786Y-11419190D01*
X9319786Y-11419190D02*
X9338833Y-11428714D01*
X9338833Y-11428714D02*
X9348357Y-11447762D01*
X9348357Y-11447762D02*
X9348357Y-11552524D01*
X9738833Y-11343000D02*
X9567405Y-11600143D01*
X9995976Y-11352524D02*
X10015024Y-11352524D01*
X10015024Y-11352524D02*
X10034072Y-11362048D01*
X10034072Y-11362048D02*
X10043595Y-11371571D01*
X10043595Y-11371571D02*
X10053119Y-11390619D01*
X10053119Y-11390619D02*
X10062643Y-11428714D01*
X10062643Y-11428714D02*
X10062643Y-11476333D01*
X10062643Y-11476333D02*
X10053119Y-11514428D01*
X10053119Y-11514428D02*
X10043595Y-11533476D01*
X10043595Y-11533476D02*
X10034072Y-11543000D01*
X10034072Y-11543000D02*
X10015024Y-11552524D01*
X10015024Y-11552524D02*
X9995976Y-11552524D01*
X9995976Y-11552524D02*
X9976929Y-11543000D01*
X9976929Y-11543000D02*
X9967405Y-11533476D01*
X9967405Y-11533476D02*
X9957881Y-11514428D01*
X9957881Y-11514428D02*
X9948357Y-11476333D01*
X9948357Y-11476333D02*
X9948357Y-11428714D01*
X9948357Y-11428714D02*
X9957881Y-11390619D01*
X9957881Y-11390619D02*
X9967405Y-11371571D01*
X9967405Y-11371571D02*
X9976929Y-11362048D01*
X9976929Y-11362048D02*
X9995976Y-11352524D01*
X10148357Y-11533476D02*
X10157881Y-11543000D01*
X10157881Y-11543000D02*
X10148357Y-11552524D01*
X10148357Y-11552524D02*
X10138834Y-11543000D01*
X10138834Y-11543000D02*
X10148357Y-11533476D01*
X10148357Y-11533476D02*
X10148357Y-11552524D01*
X10281691Y-11352524D02*
X10300738Y-11352524D01*
X10300738Y-11352524D02*
X10319786Y-11362048D01*
X10319786Y-11362048D02*
X10329310Y-11371571D01*
X10329310Y-11371571D02*
X10338834Y-11390619D01*
X10338834Y-11390619D02*
X10348357Y-11428714D01*
X10348357Y-11428714D02*
X10348357Y-11476333D01*
X10348357Y-11476333D02*
X10338834Y-11514428D01*
X10338834Y-11514428D02*
X10329310Y-11533476D01*
X10329310Y-11533476D02*
X10319786Y-11543000D01*
X10319786Y-11543000D02*
X10300738Y-11552524D01*
X10300738Y-11552524D02*
X10281691Y-11552524D01*
X10281691Y-11552524D02*
X10262643Y-11543000D01*
X10262643Y-11543000D02*
X10253119Y-11533476D01*
X10253119Y-11533476D02*
X10243595Y-11514428D01*
X10243595Y-11514428D02*
X10234072Y-11476333D01*
X10234072Y-11476333D02*
X10234072Y-11428714D01*
X10234072Y-11428714D02*
X10243595Y-11390619D01*
X10243595Y-11390619D02*
X10253119Y-11371571D01*
X10253119Y-11371571D02*
X10262643Y-11362048D01*
X10262643Y-11362048D02*
X10281691Y-11352524D01*
X10415024Y-11352524D02*
X10538834Y-11352524D01*
X10538834Y-11352524D02*
X10472167Y-11428714D01*
X10472167Y-11428714D02*
X10500738Y-11428714D01*
X10500738Y-11428714D02*
X10519786Y-11438238D01*
X10519786Y-11438238D02*
X10529310Y-11447762D01*
X10529310Y-11447762D02*
X10538834Y-11466809D01*
X10538834Y-11466809D02*
X10538834Y-11514428D01*
X10538834Y-11514428D02*
X10529310Y-11533476D01*
X10529310Y-11533476D02*
X10519786Y-11543000D01*
X10519786Y-11543000D02*
X10500738Y-11552524D01*
X10500738Y-11552524D02*
X10443595Y-11552524D01*
X10443595Y-11552524D02*
X10424548Y-11543000D01*
X10424548Y-11543000D02*
X10415024Y-11533476D01*
X10719786Y-11352524D02*
X10624548Y-11352524D01*
X10624548Y-11352524D02*
X10615024Y-11447762D01*
X10615024Y-11447762D02*
X10624548Y-11438238D01*
X10624548Y-11438238D02*
X10643595Y-11428714D01*
X10643595Y-11428714D02*
X10691215Y-11428714D01*
X10691215Y-11428714D02*
X10710262Y-11438238D01*
X10710262Y-11438238D02*
X10719786Y-11447762D01*
X10719786Y-11447762D02*
X10729310Y-11466809D01*
X10729310Y-11466809D02*
X10729310Y-11514428D01*
X10729310Y-11514428D02*
X10719786Y-11533476D01*
X10719786Y-11533476D02*
X10710262Y-11543000D01*
X10710262Y-11543000D02*
X10691215Y-11552524D01*
X10691215Y-11552524D02*
X10643595Y-11552524D01*
X10643595Y-11552524D02*
X10624548Y-11543000D01*
X10624548Y-11543000D02*
X10615024Y-11533476D01*
X10900738Y-11419190D02*
X10900738Y-11552524D01*
X10853119Y-11343000D02*
X10805500Y-11485857D01*
X10805500Y-11485857D02*
X10929310Y-11485857D01*
X10995976Y-11352524D02*
X10995976Y-11390619D01*
X11072167Y-11352524D02*
X11072167Y-11390619D01*
X11367405Y-11628714D02*
X11357881Y-11619190D01*
X11357881Y-11619190D02*
X11338834Y-11590619D01*
X11338834Y-11590619D02*
X11329310Y-11571571D01*
X11329310Y-11571571D02*
X11319786Y-11543000D01*
X11319786Y-11543000D02*
X11310262Y-11495381D01*
X11310262Y-11495381D02*
X11310262Y-11457286D01*
X11310262Y-11457286D02*
X11319786Y-11409667D01*
X11319786Y-11409667D02*
X11329310Y-11381095D01*
X11329310Y-11381095D02*
X11338834Y-11362048D01*
X11338834Y-11362048D02*
X11357881Y-11333476D01*
X11357881Y-11333476D02*
X11367405Y-11323952D01*
X11472167Y-11438238D02*
X11453119Y-11428714D01*
X11453119Y-11428714D02*
X11443595Y-11419190D01*
X11443595Y-11419190D02*
X11434072Y-11400143D01*
X11434072Y-11400143D02*
X11434072Y-11390619D01*
X11434072Y-11390619D02*
X11443595Y-11371571D01*
X11443595Y-11371571D02*
X11453119Y-11362048D01*
X11453119Y-11362048D02*
X11472167Y-11352524D01*
X11472167Y-11352524D02*
X11510262Y-11352524D01*
X11510262Y-11352524D02*
X11529310Y-11362048D01*
X11529310Y-11362048D02*
X11538834Y-11371571D01*
X11538834Y-11371571D02*
X11548357Y-11390619D01*
X11548357Y-11390619D02*
X11548357Y-11400143D01*
X11548357Y-11400143D02*
X11538834Y-11419190D01*
X11538834Y-11419190D02*
X11529310Y-11428714D01*
X11529310Y-11428714D02*
X11510262Y-11438238D01*
X11510262Y-11438238D02*
X11472167Y-11438238D01*
X11472167Y-11438238D02*
X11453119Y-11447762D01*
X11453119Y-11447762D02*
X11443595Y-11457286D01*
X11443595Y-11457286D02*
X11434072Y-11476333D01*
X11434072Y-11476333D02*
X11434072Y-11514428D01*
X11434072Y-11514428D02*
X11443595Y-11533476D01*
X11443595Y-11533476D02*
X11453119Y-11543000D01*
X11453119Y-11543000D02*
X11472167Y-11552524D01*
X11472167Y-11552524D02*
X11510262Y-11552524D01*
X11510262Y-11552524D02*
X11529310Y-11543000D01*
X11529310Y-11543000D02*
X11538834Y-11533476D01*
X11538834Y-11533476D02*
X11548357Y-11514428D01*
X11548357Y-11514428D02*
X11548357Y-11476333D01*
X11548357Y-11476333D02*
X11538834Y-11457286D01*
X11538834Y-11457286D02*
X11529310Y-11447762D01*
X11529310Y-11447762D02*
X11510262Y-11438238D01*
X11786453Y-11552524D02*
X11786453Y-11352524D01*
X11872167Y-11552524D02*
X11872167Y-11447762D01*
X11872167Y-11447762D02*
X11862643Y-11428714D01*
X11862643Y-11428714D02*
X11843596Y-11419190D01*
X11843596Y-11419190D02*
X11815024Y-11419190D01*
X11815024Y-11419190D02*
X11795976Y-11428714D01*
X11795976Y-11428714D02*
X11786453Y-11438238D01*
X11995976Y-11552524D02*
X11976929Y-11543000D01*
X11976929Y-11543000D02*
X11967405Y-11533476D01*
X11967405Y-11533476D02*
X11957881Y-11514428D01*
X11957881Y-11514428D02*
X11957881Y-11457286D01*
X11957881Y-11457286D02*
X11967405Y-11438238D01*
X11967405Y-11438238D02*
X11976929Y-11428714D01*
X11976929Y-11428714D02*
X11995976Y-11419190D01*
X11995976Y-11419190D02*
X12024548Y-11419190D01*
X12024548Y-11419190D02*
X12043596Y-11428714D01*
X12043596Y-11428714D02*
X12053119Y-11438238D01*
X12053119Y-11438238D02*
X12062643Y-11457286D01*
X12062643Y-11457286D02*
X12062643Y-11514428D01*
X12062643Y-11514428D02*
X12053119Y-11533476D01*
X12053119Y-11533476D02*
X12043596Y-11543000D01*
X12043596Y-11543000D02*
X12024548Y-11552524D01*
X12024548Y-11552524D02*
X11995976Y-11552524D01*
X12176929Y-11552524D02*
X12157881Y-11543000D01*
X12157881Y-11543000D02*
X12148357Y-11523952D01*
X12148357Y-11523952D02*
X12148357Y-11352524D01*
X12329310Y-11543000D02*
X12310262Y-11552524D01*
X12310262Y-11552524D02*
X12272167Y-11552524D01*
X12272167Y-11552524D02*
X12253119Y-11543000D01*
X12253119Y-11543000D02*
X12243596Y-11523952D01*
X12243596Y-11523952D02*
X12243596Y-11447762D01*
X12243596Y-11447762D02*
X12253119Y-11428714D01*
X12253119Y-11428714D02*
X12272167Y-11419190D01*
X12272167Y-11419190D02*
X12310262Y-11419190D01*
X12310262Y-11419190D02*
X12329310Y-11428714D01*
X12329310Y-11428714D02*
X12338834Y-11447762D01*
X12338834Y-11447762D02*
X12338834Y-11466809D01*
X12338834Y-11466809D02*
X12243596Y-11485857D01*
X12415024Y-11543000D02*
X12434072Y-11552524D01*
X12434072Y-11552524D02*
X12472167Y-11552524D01*
X12472167Y-11552524D02*
X12491215Y-11543000D01*
X12491215Y-11543000D02*
X12500738Y-11523952D01*
X12500738Y-11523952D02*
X12500738Y-11514428D01*
X12500738Y-11514428D02*
X12491215Y-11495381D01*
X12491215Y-11495381D02*
X12472167Y-11485857D01*
X12472167Y-11485857D02*
X12443596Y-11485857D01*
X12443596Y-11485857D02*
X12424548Y-11476333D01*
X12424548Y-11476333D02*
X12415024Y-11457286D01*
X12415024Y-11457286D02*
X12415024Y-11447762D01*
X12415024Y-11447762D02*
X12424548Y-11428714D01*
X12424548Y-11428714D02*
X12443596Y-11419190D01*
X12443596Y-11419190D02*
X12472167Y-11419190D01*
X12472167Y-11419190D02*
X12491215Y-11428714D01*
X12567405Y-11628714D02*
X12576929Y-11619190D01*
X12576929Y-11619190D02*
X12595977Y-11590619D01*
X12595977Y-11590619D02*
X12605500Y-11571571D01*
X12605500Y-11571571D02*
X12615024Y-11543000D01*
X12615024Y-11543000D02*
X12624548Y-11495381D01*
X12624548Y-11495381D02*
X12624548Y-11457286D01*
X12624548Y-11457286D02*
X12615024Y-11409667D01*
X12615024Y-11409667D02*
X12605500Y-11381095D01*
X12605500Y-11381095D02*
X12595977Y-11362048D01*
X12595977Y-11362048D02*
X12576929Y-11333476D01*
X12576929Y-11333476D02*
X12567405Y-11323952D01*
D10*
X7790856Y-11759356D02*
X7790856Y-11688644D01*
X7720144Y-11688644D01*
X7720144Y-11759356D01*
X7790856Y-11759356D01*
D11*
X8157881Y-11816524D02*
X8043595Y-11816524D01*
X8100738Y-11816524D02*
X8100738Y-11616524D01*
X8100738Y-11616524D02*
X8081690Y-11645095D01*
X8081690Y-11645095D02*
X8062643Y-11664143D01*
X8062643Y-11664143D02*
X8043595Y-11673667D01*
X8243595Y-11797476D02*
X8253119Y-11807000D01*
X8253119Y-11807000D02*
X8243595Y-11816524D01*
X8243595Y-11816524D02*
X8234071Y-11807000D01*
X8234071Y-11807000D02*
X8243595Y-11797476D01*
X8243595Y-11797476D02*
X8243595Y-11816524D01*
X8376928Y-11616524D02*
X8395976Y-11616524D01*
X8395976Y-11616524D02*
X8415024Y-11626048D01*
X8415024Y-11626048D02*
X8424548Y-11635571D01*
X8424548Y-11635571D02*
X8434071Y-11654619D01*
X8434071Y-11654619D02*
X8443595Y-11692714D01*
X8443595Y-11692714D02*
X8443595Y-11740333D01*
X8443595Y-11740333D02*
X8434071Y-11778428D01*
X8434071Y-11778428D02*
X8424548Y-11797476D01*
X8424548Y-11797476D02*
X8415024Y-11807000D01*
X8415024Y-11807000D02*
X8395976Y-11816524D01*
X8395976Y-11816524D02*
X8376928Y-11816524D01*
X8376928Y-11816524D02*
X8357881Y-11807000D01*
X8357881Y-11807000D02*
X8348357Y-11797476D01*
X8348357Y-11797476D02*
X8338833Y-11778428D01*
X8338833Y-11778428D02*
X8329309Y-11740333D01*
X8329309Y-11740333D02*
X8329309Y-11692714D01*
X8329309Y-11692714D02*
X8338833Y-11654619D01*
X8338833Y-11654619D02*
X8348357Y-11635571D01*
X8348357Y-11635571D02*
X8357881Y-11626048D01*
X8357881Y-11626048D02*
X8376928Y-11616524D01*
X8567405Y-11616524D02*
X8586452Y-11616524D01*
X8586452Y-11616524D02*
X8605500Y-11626048D01*
X8605500Y-11626048D02*
X8615024Y-11635571D01*
X8615024Y-11635571D02*
X8624548Y-11654619D01*
X8624548Y-11654619D02*
X8634071Y-11692714D01*
X8634071Y-11692714D02*
X8634071Y-11740333D01*
X8634071Y-11740333D02*
X8624548Y-11778428D01*
X8624548Y-11778428D02*
X8615024Y-11797476D01*
X8615024Y-11797476D02*
X8605500Y-11807000D01*
X8605500Y-11807000D02*
X8586452Y-11816524D01*
X8586452Y-11816524D02*
X8567405Y-11816524D01*
X8567405Y-11816524D02*
X8548357Y-11807000D01*
X8548357Y-11807000D02*
X8538833Y-11797476D01*
X8538833Y-11797476D02*
X8529310Y-11778428D01*
X8529310Y-11778428D02*
X8519786Y-11740333D01*
X8519786Y-11740333D02*
X8519786Y-11692714D01*
X8519786Y-11692714D02*
X8529310Y-11654619D01*
X8529310Y-11654619D02*
X8538833Y-11635571D01*
X8538833Y-11635571D02*
X8548357Y-11626048D01*
X8548357Y-11626048D02*
X8567405Y-11616524D01*
X8757881Y-11616524D02*
X8776929Y-11616524D01*
X8776929Y-11616524D02*
X8795976Y-11626048D01*
X8795976Y-11626048D02*
X8805500Y-11635571D01*
X8805500Y-11635571D02*
X8815024Y-11654619D01*
X8815024Y-11654619D02*
X8824548Y-11692714D01*
X8824548Y-11692714D02*
X8824548Y-11740333D01*
X8824548Y-11740333D02*
X8815024Y-11778428D01*
X8815024Y-11778428D02*
X8805500Y-11797476D01*
X8805500Y-11797476D02*
X8795976Y-11807000D01*
X8795976Y-11807000D02*
X8776929Y-11816524D01*
X8776929Y-11816524D02*
X8757881Y-11816524D01*
X8757881Y-11816524D02*
X8738833Y-11807000D01*
X8738833Y-11807000D02*
X8729310Y-11797476D01*
X8729310Y-11797476D02*
X8719786Y-11778428D01*
X8719786Y-11778428D02*
X8710262Y-11740333D01*
X8710262Y-11740333D02*
X8710262Y-11692714D01*
X8710262Y-11692714D02*
X8719786Y-11654619D01*
X8719786Y-11654619D02*
X8729310Y-11635571D01*
X8729310Y-11635571D02*
X8738833Y-11626048D01*
X8738833Y-11626048D02*
X8757881Y-11616524D01*
X8910262Y-11816524D02*
X8910262Y-11683190D01*
X8910262Y-11702238D02*
X8919786Y-11692714D01*
X8919786Y-11692714D02*
X8938833Y-11683190D01*
X8938833Y-11683190D02*
X8967405Y-11683190D01*
X8967405Y-11683190D02*
X8986452Y-11692714D01*
X8986452Y-11692714D02*
X8995976Y-11711762D01*
X8995976Y-11711762D02*
X8995976Y-11816524D01*
X8995976Y-11711762D02*
X9005500Y-11692714D01*
X9005500Y-11692714D02*
X9024548Y-11683190D01*
X9024548Y-11683190D02*
X9053119Y-11683190D01*
X9053119Y-11683190D02*
X9072167Y-11692714D01*
X9072167Y-11692714D02*
X9081691Y-11711762D01*
X9081691Y-11711762D02*
X9081691Y-11816524D01*
X9176929Y-11816524D02*
X9176929Y-11683190D01*
X9176929Y-11702238D02*
X9186452Y-11692714D01*
X9186452Y-11692714D02*
X9205500Y-11683190D01*
X9205500Y-11683190D02*
X9234072Y-11683190D01*
X9234072Y-11683190D02*
X9253119Y-11692714D01*
X9253119Y-11692714D02*
X9262643Y-11711762D01*
X9262643Y-11711762D02*
X9262643Y-11816524D01*
X9262643Y-11711762D02*
X9272167Y-11692714D01*
X9272167Y-11692714D02*
X9291214Y-11683190D01*
X9291214Y-11683190D02*
X9319786Y-11683190D01*
X9319786Y-11683190D02*
X9338833Y-11692714D01*
X9338833Y-11692714D02*
X9348357Y-11711762D01*
X9348357Y-11711762D02*
X9348357Y-11816524D01*
X9738833Y-11607000D02*
X9567405Y-11864143D01*
X9995976Y-11616524D02*
X10015024Y-11616524D01*
X10015024Y-11616524D02*
X10034072Y-11626048D01*
X10034072Y-11626048D02*
X10043595Y-11635571D01*
X10043595Y-11635571D02*
X10053119Y-11654619D01*
X10053119Y-11654619D02*
X10062643Y-11692714D01*
X10062643Y-11692714D02*
X10062643Y-11740333D01*
X10062643Y-11740333D02*
X10053119Y-11778428D01*
X10053119Y-11778428D02*
X10043595Y-11797476D01*
X10043595Y-11797476D02*
X10034072Y-11807000D01*
X10034072Y-11807000D02*
X10015024Y-11816524D01*
X10015024Y-11816524D02*
X9995976Y-11816524D01*
X9995976Y-11816524D02*
X9976929Y-11807000D01*
X9976929Y-11807000D02*
X9967405Y-11797476D01*
X9967405Y-11797476D02*
X9957881Y-11778428D01*
X9957881Y-11778428D02*
X9948357Y-11740333D01*
X9948357Y-11740333D02*
X9948357Y-11692714D01*
X9948357Y-11692714D02*
X9957881Y-11654619D01*
X9957881Y-11654619D02*
X9967405Y-11635571D01*
X9967405Y-11635571D02*
X9976929Y-11626048D01*
X9976929Y-11626048D02*
X9995976Y-11616524D01*
X10148357Y-11797476D02*
X10157881Y-11807000D01*
X10157881Y-11807000D02*
X10148357Y-11816524D01*
X10148357Y-11816524D02*
X10138834Y-11807000D01*
X10138834Y-11807000D02*
X10148357Y-11797476D01*
X10148357Y-11797476D02*
X10148357Y-11816524D01*
X10281691Y-11616524D02*
X10300738Y-11616524D01*
X10300738Y-11616524D02*
X10319786Y-11626048D01*
X10319786Y-11626048D02*
X10329310Y-11635571D01*
X10329310Y-11635571D02*
X10338834Y-11654619D01*
X10338834Y-11654619D02*
X10348357Y-11692714D01*
X10348357Y-11692714D02*
X10348357Y-11740333D01*
X10348357Y-11740333D02*
X10338834Y-11778428D01*
X10338834Y-11778428D02*
X10329310Y-11797476D01*
X10329310Y-11797476D02*
X10319786Y-11807000D01*
X10319786Y-11807000D02*
X10300738Y-11816524D01*
X10300738Y-11816524D02*
X10281691Y-11816524D01*
X10281691Y-11816524D02*
X10262643Y-11807000D01*
X10262643Y-11807000D02*
X10253119Y-11797476D01*
X10253119Y-11797476D02*
X10243595Y-11778428D01*
X10243595Y-11778428D02*
X10234072Y-11740333D01*
X10234072Y-11740333D02*
X10234072Y-11692714D01*
X10234072Y-11692714D02*
X10243595Y-11654619D01*
X10243595Y-11654619D02*
X10253119Y-11635571D01*
X10253119Y-11635571D02*
X10262643Y-11626048D01*
X10262643Y-11626048D02*
X10281691Y-11616524D01*
X10415024Y-11616524D02*
X10538834Y-11616524D01*
X10538834Y-11616524D02*
X10472167Y-11692714D01*
X10472167Y-11692714D02*
X10500738Y-11692714D01*
X10500738Y-11692714D02*
X10519786Y-11702238D01*
X10519786Y-11702238D02*
X10529310Y-11711762D01*
X10529310Y-11711762D02*
X10538834Y-11730809D01*
X10538834Y-11730809D02*
X10538834Y-11778428D01*
X10538834Y-11778428D02*
X10529310Y-11797476D01*
X10529310Y-11797476D02*
X10519786Y-11807000D01*
X10519786Y-11807000D02*
X10500738Y-11816524D01*
X10500738Y-11816524D02*
X10443595Y-11816524D01*
X10443595Y-11816524D02*
X10424548Y-11807000D01*
X10424548Y-11807000D02*
X10415024Y-11797476D01*
X10634072Y-11816524D02*
X10672167Y-11816524D01*
X10672167Y-11816524D02*
X10691215Y-11807000D01*
X10691215Y-11807000D02*
X10700738Y-11797476D01*
X10700738Y-11797476D02*
X10719786Y-11768905D01*
X10719786Y-11768905D02*
X10729310Y-11730809D01*
X10729310Y-11730809D02*
X10729310Y-11654619D01*
X10729310Y-11654619D02*
X10719786Y-11635571D01*
X10719786Y-11635571D02*
X10710262Y-11626048D01*
X10710262Y-11626048D02*
X10691215Y-11616524D01*
X10691215Y-11616524D02*
X10653119Y-11616524D01*
X10653119Y-11616524D02*
X10634072Y-11626048D01*
X10634072Y-11626048D02*
X10624548Y-11635571D01*
X10624548Y-11635571D02*
X10615024Y-11654619D01*
X10615024Y-11654619D02*
X10615024Y-11702238D01*
X10615024Y-11702238D02*
X10624548Y-11721286D01*
X10624548Y-11721286D02*
X10634072Y-11730809D01*
X10634072Y-11730809D02*
X10653119Y-11740333D01*
X10653119Y-11740333D02*
X10691215Y-11740333D01*
X10691215Y-11740333D02*
X10710262Y-11730809D01*
X10710262Y-11730809D02*
X10719786Y-11721286D01*
X10719786Y-11721286D02*
X10729310Y-11702238D01*
X10900738Y-11683190D02*
X10900738Y-11816524D01*
X10853119Y-11607000D02*
X10805500Y-11749857D01*
X10805500Y-11749857D02*
X10929310Y-11749857D01*
X10995976Y-11616524D02*
X10995976Y-11654619D01*
X11072167Y-11616524D02*
X11072167Y-11654619D01*
X11367405Y-11892714D02*
X11357881Y-11883190D01*
X11357881Y-11883190D02*
X11338834Y-11854619D01*
X11338834Y-11854619D02*
X11329310Y-11835571D01*
X11329310Y-11835571D02*
X11319786Y-11807000D01*
X11319786Y-11807000D02*
X11310262Y-11759381D01*
X11310262Y-11759381D02*
X11310262Y-11721286D01*
X11310262Y-11721286D02*
X11319786Y-11673667D01*
X11319786Y-11673667D02*
X11329310Y-11645095D01*
X11329310Y-11645095D02*
X11338834Y-11626048D01*
X11338834Y-11626048D02*
X11357881Y-11597476D01*
X11357881Y-11597476D02*
X11367405Y-11587952D01*
X11529310Y-11616524D02*
X11491214Y-11616524D01*
X11491214Y-11616524D02*
X11472167Y-11626048D01*
X11472167Y-11626048D02*
X11462643Y-11635571D01*
X11462643Y-11635571D02*
X11443595Y-11664143D01*
X11443595Y-11664143D02*
X11434072Y-11702238D01*
X11434072Y-11702238D02*
X11434072Y-11778428D01*
X11434072Y-11778428D02*
X11443595Y-11797476D01*
X11443595Y-11797476D02*
X11453119Y-11807000D01*
X11453119Y-11807000D02*
X11472167Y-11816524D01*
X11472167Y-11816524D02*
X11510262Y-11816524D01*
X11510262Y-11816524D02*
X11529310Y-11807000D01*
X11529310Y-11807000D02*
X11538834Y-11797476D01*
X11538834Y-11797476D02*
X11548357Y-11778428D01*
X11548357Y-11778428D02*
X11548357Y-11730809D01*
X11548357Y-11730809D02*
X11538834Y-11711762D01*
X11538834Y-11711762D02*
X11529310Y-11702238D01*
X11529310Y-11702238D02*
X11510262Y-11692714D01*
X11510262Y-11692714D02*
X11472167Y-11692714D01*
X11472167Y-11692714D02*
X11453119Y-11702238D01*
X11453119Y-11702238D02*
X11443595Y-11711762D01*
X11443595Y-11711762D02*
X11434072Y-11730809D01*
X11786453Y-11816524D02*
X11786453Y-11616524D01*
X11872167Y-11816524D02*
X11872167Y-11711762D01*
X11872167Y-11711762D02*
X11862643Y-11692714D01*
X11862643Y-11692714D02*
X11843596Y-11683190D01*
X11843596Y-11683190D02*
X11815024Y-11683190D01*
X11815024Y-11683190D02*
X11795976Y-11692714D01*
X11795976Y-11692714D02*
X11786453Y-11702238D01*
X11995976Y-11816524D02*
X11976929Y-11807000D01*
X11976929Y-11807000D02*
X11967405Y-11797476D01*
X11967405Y-11797476D02*
X11957881Y-11778428D01*
X11957881Y-11778428D02*
X11957881Y-11721286D01*
X11957881Y-11721286D02*
X11967405Y-11702238D01*
X11967405Y-11702238D02*
X11976929Y-11692714D01*
X11976929Y-11692714D02*
X11995976Y-11683190D01*
X11995976Y-11683190D02*
X12024548Y-11683190D01*
X12024548Y-11683190D02*
X12043596Y-11692714D01*
X12043596Y-11692714D02*
X12053119Y-11702238D01*
X12053119Y-11702238D02*
X12062643Y-11721286D01*
X12062643Y-11721286D02*
X12062643Y-11778428D01*
X12062643Y-11778428D02*
X12053119Y-11797476D01*
X12053119Y-11797476D02*
X12043596Y-11807000D01*
X12043596Y-11807000D02*
X12024548Y-11816524D01*
X12024548Y-11816524D02*
X11995976Y-11816524D01*
X12176929Y-11816524D02*
X12157881Y-11807000D01*
X12157881Y-11807000D02*
X12148357Y-11787952D01*
X12148357Y-11787952D02*
X12148357Y-11616524D01*
X12329310Y-11807000D02*
X12310262Y-11816524D01*
X12310262Y-11816524D02*
X12272167Y-11816524D01*
X12272167Y-11816524D02*
X12253119Y-11807000D01*
X12253119Y-11807000D02*
X12243596Y-11787952D01*
X12243596Y-11787952D02*
X12243596Y-11711762D01*
X12243596Y-11711762D02*
X12253119Y-11692714D01*
X12253119Y-11692714D02*
X12272167Y-11683190D01*
X12272167Y-11683190D02*
X12310262Y-11683190D01*
X12310262Y-11683190D02*
X12329310Y-11692714D01*
X12329310Y-11692714D02*
X12338834Y-11711762D01*
X12338834Y-11711762D02*
X12338834Y-11730809D01*
X12338834Y-11730809D02*
X12243596Y-11749857D01*
X12415024Y-11807000D02*
X12434072Y-11816524D01*
X12434072Y-11816524D02*
X12472167Y-11816524D01*
X12472167Y-11816524D02*
X12491215Y-11807000D01*
X12491215Y-11807000D02*
X12500738Y-11787952D01*
X12500738Y-11787952D02*
X12500738Y-11778428D01*
X12500738Y-11778428D02*
X12491215Y-11759381D01*
X12491215Y-11759381D02*
X12472167Y-11749857D01*
X12472167Y-11749857D02*
X12443596Y-11749857D01*
X12443596Y-11749857D02*
X12424548Y-11740333D01*
X12424548Y-11740333D02*
X12415024Y-11721286D01*
X12415024Y-11721286D02*
X12415024Y-11711762D01*
X12415024Y-11711762D02*
X12424548Y-11692714D01*
X12424548Y-11692714D02*
X12443596Y-11683190D01*
X12443596Y-11683190D02*
X12472167Y-11683190D01*
X12472167Y-11683190D02*
X12491215Y-11692714D01*
X12567405Y-11892714D02*
X12576929Y-11883190D01*
X12576929Y-11883190D02*
X12595977Y-11854619D01*
X12595977Y-11854619D02*
X12605500Y-11835571D01*
X12605500Y-11835571D02*
X12615024Y-11807000D01*
X12615024Y-11807000D02*
X12624548Y-11759381D01*
X12624548Y-11759381D02*
X12624548Y-11721286D01*
X12624548Y-11721286D02*
X12615024Y-11673667D01*
X12615024Y-11673667D02*
X12605500Y-11645095D01*
X12605500Y-11645095D02*
X12595977Y-11626048D01*
X12595977Y-11626048D02*
X12576929Y-11597476D01*
X12576929Y-11597476D02*
X12567405Y-11587952D01*
D15*
X7730500Y-12063000D02*
X7805500Y-11988000D01*
X7730500Y-11913000D01*
X7655500Y-11988000D01*
X7730500Y-12063000D01*
D11*
X8157881Y-12080524D02*
X8043595Y-12080524D01*
X8100738Y-12080524D02*
X8100738Y-11880524D01*
X8100738Y-11880524D02*
X8081690Y-11909095D01*
X8081690Y-11909095D02*
X8062643Y-11928143D01*
X8062643Y-11928143D02*
X8043595Y-11937667D01*
X8243595Y-12061476D02*
X8253119Y-12071000D01*
X8253119Y-12071000D02*
X8243595Y-12080524D01*
X8243595Y-12080524D02*
X8234071Y-12071000D01*
X8234071Y-12071000D02*
X8243595Y-12061476D01*
X8243595Y-12061476D02*
X8243595Y-12080524D01*
X8434071Y-11880524D02*
X8338833Y-11880524D01*
X8338833Y-11880524D02*
X8329309Y-11975762D01*
X8329309Y-11975762D02*
X8338833Y-11966238D01*
X8338833Y-11966238D02*
X8357881Y-11956714D01*
X8357881Y-11956714D02*
X8405500Y-11956714D01*
X8405500Y-11956714D02*
X8424548Y-11966238D01*
X8424548Y-11966238D02*
X8434071Y-11975762D01*
X8434071Y-11975762D02*
X8443595Y-11994809D01*
X8443595Y-11994809D02*
X8443595Y-12042428D01*
X8443595Y-12042428D02*
X8434071Y-12061476D01*
X8434071Y-12061476D02*
X8424548Y-12071000D01*
X8424548Y-12071000D02*
X8405500Y-12080524D01*
X8405500Y-12080524D02*
X8357881Y-12080524D01*
X8357881Y-12080524D02*
X8338833Y-12071000D01*
X8338833Y-12071000D02*
X8329309Y-12061476D01*
X8567405Y-11880524D02*
X8586452Y-11880524D01*
X8586452Y-11880524D02*
X8605500Y-11890048D01*
X8605500Y-11890048D02*
X8615024Y-11899571D01*
X8615024Y-11899571D02*
X8624548Y-11918619D01*
X8624548Y-11918619D02*
X8634071Y-11956714D01*
X8634071Y-11956714D02*
X8634071Y-12004333D01*
X8634071Y-12004333D02*
X8624548Y-12042428D01*
X8624548Y-12042428D02*
X8615024Y-12061476D01*
X8615024Y-12061476D02*
X8605500Y-12071000D01*
X8605500Y-12071000D02*
X8586452Y-12080524D01*
X8586452Y-12080524D02*
X8567405Y-12080524D01*
X8567405Y-12080524D02*
X8548357Y-12071000D01*
X8548357Y-12071000D02*
X8538833Y-12061476D01*
X8538833Y-12061476D02*
X8529310Y-12042428D01*
X8529310Y-12042428D02*
X8519786Y-12004333D01*
X8519786Y-12004333D02*
X8519786Y-11956714D01*
X8519786Y-11956714D02*
X8529310Y-11918619D01*
X8529310Y-11918619D02*
X8538833Y-11899571D01*
X8538833Y-11899571D02*
X8548357Y-11890048D01*
X8548357Y-11890048D02*
X8567405Y-11880524D01*
X8757881Y-11880524D02*
X8776929Y-11880524D01*
X8776929Y-11880524D02*
X8795976Y-11890048D01*
X8795976Y-11890048D02*
X8805500Y-11899571D01*
X8805500Y-11899571D02*
X8815024Y-11918619D01*
X8815024Y-11918619D02*
X8824548Y-11956714D01*
X8824548Y-11956714D02*
X8824548Y-12004333D01*
X8824548Y-12004333D02*
X8815024Y-12042428D01*
X8815024Y-12042428D02*
X8805500Y-12061476D01*
X8805500Y-12061476D02*
X8795976Y-12071000D01*
X8795976Y-12071000D02*
X8776929Y-12080524D01*
X8776929Y-12080524D02*
X8757881Y-12080524D01*
X8757881Y-12080524D02*
X8738833Y-12071000D01*
X8738833Y-12071000D02*
X8729310Y-12061476D01*
X8729310Y-12061476D02*
X8719786Y-12042428D01*
X8719786Y-12042428D02*
X8710262Y-12004333D01*
X8710262Y-12004333D02*
X8710262Y-11956714D01*
X8710262Y-11956714D02*
X8719786Y-11918619D01*
X8719786Y-11918619D02*
X8729310Y-11899571D01*
X8729310Y-11899571D02*
X8738833Y-11890048D01*
X8738833Y-11890048D02*
X8757881Y-11880524D01*
X8910262Y-12080524D02*
X8910262Y-11947190D01*
X8910262Y-11966238D02*
X8919786Y-11956714D01*
X8919786Y-11956714D02*
X8938833Y-11947190D01*
X8938833Y-11947190D02*
X8967405Y-11947190D01*
X8967405Y-11947190D02*
X8986452Y-11956714D01*
X8986452Y-11956714D02*
X8995976Y-11975762D01*
X8995976Y-11975762D02*
X8995976Y-12080524D01*
X8995976Y-11975762D02*
X9005500Y-11956714D01*
X9005500Y-11956714D02*
X9024548Y-11947190D01*
X9024548Y-11947190D02*
X9053119Y-11947190D01*
X9053119Y-11947190D02*
X9072167Y-11956714D01*
X9072167Y-11956714D02*
X9081691Y-11975762D01*
X9081691Y-11975762D02*
X9081691Y-12080524D01*
X9176929Y-12080524D02*
X9176929Y-11947190D01*
X9176929Y-11966238D02*
X9186452Y-11956714D01*
X9186452Y-11956714D02*
X9205500Y-11947190D01*
X9205500Y-11947190D02*
X9234072Y-11947190D01*
X9234072Y-11947190D02*
X9253119Y-11956714D01*
X9253119Y-11956714D02*
X9262643Y-11975762D01*
X9262643Y-11975762D02*
X9262643Y-12080524D01*
X9262643Y-11975762D02*
X9272167Y-11956714D01*
X9272167Y-11956714D02*
X9291214Y-11947190D01*
X9291214Y-11947190D02*
X9319786Y-11947190D01*
X9319786Y-11947190D02*
X9338833Y-11956714D01*
X9338833Y-11956714D02*
X9348357Y-11975762D01*
X9348357Y-11975762D02*
X9348357Y-12080524D01*
X9738833Y-11871000D02*
X9567405Y-12128143D01*
X9995976Y-11880524D02*
X10015024Y-11880524D01*
X10015024Y-11880524D02*
X10034072Y-11890048D01*
X10034072Y-11890048D02*
X10043595Y-11899571D01*
X10043595Y-11899571D02*
X10053119Y-11918619D01*
X10053119Y-11918619D02*
X10062643Y-11956714D01*
X10062643Y-11956714D02*
X10062643Y-12004333D01*
X10062643Y-12004333D02*
X10053119Y-12042428D01*
X10053119Y-12042428D02*
X10043595Y-12061476D01*
X10043595Y-12061476D02*
X10034072Y-12071000D01*
X10034072Y-12071000D02*
X10015024Y-12080524D01*
X10015024Y-12080524D02*
X9995976Y-12080524D01*
X9995976Y-12080524D02*
X9976929Y-12071000D01*
X9976929Y-12071000D02*
X9967405Y-12061476D01*
X9967405Y-12061476D02*
X9957881Y-12042428D01*
X9957881Y-12042428D02*
X9948357Y-12004333D01*
X9948357Y-12004333D02*
X9948357Y-11956714D01*
X9948357Y-11956714D02*
X9957881Y-11918619D01*
X9957881Y-11918619D02*
X9967405Y-11899571D01*
X9967405Y-11899571D02*
X9976929Y-11890048D01*
X9976929Y-11890048D02*
X9995976Y-11880524D01*
X10148357Y-12061476D02*
X10157881Y-12071000D01*
X10157881Y-12071000D02*
X10148357Y-12080524D01*
X10148357Y-12080524D02*
X10138834Y-12071000D01*
X10138834Y-12071000D02*
X10148357Y-12061476D01*
X10148357Y-12061476D02*
X10148357Y-12080524D01*
X10281691Y-11880524D02*
X10300738Y-11880524D01*
X10300738Y-11880524D02*
X10319786Y-11890048D01*
X10319786Y-11890048D02*
X10329310Y-11899571D01*
X10329310Y-11899571D02*
X10338834Y-11918619D01*
X10338834Y-11918619D02*
X10348357Y-11956714D01*
X10348357Y-11956714D02*
X10348357Y-12004333D01*
X10348357Y-12004333D02*
X10338834Y-12042428D01*
X10338834Y-12042428D02*
X10329310Y-12061476D01*
X10329310Y-12061476D02*
X10319786Y-12071000D01*
X10319786Y-12071000D02*
X10300738Y-12080524D01*
X10300738Y-12080524D02*
X10281691Y-12080524D01*
X10281691Y-12080524D02*
X10262643Y-12071000D01*
X10262643Y-12071000D02*
X10253119Y-12061476D01*
X10253119Y-12061476D02*
X10243595Y-12042428D01*
X10243595Y-12042428D02*
X10234072Y-12004333D01*
X10234072Y-12004333D02*
X10234072Y-11956714D01*
X10234072Y-11956714D02*
X10243595Y-11918619D01*
X10243595Y-11918619D02*
X10253119Y-11899571D01*
X10253119Y-11899571D02*
X10262643Y-11890048D01*
X10262643Y-11890048D02*
X10281691Y-11880524D01*
X10529310Y-11880524D02*
X10434072Y-11880524D01*
X10434072Y-11880524D02*
X10424548Y-11975762D01*
X10424548Y-11975762D02*
X10434072Y-11966238D01*
X10434072Y-11966238D02*
X10453119Y-11956714D01*
X10453119Y-11956714D02*
X10500738Y-11956714D01*
X10500738Y-11956714D02*
X10519786Y-11966238D01*
X10519786Y-11966238D02*
X10529310Y-11975762D01*
X10529310Y-11975762D02*
X10538834Y-11994809D01*
X10538834Y-11994809D02*
X10538834Y-12042428D01*
X10538834Y-12042428D02*
X10529310Y-12061476D01*
X10529310Y-12061476D02*
X10519786Y-12071000D01*
X10519786Y-12071000D02*
X10500738Y-12080524D01*
X10500738Y-12080524D02*
X10453119Y-12080524D01*
X10453119Y-12080524D02*
X10434072Y-12071000D01*
X10434072Y-12071000D02*
X10424548Y-12061476D01*
X10634072Y-12080524D02*
X10672167Y-12080524D01*
X10672167Y-12080524D02*
X10691215Y-12071000D01*
X10691215Y-12071000D02*
X10700738Y-12061476D01*
X10700738Y-12061476D02*
X10719786Y-12032905D01*
X10719786Y-12032905D02*
X10729310Y-11994809D01*
X10729310Y-11994809D02*
X10729310Y-11918619D01*
X10729310Y-11918619D02*
X10719786Y-11899571D01*
X10719786Y-11899571D02*
X10710262Y-11890048D01*
X10710262Y-11890048D02*
X10691215Y-11880524D01*
X10691215Y-11880524D02*
X10653119Y-11880524D01*
X10653119Y-11880524D02*
X10634072Y-11890048D01*
X10634072Y-11890048D02*
X10624548Y-11899571D01*
X10624548Y-11899571D02*
X10615024Y-11918619D01*
X10615024Y-11918619D02*
X10615024Y-11966238D01*
X10615024Y-11966238D02*
X10624548Y-11985286D01*
X10624548Y-11985286D02*
X10634072Y-11994809D01*
X10634072Y-11994809D02*
X10653119Y-12004333D01*
X10653119Y-12004333D02*
X10691215Y-12004333D01*
X10691215Y-12004333D02*
X10710262Y-11994809D01*
X10710262Y-11994809D02*
X10719786Y-11985286D01*
X10719786Y-11985286D02*
X10729310Y-11966238D01*
X10919786Y-12080524D02*
X10805500Y-12080524D01*
X10862643Y-12080524D02*
X10862643Y-11880524D01*
X10862643Y-11880524D02*
X10843595Y-11909095D01*
X10843595Y-11909095D02*
X10824548Y-11928143D01*
X10824548Y-11928143D02*
X10805500Y-11937667D01*
X10995976Y-11880524D02*
X10995976Y-11918619D01*
X11072167Y-11880524D02*
X11072167Y-11918619D01*
X11367405Y-12156714D02*
X11357881Y-12147190D01*
X11357881Y-12147190D02*
X11338834Y-12118619D01*
X11338834Y-12118619D02*
X11329310Y-12099571D01*
X11329310Y-12099571D02*
X11319786Y-12071000D01*
X11319786Y-12071000D02*
X11310262Y-12023381D01*
X11310262Y-12023381D02*
X11310262Y-11985286D01*
X11310262Y-11985286D02*
X11319786Y-11937667D01*
X11319786Y-11937667D02*
X11329310Y-11909095D01*
X11329310Y-11909095D02*
X11338834Y-11890048D01*
X11338834Y-11890048D02*
X11357881Y-11861476D01*
X11357881Y-11861476D02*
X11367405Y-11851952D01*
X11472167Y-11966238D02*
X11453119Y-11956714D01*
X11453119Y-11956714D02*
X11443595Y-11947190D01*
X11443595Y-11947190D02*
X11434072Y-11928143D01*
X11434072Y-11928143D02*
X11434072Y-11918619D01*
X11434072Y-11918619D02*
X11443595Y-11899571D01*
X11443595Y-11899571D02*
X11453119Y-11890048D01*
X11453119Y-11890048D02*
X11472167Y-11880524D01*
X11472167Y-11880524D02*
X11510262Y-11880524D01*
X11510262Y-11880524D02*
X11529310Y-11890048D01*
X11529310Y-11890048D02*
X11538834Y-11899571D01*
X11538834Y-11899571D02*
X11548357Y-11918619D01*
X11548357Y-11918619D02*
X11548357Y-11928143D01*
X11548357Y-11928143D02*
X11538834Y-11947190D01*
X11538834Y-11947190D02*
X11529310Y-11956714D01*
X11529310Y-11956714D02*
X11510262Y-11966238D01*
X11510262Y-11966238D02*
X11472167Y-11966238D01*
X11472167Y-11966238D02*
X11453119Y-11975762D01*
X11453119Y-11975762D02*
X11443595Y-11985286D01*
X11443595Y-11985286D02*
X11434072Y-12004333D01*
X11434072Y-12004333D02*
X11434072Y-12042428D01*
X11434072Y-12042428D02*
X11443595Y-12061476D01*
X11443595Y-12061476D02*
X11453119Y-12071000D01*
X11453119Y-12071000D02*
X11472167Y-12080524D01*
X11472167Y-12080524D02*
X11510262Y-12080524D01*
X11510262Y-12080524D02*
X11529310Y-12071000D01*
X11529310Y-12071000D02*
X11538834Y-12061476D01*
X11538834Y-12061476D02*
X11548357Y-12042428D01*
X11548357Y-12042428D02*
X11548357Y-12004333D01*
X11548357Y-12004333D02*
X11538834Y-11985286D01*
X11538834Y-11985286D02*
X11529310Y-11975762D01*
X11529310Y-11975762D02*
X11510262Y-11966238D01*
X11786453Y-12080524D02*
X11786453Y-11880524D01*
X11872167Y-12080524D02*
X11872167Y-11975762D01*
X11872167Y-11975762D02*
X11862643Y-11956714D01*
X11862643Y-11956714D02*
X11843596Y-11947190D01*
X11843596Y-11947190D02*
X11815024Y-11947190D01*
X11815024Y-11947190D02*
X11795976Y-11956714D01*
X11795976Y-11956714D02*
X11786453Y-11966238D01*
X11995976Y-12080524D02*
X11976929Y-12071000D01*
X11976929Y-12071000D02*
X11967405Y-12061476D01*
X11967405Y-12061476D02*
X11957881Y-12042428D01*
X11957881Y-12042428D02*
X11957881Y-11985286D01*
X11957881Y-11985286D02*
X11967405Y-11966238D01*
X11967405Y-11966238D02*
X11976929Y-11956714D01*
X11976929Y-11956714D02*
X11995976Y-11947190D01*
X11995976Y-11947190D02*
X12024548Y-11947190D01*
X12024548Y-11947190D02*
X12043596Y-11956714D01*
X12043596Y-11956714D02*
X12053119Y-11966238D01*
X12053119Y-11966238D02*
X12062643Y-11985286D01*
X12062643Y-11985286D02*
X12062643Y-12042428D01*
X12062643Y-12042428D02*
X12053119Y-12061476D01*
X12053119Y-12061476D02*
X12043596Y-12071000D01*
X12043596Y-12071000D02*
X12024548Y-12080524D01*
X12024548Y-12080524D02*
X11995976Y-12080524D01*
X12176929Y-12080524D02*
X12157881Y-12071000D01*
X12157881Y-12071000D02*
X12148357Y-12051952D01*
X12148357Y-12051952D02*
X12148357Y-11880524D01*
X12329310Y-12071000D02*
X12310262Y-12080524D01*
X12310262Y-12080524D02*
X12272167Y-12080524D01*
X12272167Y-12080524D02*
X12253119Y-12071000D01*
X12253119Y-12071000D02*
X12243596Y-12051952D01*
X12243596Y-12051952D02*
X12243596Y-11975762D01*
X12243596Y-11975762D02*
X12253119Y-11956714D01*
X12253119Y-11956714D02*
X12272167Y-11947190D01*
X12272167Y-11947190D02*
X12310262Y-11947190D01*
X12310262Y-11947190D02*
X12329310Y-11956714D01*
X12329310Y-11956714D02*
X12338834Y-11975762D01*
X12338834Y-11975762D02*
X12338834Y-11994809D01*
X12338834Y-11994809D02*
X12243596Y-12013857D01*
X12415024Y-12071000D02*
X12434072Y-12080524D01*
X12434072Y-12080524D02*
X12472167Y-12080524D01*
X12472167Y-12080524D02*
X12491215Y-12071000D01*
X12491215Y-12071000D02*
X12500738Y-12051952D01*
X12500738Y-12051952D02*
X12500738Y-12042428D01*
X12500738Y-12042428D02*
X12491215Y-12023381D01*
X12491215Y-12023381D02*
X12472167Y-12013857D01*
X12472167Y-12013857D02*
X12443596Y-12013857D01*
X12443596Y-12013857D02*
X12424548Y-12004333D01*
X12424548Y-12004333D02*
X12415024Y-11985286D01*
X12415024Y-11985286D02*
X12415024Y-11975762D01*
X12415024Y-11975762D02*
X12424548Y-11956714D01*
X12424548Y-11956714D02*
X12443596Y-11947190D01*
X12443596Y-11947190D02*
X12472167Y-11947190D01*
X12472167Y-11947190D02*
X12491215Y-11956714D01*
X12567405Y-12156714D02*
X12576929Y-12147190D01*
X12576929Y-12147190D02*
X12595977Y-12118619D01*
X12595977Y-12118619D02*
X12605500Y-12099571D01*
X12605500Y-12099571D02*
X12615024Y-12071000D01*
X12615024Y-12071000D02*
X12624548Y-12023381D01*
X12624548Y-12023381D02*
X12624548Y-11985286D01*
X12624548Y-11985286D02*
X12615024Y-11937667D01*
X12615024Y-11937667D02*
X12605500Y-11909095D01*
X12605500Y-11909095D02*
X12595977Y-11890048D01*
X12595977Y-11890048D02*
X12576929Y-11861476D01*
X12576929Y-11861476D02*
X12567405Y-11851952D01*
M02*
