M48
; DRILL file {KiCad 7.0.2-0} date 2023 September 02, Saturday 14:44:18
; FORMAT={-:-/ absolute / metric / decimal}
; #@! TF.CreationDate,2023-09-02T14:44:18-07:00
; #@! TF.GenerationSoftware,Kicad,Pcbnew,7.0.2-0
; #@! TF.FileFunction,Plated,1,2,PTH
FMAT,2
METRIC
; #@! TA.AperFunction,Plated,PTH,ViaDrill
T1C0.508
; #@! TA.AperFunction,Plated,PTH,ComponentDrill
T2C0.800
; #@! TA.AperFunction,Plated,PTH,ComponentDrill
T3C0.900
; #@! TA.AperFunction,Plated,PTH,ComponentDrill
T4C1.000
; #@! TA.AperFunction,Plated,PTH,ComponentDrill
T5C1.500
%
G90
G05
T1
X104.775Y-92.075
X106.045Y-89.535
X106.68Y-49.53
X107.315Y-86.995
X125.73Y-53.34
X127.0Y-50.8
X127.0Y-63.5
X130.81Y-83.82
X132.08Y-66.04
X137.16Y-45.72
X139.7Y-45.72
X140.97Y-46.99
X147.32Y-89.535
X149.86Y-61.595
X151.13Y-55.88
X151.765Y-71.755
X158.75Y-78.74
X161.29Y-33.02
X161.29Y-93.98
X163.83Y-93.98
X170.815Y-38.735
X172.72Y-36.83
T2
X81.28Y-49.53
X81.28Y-52.07
X81.28Y-54.61
X81.28Y-57.15
X81.28Y-59.69
X81.28Y-62.23
X81.28Y-64.77
X81.28Y-67.31
X81.28Y-69.85
X81.28Y-72.39
X81.28Y-74.93
X81.28Y-77.47
X81.28Y-80.01
X81.28Y-82.55
X88.9Y-49.53
X88.9Y-52.07
X88.9Y-54.61
X88.9Y-57.15
X88.9Y-59.69
X88.9Y-62.23
X88.9Y-64.77
X88.9Y-67.31
X88.9Y-69.85
X88.9Y-72.39
X88.9Y-74.93
X88.9Y-77.47
X88.9Y-80.01
X88.9Y-82.55
X92.075Y-40.66
X92.075Y-43.16
X92.075Y-85.745
X92.075Y-88.245
X95.25Y-49.53
X95.25Y-52.07
X95.25Y-54.61
X95.25Y-57.15
X95.25Y-59.69
X95.25Y-62.23
X95.25Y-64.77
X95.25Y-67.31
X95.25Y-69.85
X95.25Y-72.39
X95.25Y-74.93
X95.25Y-77.47
X95.25Y-80.01
X95.25Y-82.55
X102.87Y-49.53
X102.87Y-52.07
X102.87Y-54.61
X102.87Y-57.15
X102.87Y-59.69
X102.87Y-62.23
X102.87Y-64.77
X102.87Y-67.31
X102.87Y-69.85
X102.87Y-72.39
X102.87Y-74.93
X102.87Y-77.47
X102.87Y-80.01
X102.87Y-82.55
X103.505Y-27.94
X103.505Y-38.1
X106.68Y-27.94
X106.68Y-38.1
X109.22Y-49.53
X109.22Y-52.07
X109.22Y-54.61
X109.22Y-54.61
X109.22Y-57.15
X109.22Y-57.15
X109.22Y-59.69
X109.22Y-59.69
X109.22Y-62.23
X109.22Y-62.23
X109.22Y-64.77
X109.22Y-64.77
X109.22Y-67.31
X109.22Y-67.31
X109.22Y-69.85
X109.22Y-69.85
X109.22Y-72.39
X109.22Y-72.39
X109.22Y-74.93
X109.22Y-74.93
X109.22Y-77.47
X109.22Y-77.47
X109.22Y-80.01
X109.22Y-80.01
X109.22Y-82.55
X109.22Y-82.55
X111.76Y-35.625
X111.76Y-38.125
X116.84Y-29.23
X116.84Y-31.73
X123.19Y-29.21
X123.19Y-36.83
X124.46Y-49.53
X124.46Y-52.07
X124.46Y-54.61
X124.46Y-54.61
X124.46Y-57.15
X124.46Y-57.15
X124.46Y-59.69
X124.46Y-59.69
X124.46Y-62.23
X124.46Y-62.23
X124.46Y-64.77
X124.46Y-64.77
X124.46Y-67.31
X124.46Y-67.31
X124.46Y-69.85
X124.46Y-69.85
X124.46Y-72.39
X124.46Y-72.39
X124.46Y-74.93
X124.46Y-74.93
X124.46Y-77.47
X124.46Y-77.47
X124.46Y-80.01
X124.46Y-80.01
X124.46Y-82.55
X124.46Y-82.55
X125.73Y-29.21
X125.73Y-36.83
X128.27Y-29.21
X128.27Y-36.83
X130.81Y-29.21
X130.81Y-36.83
X130.83Y-58.42
X130.83Y-77.47
X132.08Y-40.66
X132.08Y-43.16
X133.33Y-58.42
X133.33Y-77.47
X133.35Y-29.21
X133.35Y-36.83
X135.89Y-29.21
X135.89Y-36.83
X135.89Y-41.91
X135.89Y-49.53
X135.89Y-67.31
X135.89Y-74.93
X135.895Y-80.01
X135.895Y-87.63
X137.16Y-53.34
X137.16Y-63.5
X138.43Y-29.21
X138.43Y-36.83
X138.43Y-41.91
X138.43Y-49.53
X138.43Y-67.31
X138.43Y-74.93
X138.435Y-80.01
X138.435Y-87.63
X140.97Y-29.21
X140.97Y-36.83
X140.97Y-41.91
X140.97Y-49.53
X140.97Y-53.34
X140.97Y-63.5
X140.97Y-67.31
X140.97Y-74.93
X140.975Y-80.01
X140.975Y-87.63
X143.51Y-41.91
X143.51Y-49.53
X143.51Y-67.31
X143.51Y-74.93
X143.515Y-80.01
X143.515Y-87.63
X146.05Y-41.91
X146.05Y-49.53
X146.05Y-67.31
X146.05Y-74.93
X146.055Y-80.01
X146.055Y-87.63
X148.59Y-29.21
X148.59Y-39.37
X148.59Y-41.91
X148.59Y-49.53
X148.59Y-53.34
X148.59Y-63.5
X148.59Y-67.31
X148.59Y-74.93
X148.595Y-80.01
X148.595Y-87.63
X151.13Y-41.91
X151.13Y-49.53
X151.13Y-67.31
X151.13Y-74.93
X151.135Y-80.01
X151.135Y-87.63
X153.055Y-58.42
X153.06Y-77.47
X154.305Y-39.39
X154.305Y-41.89
X155.555Y-58.42
X155.56Y-77.47
X157.48Y-41.91
X157.48Y-49.53
X157.48Y-67.31
X157.48Y-74.93
X157.48Y-80.01
X157.48Y-87.63
X158.75Y-29.21
X158.75Y-39.37
X160.02Y-41.91
X160.02Y-49.53
X160.02Y-67.31
X160.02Y-74.93
X160.02Y-80.01
X160.02Y-87.63
X162.56Y-41.91
X162.56Y-49.53
X162.56Y-67.31
X162.56Y-74.93
X162.56Y-80.01
X162.56Y-87.63
X165.1Y-41.91
X165.1Y-49.53
X165.1Y-67.31
X165.1Y-74.93
X165.1Y-80.01
X165.1Y-87.63
X167.64Y-41.91
X167.64Y-49.53
X167.64Y-67.31
X167.64Y-74.93
X167.64Y-80.01
X167.64Y-87.63
X168.91Y-29.21
X168.91Y-39.37
X170.18Y-41.91
X170.18Y-49.53
X170.18Y-67.31
X170.18Y-74.93
X170.18Y-80.01
X170.18Y-87.63
X172.72Y-41.91
X172.72Y-49.53
X172.72Y-67.31
X172.72Y-74.93
X172.72Y-80.01
X172.72Y-87.63
X175.895Y-38.12
X175.895Y-40.62
T3
X100.33Y-29.21
X100.33Y-36.83
X152.4Y-30.48
X154.94Y-30.48
X162.56Y-30.48
X165.1Y-30.48
X172.72Y-30.48
X175.26Y-30.48
T4
X168.275Y-55.88
X168.275Y-58.42
X168.275Y-60.96
X170.815Y-55.88
X170.815Y-58.42
X170.815Y-60.96
T5
X160.02Y-53.721
X160.02Y-58.42
X160.02Y-63.119
X163.83Y-53.721
X163.83Y-58.42
X163.83Y-63.119
X176.53Y-55.88
X176.53Y-60.96
T0
M30
