G04 #@! TF.GenerationSoftware,KiCad,Pcbnew,7.0.2-0*
G04 #@! TF.CreationDate,2023-09-02T14:44:00-07:00*
G04 #@! TF.ProjectId,LanguageCard,4c616e67-7561-4676-9543-6172642e6b69,2*
G04 #@! TF.SameCoordinates,Original*
G04 #@! TF.FileFunction,Soldermask,Bot*
G04 #@! TF.FilePolarity,Negative*
%FSLAX46Y46*%
G04 Gerber Fmt 4.6, Leading zero omitted, Abs format (unit mm)*
G04 Created by KiCad (PCBNEW 7.0.2-0) date 2023-09-02 14:44:00*
%MOMM*%
%LPD*%
G01*
G04 APERTURE LIST*
G04 Aperture macros list*
%AMRoundRect*
0 Rectangle with rounded corners*
0 $1 Rounding radius*
0 $2 $3 $4 $5 $6 $7 $8 $9 X,Y pos of 4 corners*
0 Add a 4 corners polygon primitive as box body*
4,1,4,$2,$3,$4,$5,$6,$7,$8,$9,$2,$3,0*
0 Add four circle primitives for the rounded corners*
1,1,$1+$1,$2,$3*
1,1,$1+$1,$4,$5*
1,1,$1+$1,$6,$7*
1,1,$1+$1,$8,$9*
0 Add four rect primitives between the rounded corners*
20,1,$1+$1,$2,$3,$4,$5,0*
20,1,$1+$1,$4,$5,$6,$7,0*
20,1,$1+$1,$6,$7,$8,$9,0*
20,1,$1+$1,$8,$9,$2,$3,0*%
%AMFreePoly0*
4,1,19,0.500000,-0.750000,0.000000,-0.750000,0.000000,-0.744911,-0.071157,-0.744911,-0.207708,-0.704816,-0.327430,-0.627875,-0.420627,-0.520320,-0.479746,-0.390866,-0.500000,-0.250000,-0.500000,0.250000,-0.479746,0.390866,-0.420627,0.520320,-0.327430,0.627875,-0.207708,0.704816,-0.071157,0.744911,0.000000,0.744911,0.000000,0.750000,0.500000,0.750000,0.500000,-0.750000,0.500000,-0.750000,
$1*%
%AMFreePoly1*
4,1,19,0.000000,0.744911,0.071157,0.744911,0.207708,0.704816,0.327430,0.627875,0.420627,0.520320,0.479746,0.390866,0.500000,0.250000,0.500000,-0.250000,0.479746,-0.390866,0.420627,-0.520320,0.327430,-0.627875,0.207708,-0.704816,0.071157,-0.744911,0.000000,-0.744911,0.000000,-0.750000,-0.500000,-0.750000,-0.500000,0.750000,0.000000,0.750000,0.000000,0.744911,0.000000,0.744911,
$1*%
G04 Aperture macros list end*
%ADD10C,0.150000*%
%ADD11R,1.700000X1.700000*%
%ADD12O,1.700000X1.700000*%
%ADD13FreePoly0,90.000000*%
%ADD14FreePoly1,90.000000*%
%ADD15C,2.500000*%
%ADD16R,2.500000X2.500000*%
%ADD17C,1.600000*%
%ADD18O,1.600000X1.600000*%
%ADD19FreePoly0,270.000000*%
%ADD20FreePoly1,270.000000*%
%ADD21R,1.600000X1.600000*%
%ADD22R,1.800000X1.800000*%
%ADD23O,1.800000X1.800000*%
%ADD24C,1.800000*%
%ADD25RoundRect,0.317500X-0.317500X-3.365500X0.317500X-3.365500X0.317500X3.365500X-0.317500X3.365500X0*%
G04 #@! TA.AperFunction,Profile*
%ADD26C,0.100000*%
G04 #@! TD*
G04 APERTURE END LIST*
D10*
X168275000Y-102997000D02*
X103505000Y-102997000D01*
X103505000Y-95377000D01*
X168275000Y-95377000D01*
X168275000Y-102997000D01*
G36*
X168275000Y-102997000D02*
G01*
X103505000Y-102997000D01*
X103505000Y-95377000D01*
X168275000Y-95377000D01*
X168275000Y-102997000D01*
G37*
D11*
X170815000Y-60960000D03*
D12*
X168275000Y-60960000D03*
X170815000Y-58420000D03*
X168275000Y-58420000D03*
X170815000Y-55880000D03*
X168275000Y-55880000D03*
D13*
X170815000Y-57800000D03*
D14*
X170815000Y-56500000D03*
D15*
X163830000Y-53721000D03*
X163830000Y-58420000D03*
X163830000Y-63119000D03*
X160020000Y-53721000D03*
X160020000Y-58420000D03*
D16*
X160020000Y-63119000D03*
D15*
X176530000Y-55880000D03*
X176530000Y-60960000D03*
D17*
X140970000Y-63500000D03*
D18*
X140970000Y-53340000D03*
D19*
X173355000Y-57770000D03*
D20*
X173355000Y-59070000D03*
D21*
X95250000Y-49530000D03*
D18*
X95250000Y-52070000D03*
X95250000Y-54610000D03*
X95250000Y-57150000D03*
X95250000Y-59690000D03*
X95250000Y-62230000D03*
X95250000Y-64770000D03*
X95250000Y-67310000D03*
X95250000Y-69850000D03*
X95250000Y-72390000D03*
X95250000Y-74930000D03*
X95250000Y-77470000D03*
X95250000Y-80010000D03*
X95250000Y-82550000D03*
X102870000Y-82550000D03*
X102870000Y-80010000D03*
X102870000Y-77470000D03*
X102870000Y-74930000D03*
X102870000Y-72390000D03*
X102870000Y-69850000D03*
X102870000Y-67310000D03*
X102870000Y-64770000D03*
X102870000Y-62230000D03*
X102870000Y-59690000D03*
X102870000Y-57150000D03*
X102870000Y-54610000D03*
X102870000Y-52070000D03*
X102870000Y-49530000D03*
D17*
X158750000Y-29210000D03*
D18*
X158750000Y-39370000D03*
D17*
X168910000Y-29210000D03*
D18*
X168910000Y-39370000D03*
D17*
X137160000Y-63500000D03*
D18*
X137160000Y-53340000D03*
D21*
X135890000Y-74930000D03*
D18*
X138430000Y-74930000D03*
X140970000Y-74930000D03*
X143510000Y-74930000D03*
X146050000Y-74930000D03*
X148590000Y-74930000D03*
X151130000Y-74930000D03*
X151130000Y-67310000D03*
X148590000Y-67310000D03*
X146050000Y-67310000D03*
X143510000Y-67310000D03*
X140970000Y-67310000D03*
X138430000Y-67310000D03*
X135890000Y-67310000D03*
D21*
X135890000Y-49530000D03*
D18*
X138430000Y-49530000D03*
X140970000Y-49530000D03*
X143510000Y-49530000D03*
X146050000Y-49530000D03*
X148590000Y-49530000D03*
X151130000Y-49530000D03*
X151130000Y-41910000D03*
X148590000Y-41910000D03*
X146050000Y-41910000D03*
X143510000Y-41910000D03*
X140970000Y-41910000D03*
X138430000Y-41910000D03*
X135890000Y-41910000D03*
D17*
X148590000Y-53340000D03*
D18*
X148590000Y-63500000D03*
D17*
X148590000Y-29210000D03*
D18*
X148590000Y-39370000D03*
D22*
X100330000Y-29210000D03*
D23*
X100330000Y-36830000D03*
D18*
X124460000Y-49530000D03*
X124460000Y-52070000D03*
X124460000Y-54610000D03*
X124460000Y-57150000D03*
X124460000Y-59690000D03*
X124460000Y-62230000D03*
X124460000Y-64770000D03*
X124460000Y-67310000D03*
X124460000Y-69850000D03*
X124460000Y-72390000D03*
X124460000Y-74930000D03*
X124460000Y-77470000D03*
X124460000Y-80010000D03*
X124460000Y-82550000D03*
X109220000Y-82550000D03*
X109220000Y-80010000D03*
X109220000Y-77470000D03*
X109220000Y-74930000D03*
X109220000Y-72390000D03*
X109220000Y-69850000D03*
X109220000Y-67310000D03*
X109220000Y-64770000D03*
X109220000Y-62230000D03*
X109220000Y-59690000D03*
X109220000Y-57150000D03*
X109220000Y-54610000D03*
X109220000Y-52070000D03*
D21*
X109220000Y-49530000D03*
D17*
X175895000Y-40620000D03*
X175895000Y-38120000D03*
X130830000Y-77470000D03*
X133330000Y-77470000D03*
D18*
X157480000Y-41910000D03*
X160020000Y-41910000D03*
X162560000Y-41910000D03*
X165100000Y-41910000D03*
X167640000Y-41910000D03*
X170180000Y-41910000D03*
X172720000Y-41910000D03*
X172720000Y-49530000D03*
X170180000Y-49530000D03*
X167640000Y-49530000D03*
X165100000Y-49530000D03*
X162560000Y-49530000D03*
X160020000Y-49530000D03*
D21*
X157480000Y-49530000D03*
D17*
X106680000Y-38100000D03*
D18*
X106680000Y-27940000D03*
D21*
X111760000Y-35624888D03*
D17*
X111760000Y-38124888D03*
D22*
X175260000Y-30480000D03*
D24*
X172720000Y-30480000D03*
D17*
X133330000Y-58420000D03*
X130830000Y-58420000D03*
X92075000Y-88245000D03*
X92075000Y-85745000D03*
D21*
X157480000Y-87630000D03*
D18*
X160020000Y-87630000D03*
X162560000Y-87630000D03*
X165100000Y-87630000D03*
X167640000Y-87630000D03*
X170180000Y-87630000D03*
X172720000Y-87630000D03*
X172720000Y-80010000D03*
X170180000Y-80010000D03*
X167640000Y-80010000D03*
X165100000Y-80010000D03*
X162560000Y-80010000D03*
X160020000Y-80010000D03*
X157480000Y-80010000D03*
D17*
X132080000Y-43160000D03*
X132080000Y-40660000D03*
D21*
X81280000Y-49530000D03*
D18*
X81280000Y-52070000D03*
X81280000Y-54610000D03*
X81280000Y-57150000D03*
X81280000Y-59690000D03*
X81280000Y-62230000D03*
X81280000Y-64770000D03*
X81280000Y-67310000D03*
X81280000Y-69850000D03*
X81280000Y-72390000D03*
X81280000Y-74930000D03*
X81280000Y-77470000D03*
X81280000Y-80010000D03*
X81280000Y-82550000D03*
X88900000Y-82550000D03*
X88900000Y-80010000D03*
X88900000Y-77470000D03*
X88900000Y-74930000D03*
X88900000Y-72390000D03*
X88900000Y-69850000D03*
X88900000Y-67310000D03*
X88900000Y-64770000D03*
X88900000Y-62230000D03*
X88900000Y-59690000D03*
X88900000Y-57150000D03*
X88900000Y-54610000D03*
X88900000Y-52070000D03*
X88900000Y-49530000D03*
D17*
X116840000Y-31730000D03*
X116840000Y-29230000D03*
X154305000Y-39390000D03*
D18*
X154305000Y-41890000D03*
D17*
X155555000Y-58420000D03*
X153055000Y-58420000D03*
X103505000Y-27940000D03*
D18*
X103505000Y-38100000D03*
X157480000Y-67310000D03*
X160020000Y-67310000D03*
X162560000Y-67310000D03*
X165100000Y-67310000D03*
X167640000Y-67310000D03*
X170180000Y-67310000D03*
X172720000Y-67310000D03*
X172720000Y-74930000D03*
X170180000Y-74930000D03*
X167640000Y-74930000D03*
X165100000Y-74930000D03*
X162560000Y-74930000D03*
X160020000Y-74930000D03*
D21*
X157480000Y-74930000D03*
D22*
X165100000Y-30480000D03*
D24*
X162560000Y-30480000D03*
D17*
X155560000Y-77470000D03*
X153060000Y-77470000D03*
D21*
X123190000Y-36830000D03*
D18*
X125730000Y-36830000D03*
X128270000Y-36830000D03*
X130810000Y-36830000D03*
X133350000Y-36830000D03*
X135890000Y-36830000D03*
X138430000Y-36830000D03*
X140970000Y-36830000D03*
X140970000Y-29210000D03*
X138430000Y-29210000D03*
X135890000Y-29210000D03*
X133350000Y-29210000D03*
X130810000Y-29210000D03*
X128270000Y-29210000D03*
X125730000Y-29210000D03*
X123190000Y-29210000D03*
X124460000Y-54610000D03*
X124460000Y-57150000D03*
X124460000Y-59690000D03*
X124460000Y-62230000D03*
X124460000Y-64770000D03*
X124460000Y-67310000D03*
X124460000Y-69850000D03*
X124460000Y-72390000D03*
X124460000Y-74930000D03*
X124460000Y-77470000D03*
X124460000Y-80010000D03*
X124460000Y-82550000D03*
X109220000Y-82550000D03*
X109220000Y-80010000D03*
X109220000Y-77470000D03*
X109220000Y-74930000D03*
X109220000Y-72390000D03*
X109220000Y-69850000D03*
X109220000Y-67310000D03*
X109220000Y-64770000D03*
X109220000Y-62230000D03*
X109220000Y-59690000D03*
X109220000Y-57150000D03*
D21*
X109220000Y-54610000D03*
D17*
X92075000Y-40660000D03*
X92075000Y-43160000D03*
D25*
X166370000Y-99060000D03*
X163830000Y-99060000D03*
X161290000Y-99060000D03*
X158750000Y-99060000D03*
X156210000Y-99060000D03*
X153670000Y-99060000D03*
X151130000Y-99060000D03*
X148590000Y-99060000D03*
X146050000Y-99060000D03*
X143510000Y-99060000D03*
X140970000Y-99060000D03*
X138430000Y-99060000D03*
X135890000Y-99060000D03*
X133350000Y-99060000D03*
X130810000Y-99060000D03*
X128270000Y-99060000D03*
X125730000Y-99060000D03*
X123190000Y-99060000D03*
X120650000Y-99060000D03*
X118110000Y-99060000D03*
X115570000Y-99060000D03*
X113030000Y-99060000D03*
X110490000Y-99060000D03*
X107950000Y-99060000D03*
X105410000Y-99060000D03*
D22*
X154940000Y-30480000D03*
D24*
X152400000Y-30480000D03*
D21*
X135895000Y-87630000D03*
D18*
X138435000Y-87630000D03*
X140975000Y-87630000D03*
X143515000Y-87630000D03*
X146055000Y-87630000D03*
X148595000Y-87630000D03*
X151135000Y-87630000D03*
X151135000Y-80010000D03*
X148595000Y-80010000D03*
X146055000Y-80010000D03*
X143515000Y-80010000D03*
X140975000Y-80010000D03*
X138435000Y-80010000D03*
X135895000Y-80010000D03*
D26*
X78105000Y-93980000D02*
G75*
G03*
X79375000Y-95250000I1270000J0D01*
G01*
X176847500Y-25400000D02*
X103505000Y-25400000D01*
X103187500Y-102235000D02*
X103822500Y-102870000D01*
X169862500Y-95250000D02*
X176847500Y-95250000D01*
X78105000Y-93980000D02*
X78105000Y-50800000D01*
X103187500Y-96520000D02*
G75*
G03*
X101917500Y-95250000I-1270000J0D01*
G01*
X178117500Y-93980000D02*
X178117500Y-26670000D01*
X103187500Y-96520000D02*
X103187500Y-102235000D01*
X79375000Y-95250000D02*
X101917500Y-95250000D01*
X176847500Y-95250000D02*
G75*
G03*
X178117500Y-93980000I0J1270000D01*
G01*
X178117500Y-26670000D02*
G75*
G03*
X176847500Y-25400000I-1270000J0D01*
G01*
X167957500Y-102870000D02*
X103822500Y-102870000D01*
X168592500Y-96520000D02*
X168592500Y-102235000D01*
X169862500Y-95250000D02*
G75*
G03*
X168592500Y-96520000I0J-1270000D01*
G01*
X168592500Y-102235000D02*
X167957500Y-102870000D01*
X103505000Y-25400000D02*
G75*
G03*
X78105000Y-50800000I0J-25400000D01*
G01*
M02*
