%TF.GenerationSoftware,KiCad,Pcbnew,7.0.2-0*%
%TF.CreationDate,2023-09-02T14:44:19-07:00*%
%TF.ProjectId,LanguageCard,4c616e67-7561-4676-9543-6172642e6b69,2*%
%TF.SameCoordinates,Original*%
%TF.FileFunction,Drillmap*%
%TF.FilePolarity,Positive*%
%FSLAX45Y45*%
G04 Gerber Fmt 4.5, Leading zero omitted, Abs format (unit mm)*
G04 Created by KiCad (PCBNEW 7.0.2-0) date 2023-09-02 14:44:19*
%MOMM*%
%LPD*%
G01*
G04 APERTURE LIST*
%ADD10C,0.100000*%
%ADD11C,0.200000*%
G04 APERTURE END LIST*
D10*
X7810500Y-9398000D02*
G75*
G03*
X7937500Y-9525000I127000J0D01*
G01*
X17684750Y-2540000D02*
X10350500Y-2540000D01*
X10318750Y-10223500D02*
X10382250Y-10287000D01*
X16986250Y-9525000D02*
X17684750Y-9525000D01*
X7810500Y-9398000D02*
X7810500Y-5080000D01*
X10318750Y-9652000D02*
G75*
G03*
X10191750Y-9525000I-127000J0D01*
G01*
X17811750Y-9398000D02*
X17811750Y-2667000D01*
X10318750Y-9652000D02*
X10318750Y-10223500D01*
X7937500Y-9525000D02*
X10191750Y-9525000D01*
X17684750Y-9525000D02*
G75*
G03*
X17811750Y-9398000I0J127000D01*
G01*
X17811750Y-2667000D02*
G75*
G03*
X17684750Y-2540000I-127000J0D01*
G01*
X16795750Y-10287000D02*
X10382250Y-10287000D01*
X16859250Y-9652000D02*
X16859250Y-10223500D01*
X16986250Y-9525000D02*
G75*
G03*
X16859250Y-9652000I0J-127000D01*
G01*
X16859250Y-10223500D02*
X16795750Y-10287000D01*
X10350500Y-2540000D02*
G75*
G03*
X7810500Y-5080000I0J-2540000D01*
G01*
D11*
X8053119Y-10604524D02*
X8053119Y-10404524D01*
X8053119Y-10404524D02*
X8100738Y-10404524D01*
X8100738Y-10404524D02*
X8129309Y-10414048D01*
X8129309Y-10414048D02*
X8148357Y-10433095D01*
X8148357Y-10433095D02*
X8157881Y-10452143D01*
X8157881Y-10452143D02*
X8167405Y-10490238D01*
X8167405Y-10490238D02*
X8167405Y-10518810D01*
X8167405Y-10518810D02*
X8157881Y-10556905D01*
X8157881Y-10556905D02*
X8148357Y-10575952D01*
X8148357Y-10575952D02*
X8129309Y-10595000D01*
X8129309Y-10595000D02*
X8100738Y-10604524D01*
X8100738Y-10604524D02*
X8053119Y-10604524D01*
X8253119Y-10604524D02*
X8253119Y-10471190D01*
X8253119Y-10509286D02*
X8262643Y-10490238D01*
X8262643Y-10490238D02*
X8272167Y-10480714D01*
X8272167Y-10480714D02*
X8291214Y-10471190D01*
X8291214Y-10471190D02*
X8310262Y-10471190D01*
X8376928Y-10604524D02*
X8376928Y-10471190D01*
X8376928Y-10404524D02*
X8367405Y-10414048D01*
X8367405Y-10414048D02*
X8376928Y-10423571D01*
X8376928Y-10423571D02*
X8386452Y-10414048D01*
X8386452Y-10414048D02*
X8376928Y-10404524D01*
X8376928Y-10404524D02*
X8376928Y-10423571D01*
X8500738Y-10604524D02*
X8481690Y-10595000D01*
X8481690Y-10595000D02*
X8472167Y-10575952D01*
X8472167Y-10575952D02*
X8472167Y-10404524D01*
X8605500Y-10604524D02*
X8586452Y-10595000D01*
X8586452Y-10595000D02*
X8576929Y-10575952D01*
X8576929Y-10575952D02*
X8576929Y-10404524D01*
X8834071Y-10604524D02*
X8834071Y-10404524D01*
X8834071Y-10404524D02*
X8900738Y-10547381D01*
X8900738Y-10547381D02*
X8967405Y-10404524D01*
X8967405Y-10404524D02*
X8967405Y-10604524D01*
X9148357Y-10604524D02*
X9148357Y-10499762D01*
X9148357Y-10499762D02*
X9138833Y-10480714D01*
X9138833Y-10480714D02*
X9119786Y-10471190D01*
X9119786Y-10471190D02*
X9081690Y-10471190D01*
X9081690Y-10471190D02*
X9062643Y-10480714D01*
X9148357Y-10595000D02*
X9129310Y-10604524D01*
X9129310Y-10604524D02*
X9081690Y-10604524D01*
X9081690Y-10604524D02*
X9062643Y-10595000D01*
X9062643Y-10595000D02*
X9053119Y-10575952D01*
X9053119Y-10575952D02*
X9053119Y-10556905D01*
X9053119Y-10556905D02*
X9062643Y-10537857D01*
X9062643Y-10537857D02*
X9081690Y-10528333D01*
X9081690Y-10528333D02*
X9129310Y-10528333D01*
X9129310Y-10528333D02*
X9148357Y-10518810D01*
X9243595Y-10471190D02*
X9243595Y-10671190D01*
X9243595Y-10480714D02*
X9262643Y-10471190D01*
X9262643Y-10471190D02*
X9300738Y-10471190D01*
X9300738Y-10471190D02*
X9319786Y-10480714D01*
X9319786Y-10480714D02*
X9329310Y-10490238D01*
X9329310Y-10490238D02*
X9338833Y-10509286D01*
X9338833Y-10509286D02*
X9338833Y-10566429D01*
X9338833Y-10566429D02*
X9329310Y-10585476D01*
X9329310Y-10585476D02*
X9319786Y-10595000D01*
X9319786Y-10595000D02*
X9300738Y-10604524D01*
X9300738Y-10604524D02*
X9262643Y-10604524D01*
X9262643Y-10604524D02*
X9243595Y-10595000D01*
X9424548Y-10585476D02*
X9434071Y-10595000D01*
X9434071Y-10595000D02*
X9424548Y-10604524D01*
X9424548Y-10604524D02*
X9415024Y-10595000D01*
X9415024Y-10595000D02*
X9424548Y-10585476D01*
X9424548Y-10585476D02*
X9424548Y-10604524D01*
X9424548Y-10480714D02*
X9434071Y-10490238D01*
X9434071Y-10490238D02*
X9424548Y-10499762D01*
X9424548Y-10499762D02*
X9415024Y-10490238D01*
X9415024Y-10490238D02*
X9424548Y-10480714D01*
X9424548Y-10480714D02*
X9424548Y-10499762D01*
M02*
