G04 #@! TF.GenerationSoftware,KiCad,Pcbnew,7.0.2-0*
G04 #@! TF.CreationDate,2023-09-02T14:44:00-07:00*
G04 #@! TF.ProjectId,LanguageCard,4c616e67-7561-4676-9543-6172642e6b69,2*
G04 #@! TF.SameCoordinates,Original*
G04 #@! TF.FileFunction,AssemblyDrawing,Bot*
%FSLAX46Y46*%
G04 Gerber Fmt 4.6, Leading zero omitted, Abs format (unit mm)*
G04 Created by KiCad (PCBNEW 7.0.2-0) date 2023-09-02 14:44:00*
%MOMM*%
%LPD*%
G01*
G04 APERTURE LIST*
%ADD10C,0.150000*%
G04 #@! TA.AperFunction,Profile*
%ADD11C,0.100000*%
G04 #@! TD*
G04 APERTURE END LIST*
D10*
X169330000Y-55507143D02*
X169377619Y-55650000D01*
X169377619Y-55650000D02*
X169377619Y-55888095D01*
X169377619Y-55888095D02*
X169330000Y-55983333D01*
X169330000Y-55983333D02*
X169282380Y-56030952D01*
X169282380Y-56030952D02*
X169187142Y-56078571D01*
X169187142Y-56078571D02*
X169091904Y-56078571D01*
X169091904Y-56078571D02*
X168996666Y-56030952D01*
X168996666Y-56030952D02*
X168949047Y-55983333D01*
X168949047Y-55983333D02*
X168901428Y-55888095D01*
X168901428Y-55888095D02*
X168853809Y-55697619D01*
X168853809Y-55697619D02*
X168806190Y-55602381D01*
X168806190Y-55602381D02*
X168758571Y-55554762D01*
X168758571Y-55554762D02*
X168663333Y-55507143D01*
X168663333Y-55507143D02*
X168568095Y-55507143D01*
X168568095Y-55507143D02*
X168472857Y-55554762D01*
X168472857Y-55554762D02*
X168425238Y-55602381D01*
X168425238Y-55602381D02*
X168377619Y-55697619D01*
X168377619Y-55697619D02*
X168377619Y-55935714D01*
X168377619Y-55935714D02*
X168425238Y-56078571D01*
X169377619Y-56507143D02*
X168377619Y-56507143D01*
X168377619Y-56507143D02*
X168377619Y-56888095D01*
X168377619Y-56888095D02*
X168425238Y-56983333D01*
X168425238Y-56983333D02*
X168472857Y-57030952D01*
X168472857Y-57030952D02*
X168568095Y-57078571D01*
X168568095Y-57078571D02*
X168710952Y-57078571D01*
X168710952Y-57078571D02*
X168806190Y-57030952D01*
X168806190Y-57030952D02*
X168853809Y-56983333D01*
X168853809Y-56983333D02*
X168901428Y-56888095D01*
X168901428Y-56888095D02*
X168901428Y-56507143D01*
X169330000Y-57459524D02*
X169377619Y-57602381D01*
X169377619Y-57602381D02*
X169377619Y-57840476D01*
X169377619Y-57840476D02*
X169330000Y-57935714D01*
X169330000Y-57935714D02*
X169282380Y-57983333D01*
X169282380Y-57983333D02*
X169187142Y-58030952D01*
X169187142Y-58030952D02*
X169091904Y-58030952D01*
X169091904Y-58030952D02*
X168996666Y-57983333D01*
X168996666Y-57983333D02*
X168949047Y-57935714D01*
X168949047Y-57935714D02*
X168901428Y-57840476D01*
X168901428Y-57840476D02*
X168853809Y-57650000D01*
X168853809Y-57650000D02*
X168806190Y-57554762D01*
X168806190Y-57554762D02*
X168758571Y-57507143D01*
X168758571Y-57507143D02*
X168663333Y-57459524D01*
X168663333Y-57459524D02*
X168568095Y-57459524D01*
X168568095Y-57459524D02*
X168472857Y-57507143D01*
X168472857Y-57507143D02*
X168425238Y-57554762D01*
X168425238Y-57554762D02*
X168377619Y-57650000D01*
X168377619Y-57650000D02*
X168377619Y-57888095D01*
X168377619Y-57888095D02*
X168425238Y-58030952D01*
X168377619Y-58316667D02*
X168377619Y-58888095D01*
X169377619Y-58602381D02*
X168377619Y-58602381D01*
X175717619Y-54824762D02*
X174717619Y-54824762D01*
X174717619Y-54824762D02*
X174717619Y-55062857D01*
X174717619Y-55062857D02*
X174765238Y-55205714D01*
X174765238Y-55205714D02*
X174860476Y-55300952D01*
X174860476Y-55300952D02*
X174955714Y-55348571D01*
X174955714Y-55348571D02*
X175146190Y-55396190D01*
X175146190Y-55396190D02*
X175289047Y-55396190D01*
X175289047Y-55396190D02*
X175479523Y-55348571D01*
X175479523Y-55348571D02*
X175574761Y-55300952D01*
X175574761Y-55300952D02*
X175670000Y-55205714D01*
X175670000Y-55205714D02*
X175717619Y-55062857D01*
X175717619Y-55062857D02*
X175717619Y-54824762D01*
X174717619Y-55824762D02*
X175527142Y-55824762D01*
X175527142Y-55824762D02*
X175622380Y-55872381D01*
X175622380Y-55872381D02*
X175670000Y-55920000D01*
X175670000Y-55920000D02*
X175717619Y-56015238D01*
X175717619Y-56015238D02*
X175717619Y-56205714D01*
X175717619Y-56205714D02*
X175670000Y-56300952D01*
X175670000Y-56300952D02*
X175622380Y-56348571D01*
X175622380Y-56348571D02*
X175527142Y-56396190D01*
X175527142Y-56396190D02*
X174717619Y-56396190D01*
X175431904Y-56824762D02*
X175431904Y-57300952D01*
X175717619Y-56729524D02*
X174717619Y-57062857D01*
X174717619Y-57062857D02*
X175717619Y-57396190D01*
X175717619Y-58205714D02*
X175717619Y-57729524D01*
X175717619Y-57729524D02*
X174717619Y-57729524D01*
X175717619Y-59872381D02*
X175241428Y-59539048D01*
X175717619Y-59300953D02*
X174717619Y-59300953D01*
X174717619Y-59300953D02*
X174717619Y-59681905D01*
X174717619Y-59681905D02*
X174765238Y-59777143D01*
X174765238Y-59777143D02*
X174812857Y-59824762D01*
X174812857Y-59824762D02*
X174908095Y-59872381D01*
X174908095Y-59872381D02*
X175050952Y-59872381D01*
X175050952Y-59872381D02*
X175146190Y-59824762D01*
X175146190Y-59824762D02*
X175193809Y-59777143D01*
X175193809Y-59777143D02*
X175241428Y-59681905D01*
X175241428Y-59681905D02*
X175241428Y-59300953D01*
X174717619Y-60491429D02*
X174717619Y-60681905D01*
X174717619Y-60681905D02*
X174765238Y-60777143D01*
X174765238Y-60777143D02*
X174860476Y-60872381D01*
X174860476Y-60872381D02*
X175050952Y-60920000D01*
X175050952Y-60920000D02*
X175384285Y-60920000D01*
X175384285Y-60920000D02*
X175574761Y-60872381D01*
X175574761Y-60872381D02*
X175670000Y-60777143D01*
X175670000Y-60777143D02*
X175717619Y-60681905D01*
X175717619Y-60681905D02*
X175717619Y-60491429D01*
X175717619Y-60491429D02*
X175670000Y-60396191D01*
X175670000Y-60396191D02*
X175574761Y-60300953D01*
X175574761Y-60300953D02*
X175384285Y-60253334D01*
X175384285Y-60253334D02*
X175050952Y-60253334D01*
X175050952Y-60253334D02*
X174860476Y-60300953D01*
X174860476Y-60300953D02*
X174765238Y-60396191D01*
X174765238Y-60396191D02*
X174717619Y-60491429D01*
X175717619Y-61348572D02*
X174717619Y-61348572D01*
X174717619Y-61348572D02*
X175431904Y-61681905D01*
X175431904Y-61681905D02*
X174717619Y-62015238D01*
X174717619Y-62015238D02*
X175717619Y-62015238D01*
D11*
X78105000Y-93980000D02*
G75*
G03*
X79375000Y-95250000I1270000J0D01*
G01*
X176847500Y-25400000D02*
X103505000Y-25400000D01*
X103187500Y-102235000D02*
X103822500Y-102870000D01*
X169862500Y-95250000D02*
X176847500Y-95250000D01*
X78105000Y-93980000D02*
X78105000Y-50800000D01*
X103187500Y-96520000D02*
G75*
G03*
X101917500Y-95250000I-1270000J0D01*
G01*
X178117500Y-93980000D02*
X178117500Y-26670000D01*
X103187500Y-96520000D02*
X103187500Y-102235000D01*
X79375000Y-95250000D02*
X101917500Y-95250000D01*
X176847500Y-95250000D02*
G75*
G03*
X178117500Y-93980000I0J1270000D01*
G01*
X178117500Y-26670000D02*
G75*
G03*
X176847500Y-25400000I-1270000J0D01*
G01*
X167957500Y-102870000D02*
X103822500Y-102870000D01*
X168592500Y-96520000D02*
X168592500Y-102235000D01*
X169862500Y-95250000D02*
G75*
G03*
X168592500Y-96520000I0J-1270000D01*
G01*
X168592500Y-102235000D02*
X167957500Y-102870000D01*
X103505000Y-25400000D02*
G75*
G03*
X78105000Y-50800000I0J-25400000D01*
G01*
M02*
