G04 #@! TF.GenerationSoftware,KiCad,Pcbnew,(6.0.5-0)*
G04 #@! TF.CreationDate,2022-09-28T23:43:25-07:00*
G04 #@! TF.ProjectId,LanguageCard,4c616e67-7561-4676-9543-6172642e6b69,rev?*
G04 #@! TF.SameCoordinates,Original*
G04 #@! TF.FileFunction,AssemblyDrawing,Top*
%FSLAX46Y46*%
G04 Gerber Fmt 4.6, Leading zero omitted, Abs format (unit mm)*
G04 Created by KiCad (PCBNEW (6.0.5-0)) date 2022-09-28 23:43:25*
%MOMM*%
%LPD*%
G01*
G04 APERTURE LIST*
G04 #@! TA.AperFunction,Profile*
%ADD10C,0.100000*%
G04 #@! TD*
%ADD11C,0.254000*%
%ADD12C,0.150000*%
%ADD13C,0.200000*%
%ADD14C,0.100000*%
G04 APERTURE END LIST*
D10*
X27305000Y-93980000D02*
G75*
G03*
X28575000Y-95250000I1270000J0D01*
G01*
X126047500Y-25400000D02*
X52705000Y-25400000D01*
X52387500Y-102235000D02*
X53022500Y-102870000D01*
X119062500Y-95250000D02*
X126047500Y-95250000D01*
X27305000Y-93980000D02*
X27305000Y-50800000D01*
X52387500Y-96520000D02*
G75*
G03*
X51117500Y-95250000I-1270000J0D01*
G01*
X127317500Y-93980000D02*
X127317500Y-26670000D01*
X52387500Y-96520000D02*
X52387500Y-102235000D01*
X28575000Y-95250000D02*
X51117500Y-95250000D01*
X126047500Y-95250000D02*
G75*
G03*
X127317500Y-93980000I0J1270000D01*
G01*
X127317500Y-26670000D02*
G75*
G03*
X126047500Y-25400000I-1270000J0D01*
G01*
X117157500Y-102870000D02*
X53022500Y-102870000D01*
X117792500Y-96520000D02*
X117792500Y-102235000D01*
X119062500Y-95250000D02*
G75*
G03*
X117792500Y-96520000I0J-1270000D01*
G01*
X117792500Y-102235000D02*
X117157500Y-102870000D01*
X52705000Y-25400000D02*
G75*
G03*
X27305000Y-50800000I0J-25400000D01*
G01*
D11*
X154107242Y-42460635D02*
X153472242Y-41553492D01*
X153018671Y-42460635D02*
X153018671Y-40555635D01*
X153744385Y-40555635D01*
X153925814Y-40646350D01*
X154016528Y-40737064D01*
X154107242Y-40918492D01*
X154107242Y-41190635D01*
X154016528Y-41372064D01*
X153925814Y-41462778D01*
X153744385Y-41553492D01*
X153018671Y-41553492D01*
X154742242Y-40555635D02*
X155921528Y-40555635D01*
X155286528Y-41281350D01*
X155558671Y-41281350D01*
X155740100Y-41372064D01*
X155830814Y-41462778D01*
X155921528Y-41644207D01*
X155921528Y-42097778D01*
X155830814Y-42279207D01*
X155740100Y-42369921D01*
X155558671Y-42460635D01*
X155014385Y-42460635D01*
X154832957Y-42369921D01*
X154742242Y-42279207D01*
X156828671Y-42369921D02*
X156828671Y-42460635D01*
X156737957Y-42642064D01*
X156647242Y-42732778D01*
X160185100Y-42460635D02*
X159550100Y-41553492D01*
X159096528Y-42460635D02*
X159096528Y-40555635D01*
X159822242Y-40555635D01*
X160003671Y-40646350D01*
X160094385Y-40737064D01*
X160185100Y-40918492D01*
X160185100Y-41190635D01*
X160094385Y-41372064D01*
X160003671Y-41462778D01*
X159822242Y-41553492D01*
X159096528Y-41553492D01*
X161817957Y-41190635D02*
X161817957Y-42460635D01*
X161364385Y-40464921D02*
X160910814Y-41825635D01*
X162090100Y-41825635D01*
X162906528Y-42369921D02*
X162906528Y-42460635D01*
X162815814Y-42642064D01*
X162725100Y-42732778D01*
X166262957Y-42460635D02*
X165627957Y-41553492D01*
X165174385Y-42460635D02*
X165174385Y-40555635D01*
X165900100Y-40555635D01*
X166081528Y-40646350D01*
X166172242Y-40737064D01*
X166262957Y-40918492D01*
X166262957Y-41190635D01*
X166172242Y-41372064D01*
X166081528Y-41462778D01*
X165900100Y-41553492D01*
X165174385Y-41553492D01*
X167986528Y-40555635D02*
X167079385Y-40555635D01*
X166988671Y-41462778D01*
X167079385Y-41372064D01*
X167260814Y-41281350D01*
X167714385Y-41281350D01*
X167895814Y-41372064D01*
X167986528Y-41462778D01*
X168077242Y-41644207D01*
X168077242Y-42097778D01*
X167986528Y-42279207D01*
X167895814Y-42369921D01*
X167714385Y-42460635D01*
X167260814Y-42460635D01*
X167079385Y-42369921D01*
X166988671Y-42279207D01*
X168893671Y-42279207D02*
X168984385Y-42369921D01*
X168893671Y-42460635D01*
X168802957Y-42369921D01*
X168893671Y-42279207D01*
X168893671Y-42460635D01*
X168893671Y-41281350D02*
X168984385Y-41372064D01*
X168893671Y-41462778D01*
X168802957Y-41372064D01*
X168893671Y-41281350D01*
X168893671Y-41462778D01*
X171252242Y-40555635D02*
X171252242Y-42097778D01*
X171342957Y-42279207D01*
X171433671Y-42369921D01*
X171615100Y-42460635D01*
X171977957Y-42460635D01*
X172159385Y-42369921D01*
X172250100Y-42279207D01*
X172340814Y-42097778D01*
X172340814Y-40555635D01*
X173157242Y-42369921D02*
X173338671Y-42460635D01*
X173701528Y-42460635D01*
X173882957Y-42369921D01*
X173973671Y-42188492D01*
X173973671Y-42097778D01*
X173882957Y-41916350D01*
X173701528Y-41825635D01*
X173429385Y-41825635D01*
X173247957Y-41734921D01*
X173157242Y-41553492D01*
X173157242Y-41462778D01*
X173247957Y-41281350D01*
X173429385Y-41190635D01*
X173701528Y-41190635D01*
X173882957Y-41281350D01*
X175515814Y-42369921D02*
X175334385Y-42460635D01*
X174971528Y-42460635D01*
X174790100Y-42369921D01*
X174699385Y-42188492D01*
X174699385Y-41462778D01*
X174790100Y-41281350D01*
X174971528Y-41190635D01*
X175334385Y-41190635D01*
X175515814Y-41281350D01*
X175606528Y-41462778D01*
X175606528Y-41644207D01*
X174699385Y-41825635D01*
X177874385Y-42460635D02*
X177874385Y-40555635D01*
X178690814Y-42460635D02*
X178690814Y-41462778D01*
X178600100Y-41281350D01*
X178418671Y-41190635D01*
X178146528Y-41190635D01*
X177965100Y-41281350D01*
X177874385Y-41372064D01*
X179597957Y-42460635D02*
X179597957Y-41190635D01*
X179597957Y-40555635D02*
X179507242Y-40646350D01*
X179597957Y-40737064D01*
X179688671Y-40646350D01*
X179597957Y-40555635D01*
X179597957Y-40737064D01*
X181321528Y-41190635D02*
X181321528Y-42732778D01*
X181230814Y-42914207D01*
X181140100Y-43004921D01*
X180958671Y-43095635D01*
X180686528Y-43095635D01*
X180505100Y-43004921D01*
X181321528Y-42369921D02*
X181140100Y-42460635D01*
X180777242Y-42460635D01*
X180595814Y-42369921D01*
X180505100Y-42279207D01*
X180414385Y-42097778D01*
X180414385Y-41553492D01*
X180505100Y-41372064D01*
X180595814Y-41281350D01*
X180777242Y-41190635D01*
X181140100Y-41190635D01*
X181321528Y-41281350D01*
X182228671Y-42460635D02*
X182228671Y-40555635D01*
X183045100Y-42460635D02*
X183045100Y-41462778D01*
X182954385Y-41281350D01*
X182772957Y-41190635D01*
X182500814Y-41190635D01*
X182319385Y-41281350D01*
X182228671Y-41372064D01*
X184677957Y-42369921D02*
X184496528Y-42460635D01*
X184133671Y-42460635D01*
X183952242Y-42369921D01*
X183861528Y-42188492D01*
X183861528Y-41462778D01*
X183952242Y-41281350D01*
X184133671Y-41190635D01*
X184496528Y-41190635D01*
X184677957Y-41281350D01*
X184768671Y-41462778D01*
X184768671Y-41644207D01*
X183861528Y-41825635D01*
X185585100Y-42460635D02*
X185585100Y-41190635D01*
X185585100Y-41553492D02*
X185675814Y-41372064D01*
X185766528Y-41281350D01*
X185947957Y-41190635D01*
X186129385Y-41190635D01*
X188215814Y-42460635D02*
X188215814Y-41190635D01*
X188215814Y-41553492D02*
X188306528Y-41372064D01*
X188397242Y-41281350D01*
X188578671Y-41190635D01*
X188760100Y-41190635D01*
X190120814Y-42369921D02*
X189939385Y-42460635D01*
X189576528Y-42460635D01*
X189395100Y-42369921D01*
X189304385Y-42188492D01*
X189304385Y-41462778D01*
X189395100Y-41281350D01*
X189576528Y-41190635D01*
X189939385Y-41190635D01*
X190120814Y-41281350D01*
X190211528Y-41462778D01*
X190211528Y-41644207D01*
X189304385Y-41825635D01*
X190937242Y-42369921D02*
X191118671Y-42460635D01*
X191481528Y-42460635D01*
X191662957Y-42369921D01*
X191753671Y-42188492D01*
X191753671Y-42097778D01*
X191662957Y-41916350D01*
X191481528Y-41825635D01*
X191209385Y-41825635D01*
X191027957Y-41734921D01*
X190937242Y-41553492D01*
X190937242Y-41462778D01*
X191027957Y-41281350D01*
X191209385Y-41190635D01*
X191481528Y-41190635D01*
X191662957Y-41281350D01*
X192570100Y-42460635D02*
X192570100Y-41190635D01*
X192570100Y-40555635D02*
X192479385Y-40646350D01*
X192570100Y-40737064D01*
X192660814Y-40646350D01*
X192570100Y-40555635D01*
X192570100Y-40737064D01*
X193386528Y-42369921D02*
X193567957Y-42460635D01*
X193930814Y-42460635D01*
X194112242Y-42369921D01*
X194202957Y-42188492D01*
X194202957Y-42097778D01*
X194112242Y-41916350D01*
X193930814Y-41825635D01*
X193658671Y-41825635D01*
X193477242Y-41734921D01*
X193386528Y-41553492D01*
X193386528Y-41462778D01*
X193477242Y-41281350D01*
X193658671Y-41190635D01*
X193930814Y-41190635D01*
X194112242Y-41281350D01*
X194747242Y-41190635D02*
X195472957Y-41190635D01*
X195019385Y-40555635D02*
X195019385Y-42188492D01*
X195110100Y-42369921D01*
X195291528Y-42460635D01*
X195472957Y-42460635D01*
X196924385Y-42460635D02*
X196924385Y-41462778D01*
X196833671Y-41281350D01*
X196652242Y-41190635D01*
X196289385Y-41190635D01*
X196107957Y-41281350D01*
X196924385Y-42369921D02*
X196742957Y-42460635D01*
X196289385Y-42460635D01*
X196107957Y-42369921D01*
X196017242Y-42188492D01*
X196017242Y-42007064D01*
X196107957Y-41825635D01*
X196289385Y-41734921D01*
X196742957Y-41734921D01*
X196924385Y-41644207D01*
X197831528Y-41190635D02*
X197831528Y-42460635D01*
X197831528Y-41372064D02*
X197922242Y-41281350D01*
X198103671Y-41190635D01*
X198375814Y-41190635D01*
X198557242Y-41281350D01*
X198647957Y-41462778D01*
X198647957Y-42460635D01*
X200371528Y-42369921D02*
X200190100Y-42460635D01*
X199827242Y-42460635D01*
X199645814Y-42369921D01*
X199555100Y-42279207D01*
X199464385Y-42097778D01*
X199464385Y-41553492D01*
X199555100Y-41372064D01*
X199645814Y-41281350D01*
X199827242Y-41190635D01*
X200190100Y-41190635D01*
X200371528Y-41281350D01*
X201913671Y-42369921D02*
X201732242Y-42460635D01*
X201369385Y-42460635D01*
X201187957Y-42369921D01*
X201097242Y-42188492D01*
X201097242Y-41462778D01*
X201187957Y-41281350D01*
X201369385Y-41190635D01*
X201732242Y-41190635D01*
X201913671Y-41281350D01*
X202004385Y-41462778D01*
X202004385Y-41644207D01*
X201097242Y-41825635D01*
X204000100Y-41190635D02*
X204725814Y-41190635D01*
X204272242Y-42460635D02*
X204272242Y-40827778D01*
X204362957Y-40646350D01*
X204544385Y-40555635D01*
X204725814Y-40555635D01*
X205632957Y-42460635D02*
X205451528Y-42369921D01*
X205360814Y-42279207D01*
X205270100Y-42097778D01*
X205270100Y-41553492D01*
X205360814Y-41372064D01*
X205451528Y-41281350D01*
X205632957Y-41190635D01*
X205905100Y-41190635D01*
X206086528Y-41281350D01*
X206177242Y-41372064D01*
X206267957Y-41553492D01*
X206267957Y-42097778D01*
X206177242Y-42279207D01*
X206086528Y-42369921D01*
X205905100Y-42460635D01*
X205632957Y-42460635D01*
X207084385Y-42460635D02*
X207084385Y-41190635D01*
X207084385Y-41553492D02*
X207175100Y-41372064D01*
X207265814Y-41281350D01*
X207447242Y-41190635D01*
X207628671Y-41190635D01*
X160185100Y-45527685D02*
X160185100Y-43622685D01*
X161001528Y-45527685D02*
X161001528Y-44529828D01*
X160910814Y-44348400D01*
X160729385Y-44257685D01*
X160457242Y-44257685D01*
X160275814Y-44348400D01*
X160185100Y-44439114D01*
X161908671Y-45527685D02*
X161908671Y-44257685D01*
X161908671Y-43622685D02*
X161817957Y-43713400D01*
X161908671Y-43804114D01*
X161999385Y-43713400D01*
X161908671Y-43622685D01*
X161908671Y-43804114D01*
X163632242Y-44257685D02*
X163632242Y-45799828D01*
X163541528Y-45981257D01*
X163450814Y-46071971D01*
X163269385Y-46162685D01*
X162997242Y-46162685D01*
X162815814Y-46071971D01*
X163632242Y-45436971D02*
X163450814Y-45527685D01*
X163087957Y-45527685D01*
X162906528Y-45436971D01*
X162815814Y-45346257D01*
X162725100Y-45164828D01*
X162725100Y-44620542D01*
X162815814Y-44439114D01*
X162906528Y-44348400D01*
X163087957Y-44257685D01*
X163450814Y-44257685D01*
X163632242Y-44348400D01*
X164539385Y-45527685D02*
X164539385Y-43622685D01*
X165355814Y-45527685D02*
X165355814Y-44529828D01*
X165265100Y-44348400D01*
X165083671Y-44257685D01*
X164811528Y-44257685D01*
X164630100Y-44348400D01*
X164539385Y-44439114D01*
X166262957Y-44801971D02*
X167714385Y-44801971D01*
X169347242Y-45436971D02*
X169165814Y-45527685D01*
X168802957Y-45527685D01*
X168621528Y-45436971D01*
X168530814Y-45255542D01*
X168530814Y-44529828D01*
X168621528Y-44348400D01*
X168802957Y-44257685D01*
X169165814Y-44257685D01*
X169347242Y-44348400D01*
X169437957Y-44529828D01*
X169437957Y-44711257D01*
X168530814Y-44892685D01*
X169982242Y-44257685D02*
X170707957Y-44257685D01*
X170254385Y-45527685D02*
X170254385Y-43894828D01*
X170345100Y-43713400D01*
X170526528Y-43622685D01*
X170707957Y-43622685D01*
X171070814Y-44257685D02*
X171796528Y-44257685D01*
X171342957Y-45527685D02*
X171342957Y-43894828D01*
X171433671Y-43713400D01*
X171615100Y-43622685D01*
X171796528Y-43622685D01*
X172431528Y-45527685D02*
X172431528Y-44257685D01*
X172431528Y-43622685D02*
X172340814Y-43713400D01*
X172431528Y-43804114D01*
X172522242Y-43713400D01*
X172431528Y-43622685D01*
X172431528Y-43804114D01*
X174155100Y-45436971D02*
X173973671Y-45527685D01*
X173610814Y-45527685D01*
X173429385Y-45436971D01*
X173338671Y-45346257D01*
X173247957Y-45164828D01*
X173247957Y-44620542D01*
X173338671Y-44439114D01*
X173429385Y-44348400D01*
X173610814Y-44257685D01*
X173973671Y-44257685D01*
X174155100Y-44348400D01*
X174971528Y-45527685D02*
X174971528Y-44257685D01*
X174971528Y-43622685D02*
X174880814Y-43713400D01*
X174971528Y-43804114D01*
X175062242Y-43713400D01*
X174971528Y-43622685D01*
X174971528Y-43804114D01*
X176604385Y-45436971D02*
X176422957Y-45527685D01*
X176060100Y-45527685D01*
X175878671Y-45436971D01*
X175787957Y-45255542D01*
X175787957Y-44529828D01*
X175878671Y-44348400D01*
X176060100Y-44257685D01*
X176422957Y-44257685D01*
X176604385Y-44348400D01*
X176695100Y-44529828D01*
X176695100Y-44711257D01*
X175787957Y-44892685D01*
X177511528Y-44257685D02*
X177511528Y-45527685D01*
X177511528Y-44439114D02*
X177602242Y-44348400D01*
X177783671Y-44257685D01*
X178055814Y-44257685D01*
X178237242Y-44348400D01*
X178327957Y-44529828D01*
X178327957Y-45527685D01*
X180051528Y-45436971D02*
X179870100Y-45527685D01*
X179507242Y-45527685D01*
X179325814Y-45436971D01*
X179235100Y-45346257D01*
X179144385Y-45164828D01*
X179144385Y-44620542D01*
X179235100Y-44439114D01*
X179325814Y-44348400D01*
X179507242Y-44257685D01*
X179870100Y-44257685D01*
X180051528Y-44348400D01*
X180686528Y-44257685D02*
X181140100Y-45527685D01*
X181593671Y-44257685D02*
X181140100Y-45527685D01*
X180958671Y-45981257D01*
X180867957Y-46071971D01*
X180686528Y-46162685D01*
X184677957Y-45527685D02*
X183770814Y-45527685D01*
X183770814Y-43622685D01*
X185312957Y-44529828D02*
X185947957Y-44529828D01*
X186220100Y-45527685D02*
X185312957Y-45527685D01*
X185312957Y-43622685D01*
X186220100Y-43622685D01*
X187036528Y-45527685D02*
X187036528Y-43622685D01*
X187490100Y-43622685D01*
X187762242Y-43713400D01*
X187943671Y-43894828D01*
X188034385Y-44076257D01*
X188125100Y-44439114D01*
X188125100Y-44711257D01*
X188034385Y-45074114D01*
X187943671Y-45255542D01*
X187762242Y-45436971D01*
X187490100Y-45527685D01*
X187036528Y-45527685D01*
X188850814Y-45436971D02*
X189032242Y-45527685D01*
X189395100Y-45527685D01*
X189576528Y-45436971D01*
X189667242Y-45255542D01*
X189667242Y-45164828D01*
X189576528Y-44983400D01*
X189395100Y-44892685D01*
X189122957Y-44892685D01*
X188941528Y-44801971D01*
X188850814Y-44620542D01*
X188850814Y-44529828D01*
X188941528Y-44348400D01*
X189122957Y-44257685D01*
X189395100Y-44257685D01*
X189576528Y-44348400D01*
X190574385Y-45436971D02*
X190574385Y-45527685D01*
X190483671Y-45709114D01*
X190392957Y-45799828D01*
X193567957Y-45436971D02*
X193386528Y-45527685D01*
X193023671Y-45527685D01*
X192842242Y-45436971D01*
X192751528Y-45255542D01*
X192751528Y-44529828D01*
X192842242Y-44348400D01*
X193023671Y-44257685D01*
X193386528Y-44257685D01*
X193567957Y-44348400D01*
X193658671Y-44529828D01*
X193658671Y-44711257D01*
X192751528Y-44892685D01*
X194475100Y-45346257D02*
X194565814Y-45436971D01*
X194475100Y-45527685D01*
X194384385Y-45436971D01*
X194475100Y-45346257D01*
X194475100Y-45527685D01*
X196198671Y-44257685D02*
X196198671Y-45799828D01*
X196107957Y-45981257D01*
X196017242Y-46071971D01*
X195835814Y-46162685D01*
X195563671Y-46162685D01*
X195382242Y-46071971D01*
X196198671Y-45436971D02*
X196017242Y-45527685D01*
X195654385Y-45527685D01*
X195472957Y-45436971D01*
X195382242Y-45346257D01*
X195291528Y-45164828D01*
X195291528Y-44620542D01*
X195382242Y-44439114D01*
X195472957Y-44348400D01*
X195654385Y-44257685D01*
X196017242Y-44257685D01*
X196198671Y-44348400D01*
X197105814Y-45346257D02*
X197196528Y-45436971D01*
X197105814Y-45527685D01*
X197015100Y-45436971D01*
X197105814Y-45346257D01*
X197105814Y-45527685D01*
X199282957Y-43622685D02*
X200462242Y-43622685D01*
X199827242Y-44348400D01*
X200099385Y-44348400D01*
X200280814Y-44439114D01*
X200371528Y-44529828D01*
X200462242Y-44711257D01*
X200462242Y-45164828D01*
X200371528Y-45346257D01*
X200280814Y-45436971D01*
X200099385Y-45527685D01*
X199555100Y-45527685D01*
X199373671Y-45436971D01*
X199282957Y-45346257D01*
X201278671Y-45346257D02*
X201369385Y-45436971D01*
X201278671Y-45527685D01*
X201187957Y-45436971D01*
X201278671Y-45346257D01*
X201278671Y-45527685D01*
X202004385Y-43622685D02*
X203183671Y-43622685D01*
X202548671Y-44348400D01*
X202820814Y-44348400D01*
X203002242Y-44439114D01*
X203092957Y-44529828D01*
X203183671Y-44711257D01*
X203183671Y-45164828D01*
X203092957Y-45346257D01*
X203002242Y-45436971D01*
X202820814Y-45527685D01*
X202276528Y-45527685D01*
X202095100Y-45436971D01*
X202004385Y-45346257D01*
X204000100Y-45527685D02*
X204000100Y-43622685D01*
X205088671Y-45527685D02*
X204272242Y-44439114D01*
X205088671Y-43622685D02*
X204000100Y-44711257D01*
X153018671Y-49756785D02*
X153018671Y-51298928D01*
X153109385Y-51480357D01*
X153200100Y-51571071D01*
X153381528Y-51661785D01*
X153744385Y-51661785D01*
X153925814Y-51571071D01*
X154016528Y-51480357D01*
X154107242Y-51298928D01*
X154107242Y-49756785D01*
X155286528Y-50573214D02*
X155105100Y-50482500D01*
X155014385Y-50391785D01*
X154923671Y-50210357D01*
X154923671Y-50119642D01*
X155014385Y-49938214D01*
X155105100Y-49847500D01*
X155286528Y-49756785D01*
X155649385Y-49756785D01*
X155830814Y-49847500D01*
X155921528Y-49938214D01*
X156012242Y-50119642D01*
X156012242Y-50210357D01*
X155921528Y-50391785D01*
X155830814Y-50482500D01*
X155649385Y-50573214D01*
X155286528Y-50573214D01*
X155105100Y-50663928D01*
X155014385Y-50754642D01*
X154923671Y-50936071D01*
X154923671Y-51298928D01*
X155014385Y-51480357D01*
X155105100Y-51571071D01*
X155286528Y-51661785D01*
X155649385Y-51661785D01*
X155830814Y-51571071D01*
X155921528Y-51480357D01*
X156012242Y-51298928D01*
X156012242Y-50936071D01*
X155921528Y-50754642D01*
X155830814Y-50663928D01*
X155649385Y-50573214D01*
X159096528Y-51661785D02*
X159096528Y-50663928D01*
X159005814Y-50482500D01*
X158824385Y-50391785D01*
X158461528Y-50391785D01*
X158280100Y-50482500D01*
X159096528Y-51571071D02*
X158915100Y-51661785D01*
X158461528Y-51661785D01*
X158280100Y-51571071D01*
X158189385Y-51389642D01*
X158189385Y-51208214D01*
X158280100Y-51026785D01*
X158461528Y-50936071D01*
X158915100Y-50936071D01*
X159096528Y-50845357D01*
X160003671Y-50391785D02*
X160003671Y-51661785D01*
X160003671Y-50573214D02*
X160094385Y-50482500D01*
X160275814Y-50391785D01*
X160547957Y-50391785D01*
X160729385Y-50482500D01*
X160820100Y-50663928D01*
X160820100Y-51661785D01*
X162543671Y-51661785D02*
X162543671Y-49756785D01*
X162543671Y-51571071D02*
X162362242Y-51661785D01*
X161999385Y-51661785D01*
X161817957Y-51571071D01*
X161727242Y-51480357D01*
X161636528Y-51298928D01*
X161636528Y-50754642D01*
X161727242Y-50573214D01*
X161817957Y-50482500D01*
X161999385Y-50391785D01*
X162362242Y-50391785D01*
X162543671Y-50482500D01*
X164902242Y-49756785D02*
X164902242Y-51298928D01*
X164992957Y-51480357D01*
X165083671Y-51571071D01*
X165265100Y-51661785D01*
X165627957Y-51661785D01*
X165809385Y-51571071D01*
X165900100Y-51480357D01*
X165990814Y-51298928D01*
X165990814Y-49756785D01*
X166988671Y-51661785D02*
X167351528Y-51661785D01*
X167532957Y-51571071D01*
X167623671Y-51480357D01*
X167805100Y-51208214D01*
X167895814Y-50845357D01*
X167895814Y-50119642D01*
X167805100Y-49938214D01*
X167714385Y-49847500D01*
X167532957Y-49756785D01*
X167170100Y-49756785D01*
X166988671Y-49847500D01*
X166897957Y-49938214D01*
X166807242Y-50119642D01*
X166807242Y-50573214D01*
X166897957Y-50754642D01*
X166988671Y-50845357D01*
X167170100Y-50936071D01*
X167532957Y-50936071D01*
X167714385Y-50845357D01*
X167805100Y-50754642D01*
X167895814Y-50573214D01*
X168712242Y-51480357D02*
X168802957Y-51571071D01*
X168712242Y-51661785D01*
X168621528Y-51571071D01*
X168712242Y-51480357D01*
X168712242Y-51661785D01*
X168712242Y-50482500D02*
X168802957Y-50573214D01*
X168712242Y-50663928D01*
X168621528Y-50573214D01*
X168712242Y-50482500D01*
X168712242Y-50663928D01*
X170980100Y-51117500D02*
X171887242Y-51117500D01*
X170798671Y-51661785D02*
X171433671Y-49756785D01*
X172068671Y-51661785D01*
X172703671Y-50391785D02*
X172703671Y-51661785D01*
X172703671Y-50573214D02*
X172794385Y-50482500D01*
X172975814Y-50391785D01*
X173247957Y-50391785D01*
X173429385Y-50482500D01*
X173520100Y-50663928D01*
X173520100Y-51661785D01*
X174245814Y-50391785D02*
X174699385Y-51661785D01*
X175152957Y-50391785D02*
X174699385Y-51661785D01*
X174517957Y-52115357D01*
X174427242Y-52206071D01*
X174245814Y-52296785D01*
X177330100Y-50391785D02*
X177330100Y-51661785D01*
X177330100Y-50573214D02*
X177420814Y-50482500D01*
X177602242Y-50391785D01*
X177874385Y-50391785D01*
X178055814Y-50482500D01*
X178146528Y-50663928D01*
X178146528Y-51661785D01*
X179870100Y-51661785D02*
X179870100Y-50663928D01*
X179779385Y-50482500D01*
X179597957Y-50391785D01*
X179235100Y-50391785D01*
X179053671Y-50482500D01*
X179870100Y-51571071D02*
X179688671Y-51661785D01*
X179235100Y-51661785D01*
X179053671Y-51571071D01*
X178962957Y-51389642D01*
X178962957Y-51208214D01*
X179053671Y-51026785D01*
X179235100Y-50936071D01*
X179688671Y-50936071D01*
X179870100Y-50845357D01*
X180777242Y-51661785D02*
X180777242Y-50391785D01*
X180777242Y-50754642D02*
X180867957Y-50573214D01*
X180958671Y-50482500D01*
X181140100Y-50391785D01*
X181321528Y-50391785D01*
X181956528Y-51661785D02*
X181956528Y-50391785D01*
X181956528Y-50754642D02*
X182047242Y-50573214D01*
X182137957Y-50482500D01*
X182319385Y-50391785D01*
X182500814Y-50391785D01*
X183407957Y-51661785D02*
X183226528Y-51571071D01*
X183135814Y-51480357D01*
X183045100Y-51298928D01*
X183045100Y-50754642D01*
X183135814Y-50573214D01*
X183226528Y-50482500D01*
X183407957Y-50391785D01*
X183680100Y-50391785D01*
X183861528Y-50482500D01*
X183952242Y-50573214D01*
X184042957Y-50754642D01*
X184042957Y-51298928D01*
X183952242Y-51480357D01*
X183861528Y-51571071D01*
X183680100Y-51661785D01*
X183407957Y-51661785D01*
X184677957Y-50391785D02*
X185040814Y-51661785D01*
X185403671Y-50754642D01*
X185766528Y-51661785D01*
X186129385Y-50391785D01*
X188578671Y-50573214D02*
X188397242Y-50482500D01*
X188306528Y-50391785D01*
X188215814Y-50210357D01*
X188215814Y-50119642D01*
X188306528Y-49938214D01*
X188397242Y-49847500D01*
X188578671Y-49756785D01*
X188941528Y-49756785D01*
X189122957Y-49847500D01*
X189213671Y-49938214D01*
X189304385Y-50119642D01*
X189304385Y-50210357D01*
X189213671Y-50391785D01*
X189122957Y-50482500D01*
X188941528Y-50573214D01*
X188578671Y-50573214D01*
X188397242Y-50663928D01*
X188306528Y-50754642D01*
X188215814Y-50936071D01*
X188215814Y-51298928D01*
X188306528Y-51480357D01*
X188397242Y-51571071D01*
X188578671Y-51661785D01*
X188941528Y-51661785D01*
X189122957Y-51571071D01*
X189213671Y-51480357D01*
X189304385Y-51298928D01*
X189304385Y-50936071D01*
X189213671Y-50754642D01*
X189122957Y-50663928D01*
X188941528Y-50573214D01*
X190120814Y-51661785D02*
X190120814Y-49756785D01*
X191209385Y-51661785D02*
X190392957Y-50573214D01*
X191209385Y-49756785D02*
X190120814Y-50845357D01*
X192660814Y-50663928D02*
X192932957Y-50754642D01*
X193023671Y-50845357D01*
X193114385Y-51026785D01*
X193114385Y-51298928D01*
X193023671Y-51480357D01*
X192932957Y-51571071D01*
X192751528Y-51661785D01*
X192025814Y-51661785D01*
X192025814Y-49756785D01*
X192660814Y-49756785D01*
X192842242Y-49847500D01*
X192932957Y-49938214D01*
X193023671Y-50119642D01*
X193023671Y-50301071D01*
X192932957Y-50482500D01*
X192842242Y-50573214D01*
X192660814Y-50663928D01*
X192025814Y-50663928D01*
X193749385Y-51661785D02*
X194747242Y-50391785D01*
X193749385Y-50391785D02*
X194747242Y-51661785D01*
X195745100Y-50573214D02*
X195563671Y-50482500D01*
X195472957Y-50391785D01*
X195382242Y-50210357D01*
X195382242Y-50119642D01*
X195472957Y-49938214D01*
X195563671Y-49847500D01*
X195745100Y-49756785D01*
X196107957Y-49756785D01*
X196289385Y-49847500D01*
X196380100Y-49938214D01*
X196470814Y-50119642D01*
X196470814Y-50210357D01*
X196380100Y-50391785D01*
X196289385Y-50482500D01*
X196107957Y-50573214D01*
X195745100Y-50573214D01*
X195563671Y-50663928D01*
X195472957Y-50754642D01*
X195382242Y-50936071D01*
X195382242Y-51298928D01*
X195472957Y-51480357D01*
X195563671Y-51571071D01*
X195745100Y-51661785D01*
X196107957Y-51661785D01*
X196289385Y-51571071D01*
X196380100Y-51480357D01*
X196470814Y-51298928D01*
X196470814Y-50936071D01*
X196380100Y-50754642D01*
X196289385Y-50663928D01*
X196107957Y-50573214D01*
X198647957Y-51571071D02*
X198829385Y-51661785D01*
X199192242Y-51661785D01*
X199373671Y-51571071D01*
X199464385Y-51389642D01*
X199464385Y-51298928D01*
X199373671Y-51117500D01*
X199192242Y-51026785D01*
X198920100Y-51026785D01*
X198738671Y-50936071D01*
X198647957Y-50754642D01*
X198647957Y-50663928D01*
X198738671Y-50482500D01*
X198920100Y-50391785D01*
X199192242Y-50391785D01*
X199373671Y-50482500D01*
X200008671Y-50391785D02*
X200734385Y-50391785D01*
X200280814Y-49756785D02*
X200280814Y-51389642D01*
X200371528Y-51571071D01*
X200552957Y-51661785D01*
X200734385Y-51661785D01*
X202185814Y-51661785D02*
X202185814Y-50663928D01*
X202095100Y-50482500D01*
X201913671Y-50391785D01*
X201550814Y-50391785D01*
X201369385Y-50482500D01*
X202185814Y-51571071D02*
X202004385Y-51661785D01*
X201550814Y-51661785D01*
X201369385Y-51571071D01*
X201278671Y-51389642D01*
X201278671Y-51208214D01*
X201369385Y-51026785D01*
X201550814Y-50936071D01*
X202004385Y-50936071D01*
X202185814Y-50845357D01*
X202820814Y-50391785D02*
X203546528Y-50391785D01*
X203092957Y-49756785D02*
X203092957Y-51389642D01*
X203183671Y-51571071D01*
X203365100Y-51661785D01*
X203546528Y-51661785D01*
X204181528Y-51661785D02*
X204181528Y-50391785D01*
X204181528Y-49756785D02*
X204090814Y-49847500D01*
X204181528Y-49938214D01*
X204272242Y-49847500D01*
X204181528Y-49756785D01*
X204181528Y-49938214D01*
X205905100Y-51571071D02*
X205723671Y-51661785D01*
X205360814Y-51661785D01*
X205179385Y-51571071D01*
X205088671Y-51480357D01*
X204997957Y-51298928D01*
X204997957Y-50754642D01*
X205088671Y-50573214D01*
X205179385Y-50482500D01*
X205360814Y-50391785D01*
X205723671Y-50391785D01*
X205905100Y-50482500D01*
X209261528Y-51661785D02*
X208626528Y-50754642D01*
X208172957Y-51661785D02*
X208172957Y-49756785D01*
X208898671Y-49756785D01*
X209080100Y-49847500D01*
X209170814Y-49938214D01*
X209261528Y-50119642D01*
X209261528Y-50391785D01*
X209170814Y-50573214D01*
X209080100Y-50663928D01*
X208898671Y-50754642D01*
X208172957Y-50754642D01*
X209987242Y-51117500D02*
X210894385Y-51117500D01*
X209805814Y-51661785D02*
X210440814Y-49756785D01*
X211075814Y-51661785D01*
X211710814Y-51661785D02*
X211710814Y-49756785D01*
X212345814Y-51117500D01*
X212980814Y-49756785D01*
X212980814Y-51661785D01*
X216155814Y-51571071D02*
X215974385Y-51661785D01*
X215611528Y-51661785D01*
X215430100Y-51571071D01*
X215339385Y-51480357D01*
X215248671Y-51298928D01*
X215248671Y-50754642D01*
X215339385Y-50573214D01*
X215430100Y-50482500D01*
X215611528Y-50391785D01*
X215974385Y-50391785D01*
X216155814Y-50482500D01*
X217788671Y-51661785D02*
X217788671Y-50663928D01*
X217697957Y-50482500D01*
X217516528Y-50391785D01*
X217153671Y-50391785D01*
X216972242Y-50482500D01*
X217788671Y-51571071D02*
X217607242Y-51661785D01*
X217153671Y-51661785D01*
X216972242Y-51571071D01*
X216881528Y-51389642D01*
X216881528Y-51208214D01*
X216972242Y-51026785D01*
X217153671Y-50936071D01*
X217607242Y-50936071D01*
X217788671Y-50845357D01*
X218695814Y-50391785D02*
X218695814Y-51661785D01*
X218695814Y-50573214D02*
X218786528Y-50482500D01*
X218967957Y-50391785D01*
X219240100Y-50391785D01*
X219421528Y-50482500D01*
X219512242Y-50663928D01*
X219512242Y-51661785D01*
X221870814Y-51661785D02*
X221870814Y-49756785D01*
X221870814Y-50482500D02*
X222052242Y-50391785D01*
X222415100Y-50391785D01*
X222596528Y-50482500D01*
X222687242Y-50573214D01*
X222777957Y-50754642D01*
X222777957Y-51298928D01*
X222687242Y-51480357D01*
X222596528Y-51571071D01*
X222415100Y-51661785D01*
X222052242Y-51661785D01*
X221870814Y-51571071D01*
X224320100Y-51571071D02*
X224138671Y-51661785D01*
X223775814Y-51661785D01*
X223594385Y-51571071D01*
X223503671Y-51389642D01*
X223503671Y-50663928D01*
X223594385Y-50482500D01*
X223775814Y-50391785D01*
X224138671Y-50391785D01*
X224320100Y-50482500D01*
X224410814Y-50663928D01*
X224410814Y-50845357D01*
X223503671Y-51026785D01*
X227495100Y-50391785D02*
X227495100Y-51661785D01*
X226678671Y-50391785D02*
X226678671Y-51389642D01*
X226769385Y-51571071D01*
X226950814Y-51661785D01*
X227222957Y-51661785D01*
X227404385Y-51571071D01*
X227495100Y-51480357D01*
X228311528Y-51571071D02*
X228492957Y-51661785D01*
X228855814Y-51661785D01*
X229037242Y-51571071D01*
X229127957Y-51389642D01*
X229127957Y-51298928D01*
X229037242Y-51117500D01*
X228855814Y-51026785D01*
X228583671Y-51026785D01*
X228402242Y-50936071D01*
X228311528Y-50754642D01*
X228311528Y-50663928D01*
X228402242Y-50482500D01*
X228583671Y-50391785D01*
X228855814Y-50391785D01*
X229037242Y-50482500D01*
X230670100Y-51571071D02*
X230488671Y-51661785D01*
X230125814Y-51661785D01*
X229944385Y-51571071D01*
X229853671Y-51389642D01*
X229853671Y-50663928D01*
X229944385Y-50482500D01*
X230125814Y-50391785D01*
X230488671Y-50391785D01*
X230670100Y-50482500D01*
X230760814Y-50663928D01*
X230760814Y-50845357D01*
X229853671Y-51026785D01*
X232393671Y-51661785D02*
X232393671Y-49756785D01*
X232393671Y-51571071D02*
X232212242Y-51661785D01*
X231849385Y-51661785D01*
X231667957Y-51571071D01*
X231577242Y-51480357D01*
X231486528Y-51298928D01*
X231486528Y-50754642D01*
X231577242Y-50573214D01*
X231667957Y-50482500D01*
X231849385Y-50391785D01*
X232212242Y-50391785D01*
X232393671Y-50482500D01*
X233300814Y-51480357D02*
X233391528Y-51571071D01*
X233300814Y-51661785D01*
X233210100Y-51571071D01*
X233300814Y-51480357D01*
X233300814Y-51661785D01*
X160910814Y-54638121D02*
X160729385Y-54728835D01*
X160366528Y-54728835D01*
X160185100Y-54638121D01*
X160094385Y-54456692D01*
X160094385Y-53730978D01*
X160185100Y-53549550D01*
X160366528Y-53458835D01*
X160729385Y-53458835D01*
X160910814Y-53549550D01*
X161001528Y-53730978D01*
X161001528Y-53912407D01*
X160094385Y-54093835D01*
X161636528Y-54728835D02*
X162634385Y-53458835D01*
X161636528Y-53458835D02*
X162634385Y-54728835D01*
X163360100Y-54547407D02*
X163450814Y-54638121D01*
X163360100Y-54728835D01*
X163269385Y-54638121D01*
X163360100Y-54547407D01*
X163360100Y-54728835D01*
X163360100Y-53549550D02*
X163450814Y-53640264D01*
X163360100Y-53730978D01*
X163269385Y-53640264D01*
X163360100Y-53549550D01*
X163360100Y-53730978D01*
X166807242Y-54547407D02*
X166716528Y-54638121D01*
X166444385Y-54728835D01*
X166262957Y-54728835D01*
X165990814Y-54638121D01*
X165809385Y-54456692D01*
X165718671Y-54275264D01*
X165627957Y-53912407D01*
X165627957Y-53640264D01*
X165718671Y-53277407D01*
X165809385Y-53095978D01*
X165990814Y-52914550D01*
X166262957Y-52823835D01*
X166444385Y-52823835D01*
X166716528Y-52914550D01*
X166807242Y-53005264D01*
X167442242Y-53458835D02*
X167895814Y-54728835D01*
X168349385Y-53458835D02*
X167895814Y-54728835D01*
X167714385Y-55182407D01*
X167623671Y-55273121D01*
X167442242Y-55363835D01*
X169891528Y-52823835D02*
X169528671Y-52823835D01*
X169347242Y-52914550D01*
X169256528Y-53005264D01*
X169075100Y-53277407D01*
X168984385Y-53640264D01*
X168984385Y-54365978D01*
X169075100Y-54547407D01*
X169165814Y-54638121D01*
X169347242Y-54728835D01*
X169710100Y-54728835D01*
X169891528Y-54638121D01*
X169982242Y-54547407D01*
X170072957Y-54365978D01*
X170072957Y-53912407D01*
X169982242Y-53730978D01*
X169891528Y-53640264D01*
X169710100Y-53549550D01*
X169347242Y-53549550D01*
X169165814Y-53640264D01*
X169075100Y-53730978D01*
X168984385Y-53912407D01*
X170798671Y-53005264D02*
X170889385Y-52914550D01*
X171070814Y-52823835D01*
X171524385Y-52823835D01*
X171705814Y-52914550D01*
X171796528Y-53005264D01*
X171887242Y-53186692D01*
X171887242Y-53368121D01*
X171796528Y-53640264D01*
X170707957Y-54728835D01*
X171887242Y-54728835D01*
X173520100Y-52823835D02*
X173157242Y-52823835D01*
X172975814Y-52914550D01*
X172885100Y-53005264D01*
X172703671Y-53277407D01*
X172612957Y-53640264D01*
X172612957Y-54365978D01*
X172703671Y-54547407D01*
X172794385Y-54638121D01*
X172975814Y-54728835D01*
X173338671Y-54728835D01*
X173520100Y-54638121D01*
X173610814Y-54547407D01*
X173701528Y-54365978D01*
X173701528Y-53912407D01*
X173610814Y-53730978D01*
X173520100Y-53640264D01*
X173338671Y-53549550D01*
X172975814Y-53549550D01*
X172794385Y-53640264D01*
X172703671Y-53730978D01*
X172612957Y-53912407D01*
X175334385Y-53458835D02*
X175334385Y-54728835D01*
X174880814Y-52733121D02*
X174427242Y-54093835D01*
X175606528Y-54093835D01*
X176422957Y-54638121D02*
X176422957Y-54728835D01*
X176332242Y-54910264D01*
X176241528Y-55000978D01*
X179597957Y-52823835D02*
X178690814Y-52823835D01*
X178600100Y-53730978D01*
X178690814Y-53640264D01*
X178872242Y-53549550D01*
X179325814Y-53549550D01*
X179507242Y-53640264D01*
X179597957Y-53730978D01*
X179688671Y-53912407D01*
X179688671Y-54365978D01*
X179597957Y-54547407D01*
X179507242Y-54638121D01*
X179325814Y-54728835D01*
X178872242Y-54728835D01*
X178690814Y-54638121D01*
X178600100Y-54547407D01*
X181593671Y-54547407D02*
X181502957Y-54638121D01*
X181230814Y-54728835D01*
X181049385Y-54728835D01*
X180777242Y-54638121D01*
X180595814Y-54456692D01*
X180505100Y-54275264D01*
X180414385Y-53912407D01*
X180414385Y-53640264D01*
X180505100Y-53277407D01*
X180595814Y-53095978D01*
X180777242Y-52914550D01*
X181049385Y-52823835D01*
X181230814Y-52823835D01*
X181502957Y-52914550D01*
X181593671Y-53005264D01*
X183226528Y-52823835D02*
X182863671Y-52823835D01*
X182682242Y-52914550D01*
X182591528Y-53005264D01*
X182410100Y-53277407D01*
X182319385Y-53640264D01*
X182319385Y-54365978D01*
X182410100Y-54547407D01*
X182500814Y-54638121D01*
X182682242Y-54728835D01*
X183045100Y-54728835D01*
X183226528Y-54638121D01*
X183317242Y-54547407D01*
X183407957Y-54365978D01*
X183407957Y-53912407D01*
X183317242Y-53730978D01*
X183226528Y-53640264D01*
X183045100Y-53549550D01*
X182682242Y-53549550D01*
X182500814Y-53640264D01*
X182410100Y-53730978D01*
X182319385Y-53912407D01*
X185040814Y-53458835D02*
X185040814Y-54728835D01*
X184587242Y-52733121D02*
X184133671Y-54093835D01*
X185312957Y-54093835D01*
X186401528Y-52823835D02*
X186582957Y-52823835D01*
X186764385Y-52914550D01*
X186855100Y-53005264D01*
X186945814Y-53186692D01*
X187036528Y-53549550D01*
X187036528Y-54003121D01*
X186945814Y-54365978D01*
X186855100Y-54547407D01*
X186764385Y-54638121D01*
X186582957Y-54728835D01*
X186401528Y-54728835D01*
X186220100Y-54638121D01*
X186129385Y-54547407D01*
X186038671Y-54365978D01*
X185947957Y-54003121D01*
X185947957Y-53549550D01*
X186038671Y-53186692D01*
X186129385Y-53005264D01*
X186220100Y-52914550D01*
X186401528Y-52823835D01*
X188125100Y-53640264D02*
X187943671Y-53549550D01*
X187852957Y-53458835D01*
X187762242Y-53277407D01*
X187762242Y-53186692D01*
X187852957Y-53005264D01*
X187943671Y-52914550D01*
X188125100Y-52823835D01*
X188487957Y-52823835D01*
X188669385Y-52914550D01*
X188760100Y-53005264D01*
X188850814Y-53186692D01*
X188850814Y-53277407D01*
X188760100Y-53458835D01*
X188669385Y-53549550D01*
X188487957Y-53640264D01*
X188125100Y-53640264D01*
X187943671Y-53730978D01*
X187852957Y-53821692D01*
X187762242Y-54003121D01*
X187762242Y-54365978D01*
X187852957Y-54547407D01*
X187943671Y-54638121D01*
X188125100Y-54728835D01*
X188487957Y-54728835D01*
X188669385Y-54638121D01*
X188760100Y-54547407D01*
X188850814Y-54365978D01*
X188850814Y-54003121D01*
X188760100Y-53821692D01*
X188669385Y-53730978D01*
X188487957Y-53640264D01*
X189757957Y-54638121D02*
X189757957Y-54728835D01*
X189667242Y-54910264D01*
X189576528Y-55000978D01*
X193114385Y-54547407D02*
X193023671Y-54638121D01*
X192751528Y-54728835D01*
X192570100Y-54728835D01*
X192297957Y-54638121D01*
X192116528Y-54456692D01*
X192025814Y-54275264D01*
X191935100Y-53912407D01*
X191935100Y-53640264D01*
X192025814Y-53277407D01*
X192116528Y-53095978D01*
X192297957Y-52914550D01*
X192570100Y-52823835D01*
X192751528Y-52823835D01*
X193023671Y-52914550D01*
X193114385Y-53005264D01*
X193749385Y-53458835D02*
X194202957Y-54728835D01*
X194656528Y-53458835D02*
X194202957Y-54728835D01*
X194021528Y-55182407D01*
X193930814Y-55273121D01*
X193749385Y-55363835D01*
X195200814Y-52823835D02*
X196470814Y-52823835D01*
X195654385Y-54728835D01*
X198285100Y-54547407D02*
X198194385Y-54638121D01*
X197922242Y-54728835D01*
X197740814Y-54728835D01*
X197468671Y-54638121D01*
X197287242Y-54456692D01*
X197196528Y-54275264D01*
X197105814Y-53912407D01*
X197105814Y-53640264D01*
X197196528Y-53277407D01*
X197287242Y-53095978D01*
X197468671Y-52914550D01*
X197740814Y-52823835D01*
X197922242Y-52823835D01*
X198194385Y-52914550D01*
X198285100Y-53005264D01*
X200099385Y-54728835D02*
X199010814Y-54728835D01*
X199555100Y-54728835D02*
X199555100Y-52823835D01*
X199373671Y-53095978D01*
X199192242Y-53277407D01*
X199010814Y-53368121D01*
X201187957Y-53640264D02*
X201006528Y-53549550D01*
X200915814Y-53458835D01*
X200825100Y-53277407D01*
X200825100Y-53186692D01*
X200915814Y-53005264D01*
X201006528Y-52914550D01*
X201187957Y-52823835D01*
X201550814Y-52823835D01*
X201732242Y-52914550D01*
X201822957Y-53005264D01*
X201913671Y-53186692D01*
X201913671Y-53277407D01*
X201822957Y-53458835D01*
X201732242Y-53549550D01*
X201550814Y-53640264D01*
X201187957Y-53640264D01*
X201006528Y-53730978D01*
X200915814Y-53821692D01*
X200825100Y-54003121D01*
X200825100Y-54365978D01*
X200915814Y-54547407D01*
X201006528Y-54638121D01*
X201187957Y-54728835D01*
X201550814Y-54728835D01*
X201732242Y-54638121D01*
X201822957Y-54547407D01*
X201913671Y-54365978D01*
X201913671Y-54003121D01*
X201822957Y-53821692D01*
X201732242Y-53730978D01*
X201550814Y-53640264D01*
X203637242Y-52823835D02*
X202730100Y-52823835D01*
X202639385Y-53730978D01*
X202730100Y-53640264D01*
X202911528Y-53549550D01*
X203365100Y-53549550D01*
X203546528Y-53640264D01*
X203637242Y-53730978D01*
X203727957Y-53912407D01*
X203727957Y-54365978D01*
X203637242Y-54547407D01*
X203546528Y-54638121D01*
X203365100Y-54728835D01*
X202911528Y-54728835D01*
X202730100Y-54638121D01*
X202639385Y-54547407D01*
X204635100Y-54638121D02*
X204635100Y-54728835D01*
X204544385Y-54910264D01*
X204453671Y-55000978D01*
X206630814Y-52823835D02*
X207719385Y-52823835D01*
X207175100Y-54728835D02*
X207175100Y-52823835D01*
X209442957Y-54547407D02*
X209352242Y-54638121D01*
X209080100Y-54728835D01*
X208898671Y-54728835D01*
X208626528Y-54638121D01*
X208445100Y-54456692D01*
X208354385Y-54275264D01*
X208263671Y-53912407D01*
X208263671Y-53640264D01*
X208354385Y-53277407D01*
X208445100Y-53095978D01*
X208626528Y-52914550D01*
X208898671Y-52823835D01*
X209080100Y-52823835D01*
X209352242Y-52914550D01*
X209442957Y-53005264D01*
X211166528Y-52823835D02*
X210259385Y-52823835D01*
X210168671Y-53730978D01*
X210259385Y-53640264D01*
X210440814Y-53549550D01*
X210894385Y-53549550D01*
X211075814Y-53640264D01*
X211166528Y-53730978D01*
X211257242Y-53912407D01*
X211257242Y-54365978D01*
X211166528Y-54547407D01*
X211075814Y-54638121D01*
X210894385Y-54728835D01*
X210440814Y-54728835D01*
X210259385Y-54638121D01*
X210168671Y-54547407D01*
X212980814Y-52823835D02*
X212073671Y-52823835D01*
X211982957Y-53730978D01*
X212073671Y-53640264D01*
X212255100Y-53549550D01*
X212708671Y-53549550D01*
X212890100Y-53640264D01*
X212980814Y-53730978D01*
X213071528Y-53912407D01*
X213071528Y-54365978D01*
X212980814Y-54547407D01*
X212890100Y-54638121D01*
X212708671Y-54728835D01*
X212255100Y-54728835D01*
X212073671Y-54638121D01*
X211982957Y-54547407D01*
X214160100Y-53640264D02*
X213978671Y-53549550D01*
X213887957Y-53458835D01*
X213797242Y-53277407D01*
X213797242Y-53186692D01*
X213887957Y-53005264D01*
X213978671Y-52914550D01*
X214160100Y-52823835D01*
X214522957Y-52823835D01*
X214704385Y-52914550D01*
X214795100Y-53005264D01*
X214885814Y-53186692D01*
X214885814Y-53277407D01*
X214795100Y-53458835D01*
X214704385Y-53549550D01*
X214522957Y-53640264D01*
X214160100Y-53640264D01*
X213978671Y-53730978D01*
X213887957Y-53821692D01*
X213797242Y-54003121D01*
X213797242Y-54365978D01*
X213887957Y-54547407D01*
X213978671Y-54638121D01*
X214160100Y-54728835D01*
X214522957Y-54728835D01*
X214704385Y-54638121D01*
X214795100Y-54547407D01*
X214885814Y-54365978D01*
X214885814Y-54003121D01*
X214795100Y-53821692D01*
X214704385Y-53730978D01*
X214522957Y-53640264D01*
X215974385Y-53640264D02*
X215792957Y-53549550D01*
X215702242Y-53458835D01*
X215611528Y-53277407D01*
X215611528Y-53186692D01*
X215702242Y-53005264D01*
X215792957Y-52914550D01*
X215974385Y-52823835D01*
X216337242Y-52823835D01*
X216518671Y-52914550D01*
X216609385Y-53005264D01*
X216700100Y-53186692D01*
X216700100Y-53277407D01*
X216609385Y-53458835D01*
X216518671Y-53549550D01*
X216337242Y-53640264D01*
X215974385Y-53640264D01*
X215792957Y-53730978D01*
X215702242Y-53821692D01*
X215611528Y-54003121D01*
X215611528Y-54365978D01*
X215702242Y-54547407D01*
X215792957Y-54638121D01*
X215974385Y-54728835D01*
X216337242Y-54728835D01*
X216518671Y-54638121D01*
X216609385Y-54547407D01*
X216700100Y-54365978D01*
X216700100Y-54003121D01*
X216609385Y-53821692D01*
X216518671Y-53730978D01*
X216337242Y-53640264D01*
X160185100Y-57795885D02*
X160185100Y-55890885D01*
X160185100Y-56798028D02*
X161273671Y-56798028D01*
X161273671Y-57795885D02*
X161273671Y-55890885D01*
X162180814Y-57795885D02*
X162180814Y-56525885D01*
X162180814Y-55890885D02*
X162090100Y-55981600D01*
X162180814Y-56072314D01*
X162271528Y-55981600D01*
X162180814Y-55890885D01*
X162180814Y-56072314D01*
X163904385Y-56525885D02*
X163904385Y-58068028D01*
X163813671Y-58249457D01*
X163722957Y-58340171D01*
X163541528Y-58430885D01*
X163269385Y-58430885D01*
X163087957Y-58340171D01*
X163904385Y-57705171D02*
X163722957Y-57795885D01*
X163360100Y-57795885D01*
X163178671Y-57705171D01*
X163087957Y-57614457D01*
X162997242Y-57433028D01*
X162997242Y-56888742D01*
X163087957Y-56707314D01*
X163178671Y-56616600D01*
X163360100Y-56525885D01*
X163722957Y-56525885D01*
X163904385Y-56616600D01*
X164811528Y-57795885D02*
X164811528Y-55890885D01*
X165627957Y-57795885D02*
X165627957Y-56798028D01*
X165537242Y-56616600D01*
X165355814Y-56525885D01*
X165083671Y-56525885D01*
X164902242Y-56616600D01*
X164811528Y-56707314D01*
X167260814Y-57705171D02*
X167079385Y-57795885D01*
X166716528Y-57795885D01*
X166535100Y-57705171D01*
X166444385Y-57523742D01*
X166444385Y-56798028D01*
X166535100Y-56616600D01*
X166716528Y-56525885D01*
X167079385Y-56525885D01*
X167260814Y-56616600D01*
X167351528Y-56798028D01*
X167351528Y-56979457D01*
X166444385Y-57160885D01*
X168167957Y-57795885D02*
X168167957Y-56525885D01*
X168167957Y-56888742D02*
X168258671Y-56707314D01*
X168349385Y-56616600D01*
X168530814Y-56525885D01*
X168712242Y-56525885D01*
X171615100Y-57705171D02*
X171433671Y-57795885D01*
X171070814Y-57795885D01*
X170889385Y-57705171D01*
X170798671Y-57614457D01*
X170707957Y-57433028D01*
X170707957Y-56888742D01*
X170798671Y-56707314D01*
X170889385Y-56616600D01*
X171070814Y-56525885D01*
X171433671Y-56525885D01*
X171615100Y-56616600D01*
X173247957Y-57795885D02*
X173247957Y-56798028D01*
X173157242Y-56616600D01*
X172975814Y-56525885D01*
X172612957Y-56525885D01*
X172431528Y-56616600D01*
X173247957Y-57705171D02*
X173066528Y-57795885D01*
X172612957Y-57795885D01*
X172431528Y-57705171D01*
X172340814Y-57523742D01*
X172340814Y-57342314D01*
X172431528Y-57160885D01*
X172612957Y-57070171D01*
X173066528Y-57070171D01*
X173247957Y-56979457D01*
X174155100Y-56525885D02*
X174155100Y-58430885D01*
X174155100Y-56616600D02*
X174336528Y-56525885D01*
X174699385Y-56525885D01*
X174880814Y-56616600D01*
X174971528Y-56707314D01*
X175062242Y-56888742D01*
X175062242Y-57433028D01*
X174971528Y-57614457D01*
X174880814Y-57705171D01*
X174699385Y-57795885D01*
X174336528Y-57795885D01*
X174155100Y-57705171D01*
X176695100Y-57795885D02*
X176695100Y-56798028D01*
X176604385Y-56616600D01*
X176422957Y-56525885D01*
X176060100Y-56525885D01*
X175878671Y-56616600D01*
X176695100Y-57705171D02*
X176513671Y-57795885D01*
X176060100Y-57795885D01*
X175878671Y-57705171D01*
X175787957Y-57523742D01*
X175787957Y-57342314D01*
X175878671Y-57160885D01*
X176060100Y-57070171D01*
X176513671Y-57070171D01*
X176695100Y-56979457D01*
X178418671Y-57705171D02*
X178237242Y-57795885D01*
X177874385Y-57795885D01*
X177692957Y-57705171D01*
X177602242Y-57614457D01*
X177511528Y-57433028D01*
X177511528Y-56888742D01*
X177602242Y-56707314D01*
X177692957Y-56616600D01*
X177874385Y-56525885D01*
X178237242Y-56525885D01*
X178418671Y-56616600D01*
X179235100Y-57795885D02*
X179235100Y-56525885D01*
X179235100Y-55890885D02*
X179144385Y-55981600D01*
X179235100Y-56072314D01*
X179325814Y-55981600D01*
X179235100Y-55890885D01*
X179235100Y-56072314D01*
X179870100Y-56525885D02*
X180595814Y-56525885D01*
X180142242Y-55890885D02*
X180142242Y-57523742D01*
X180232957Y-57705171D01*
X180414385Y-57795885D01*
X180595814Y-57795885D01*
X181230814Y-57795885D02*
X181230814Y-56525885D01*
X181230814Y-55890885D02*
X181140100Y-55981600D01*
X181230814Y-56072314D01*
X181321528Y-55981600D01*
X181230814Y-55890885D01*
X181230814Y-56072314D01*
X182863671Y-57705171D02*
X182682242Y-57795885D01*
X182319385Y-57795885D01*
X182137957Y-57705171D01*
X182047242Y-57523742D01*
X182047242Y-56798028D01*
X182137957Y-56616600D01*
X182319385Y-56525885D01*
X182682242Y-56525885D01*
X182863671Y-56616600D01*
X182954385Y-56798028D01*
X182954385Y-56979457D01*
X182047242Y-57160885D01*
X183680100Y-57705171D02*
X183861528Y-57795885D01*
X184224385Y-57795885D01*
X184405814Y-57705171D01*
X184496528Y-57523742D01*
X184496528Y-57433028D01*
X184405814Y-57251600D01*
X184224385Y-57160885D01*
X183952242Y-57160885D01*
X183770814Y-57070171D01*
X183680100Y-56888742D01*
X183680100Y-56798028D01*
X183770814Y-56616600D01*
X183952242Y-56525885D01*
X184224385Y-56525885D01*
X184405814Y-56616600D01*
X186673671Y-57705171D02*
X186855100Y-57795885D01*
X187217957Y-57795885D01*
X187399385Y-57705171D01*
X187490100Y-57523742D01*
X187490100Y-57433028D01*
X187399385Y-57251600D01*
X187217957Y-57160885D01*
X186945814Y-57160885D01*
X186764385Y-57070171D01*
X186673671Y-56888742D01*
X186673671Y-56798028D01*
X186764385Y-56616600D01*
X186945814Y-56525885D01*
X187217957Y-56525885D01*
X187399385Y-56616600D01*
X189122957Y-56525885D02*
X189122957Y-57795885D01*
X188306528Y-56525885D02*
X188306528Y-57523742D01*
X188397242Y-57705171D01*
X188578671Y-57795885D01*
X188850814Y-57795885D01*
X189032242Y-57705171D01*
X189122957Y-57614457D01*
X190846528Y-57705171D02*
X190665100Y-57795885D01*
X190302242Y-57795885D01*
X190120814Y-57705171D01*
X190030100Y-57614457D01*
X189939385Y-57433028D01*
X189939385Y-56888742D01*
X190030100Y-56707314D01*
X190120814Y-56616600D01*
X190302242Y-56525885D01*
X190665100Y-56525885D01*
X190846528Y-56616600D01*
X191662957Y-57795885D02*
X191662957Y-55890885D01*
X192479385Y-57795885D02*
X192479385Y-56798028D01*
X192388671Y-56616600D01*
X192207242Y-56525885D01*
X191935100Y-56525885D01*
X191753671Y-56616600D01*
X191662957Y-56707314D01*
X195654385Y-57795885D02*
X195654385Y-56798028D01*
X195563671Y-56616600D01*
X195382242Y-56525885D01*
X195019385Y-56525885D01*
X194837957Y-56616600D01*
X195654385Y-57705171D02*
X195472957Y-57795885D01*
X195019385Y-57795885D01*
X194837957Y-57705171D01*
X194747242Y-57523742D01*
X194747242Y-57342314D01*
X194837957Y-57160885D01*
X195019385Y-57070171D01*
X195472957Y-57070171D01*
X195654385Y-56979457D01*
X196470814Y-57705171D02*
X196652242Y-57795885D01*
X197015100Y-57795885D01*
X197196528Y-57705171D01*
X197287242Y-57523742D01*
X197287242Y-57433028D01*
X197196528Y-57251600D01*
X197015100Y-57160885D01*
X196742957Y-57160885D01*
X196561528Y-57070171D01*
X196470814Y-56888742D01*
X196470814Y-56798028D01*
X196561528Y-56616600D01*
X196742957Y-56525885D01*
X197015100Y-56525885D01*
X197196528Y-56616600D01*
X199282957Y-56525885D02*
X200008671Y-56525885D01*
X199555100Y-55890885D02*
X199555100Y-57523742D01*
X199645814Y-57705171D01*
X199827242Y-57795885D01*
X200008671Y-57795885D01*
X200643671Y-57795885D02*
X200643671Y-55890885D01*
X201460100Y-57795885D02*
X201460100Y-56798028D01*
X201369385Y-56616600D01*
X201187957Y-56525885D01*
X200915814Y-56525885D01*
X200734385Y-56616600D01*
X200643671Y-56707314D01*
X203092957Y-57705171D02*
X202911528Y-57795885D01*
X202548671Y-57795885D01*
X202367242Y-57705171D01*
X202276528Y-57523742D01*
X202276528Y-56798028D01*
X202367242Y-56616600D01*
X202548671Y-56525885D01*
X202911528Y-56525885D01*
X203092957Y-56616600D01*
X203183671Y-56798028D01*
X203183671Y-56979457D01*
X202276528Y-57160885D01*
X206540100Y-57614457D02*
X206449385Y-57705171D01*
X206177242Y-57795885D01*
X205995814Y-57795885D01*
X205723671Y-57705171D01*
X205542242Y-57523742D01*
X205451528Y-57342314D01*
X205360814Y-56979457D01*
X205360814Y-56707314D01*
X205451528Y-56344457D01*
X205542242Y-56163028D01*
X205723671Y-55981600D01*
X205995814Y-55890885D01*
X206177242Y-55890885D01*
X206449385Y-55981600D01*
X206540100Y-56072314D01*
X207175100Y-56525885D02*
X207628671Y-57795885D01*
X208082242Y-56525885D02*
X207628671Y-57795885D01*
X207447242Y-58249457D01*
X207356528Y-58340171D01*
X207175100Y-58430885D01*
X208626528Y-55890885D02*
X209896528Y-55890885D01*
X209080100Y-57795885D01*
X211710814Y-57614457D02*
X211620100Y-57705171D01*
X211347957Y-57795885D01*
X211166528Y-57795885D01*
X210894385Y-57705171D01*
X210712957Y-57523742D01*
X210622242Y-57342314D01*
X210531528Y-56979457D01*
X210531528Y-56707314D01*
X210622242Y-56344457D01*
X210712957Y-56163028D01*
X210894385Y-55981600D01*
X211166528Y-55890885D01*
X211347957Y-55890885D01*
X211620100Y-55981600D01*
X211710814Y-56072314D01*
X213525100Y-57795885D02*
X212436528Y-57795885D01*
X212980814Y-57795885D02*
X212980814Y-55890885D01*
X212799385Y-56163028D01*
X212617957Y-56344457D01*
X212436528Y-56435171D01*
X214432242Y-57795885D02*
X214795100Y-57795885D01*
X214976528Y-57705171D01*
X215067242Y-57614457D01*
X215248671Y-57342314D01*
X215339385Y-56979457D01*
X215339385Y-56253742D01*
X215248671Y-56072314D01*
X215157957Y-55981600D01*
X214976528Y-55890885D01*
X214613671Y-55890885D01*
X214432242Y-55981600D01*
X214341528Y-56072314D01*
X214250814Y-56253742D01*
X214250814Y-56707314D01*
X214341528Y-56888742D01*
X214432242Y-56979457D01*
X214613671Y-57070171D01*
X214976528Y-57070171D01*
X215157957Y-56979457D01*
X215248671Y-56888742D01*
X215339385Y-56707314D01*
X216246528Y-57795885D02*
X216609385Y-57795885D01*
X216790814Y-57705171D01*
X216881528Y-57614457D01*
X217062957Y-57342314D01*
X217153671Y-56979457D01*
X217153671Y-56253742D01*
X217062957Y-56072314D01*
X216972242Y-55981600D01*
X216790814Y-55890885D01*
X216427957Y-55890885D01*
X216246528Y-55981600D01*
X216155814Y-56072314D01*
X216065100Y-56253742D01*
X216065100Y-56707314D01*
X216155814Y-56888742D01*
X216246528Y-56979457D01*
X216427957Y-57070171D01*
X216790814Y-57070171D01*
X216972242Y-56979457D01*
X217062957Y-56888742D01*
X217153671Y-56707314D01*
X220237957Y-57705171D02*
X220056528Y-57795885D01*
X219693671Y-57795885D01*
X219512242Y-57705171D01*
X219421528Y-57614457D01*
X219330814Y-57433028D01*
X219330814Y-56888742D01*
X219421528Y-56707314D01*
X219512242Y-56616600D01*
X219693671Y-56525885D01*
X220056528Y-56525885D01*
X220237957Y-56616600D01*
X221870814Y-57795885D02*
X221870814Y-56798028D01*
X221780100Y-56616600D01*
X221598671Y-56525885D01*
X221235814Y-56525885D01*
X221054385Y-56616600D01*
X221870814Y-57705171D02*
X221689385Y-57795885D01*
X221235814Y-57795885D01*
X221054385Y-57705171D01*
X220963671Y-57523742D01*
X220963671Y-57342314D01*
X221054385Y-57160885D01*
X221235814Y-57070171D01*
X221689385Y-57070171D01*
X221870814Y-56979457D01*
X222777957Y-56525885D02*
X222777957Y-57795885D01*
X222777957Y-56707314D02*
X222868671Y-56616600D01*
X223050100Y-56525885D01*
X223322242Y-56525885D01*
X223503671Y-56616600D01*
X223594385Y-56798028D01*
X223594385Y-57795885D01*
X225952957Y-57795885D02*
X225952957Y-55890885D01*
X225952957Y-56616600D02*
X226134385Y-56525885D01*
X226497242Y-56525885D01*
X226678671Y-56616600D01*
X226769385Y-56707314D01*
X226860100Y-56888742D01*
X226860100Y-57433028D01*
X226769385Y-57614457D01*
X226678671Y-57705171D01*
X226497242Y-57795885D01*
X226134385Y-57795885D01*
X225952957Y-57705171D01*
X228402242Y-57705171D02*
X228220814Y-57795885D01*
X227857957Y-57795885D01*
X227676528Y-57705171D01*
X227585814Y-57523742D01*
X227585814Y-56798028D01*
X227676528Y-56616600D01*
X227857957Y-56525885D01*
X228220814Y-56525885D01*
X228402242Y-56616600D01*
X228492957Y-56798028D01*
X228492957Y-56979457D01*
X227585814Y-57160885D01*
X231577242Y-56525885D02*
X231577242Y-57795885D01*
X230760814Y-56525885D02*
X230760814Y-57523742D01*
X230851528Y-57705171D01*
X231032957Y-57795885D01*
X231305100Y-57795885D01*
X231486528Y-57705171D01*
X231577242Y-57614457D01*
X232393671Y-57705171D02*
X232575100Y-57795885D01*
X232937957Y-57795885D01*
X233119385Y-57705171D01*
X233210100Y-57523742D01*
X233210100Y-57433028D01*
X233119385Y-57251600D01*
X232937957Y-57160885D01*
X232665814Y-57160885D01*
X232484385Y-57070171D01*
X232393671Y-56888742D01*
X232393671Y-56798028D01*
X232484385Y-56616600D01*
X232665814Y-56525885D01*
X232937957Y-56525885D01*
X233119385Y-56616600D01*
X234752242Y-57705171D02*
X234570814Y-57795885D01*
X234207957Y-57795885D01*
X234026528Y-57705171D01*
X233935814Y-57523742D01*
X233935814Y-56798028D01*
X234026528Y-56616600D01*
X234207957Y-56525885D01*
X234570814Y-56525885D01*
X234752242Y-56616600D01*
X234842957Y-56798028D01*
X234842957Y-56979457D01*
X233935814Y-57160885D01*
X236475814Y-57795885D02*
X236475814Y-55890885D01*
X236475814Y-57705171D02*
X236294385Y-57795885D01*
X235931528Y-57795885D01*
X235750100Y-57705171D01*
X235659385Y-57614457D01*
X235568671Y-57433028D01*
X235568671Y-56888742D01*
X235659385Y-56707314D01*
X235750100Y-56616600D01*
X235931528Y-56525885D01*
X236294385Y-56525885D01*
X236475814Y-56616600D01*
X160185100Y-60862935D02*
X160185100Y-58957935D01*
X160185100Y-59683650D02*
X160366528Y-59592935D01*
X160729385Y-59592935D01*
X160910814Y-59683650D01*
X161001528Y-59774364D01*
X161092242Y-59955792D01*
X161092242Y-60500078D01*
X161001528Y-60681507D01*
X160910814Y-60772221D01*
X160729385Y-60862935D01*
X160366528Y-60862935D01*
X160185100Y-60772221D01*
X162725100Y-59592935D02*
X162725100Y-60862935D01*
X161908671Y-59592935D02*
X161908671Y-60590792D01*
X161999385Y-60772221D01*
X162180814Y-60862935D01*
X162452957Y-60862935D01*
X162634385Y-60772221D01*
X162725100Y-60681507D01*
X163360100Y-59592935D02*
X164085814Y-59592935D01*
X163632242Y-58957935D02*
X163632242Y-60590792D01*
X163722957Y-60772221D01*
X163904385Y-60862935D01*
X164085814Y-60862935D01*
X166444385Y-60862935D02*
X166262957Y-60772221D01*
X166172242Y-60681507D01*
X166081528Y-60500078D01*
X166081528Y-59955792D01*
X166172242Y-59774364D01*
X166262957Y-59683650D01*
X166444385Y-59592935D01*
X166716528Y-59592935D01*
X166897957Y-59683650D01*
X166988671Y-59774364D01*
X167079385Y-59955792D01*
X167079385Y-60500078D01*
X166988671Y-60681507D01*
X166897957Y-60772221D01*
X166716528Y-60862935D01*
X166444385Y-60862935D01*
X167895814Y-59592935D02*
X167895814Y-60862935D01*
X167895814Y-59774364D02*
X167986528Y-59683650D01*
X168167957Y-59592935D01*
X168440100Y-59592935D01*
X168621528Y-59683650D01*
X168712242Y-59865078D01*
X168712242Y-60862935D01*
X169891528Y-60862935D02*
X169710100Y-60772221D01*
X169619385Y-60590792D01*
X169619385Y-58957935D01*
X170435814Y-59592935D02*
X170889385Y-60862935D01*
X171342957Y-59592935D02*
X170889385Y-60862935D01*
X170707957Y-61316507D01*
X170617242Y-61407221D01*
X170435814Y-61497935D01*
X173792242Y-59774364D02*
X173610814Y-59683650D01*
X173520100Y-59592935D01*
X173429385Y-59411507D01*
X173429385Y-59320792D01*
X173520100Y-59139364D01*
X173610814Y-59048650D01*
X173792242Y-58957935D01*
X174155100Y-58957935D01*
X174336528Y-59048650D01*
X174427242Y-59139364D01*
X174517957Y-59320792D01*
X174517957Y-59411507D01*
X174427242Y-59592935D01*
X174336528Y-59683650D01*
X174155100Y-59774364D01*
X173792242Y-59774364D01*
X173610814Y-59865078D01*
X173520100Y-59955792D01*
X173429385Y-60137221D01*
X173429385Y-60500078D01*
X173520100Y-60681507D01*
X173610814Y-60772221D01*
X173792242Y-60862935D01*
X174155100Y-60862935D01*
X174336528Y-60772221D01*
X174427242Y-60681507D01*
X174517957Y-60500078D01*
X174517957Y-60137221D01*
X174427242Y-59955792D01*
X174336528Y-59865078D01*
X174155100Y-59774364D01*
X175334385Y-60862935D02*
X175334385Y-58957935D01*
X176422957Y-60862935D02*
X175606528Y-59774364D01*
X176422957Y-58957935D02*
X175334385Y-60046507D01*
X178690814Y-60862935D02*
X178690814Y-59592935D01*
X178690814Y-58957935D02*
X178600100Y-59048650D01*
X178690814Y-59139364D01*
X178781528Y-59048650D01*
X178690814Y-58957935D01*
X178690814Y-59139364D01*
X179597957Y-59592935D02*
X179597957Y-60862935D01*
X179597957Y-59774364D02*
X179688671Y-59683650D01*
X179870100Y-59592935D01*
X180142242Y-59592935D01*
X180323671Y-59683650D01*
X180414385Y-59865078D01*
X180414385Y-60862935D01*
X183498671Y-60772221D02*
X183317242Y-60862935D01*
X182954385Y-60862935D01*
X182772957Y-60772221D01*
X182682242Y-60590792D01*
X182682242Y-59865078D01*
X182772957Y-59683650D01*
X182954385Y-59592935D01*
X183317242Y-59592935D01*
X183498671Y-59683650D01*
X183589385Y-59865078D01*
X183589385Y-60046507D01*
X182682242Y-60227935D01*
X185222242Y-60862935D02*
X185222242Y-59865078D01*
X185131528Y-59683650D01*
X184950100Y-59592935D01*
X184587242Y-59592935D01*
X184405814Y-59683650D01*
X185222242Y-60772221D02*
X185040814Y-60862935D01*
X184587242Y-60862935D01*
X184405814Y-60772221D01*
X184315100Y-60590792D01*
X184315100Y-60409364D01*
X184405814Y-60227935D01*
X184587242Y-60137221D01*
X185040814Y-60137221D01*
X185222242Y-60046507D01*
X186945814Y-60772221D02*
X186764385Y-60862935D01*
X186401528Y-60862935D01*
X186220100Y-60772221D01*
X186129385Y-60681507D01*
X186038671Y-60500078D01*
X186038671Y-59955792D01*
X186129385Y-59774364D01*
X186220100Y-59683650D01*
X186401528Y-59592935D01*
X186764385Y-59592935D01*
X186945814Y-59683650D01*
X187762242Y-60862935D02*
X187762242Y-58957935D01*
X188578671Y-60862935D02*
X188578671Y-59865078D01*
X188487957Y-59683650D01*
X188306528Y-59592935D01*
X188034385Y-59592935D01*
X187852957Y-59683650D01*
X187762242Y-59774364D01*
X190846528Y-60772221D02*
X191027957Y-60862935D01*
X191390814Y-60862935D01*
X191572242Y-60772221D01*
X191662957Y-60590792D01*
X191662957Y-60500078D01*
X191572242Y-60318650D01*
X191390814Y-60227935D01*
X191118671Y-60227935D01*
X190937242Y-60137221D01*
X190846528Y-59955792D01*
X190846528Y-59865078D01*
X190937242Y-59683650D01*
X191118671Y-59592935D01*
X191390814Y-59592935D01*
X191572242Y-59683650D01*
X192751528Y-60862935D02*
X192570100Y-60772221D01*
X192479385Y-60681507D01*
X192388671Y-60500078D01*
X192388671Y-59955792D01*
X192479385Y-59774364D01*
X192570100Y-59683650D01*
X192751528Y-59592935D01*
X193023671Y-59592935D01*
X193205100Y-59683650D01*
X193295814Y-59774364D01*
X193386528Y-59955792D01*
X193386528Y-60500078D01*
X193295814Y-60681507D01*
X193205100Y-60772221D01*
X193023671Y-60862935D01*
X192751528Y-60862935D01*
X195019385Y-60772221D02*
X194837957Y-60862935D01*
X194475100Y-60862935D01*
X194293671Y-60772221D01*
X194202957Y-60681507D01*
X194112242Y-60500078D01*
X194112242Y-59955792D01*
X194202957Y-59774364D01*
X194293671Y-59683650D01*
X194475100Y-59592935D01*
X194837957Y-59592935D01*
X195019385Y-59683650D01*
X195835814Y-60862935D02*
X195835814Y-58957935D01*
X196017242Y-60137221D02*
X196561528Y-60862935D01*
X196561528Y-59592935D02*
X195835814Y-60318650D01*
X198103671Y-60772221D02*
X197922242Y-60862935D01*
X197559385Y-60862935D01*
X197377957Y-60772221D01*
X197287242Y-60590792D01*
X197287242Y-59865078D01*
X197377957Y-59683650D01*
X197559385Y-59592935D01*
X197922242Y-59592935D01*
X198103671Y-59683650D01*
X198194385Y-59865078D01*
X198194385Y-60046507D01*
X197287242Y-60227935D01*
X198738671Y-59592935D02*
X199464385Y-59592935D01*
X199010814Y-58957935D02*
X199010814Y-60590792D01*
X199101528Y-60772221D01*
X199282957Y-60862935D01*
X199464385Y-60862935D01*
X201369385Y-59592935D02*
X201732242Y-60862935D01*
X202095100Y-59955792D01*
X202457957Y-60862935D01*
X202820814Y-59592935D01*
X203546528Y-60862935D02*
X203546528Y-59592935D01*
X203546528Y-58957935D02*
X203455814Y-59048650D01*
X203546528Y-59139364D01*
X203637242Y-59048650D01*
X203546528Y-58957935D01*
X203546528Y-59139364D01*
X204725814Y-60862935D02*
X204544385Y-60772221D01*
X204453671Y-60590792D01*
X204453671Y-58957935D01*
X205723671Y-60862935D02*
X205542242Y-60772221D01*
X205451528Y-60590792D01*
X205451528Y-58957935D01*
X207900814Y-60862935D02*
X207900814Y-58957935D01*
X207900814Y-59683650D02*
X208082242Y-59592935D01*
X208445100Y-59592935D01*
X208626528Y-59683650D01*
X208717242Y-59774364D01*
X208807957Y-59955792D01*
X208807957Y-60500078D01*
X208717242Y-60681507D01*
X208626528Y-60772221D01*
X208445100Y-60862935D01*
X208082242Y-60862935D01*
X207900814Y-60772221D01*
X210350100Y-60772221D02*
X210168671Y-60862935D01*
X209805814Y-60862935D01*
X209624385Y-60772221D01*
X209533671Y-60590792D01*
X209533671Y-59865078D01*
X209624385Y-59683650D01*
X209805814Y-59592935D01*
X210168671Y-59592935D01*
X210350100Y-59683650D01*
X210440814Y-59865078D01*
X210440814Y-60046507D01*
X209533671Y-60227935D01*
X213525100Y-60862935D02*
X213525100Y-59865078D01*
X213434385Y-59683650D01*
X213252957Y-59592935D01*
X212890100Y-59592935D01*
X212708671Y-59683650D01*
X213525100Y-60772221D02*
X213343671Y-60862935D01*
X212890100Y-60862935D01*
X212708671Y-60772221D01*
X212617957Y-60590792D01*
X212617957Y-60409364D01*
X212708671Y-60227935D01*
X212890100Y-60137221D01*
X213343671Y-60137221D01*
X213525100Y-60046507D01*
X215248671Y-60862935D02*
X215248671Y-58957935D01*
X215248671Y-60772221D02*
X215067242Y-60862935D01*
X214704385Y-60862935D01*
X214522957Y-60772221D01*
X214432242Y-60681507D01*
X214341528Y-60500078D01*
X214341528Y-59955792D01*
X214432242Y-59774364D01*
X214522957Y-59683650D01*
X214704385Y-59592935D01*
X215067242Y-59592935D01*
X215248671Y-59683650D01*
X216972242Y-60862935D02*
X216972242Y-58957935D01*
X216972242Y-60772221D02*
X216790814Y-60862935D01*
X216427957Y-60862935D01*
X216246528Y-60772221D01*
X216155814Y-60681507D01*
X216065100Y-60500078D01*
X216065100Y-59955792D01*
X216155814Y-59774364D01*
X216246528Y-59683650D01*
X216427957Y-59592935D01*
X216790814Y-59592935D01*
X216972242Y-59683650D01*
X217879385Y-60862935D02*
X217879385Y-59592935D01*
X217879385Y-59955792D02*
X217970100Y-59774364D01*
X218060814Y-59683650D01*
X218242242Y-59592935D01*
X218423671Y-59592935D01*
X219784385Y-60772221D02*
X219602957Y-60862935D01*
X219240100Y-60862935D01*
X219058671Y-60772221D01*
X218967957Y-60590792D01*
X218967957Y-59865078D01*
X219058671Y-59683650D01*
X219240100Y-59592935D01*
X219602957Y-59592935D01*
X219784385Y-59683650D01*
X219875100Y-59865078D01*
X219875100Y-60046507D01*
X218967957Y-60227935D01*
X220600814Y-60772221D02*
X220782242Y-60862935D01*
X221145100Y-60862935D01*
X221326528Y-60772221D01*
X221417242Y-60590792D01*
X221417242Y-60500078D01*
X221326528Y-60318650D01*
X221145100Y-60227935D01*
X220872957Y-60227935D01*
X220691528Y-60137221D01*
X220600814Y-59955792D01*
X220600814Y-59865078D01*
X220691528Y-59683650D01*
X220872957Y-59592935D01*
X221145100Y-59592935D01*
X221326528Y-59683650D01*
X222142957Y-60772221D02*
X222324385Y-60862935D01*
X222687242Y-60862935D01*
X222868671Y-60772221D01*
X222959385Y-60590792D01*
X222959385Y-60500078D01*
X222868671Y-60318650D01*
X222687242Y-60227935D01*
X222415100Y-60227935D01*
X222233671Y-60137221D01*
X222142957Y-59955792D01*
X222142957Y-59865078D01*
X222233671Y-59683650D01*
X222415100Y-59592935D01*
X222687242Y-59592935D01*
X222868671Y-59683650D01*
X224592242Y-60862935D02*
X224592242Y-59865078D01*
X224501528Y-59683650D01*
X224320100Y-59592935D01*
X223957242Y-59592935D01*
X223775814Y-59683650D01*
X224592242Y-60772221D02*
X224410814Y-60862935D01*
X223957242Y-60862935D01*
X223775814Y-60772221D01*
X223685100Y-60590792D01*
X223685100Y-60409364D01*
X223775814Y-60227935D01*
X223957242Y-60137221D01*
X224410814Y-60137221D01*
X224592242Y-60046507D01*
X225499385Y-60862935D02*
X225499385Y-58957935D01*
X225499385Y-59683650D02*
X225680814Y-59592935D01*
X226043671Y-59592935D01*
X226225100Y-59683650D01*
X226315814Y-59774364D01*
X226406528Y-59955792D01*
X226406528Y-60500078D01*
X226315814Y-60681507D01*
X226225100Y-60772221D01*
X226043671Y-60862935D01*
X225680814Y-60862935D01*
X225499385Y-60772221D01*
X227495100Y-60862935D02*
X227313671Y-60772221D01*
X227222957Y-60590792D01*
X227222957Y-58957935D01*
X228946528Y-60772221D02*
X228765100Y-60862935D01*
X228402242Y-60862935D01*
X228220814Y-60772221D01*
X228130100Y-60590792D01*
X228130100Y-59865078D01*
X228220814Y-59683650D01*
X228402242Y-59592935D01*
X228765100Y-59592935D01*
X228946528Y-59683650D01*
X229037242Y-59865078D01*
X229037242Y-60046507D01*
X228130100Y-60227935D01*
X229853671Y-60681507D02*
X229944385Y-60772221D01*
X229853671Y-60862935D01*
X229762957Y-60772221D01*
X229853671Y-60681507D01*
X229853671Y-60862935D01*
D12*
X47498095Y-65492380D02*
X47498095Y-66301904D01*
X47545714Y-66397142D01*
X47593333Y-66444761D01*
X47688571Y-66492380D01*
X47879047Y-66492380D01*
X47974285Y-66444761D01*
X48021904Y-66397142D01*
X48069523Y-66301904D01*
X48069523Y-65492380D01*
X48688571Y-65920952D02*
X48593333Y-65873333D01*
X48545714Y-65825714D01*
X48498095Y-65730476D01*
X48498095Y-65682857D01*
X48545714Y-65587619D01*
X48593333Y-65540000D01*
X48688571Y-65492380D01*
X48879047Y-65492380D01*
X48974285Y-65540000D01*
X49021904Y-65587619D01*
X49069523Y-65682857D01*
X49069523Y-65730476D01*
X49021904Y-65825714D01*
X48974285Y-65873333D01*
X48879047Y-65920952D01*
X48688571Y-65920952D01*
X48593333Y-65968571D01*
X48545714Y-66016190D01*
X48498095Y-66111428D01*
X48498095Y-66301904D01*
X48545714Y-66397142D01*
X48593333Y-66444761D01*
X48688571Y-66492380D01*
X48879047Y-66492380D01*
X48974285Y-66444761D01*
X49021904Y-66397142D01*
X49069523Y-66301904D01*
X49069523Y-66111428D01*
X49021904Y-66016190D01*
X48974285Y-65968571D01*
X48879047Y-65920952D01*
X105032380Y-33734285D02*
X105032380Y-34210476D01*
X105508571Y-34258095D01*
X105460952Y-34210476D01*
X105413333Y-34115238D01*
X105413333Y-33877142D01*
X105460952Y-33781904D01*
X105508571Y-33734285D01*
X105603809Y-33686666D01*
X105841904Y-33686666D01*
X105937142Y-33734285D01*
X105984761Y-33781904D01*
X106032380Y-33877142D01*
X106032380Y-34115238D01*
X105984761Y-34210476D01*
X105937142Y-34258095D01*
X105032380Y-32829523D02*
X105032380Y-33020000D01*
X105080000Y-33115238D01*
X105127619Y-33162857D01*
X105270476Y-33258095D01*
X105460952Y-33305714D01*
X105841904Y-33305714D01*
X105937142Y-33258095D01*
X105984761Y-33210476D01*
X106032380Y-33115238D01*
X106032380Y-32924761D01*
X105984761Y-32829523D01*
X105937142Y-32781904D01*
X105841904Y-32734285D01*
X105603809Y-32734285D01*
X105508571Y-32781904D01*
X105460952Y-32829523D01*
X105413333Y-32924761D01*
X105413333Y-33115238D01*
X105460952Y-33210476D01*
X105508571Y-33258095D01*
X105603809Y-33305714D01*
X105032380Y-32115238D02*
X105032380Y-32020000D01*
X105080000Y-31924761D01*
X105127619Y-31877142D01*
X105222857Y-31829523D01*
X105413333Y-31781904D01*
X105651428Y-31781904D01*
X105841904Y-31829523D01*
X105937142Y-31877142D01*
X105984761Y-31924761D01*
X106032380Y-32020000D01*
X106032380Y-32115238D01*
X105984761Y-32210476D01*
X105937142Y-32258095D01*
X105841904Y-32305714D01*
X105651428Y-32353333D01*
X105413333Y-32353333D01*
X105222857Y-32305714D01*
X105127619Y-32258095D01*
X105080000Y-32210476D01*
X105032380Y-32115238D01*
X108402380Y-33186666D02*
X107926190Y-33520000D01*
X108402380Y-33758095D02*
X107402380Y-33758095D01*
X107402380Y-33377142D01*
X107450000Y-33281904D01*
X107497619Y-33234285D01*
X107592857Y-33186666D01*
X107735714Y-33186666D01*
X107830952Y-33234285D01*
X107878571Y-33281904D01*
X107926190Y-33377142D01*
X107926190Y-33758095D01*
X107735714Y-32329523D02*
X108402380Y-32329523D01*
X107354761Y-32567619D02*
X108069047Y-32805714D01*
X108069047Y-32186666D01*
X105861666Y-87082380D02*
X105861666Y-87796666D01*
X105814047Y-87939523D01*
X105718809Y-88034761D01*
X105575952Y-88082380D01*
X105480714Y-88082380D01*
X106337857Y-88082380D02*
X106337857Y-87082380D01*
X106718809Y-87082380D01*
X106814047Y-87130000D01*
X106861666Y-87177619D01*
X106909285Y-87272857D01*
X106909285Y-87415714D01*
X106861666Y-87510952D01*
X106814047Y-87558571D01*
X106718809Y-87606190D01*
X106337857Y-87606190D01*
X107861666Y-88082380D02*
X107290238Y-88082380D01*
X107575952Y-88082380D02*
X107575952Y-87082380D01*
X107480714Y-87225238D01*
X107385476Y-87320476D01*
X107290238Y-87368095D01*
X115192380Y-33734285D02*
X115192380Y-34210476D01*
X115668571Y-34258095D01*
X115620952Y-34210476D01*
X115573333Y-34115238D01*
X115573333Y-33877142D01*
X115620952Y-33781904D01*
X115668571Y-33734285D01*
X115763809Y-33686666D01*
X116001904Y-33686666D01*
X116097142Y-33734285D01*
X116144761Y-33781904D01*
X116192380Y-33877142D01*
X116192380Y-34115238D01*
X116144761Y-34210476D01*
X116097142Y-34258095D01*
X115192380Y-32829523D02*
X115192380Y-33020000D01*
X115240000Y-33115238D01*
X115287619Y-33162857D01*
X115430476Y-33258095D01*
X115620952Y-33305714D01*
X116001904Y-33305714D01*
X116097142Y-33258095D01*
X116144761Y-33210476D01*
X116192380Y-33115238D01*
X116192380Y-32924761D01*
X116144761Y-32829523D01*
X116097142Y-32781904D01*
X116001904Y-32734285D01*
X115763809Y-32734285D01*
X115668571Y-32781904D01*
X115620952Y-32829523D01*
X115573333Y-32924761D01*
X115573333Y-33115238D01*
X115620952Y-33210476D01*
X115668571Y-33258095D01*
X115763809Y-33305714D01*
X115192380Y-32115238D02*
X115192380Y-32020000D01*
X115240000Y-31924761D01*
X115287619Y-31877142D01*
X115382857Y-31829523D01*
X115573333Y-31781904D01*
X115811428Y-31781904D01*
X116001904Y-31829523D01*
X116097142Y-31877142D01*
X116144761Y-31924761D01*
X116192380Y-32020000D01*
X116192380Y-32115238D01*
X116144761Y-32210476D01*
X116097142Y-32258095D01*
X116001904Y-32305714D01*
X115811428Y-32353333D01*
X115573333Y-32353333D01*
X115382857Y-32305714D01*
X115287619Y-32258095D01*
X115240000Y-32210476D01*
X115192380Y-32115238D01*
X118562380Y-33186666D02*
X118086190Y-33520000D01*
X118562380Y-33758095D02*
X117562380Y-33758095D01*
X117562380Y-33377142D01*
X117610000Y-33281904D01*
X117657619Y-33234285D01*
X117752857Y-33186666D01*
X117895714Y-33186666D01*
X117990952Y-33234285D01*
X118038571Y-33281904D01*
X118086190Y-33377142D01*
X118086190Y-33758095D01*
X117562380Y-32281904D02*
X117562380Y-32758095D01*
X118038571Y-32805714D01*
X117990952Y-32758095D01*
X117943333Y-32662857D01*
X117943333Y-32424761D01*
X117990952Y-32329523D01*
X118038571Y-32281904D01*
X118133809Y-32234285D01*
X118371904Y-32234285D01*
X118467142Y-32281904D01*
X118514761Y-32329523D01*
X118562380Y-32424761D01*
X118562380Y-32662857D01*
X118514761Y-32758095D01*
X118467142Y-32805714D01*
X118800714Y-72942380D02*
X119419761Y-72942380D01*
X119086428Y-73323333D01*
X119229285Y-73323333D01*
X119324523Y-73370952D01*
X119372142Y-73418571D01*
X119419761Y-73513809D01*
X119419761Y-73751904D01*
X119372142Y-73847142D01*
X119324523Y-73894761D01*
X119229285Y-73942380D01*
X118943571Y-73942380D01*
X118848333Y-73894761D01*
X118800714Y-73847142D01*
X119848333Y-73942380D02*
X119848333Y-72942380D01*
X119943571Y-73561428D02*
X120229285Y-73942380D01*
X120229285Y-73275714D02*
X119848333Y-73656666D01*
X120562619Y-72942380D02*
X121181666Y-72942380D01*
X120848333Y-73323333D01*
X120991190Y-73323333D01*
X121086428Y-73370952D01*
X121134047Y-73418571D01*
X121181666Y-73513809D01*
X121181666Y-73751904D01*
X121134047Y-73847142D01*
X121086428Y-73894761D01*
X120991190Y-73942380D01*
X120705476Y-73942380D01*
X120610238Y-73894761D01*
X120562619Y-73847142D01*
X119848333Y-71572380D02*
X119515000Y-71096190D01*
X119276904Y-71572380D02*
X119276904Y-70572380D01*
X119657857Y-70572380D01*
X119753095Y-70620000D01*
X119800714Y-70667619D01*
X119848333Y-70762857D01*
X119848333Y-70905714D01*
X119800714Y-71000952D01*
X119753095Y-71048571D01*
X119657857Y-71096190D01*
X119276904Y-71096190D01*
X120705476Y-70572380D02*
X120515000Y-70572380D01*
X120419761Y-70620000D01*
X120372142Y-70667619D01*
X120276904Y-70810476D01*
X120229285Y-71000952D01*
X120229285Y-71381904D01*
X120276904Y-71477142D01*
X120324523Y-71524761D01*
X120419761Y-71572380D01*
X120610238Y-71572380D01*
X120705476Y-71524761D01*
X120753095Y-71477142D01*
X120800714Y-71381904D01*
X120800714Y-71143809D01*
X120753095Y-71048571D01*
X120705476Y-71000952D01*
X120610238Y-70953333D01*
X120419761Y-70953333D01*
X120324523Y-71000952D01*
X120276904Y-71048571D01*
X120229285Y-71143809D01*
X92157380Y-64261904D02*
X92966904Y-64261904D01*
X93062142Y-64214285D01*
X93109761Y-64166666D01*
X93157380Y-64071428D01*
X93157380Y-63880952D01*
X93109761Y-63785714D01*
X93062142Y-63738095D01*
X92966904Y-63690476D01*
X92157380Y-63690476D01*
X92490714Y-62785714D02*
X93157380Y-62785714D01*
X92109761Y-63023809D02*
X92824047Y-63261904D01*
X92824047Y-62642857D01*
X92162380Y-49021904D02*
X92971904Y-49021904D01*
X93067142Y-48974285D01*
X93114761Y-48926666D01*
X93162380Y-48831428D01*
X93162380Y-48640952D01*
X93114761Y-48545714D01*
X93067142Y-48498095D01*
X92971904Y-48450476D01*
X92162380Y-48450476D01*
X92257619Y-48021904D02*
X92210000Y-47974285D01*
X92162380Y-47879047D01*
X92162380Y-47640952D01*
X92210000Y-47545714D01*
X92257619Y-47498095D01*
X92352857Y-47450476D01*
X92448095Y-47450476D01*
X92590952Y-47498095D01*
X93162380Y-48069523D01*
X93162380Y-47450476D01*
X94872380Y-33734285D02*
X94872380Y-34210476D01*
X95348571Y-34258095D01*
X95300952Y-34210476D01*
X95253333Y-34115238D01*
X95253333Y-33877142D01*
X95300952Y-33781904D01*
X95348571Y-33734285D01*
X95443809Y-33686666D01*
X95681904Y-33686666D01*
X95777142Y-33734285D01*
X95824761Y-33781904D01*
X95872380Y-33877142D01*
X95872380Y-34115238D01*
X95824761Y-34210476D01*
X95777142Y-34258095D01*
X94872380Y-32829523D02*
X94872380Y-33020000D01*
X94920000Y-33115238D01*
X94967619Y-33162857D01*
X95110476Y-33258095D01*
X95300952Y-33305714D01*
X95681904Y-33305714D01*
X95777142Y-33258095D01*
X95824761Y-33210476D01*
X95872380Y-33115238D01*
X95872380Y-32924761D01*
X95824761Y-32829523D01*
X95777142Y-32781904D01*
X95681904Y-32734285D01*
X95443809Y-32734285D01*
X95348571Y-32781904D01*
X95300952Y-32829523D01*
X95253333Y-32924761D01*
X95253333Y-33115238D01*
X95300952Y-33210476D01*
X95348571Y-33258095D01*
X95443809Y-33305714D01*
X94872380Y-32115238D02*
X94872380Y-32020000D01*
X94920000Y-31924761D01*
X94967619Y-31877142D01*
X95062857Y-31829523D01*
X95253333Y-31781904D01*
X95491428Y-31781904D01*
X95681904Y-31829523D01*
X95777142Y-31877142D01*
X95824761Y-31924761D01*
X95872380Y-32020000D01*
X95872380Y-32115238D01*
X95824761Y-32210476D01*
X95777142Y-32258095D01*
X95681904Y-32305714D01*
X95491428Y-32353333D01*
X95253333Y-32353333D01*
X95062857Y-32305714D01*
X94967619Y-32258095D01*
X94920000Y-32210476D01*
X94872380Y-32115238D01*
X98242380Y-33186666D02*
X97766190Y-33520000D01*
X98242380Y-33758095D02*
X97242380Y-33758095D01*
X97242380Y-33377142D01*
X97290000Y-33281904D01*
X97337619Y-33234285D01*
X97432857Y-33186666D01*
X97575714Y-33186666D01*
X97670952Y-33234285D01*
X97718571Y-33281904D01*
X97766190Y-33377142D01*
X97766190Y-33758095D01*
X97242380Y-32853333D02*
X97242380Y-32234285D01*
X97623333Y-32567619D01*
X97623333Y-32424761D01*
X97670952Y-32329523D01*
X97718571Y-32281904D01*
X97813809Y-32234285D01*
X98051904Y-32234285D01*
X98147142Y-32281904D01*
X98194761Y-32329523D01*
X98242380Y-32424761D01*
X98242380Y-32710476D01*
X98194761Y-32805714D01*
X98147142Y-32853333D01*
X51887380Y-36688095D02*
X50887380Y-36688095D01*
X50887380Y-36450000D01*
X50935000Y-36307142D01*
X51030238Y-36211904D01*
X51125476Y-36164285D01*
X51315952Y-36116666D01*
X51458809Y-36116666D01*
X51649285Y-36164285D01*
X51744523Y-36211904D01*
X51839761Y-36307142D01*
X51887380Y-36450000D01*
X51887380Y-36688095D01*
X51887380Y-35164285D02*
X51887380Y-35735714D01*
X51887380Y-35450000D02*
X50887380Y-35450000D01*
X51030238Y-35545238D01*
X51125476Y-35640476D01*
X51173095Y-35735714D01*
X53787380Y-32011904D02*
X52787380Y-32011904D01*
X53787380Y-31440476D02*
X53215952Y-31869047D01*
X52787380Y-31440476D02*
X53358809Y-32011904D01*
X113747380Y-49011904D02*
X114556904Y-49011904D01*
X114652142Y-48964285D01*
X114699761Y-48916666D01*
X114747380Y-48821428D01*
X114747380Y-48630952D01*
X114699761Y-48535714D01*
X114652142Y-48488095D01*
X114556904Y-48440476D01*
X113747380Y-48440476D01*
X114747380Y-47440476D02*
X114747380Y-48011904D01*
X114747380Y-47726190D02*
X113747380Y-47726190D01*
X113890238Y-47821428D01*
X113985476Y-47916666D01*
X114033095Y-48011904D01*
X48315714Y-46272380D02*
X48934761Y-46272380D01*
X48601428Y-46653333D01*
X48744285Y-46653333D01*
X48839523Y-46700952D01*
X48887142Y-46748571D01*
X48934761Y-46843809D01*
X48934761Y-47081904D01*
X48887142Y-47177142D01*
X48839523Y-47224761D01*
X48744285Y-47272380D01*
X48458571Y-47272380D01*
X48363333Y-47224761D01*
X48315714Y-47177142D01*
X49363333Y-47272380D02*
X49363333Y-46272380D01*
X49458571Y-46891428D02*
X49744285Y-47272380D01*
X49744285Y-46605714D02*
X49363333Y-46986666D01*
X50077619Y-46272380D02*
X50696666Y-46272380D01*
X50363333Y-46653333D01*
X50506190Y-46653333D01*
X50601428Y-46700952D01*
X50649047Y-46748571D01*
X50696666Y-46843809D01*
X50696666Y-47081904D01*
X50649047Y-47177142D01*
X50601428Y-47224761D01*
X50506190Y-47272380D01*
X50220476Y-47272380D01*
X50125238Y-47224761D01*
X50077619Y-47177142D01*
X49363333Y-44902380D02*
X49030000Y-44426190D01*
X48791904Y-44902380D02*
X48791904Y-43902380D01*
X49172857Y-43902380D01*
X49268095Y-43950000D01*
X49315714Y-43997619D01*
X49363333Y-44092857D01*
X49363333Y-44235714D01*
X49315714Y-44330952D01*
X49268095Y-44378571D01*
X49172857Y-44426190D01*
X48791904Y-44426190D01*
X49744285Y-43997619D02*
X49791904Y-43950000D01*
X49887142Y-43902380D01*
X50125238Y-43902380D01*
X50220476Y-43950000D01*
X50268095Y-43997619D01*
X50315714Y-44092857D01*
X50315714Y-44188095D01*
X50268095Y-44330952D01*
X49696666Y-44902380D01*
X50315714Y-44902380D01*
X60682142Y-36459015D02*
X60729761Y-36506634D01*
X60777380Y-36649491D01*
X60777380Y-36744729D01*
X60729761Y-36887587D01*
X60634523Y-36982825D01*
X60539285Y-37030444D01*
X60348809Y-37078063D01*
X60205952Y-37078063D01*
X60015476Y-37030444D01*
X59920238Y-36982825D01*
X59825000Y-36887587D01*
X59777380Y-36744729D01*
X59777380Y-36649491D01*
X59825000Y-36506634D01*
X59872619Y-36459015D01*
X60777380Y-35506634D02*
X60777380Y-36078063D01*
X60777380Y-35792349D02*
X59777380Y-35792349D01*
X59920238Y-35887587D01*
X60015476Y-35982825D01*
X60063095Y-36078063D01*
D13*
X122619523Y-30841904D02*
X122619523Y-30041904D01*
X122810000Y-30041904D01*
X122924285Y-30080000D01*
X123000476Y-30156190D01*
X123038571Y-30232380D01*
X123076666Y-30384761D01*
X123076666Y-30499047D01*
X123038571Y-30651428D01*
X123000476Y-30727619D01*
X122924285Y-30803809D01*
X122810000Y-30841904D01*
X122619523Y-30841904D01*
X123762380Y-30308571D02*
X123762380Y-30841904D01*
X123571904Y-30003809D02*
X123381428Y-30575238D01*
X123876666Y-30575238D01*
D12*
X70207142Y-44656666D02*
X70254761Y-44704285D01*
X70302380Y-44847142D01*
X70302380Y-44942380D01*
X70254761Y-45085238D01*
X70159523Y-45180476D01*
X70064285Y-45228095D01*
X69873809Y-45275714D01*
X69730952Y-45275714D01*
X69540476Y-45228095D01*
X69445238Y-45180476D01*
X69350000Y-45085238D01*
X69302380Y-44942380D01*
X69302380Y-44847142D01*
X69350000Y-44704285D01*
X69397619Y-44656666D01*
X69302380Y-44323333D02*
X69302380Y-43656666D01*
X70302380Y-44085238D01*
X44283333Y-87352142D02*
X44235714Y-87399761D01*
X44092857Y-87447380D01*
X43997619Y-87447380D01*
X43854761Y-87399761D01*
X43759523Y-87304523D01*
X43711904Y-87209285D01*
X43664285Y-87018809D01*
X43664285Y-86875952D01*
X43711904Y-86685476D01*
X43759523Y-86590238D01*
X43854761Y-86495000D01*
X43997619Y-86447380D01*
X44092857Y-86447380D01*
X44235714Y-86495000D01*
X44283333Y-86542619D01*
X45188095Y-86447380D02*
X44711904Y-86447380D01*
X44664285Y-86923571D01*
X44711904Y-86875952D01*
X44807142Y-86828333D01*
X45045238Y-86828333D01*
X45140476Y-86875952D01*
X45188095Y-86923571D01*
X45235714Y-87018809D01*
X45235714Y-87256904D01*
X45188095Y-87352142D01*
X45140476Y-87399761D01*
X45045238Y-87447380D01*
X44807142Y-87447380D01*
X44711904Y-87399761D01*
X44664285Y-87352142D01*
X113747380Y-79968095D02*
X114556904Y-79968095D01*
X114652142Y-79920476D01*
X114699761Y-79872857D01*
X114747380Y-79777619D01*
X114747380Y-79587142D01*
X114699761Y-79491904D01*
X114652142Y-79444285D01*
X114556904Y-79396666D01*
X113747380Y-79396666D01*
X114747380Y-78396666D02*
X114747380Y-78968095D01*
X114747380Y-78682380D02*
X113747380Y-78682380D01*
X113890238Y-78777619D01*
X113985476Y-78872857D01*
X114033095Y-78968095D01*
X113747380Y-77777619D02*
X113747380Y-77682380D01*
X113795000Y-77587142D01*
X113842619Y-77539523D01*
X113937857Y-77491904D01*
X114128333Y-77444285D01*
X114366428Y-77444285D01*
X114556904Y-77491904D01*
X114652142Y-77539523D01*
X114699761Y-77587142D01*
X114747380Y-77682380D01*
X114747380Y-77777619D01*
X114699761Y-77872857D01*
X114652142Y-77920476D01*
X114556904Y-77968095D01*
X114366428Y-78015714D01*
X114128333Y-78015714D01*
X113937857Y-77968095D01*
X113842619Y-77920476D01*
X113795000Y-77872857D01*
X113747380Y-77777619D01*
X33528095Y-65492380D02*
X33528095Y-66301904D01*
X33575714Y-66397142D01*
X33623333Y-66444761D01*
X33718571Y-66492380D01*
X33909047Y-66492380D01*
X34004285Y-66444761D01*
X34051904Y-66397142D01*
X34099523Y-66301904D01*
X34099523Y-65492380D01*
X34623333Y-66492380D02*
X34813809Y-66492380D01*
X34909047Y-66444761D01*
X34956666Y-66397142D01*
X35051904Y-66254285D01*
X35099523Y-66063809D01*
X35099523Y-65682857D01*
X35051904Y-65587619D01*
X35004285Y-65540000D01*
X34909047Y-65492380D01*
X34718571Y-65492380D01*
X34623333Y-65540000D01*
X34575714Y-65587619D01*
X34528095Y-65682857D01*
X34528095Y-65920952D01*
X34575714Y-66016190D01*
X34623333Y-66063809D01*
X34718571Y-66111428D01*
X34909047Y-66111428D01*
X35004285Y-66063809D01*
X35051904Y-66016190D01*
X35099523Y-65920952D01*
X68302142Y-31916666D02*
X68349761Y-31964285D01*
X68397380Y-32107142D01*
X68397380Y-32202380D01*
X68349761Y-32345238D01*
X68254523Y-32440476D01*
X68159285Y-32488095D01*
X67968809Y-32535714D01*
X67825952Y-32535714D01*
X67635476Y-32488095D01*
X67540238Y-32440476D01*
X67445000Y-32345238D01*
X67397380Y-32202380D01*
X67397380Y-32107142D01*
X67445000Y-31964285D01*
X67492619Y-31916666D01*
X67492619Y-31535714D02*
X67445000Y-31488095D01*
X67397380Y-31392857D01*
X67397380Y-31154761D01*
X67445000Y-31059523D01*
X67492619Y-31011904D01*
X67587857Y-30964285D01*
X67683095Y-30964285D01*
X67825952Y-31011904D01*
X68397380Y-31583333D01*
X68397380Y-30964285D01*
X103378333Y-54967142D02*
X103330714Y-55014761D01*
X103187857Y-55062380D01*
X103092619Y-55062380D01*
X102949761Y-55014761D01*
X102854523Y-54919523D01*
X102806904Y-54824285D01*
X102759285Y-54633809D01*
X102759285Y-54490952D01*
X102806904Y-54300476D01*
X102854523Y-54205238D01*
X102949761Y-54110000D01*
X103092619Y-54062380D01*
X103187857Y-54062380D01*
X103330714Y-54110000D01*
X103378333Y-54157619D01*
X104235476Y-54395714D02*
X104235476Y-55062380D01*
X103997380Y-54014761D02*
X103759285Y-54729047D01*
X104378333Y-54729047D01*
X43167380Y-34885238D02*
X43167380Y-35456666D01*
X43167380Y-35170952D02*
X42167380Y-35170952D01*
X42310238Y-35266190D01*
X42405476Y-35361428D01*
X42453095Y-35456666D01*
X42167380Y-34266190D02*
X42167380Y-34170952D01*
X42215000Y-34075714D01*
X42262619Y-34028095D01*
X42357857Y-33980476D01*
X42548333Y-33932857D01*
X42786428Y-33932857D01*
X42976904Y-33980476D01*
X43072142Y-34028095D01*
X43119761Y-34075714D01*
X43167380Y-34170952D01*
X43167380Y-34266190D01*
X43119761Y-34361428D01*
X43072142Y-34409047D01*
X42976904Y-34456666D01*
X42786428Y-34504285D01*
X42548333Y-34504285D01*
X42357857Y-34456666D01*
X42262619Y-34409047D01*
X42215000Y-34361428D01*
X42167380Y-34266190D01*
X43167380Y-33504285D02*
X42167380Y-33504285D01*
X42786428Y-33409047D02*
X43167380Y-33123333D01*
X42500714Y-33123333D02*
X42881666Y-33504285D01*
X45537380Y-34456666D02*
X45061190Y-34790000D01*
X45537380Y-35028095D02*
X44537380Y-35028095D01*
X44537380Y-34647142D01*
X44585000Y-34551904D01*
X44632619Y-34504285D01*
X44727857Y-34456666D01*
X44870714Y-34456666D01*
X44965952Y-34504285D01*
X45013571Y-34551904D01*
X45061190Y-34647142D01*
X45061190Y-35028095D01*
X45537380Y-33504285D02*
X45537380Y-34075714D01*
X45537380Y-33790000D02*
X44537380Y-33790000D01*
X44680238Y-33885238D01*
X44775476Y-33980476D01*
X44823095Y-34075714D01*
X113747380Y-64251904D02*
X114556904Y-64251904D01*
X114652142Y-64204285D01*
X114699761Y-64156666D01*
X114747380Y-64061428D01*
X114747380Y-63870952D01*
X114699761Y-63775714D01*
X114652142Y-63728095D01*
X114556904Y-63680476D01*
X113747380Y-63680476D01*
X113747380Y-62728095D02*
X113747380Y-63204285D01*
X114223571Y-63251904D01*
X114175952Y-63204285D01*
X114128333Y-63109047D01*
X114128333Y-62870952D01*
X114175952Y-62775714D01*
X114223571Y-62728095D01*
X114318809Y-62680476D01*
X114556904Y-62680476D01*
X114652142Y-62728095D01*
X114699761Y-62775714D01*
X114747380Y-62870952D01*
X114747380Y-63109047D01*
X114699761Y-63204285D01*
X114652142Y-63251904D01*
D13*
X112459523Y-30841904D02*
X112459523Y-30041904D01*
X112650000Y-30041904D01*
X112764285Y-30080000D01*
X112840476Y-30156190D01*
X112878571Y-30232380D01*
X112916666Y-30384761D01*
X112916666Y-30499047D01*
X112878571Y-30651428D01*
X112840476Y-30727619D01*
X112764285Y-30803809D01*
X112650000Y-30841904D01*
X112459523Y-30841904D01*
X113183333Y-30041904D02*
X113678571Y-30041904D01*
X113411904Y-30346666D01*
X113526190Y-30346666D01*
X113602380Y-30384761D01*
X113640476Y-30422857D01*
X113678571Y-30499047D01*
X113678571Y-30689523D01*
X113640476Y-30765714D01*
X113602380Y-30803809D01*
X113526190Y-30841904D01*
X113297619Y-30841904D01*
X113221428Y-30803809D01*
X113183333Y-30765714D01*
D12*
X103862142Y-78946666D02*
X103909761Y-78994285D01*
X103957380Y-79137142D01*
X103957380Y-79232380D01*
X103909761Y-79375238D01*
X103814523Y-79470476D01*
X103719285Y-79518095D01*
X103528809Y-79565714D01*
X103385952Y-79565714D01*
X103195476Y-79518095D01*
X103100238Y-79470476D01*
X103005000Y-79375238D01*
X102957380Y-79232380D01*
X102957380Y-79137142D01*
X103005000Y-78994285D01*
X103052619Y-78946666D01*
X102957380Y-78089523D02*
X102957380Y-78280000D01*
X103005000Y-78375238D01*
X103052619Y-78422857D01*
X103195476Y-78518095D01*
X103385952Y-78565714D01*
X103766904Y-78565714D01*
X103862142Y-78518095D01*
X103909761Y-78470476D01*
X103957380Y-78375238D01*
X103957380Y-78184761D01*
X103909761Y-78089523D01*
X103862142Y-78041904D01*
X103766904Y-77994285D01*
X103528809Y-77994285D01*
X103433571Y-78041904D01*
X103385952Y-78089523D01*
X103338333Y-78184761D01*
X103338333Y-78375238D01*
X103385952Y-78470476D01*
X103433571Y-78518095D01*
X103528809Y-78565714D01*
X80747380Y-33771904D02*
X81556904Y-33771904D01*
X81652142Y-33724285D01*
X81699761Y-33676666D01*
X81747380Y-33581428D01*
X81747380Y-33390952D01*
X81699761Y-33295714D01*
X81652142Y-33248095D01*
X81556904Y-33200476D01*
X80747380Y-33200476D01*
X80747380Y-32819523D02*
X80747380Y-32200476D01*
X81128333Y-32533809D01*
X81128333Y-32390952D01*
X81175952Y-32295714D01*
X81223571Y-32248095D01*
X81318809Y-32200476D01*
X81556904Y-32200476D01*
X81652142Y-32248095D01*
X81699761Y-32295714D01*
X81747380Y-32390952D01*
X81747380Y-32676666D01*
X81699761Y-32771904D01*
X81652142Y-32819523D01*
X65278095Y-68032380D02*
X65278095Y-68841904D01*
X65325714Y-68937142D01*
X65373333Y-68984761D01*
X65468571Y-69032380D01*
X65659047Y-69032380D01*
X65754285Y-68984761D01*
X65801904Y-68937142D01*
X65849523Y-68841904D01*
X65849523Y-68032380D01*
X66230476Y-68032380D02*
X66897142Y-68032380D01*
X66468571Y-69032380D01*
X35433333Y-44807142D02*
X35385714Y-44854761D01*
X35242857Y-44902380D01*
X35147619Y-44902380D01*
X35004761Y-44854761D01*
X34909523Y-44759523D01*
X34861904Y-44664285D01*
X34814285Y-44473809D01*
X34814285Y-44330952D01*
X34861904Y-44140476D01*
X34909523Y-44045238D01*
X35004761Y-43950000D01*
X35147619Y-43902380D01*
X35242857Y-43902380D01*
X35385714Y-43950000D01*
X35433333Y-43997619D01*
X35766666Y-43902380D02*
X36385714Y-43902380D01*
X36052380Y-44283333D01*
X36195238Y-44283333D01*
X36290476Y-44330952D01*
X36338095Y-44378571D01*
X36385714Y-44473809D01*
X36385714Y-44711904D01*
X36338095Y-44807142D01*
X36290476Y-44854761D01*
X36195238Y-44902380D01*
X35909523Y-44902380D01*
X35814285Y-44854761D01*
X35766666Y-44807142D01*
X68246666Y-94059380D02*
X68246666Y-94773666D01*
X68199047Y-94916523D01*
X68103809Y-95011761D01*
X67960952Y-95059380D01*
X67865714Y-95059380D01*
X69246666Y-95059380D02*
X68675238Y-95059380D01*
X68960952Y-95059380D02*
X68960952Y-94059380D01*
X68865714Y-94202238D01*
X68770476Y-94297476D01*
X68675238Y-94345095D01*
D13*
X102299523Y-30841904D02*
X102299523Y-30041904D01*
X102490000Y-30041904D01*
X102604285Y-30080000D01*
X102680476Y-30156190D01*
X102718571Y-30232380D01*
X102756666Y-30384761D01*
X102756666Y-30499047D01*
X102718571Y-30651428D01*
X102680476Y-30727619D01*
X102604285Y-30803809D01*
X102490000Y-30841904D01*
X102299523Y-30841904D01*
X103061428Y-30118095D02*
X103099523Y-30080000D01*
X103175714Y-30041904D01*
X103366190Y-30041904D01*
X103442380Y-30080000D01*
X103480476Y-30118095D01*
X103518571Y-30194285D01*
X103518571Y-30270476D01*
X103480476Y-30384761D01*
X103023333Y-30841904D01*
X103518571Y-30841904D01*
D12*
X92162380Y-79491904D02*
X92971904Y-79491904D01*
X93067142Y-79444285D01*
X93114761Y-79396666D01*
X93162380Y-79301428D01*
X93162380Y-79110952D01*
X93114761Y-79015714D01*
X93067142Y-78968095D01*
X92971904Y-78920476D01*
X92162380Y-78920476D01*
X92162380Y-78015714D02*
X92162380Y-78206190D01*
X92210000Y-78301428D01*
X92257619Y-78349047D01*
X92400476Y-78444285D01*
X92590952Y-78491904D01*
X92971904Y-78491904D01*
X93067142Y-78444285D01*
X93114761Y-78396666D01*
X93162380Y-78301428D01*
X93162380Y-78110952D01*
X93114761Y-78015714D01*
X93067142Y-77968095D01*
X92971904Y-77920476D01*
X92733809Y-77920476D01*
X92638571Y-77968095D01*
X92590952Y-78015714D01*
X92543333Y-78110952D01*
X92543333Y-78301428D01*
X92590952Y-78396666D01*
X92638571Y-78444285D01*
X92733809Y-78491904D01*
D14*
X45085000Y-49260000D02*
X46085000Y-48260000D01*
X46085000Y-48260000D02*
X51435000Y-48260000D01*
X51435000Y-48260000D02*
X51435000Y-83820000D01*
X51435000Y-83820000D02*
X45085000Y-83820000D01*
X45085000Y-83820000D02*
X45085000Y-49260000D01*
X107950000Y-38100000D02*
X107950000Y-36170000D01*
X107950000Y-27940000D02*
X107950000Y-29870000D01*
X109200000Y-36170000D02*
X109200000Y-29870000D01*
X106700000Y-36170000D02*
X109200000Y-36170000D01*
X109200000Y-29870000D02*
X106700000Y-29870000D01*
X106700000Y-29870000D02*
X106700000Y-36170000D01*
X102885000Y-86360000D02*
X110505000Y-86360000D01*
X102885000Y-88265000D02*
X102885000Y-86360000D01*
X110505000Y-88900000D02*
X103520000Y-88900000D01*
X110505000Y-86360000D02*
X110505000Y-88900000D01*
X103520000Y-88900000D02*
X102885000Y-88265000D01*
X116860000Y-29870000D02*
X116860000Y-36170000D01*
X118110000Y-38100000D02*
X118110000Y-36170000D01*
X116860000Y-36170000D02*
X119360000Y-36170000D01*
X119360000Y-29870000D02*
X116860000Y-29870000D01*
X119360000Y-36170000D02*
X119360000Y-29870000D01*
X118110000Y-27940000D02*
X118110000Y-29870000D01*
X114935000Y-71120000D02*
X116865000Y-71120000D01*
X123165000Y-69870000D02*
X116865000Y-69870000D01*
X116865000Y-72370000D02*
X123165000Y-72370000D01*
X116865000Y-69870000D02*
X116865000Y-72370000D01*
X125095000Y-71120000D02*
X123165000Y-71120000D01*
X123165000Y-72370000D02*
X123165000Y-69870000D01*
X101595000Y-60325000D02*
X101595000Y-66675000D01*
X83815000Y-65675000D02*
X83815000Y-60325000D01*
X83815000Y-60325000D02*
X101595000Y-60325000D01*
X101595000Y-66675000D02*
X84815000Y-66675000D01*
X84815000Y-66675000D02*
X83815000Y-65675000D01*
X84820000Y-51435000D02*
X83820000Y-50435000D01*
X83820000Y-50435000D02*
X83820000Y-45085000D01*
X83820000Y-45085000D02*
X101600000Y-45085000D01*
X101600000Y-45085000D02*
X101600000Y-51435000D01*
X101600000Y-51435000D02*
X84820000Y-51435000D01*
X97790000Y-27940000D02*
X97790000Y-29870000D01*
X99040000Y-29870000D02*
X96540000Y-29870000D01*
X99040000Y-36170000D02*
X99040000Y-29870000D01*
X96540000Y-36170000D02*
X99040000Y-36170000D01*
X96540000Y-29870000D02*
X96540000Y-36170000D01*
X97790000Y-38100000D02*
X97790000Y-36170000D01*
X52785000Y-33740000D02*
X50085000Y-33740000D01*
X52785000Y-38160000D02*
X52785000Y-32960000D01*
X52785000Y-32960000D02*
X50085000Y-32960000D01*
X50085000Y-38160000D02*
X52785000Y-38160000D01*
X51435000Y-31750000D02*
X51435000Y-32960000D01*
X51435000Y-39370000D02*
X51435000Y-38160000D01*
X50085000Y-32960000D02*
X50085000Y-38160000D01*
X52785000Y-33840000D02*
X50085000Y-33840000D01*
X52785000Y-33640000D02*
X50085000Y-33640000D01*
X105405000Y-45075000D02*
X123185000Y-45075000D01*
X123185000Y-51425000D02*
X106405000Y-51425000D01*
X105405000Y-50425000D02*
X105405000Y-45075000D01*
X106405000Y-51425000D02*
X105405000Y-50425000D01*
X123185000Y-45075000D02*
X123185000Y-51425000D01*
X46380000Y-45700000D02*
X52680000Y-45700000D01*
X44450000Y-44450000D02*
X46380000Y-44450000D01*
X54610000Y-44450000D02*
X52680000Y-44450000D01*
X52680000Y-45700000D02*
X52680000Y-43200000D01*
X52680000Y-43200000D02*
X46380000Y-43200000D01*
X46380000Y-43200000D02*
X46380000Y-45700000D01*
X62072500Y-32865590D02*
X62072500Y-33665590D01*
X62472500Y-33265590D02*
X61672500Y-33265590D01*
X64325000Y-36292349D02*
G75*
G03*
X64325000Y-36292349I-4000000J0D01*
G01*
X125690000Y-31949694D02*
X125690000Y-29010306D01*
X125690016Y-29010334D02*
G75*
G03*
X125690000Y-31949694I-2500016J-1469666D01*
G01*
X125690000Y-30480000D02*
G75*
G03*
X125690000Y-30480000I-2500000J0D01*
G01*
X70850000Y-47990000D02*
X70850000Y-40990000D01*
X68850000Y-40990000D02*
X68850000Y-47990000D01*
X70850000Y-40990000D02*
X68850000Y-40990000D01*
X68850000Y-47990000D02*
X70850000Y-47990000D01*
X47950000Y-85995000D02*
X40950000Y-85995000D01*
X40950000Y-87995000D02*
X47950000Y-87995000D01*
X47950000Y-87995000D02*
X47950000Y-85995000D01*
X40950000Y-85995000D02*
X40950000Y-87995000D01*
X105405000Y-80905000D02*
X105405000Y-75555000D01*
X123185000Y-81905000D02*
X106405000Y-81905000D01*
X123185000Y-75555000D02*
X123185000Y-81905000D01*
X106405000Y-81905000D02*
X105405000Y-80905000D01*
X105405000Y-75555000D02*
X123185000Y-75555000D01*
X31115000Y-83820000D02*
X31115000Y-49260000D01*
X32115000Y-48260000D02*
X37465000Y-48260000D01*
X37465000Y-48260000D02*
X37465000Y-83820000D01*
X31115000Y-49260000D02*
X32115000Y-48260000D01*
X37465000Y-83820000D02*
X31115000Y-83820000D01*
X68945000Y-28250000D02*
X66945000Y-28250000D01*
X66945000Y-28250000D02*
X66945000Y-35250000D01*
X68945000Y-35250000D02*
X68945000Y-28250000D01*
X66945000Y-35250000D02*
X68945000Y-35250000D01*
X100045000Y-55610000D02*
X107045000Y-55610000D01*
X107045000Y-55610000D02*
X107045000Y-53610000D01*
X107045000Y-53610000D02*
X100045000Y-53610000D01*
X100045000Y-53610000D02*
X100045000Y-55610000D01*
X43835000Y-37440000D02*
X46335000Y-37440000D01*
X45085000Y-29210000D02*
X45085000Y-31140000D01*
X46335000Y-37440000D02*
X46335000Y-31140000D01*
X45085000Y-39370000D02*
X45085000Y-37440000D01*
X43835000Y-31140000D02*
X43835000Y-37440000D01*
X46335000Y-31140000D02*
X43835000Y-31140000D01*
X105405000Y-65665000D02*
X105405000Y-60315000D01*
X105405000Y-60315000D02*
X123185000Y-60315000D01*
X123185000Y-60315000D02*
X123185000Y-66665000D01*
X123185000Y-66665000D02*
X106405000Y-66665000D01*
X106405000Y-66665000D02*
X105405000Y-65665000D01*
X115530000Y-31949694D02*
X115530000Y-29010306D01*
X115530016Y-29010334D02*
G75*
G03*
X115530000Y-31949694I-2500016J-1469666D01*
G01*
X115530000Y-30480000D02*
G75*
G03*
X115530000Y-30480000I-2500000J0D01*
G01*
X102505000Y-82280000D02*
X104505000Y-82280000D01*
X104505000Y-82280000D02*
X104505000Y-75280000D01*
X102505000Y-75280000D02*
X102505000Y-82280000D01*
X104505000Y-75280000D02*
X102505000Y-75280000D01*
X71135000Y-35185000D02*
X71135000Y-29835000D01*
X91455000Y-36185000D02*
X72135000Y-36185000D01*
X71135000Y-29835000D02*
X91455000Y-29835000D01*
X91455000Y-29835000D02*
X91455000Y-36185000D01*
X72135000Y-36185000D02*
X71135000Y-35185000D01*
X73405000Y-53340000D02*
X73405000Y-83820000D01*
X58675000Y-83820000D02*
X58675000Y-54340000D01*
X73405000Y-83820000D02*
X58675000Y-83820000D01*
X58675000Y-54340000D02*
X59675000Y-53340000D01*
X59675000Y-53340000D02*
X73405000Y-53340000D01*
X39100000Y-45450000D02*
X39100000Y-43450000D01*
X32100000Y-45450000D02*
X39100000Y-45450000D01*
X39100000Y-43450000D02*
X32100000Y-43450000D01*
X32100000Y-43450000D02*
X32100000Y-45450000D01*
X105370000Y-31949694D02*
X105370000Y-29010306D01*
X105370016Y-29010334D02*
G75*
G03*
X105370000Y-31949694I-2500016J-1469666D01*
G01*
X105370000Y-30480000D02*
G75*
G03*
X105370000Y-30480000I-2500000J0D01*
G01*
X84820000Y-81905000D02*
X83820000Y-80905000D01*
X83820000Y-80905000D02*
X83820000Y-75555000D01*
X101600000Y-75555000D02*
X101600000Y-81905000D01*
X101600000Y-81905000D02*
X84820000Y-81905000D01*
X83820000Y-75555000D02*
X101600000Y-75555000D01*
M02*
