G04 #@! TF.GenerationSoftware,KiCad,Pcbnew,(6.0.5-0)*
G04 #@! TF.CreationDate,2022-09-28T23:43:25-07:00*
G04 #@! TF.ProjectId,LanguageCard,4c616e67-7561-4676-9543-6172642e6b69,rev?*
G04 #@! TF.SameCoordinates,Original*
G04 #@! TF.FileFunction,Copper,L2,Bot*
G04 #@! TF.FilePolarity,Positive*
%FSLAX46Y46*%
G04 Gerber Fmt 4.6, Leading zero omitted, Abs format (unit mm)*
G04 Created by KiCad (PCBNEW (6.0.5-0)) date 2022-09-28 23:43:25*
%MOMM*%
%LPD*%
G01*
G04 APERTURE LIST*
G04 Aperture macros list*
%AMRoundRect*
0 Rectangle with rounded corners*
0 $1 Rounding radius*
0 $2 $3 $4 $5 $6 $7 $8 $9 X,Y pos of 4 corners*
0 Add a 4 corners polygon primitive as box body*
4,1,4,$2,$3,$4,$5,$6,$7,$8,$9,$2,$3,0*
0 Add four circle primitives for the rounded corners*
1,1,$1+$1,$2,$3*
1,1,$1+$1,$4,$5*
1,1,$1+$1,$6,$7*
1,1,$1+$1,$8,$9*
0 Add four rect primitives between the rounded corners*
20,1,$1+$1,$2,$3,$4,$5,0*
20,1,$1+$1,$4,$5,$6,$7,0*
20,1,$1+$1,$6,$7,$8,$9,0*
20,1,$1+$1,$8,$9,$2,$3,0*%
G04 Aperture macros list end*
G04 #@! TA.AperFunction,Profile*
%ADD10C,0.100000*%
G04 #@! TD*
G04 #@! TA.AperFunction,ComponentPad*
%ADD11R,1.600000X1.600000*%
G04 #@! TD*
G04 #@! TA.AperFunction,ComponentPad*
%ADD12O,1.600000X1.600000*%
G04 #@! TD*
G04 #@! TA.AperFunction,ComponentPad*
%ADD13C,1.600000*%
G04 #@! TD*
G04 #@! TA.AperFunction,ComponentPad*
%ADD14R,1.700000X1.700000*%
G04 #@! TD*
G04 #@! TA.AperFunction,ComponentPad*
%ADD15O,1.700000X1.700000*%
G04 #@! TD*
G04 #@! TA.AperFunction,ComponentPad*
%ADD16R,1.800000X1.800000*%
G04 #@! TD*
G04 #@! TA.AperFunction,ComponentPad*
%ADD17O,1.800000X1.800000*%
G04 #@! TD*
G04 #@! TA.AperFunction,ComponentPad*
%ADD18C,1.800000*%
G04 #@! TD*
G04 #@! TA.AperFunction,ConnectorPad*
%ADD19RoundRect,0.317500X-0.317500X-3.365500X0.317500X-3.365500X0.317500X3.365500X-0.317500X3.365500X0*%
G04 #@! TD*
G04 #@! TA.AperFunction,ViaPad*
%ADD20C,1.016000*%
G04 #@! TD*
G04 #@! TA.AperFunction,Conductor*
%ADD21C,0.254000*%
G04 #@! TD*
G04 #@! TA.AperFunction,Conductor*
%ADD22C,0.762000*%
G04 #@! TD*
G04 APERTURE END LIST*
D10*
X27305000Y-93980000D02*
G75*
G03*
X28575000Y-95250000I1270000J0D01*
G01*
X126047500Y-25400000D02*
X52705000Y-25400000D01*
X52387500Y-102235000D02*
X53022500Y-102870000D01*
X119062500Y-95250000D02*
X126047500Y-95250000D01*
X27305000Y-93980000D02*
X27305000Y-50800000D01*
X52387500Y-96520000D02*
G75*
G03*
X51117500Y-95250000I-1270000J0D01*
G01*
X127317500Y-93980000D02*
X127317500Y-26670000D01*
X52387500Y-96520000D02*
X52387500Y-102235000D01*
X28575000Y-95250000D02*
X51117500Y-95250000D01*
X126047500Y-95250000D02*
G75*
G03*
X127317500Y-93980000I0J1270000D01*
G01*
X127317500Y-26670000D02*
G75*
G03*
X126047500Y-25400000I-1270000J0D01*
G01*
X117157500Y-102870000D02*
X53022500Y-102870000D01*
X117792500Y-96520000D02*
X117792500Y-102235000D01*
X119062500Y-95250000D02*
G75*
G03*
X117792500Y-96520000I0J-1270000D01*
G01*
X117792500Y-102235000D02*
X117157500Y-102870000D01*
X52705000Y-25400000D02*
G75*
G03*
X27305000Y-50800000I0J-25400000D01*
G01*
D11*
X44450000Y-49530000D03*
D12*
X44450000Y-52070000D03*
X44450000Y-54610000D03*
X44450000Y-57150000D03*
X44450000Y-59690000D03*
X44450000Y-62230000D03*
X44450000Y-64770000D03*
X44450000Y-67310000D03*
X44450000Y-69850000D03*
X44450000Y-72390000D03*
X44450000Y-74930000D03*
X44450000Y-77470000D03*
X44450000Y-80010000D03*
X44450000Y-82550000D03*
X52070000Y-82550000D03*
X52070000Y-80010000D03*
X52070000Y-77470000D03*
X52070000Y-74930000D03*
X52070000Y-72390000D03*
X52070000Y-69850000D03*
X52070000Y-67310000D03*
X52070000Y-64770000D03*
X52070000Y-62230000D03*
X52070000Y-59690000D03*
X52070000Y-57150000D03*
X52070000Y-54610000D03*
X52070000Y-52070000D03*
X52070000Y-49530000D03*
D13*
X107950000Y-27940000D03*
D12*
X107950000Y-38100000D03*
D14*
X104155000Y-87630000D03*
D15*
X106695000Y-87630000D03*
X109235000Y-87630000D03*
D13*
X118110000Y-27940000D03*
D12*
X118110000Y-38100000D03*
D13*
X114935000Y-71120000D03*
D12*
X125095000Y-71120000D03*
D11*
X85085000Y-67310000D03*
D12*
X87625000Y-67310000D03*
X90165000Y-67310000D03*
X92705000Y-67310000D03*
X95245000Y-67310000D03*
X97785000Y-67310000D03*
X100325000Y-67310000D03*
X100325000Y-59690000D03*
X97785000Y-59690000D03*
X95245000Y-59690000D03*
X92705000Y-59690000D03*
X90165000Y-59690000D03*
X87625000Y-59690000D03*
X85085000Y-59690000D03*
D11*
X85090000Y-52070000D03*
D12*
X87630000Y-52070000D03*
X90170000Y-52070000D03*
X92710000Y-52070000D03*
X95250000Y-52070000D03*
X97790000Y-52070000D03*
X100330000Y-52070000D03*
X100330000Y-44450000D03*
X97790000Y-44450000D03*
X95250000Y-44450000D03*
X92710000Y-44450000D03*
X90170000Y-44450000D03*
X87630000Y-44450000D03*
X85090000Y-44450000D03*
D13*
X97790000Y-27940000D03*
D12*
X97790000Y-38100000D03*
D16*
X51435000Y-31750000D03*
D17*
X51435000Y-39370000D03*
D11*
X106675000Y-52060000D03*
D12*
X109215000Y-52060000D03*
X111755000Y-52060000D03*
X114295000Y-52060000D03*
X116835000Y-52060000D03*
X119375000Y-52060000D03*
X121915000Y-52060000D03*
X121915000Y-44440000D03*
X119375000Y-44440000D03*
X116835000Y-44440000D03*
X114295000Y-44440000D03*
X111755000Y-44440000D03*
X109215000Y-44440000D03*
X106675000Y-44440000D03*
D13*
X44450000Y-44450000D03*
D12*
X54610000Y-44450000D03*
D11*
X60325000Y-33792349D03*
D13*
X60325000Y-38792349D03*
D16*
X124460000Y-30480000D03*
D18*
X121920000Y-30480000D03*
D13*
X69850000Y-46990000D03*
X69850000Y-41990000D03*
X46950000Y-86995000D03*
X41950000Y-86995000D03*
D11*
X106675000Y-82540000D03*
D12*
X109215000Y-82540000D03*
X111755000Y-82540000D03*
X114295000Y-82540000D03*
X116835000Y-82540000D03*
X119375000Y-82540000D03*
X121915000Y-82540000D03*
X121915000Y-74920000D03*
X119375000Y-74920000D03*
X116835000Y-74920000D03*
X114295000Y-74920000D03*
X111755000Y-74920000D03*
X109215000Y-74920000D03*
X106675000Y-74920000D03*
D11*
X30480000Y-49530000D03*
D12*
X30480000Y-52070000D03*
X30480000Y-54610000D03*
X30480000Y-57150000D03*
X30480000Y-59690000D03*
X30480000Y-62230000D03*
X30480000Y-64770000D03*
X30480000Y-67310000D03*
X30480000Y-69850000D03*
X30480000Y-72390000D03*
X30480000Y-74930000D03*
X30480000Y-77470000D03*
X30480000Y-80010000D03*
X30480000Y-82550000D03*
X38100000Y-82550000D03*
X38100000Y-80010000D03*
X38100000Y-77470000D03*
X38100000Y-74930000D03*
X38100000Y-72390000D03*
X38100000Y-69850000D03*
X38100000Y-67310000D03*
X38100000Y-64770000D03*
X38100000Y-62230000D03*
X38100000Y-59690000D03*
X38100000Y-57150000D03*
X38100000Y-54610000D03*
X38100000Y-52070000D03*
X38100000Y-49530000D03*
D13*
X67945000Y-34250000D03*
X67945000Y-29250000D03*
X106045000Y-54610000D03*
X101045000Y-54610000D03*
X45085000Y-29210000D03*
D12*
X45085000Y-39370000D03*
D11*
X106675000Y-67300000D03*
D12*
X109215000Y-67300000D03*
X111755000Y-67300000D03*
X114295000Y-67300000D03*
X116835000Y-67300000D03*
X119375000Y-67300000D03*
X121915000Y-67300000D03*
X121915000Y-59680000D03*
X119375000Y-59680000D03*
X116835000Y-59680000D03*
X114295000Y-59680000D03*
X111755000Y-59680000D03*
X109215000Y-59680000D03*
X106675000Y-59680000D03*
D16*
X114300000Y-30480000D03*
D18*
X111760000Y-30480000D03*
D13*
X103505000Y-81280000D03*
X103505000Y-76280000D03*
D11*
X72405000Y-36820000D03*
D12*
X74945000Y-36820000D03*
X77485000Y-36820000D03*
X80025000Y-36820000D03*
X82565000Y-36820000D03*
X85105000Y-36820000D03*
X87645000Y-36820000D03*
X90185000Y-36820000D03*
X90185000Y-29200000D03*
X87645000Y-29200000D03*
X85105000Y-29200000D03*
X82565000Y-29200000D03*
X80025000Y-29200000D03*
X77485000Y-29200000D03*
X74945000Y-29200000D03*
X72405000Y-29200000D03*
D11*
X58420000Y-54610000D03*
D12*
X58420000Y-57150000D03*
X58420000Y-59690000D03*
X58420000Y-62230000D03*
X58420000Y-64770000D03*
X58420000Y-67310000D03*
X58420000Y-69850000D03*
X58420000Y-72390000D03*
X58420000Y-74930000D03*
X58420000Y-77470000D03*
X58420000Y-80010000D03*
X58420000Y-82550000D03*
X73660000Y-82550000D03*
X73660000Y-80010000D03*
X73660000Y-77470000D03*
X73660000Y-74930000D03*
X73660000Y-72390000D03*
X73660000Y-69850000D03*
X73660000Y-67310000D03*
X73660000Y-64770000D03*
X73660000Y-62230000D03*
X73660000Y-59690000D03*
X73660000Y-57150000D03*
X73660000Y-54610000D03*
D13*
X33100000Y-44450000D03*
X38100000Y-44450000D03*
D19*
X115570000Y-99060000D03*
X113030000Y-99060000D03*
X110490000Y-99060000D03*
X107950000Y-99060000D03*
X105410000Y-99060000D03*
X102870000Y-99060000D03*
X100330000Y-99060000D03*
X97790000Y-99060000D03*
X95250000Y-99060000D03*
X92710000Y-99060000D03*
X90170000Y-99060000D03*
X87630000Y-99060000D03*
X85090000Y-99060000D03*
X82550000Y-99060000D03*
X80010000Y-99060000D03*
X77470000Y-99060000D03*
X74930000Y-99060000D03*
X72390000Y-99060000D03*
X69850000Y-99060000D03*
X67310000Y-99060000D03*
X64770000Y-99060000D03*
X62230000Y-99060000D03*
X59690000Y-99060000D03*
X57150000Y-99060000D03*
X54610000Y-99060000D03*
D16*
X104140000Y-30480000D03*
D18*
X101600000Y-30480000D03*
D11*
X85090000Y-82540000D03*
D12*
X87630000Y-82540000D03*
X90170000Y-82540000D03*
X92710000Y-82540000D03*
X95250000Y-82540000D03*
X97790000Y-82540000D03*
X100330000Y-82540000D03*
X100330000Y-74920000D03*
X97790000Y-74920000D03*
X95250000Y-74920000D03*
X92710000Y-74920000D03*
X90170000Y-74920000D03*
X87630000Y-74920000D03*
X85090000Y-74920000D03*
D20*
X110490000Y-93980000D03*
X113030000Y-93980000D03*
X76835000Y-74930000D03*
X80645000Y-52070000D03*
X107442000Y-72136000D03*
X75565000Y-66040000D03*
X81280000Y-64135000D03*
X86360000Y-48895000D03*
X88900000Y-68580000D03*
X78740000Y-72390000D03*
X118110000Y-45720000D03*
X91440000Y-50165000D03*
X88900000Y-55245000D03*
X86360000Y-46355000D03*
X56515000Y-86995000D03*
X55245000Y-89535000D03*
X53975000Y-92075000D03*
X99060000Y-70104000D03*
X103505000Y-42545000D03*
X76200000Y-43180000D03*
X120650000Y-39370000D03*
X76200000Y-52705000D03*
X74930000Y-51435000D03*
X85090000Y-65405000D03*
D21*
X110490000Y-93980000D02*
X110490000Y-99060000D01*
X113030000Y-99060000D02*
X113030000Y-93980000D01*
D22*
X38100000Y-49530000D02*
X30480000Y-49530000D01*
X57795000Y-29200000D02*
X45095000Y-29200000D01*
X38100000Y-49530000D02*
X38208949Y-49530000D01*
X53985000Y-29200000D02*
X57795000Y-29200000D01*
X88275000Y-78105000D02*
X103490000Y-78105000D01*
X73660000Y-54610000D02*
X74930000Y-54610000D01*
X72405000Y-29200000D02*
X57795000Y-29200000D01*
X78182039Y-55957038D02*
X78740000Y-56515000D01*
X81806051Y-59690000D02*
X83185000Y-59690000D01*
X78740000Y-56515000D02*
X79673471Y-57448471D01*
X73660000Y-62230000D02*
X75673949Y-62230000D01*
X51326051Y-49530000D02*
X52070000Y-49530000D01*
X58311051Y-46990000D02*
X82550000Y-46990000D01*
X85085000Y-59690000D02*
X83185000Y-59690000D01*
X44341051Y-46990000D02*
X45193949Y-46990000D01*
X52070000Y-49530000D02*
X52178949Y-49530000D01*
X48259986Y-48260014D02*
G75*
G03*
X45193949Y-46990000I-3066086J-3066086D01*
G01*
X81806051Y-59690022D02*
G75*
G03*
X78740001Y-60960001I-51J-4335978D01*
G01*
X85085000Y-59689987D02*
G75*
G02*
X79673471Y-57448471I0J7653087D01*
G01*
X106675000Y-74920000D02*
G75*
G02*
X103490000Y-78105000I-3185000J0D01*
G01*
X44341051Y-46990022D02*
G75*
G03*
X41275001Y-48260001I-51J-4335978D01*
G01*
X51326051Y-49529978D02*
G75*
G02*
X48260001Y-48259999I-51J4335978D01*
G01*
X45085000Y-29210000D02*
G75*
G02*
X45095000Y-29200000I10000J0D01*
G01*
X53985000Y-29200000D02*
G75*
G03*
X51435000Y-31750000I0J-2550000D01*
G01*
X41274986Y-48259986D02*
G75*
G02*
X38208949Y-49530000I-3066086J3066086D01*
G01*
X58311051Y-46990022D02*
G75*
G03*
X55245001Y-48260001I-51J-4335978D01*
G01*
X78739986Y-60959986D02*
G75*
G02*
X75673949Y-62230000I-3066086J3066086D01*
G01*
X85090000Y-44450000D02*
G75*
G02*
X82550000Y-46990000I-2540000J0D01*
G01*
X78182043Y-55957034D02*
G75*
G03*
X74930000Y-54610000I-3252043J-3252066D01*
G01*
X55244986Y-48259986D02*
G75*
G02*
X52178949Y-49530000I-3066086J3066086D01*
G01*
X88275000Y-78105000D02*
G75*
G02*
X85090000Y-74920000I0J3185000D01*
G01*
X124460000Y-45193949D02*
X124460000Y-44450000D01*
X96520000Y-40640000D02*
X94005000Y-40640000D01*
X41315000Y-41315000D02*
X40680000Y-41315000D01*
X119385000Y-80010000D02*
X119365000Y-80010000D01*
X123190000Y-55880000D02*
X123747961Y-56437961D01*
X74295000Y-40640000D02*
X96520000Y-40640000D01*
X121920000Y-88265000D02*
X121920000Y-87630000D01*
X124460000Y-74930000D02*
X124460000Y-75673949D01*
X120650000Y-40640000D02*
X96520000Y-40640000D01*
X116835000Y-52700000D02*
X116835000Y-52060000D01*
D21*
X52070000Y-64770000D02*
X49793025Y-64770000D01*
D22*
X123747962Y-62942039D02*
X123190000Y-63500000D01*
X52178949Y-85090000D02*
X51961051Y-85090000D01*
X121915000Y-52060000D02*
X121915000Y-51338122D01*
X57802349Y-41315000D02*
X41315000Y-41315000D01*
X40680000Y-41315000D02*
X36235000Y-41315000D01*
X115570000Y-99060000D02*
X115570000Y-95250000D01*
X123747961Y-56437961D02*
X123716051Y-56406051D01*
X115570000Y-95250000D02*
X115570000Y-93965000D01*
X123190000Y-72390000D02*
X123561974Y-72761974D01*
X118750000Y-79375000D02*
X103495000Y-79375000D01*
X119380000Y-54610000D02*
X118745000Y-54610000D01*
X115570000Y-95250000D02*
X115570000Y-94615000D01*
X73025000Y-40640000D02*
X71200000Y-40640000D01*
D21*
X39741975Y-64770000D02*
X38100000Y-64770000D01*
D22*
X121920000Y-67287929D02*
X121920000Y-66566051D01*
X121915000Y-82540000D02*
X121915000Y-81793980D01*
X121920000Y-81806051D02*
X121920000Y-87630000D01*
D21*
X46726975Y-63500000D02*
X42808025Y-63500000D01*
D22*
X74295000Y-40640000D02*
X73025000Y-40640000D01*
X121915000Y-52801878D02*
X121915000Y-52060000D01*
X121915000Y-67300000D02*
X121915000Y-69311878D01*
X73025000Y-40640000D02*
X62172651Y-40640000D01*
X121915000Y-52075000D02*
X121915000Y-52060000D01*
X58420000Y-82550000D02*
X58311051Y-82550000D01*
X45828949Y-82550000D02*
X44450000Y-82550000D01*
X119375000Y-75661878D02*
X119375000Y-74920000D01*
X90185000Y-36820000D02*
G75*
G03*
X94005000Y-40640000I3820000J0D01*
G01*
X121920000Y-88265000D02*
G75*
G02*
X118745000Y-91440000I-3175000J0D01*
G01*
X119375010Y-75661878D02*
G75*
G03*
X120650001Y-78739999I4353090J-22D01*
G01*
X121915010Y-52801878D02*
G75*
G03*
X123190001Y-55879999I4353090J-22D01*
G01*
X118750000Y-79375000D02*
G75*
G02*
X121915000Y-82540000I0J-3165000D01*
G01*
X121920011Y-67287929D02*
G75*
G02*
X121914999Y-67299999I-17111J29D01*
G01*
X124459985Y-74930000D02*
G75*
G03*
X123561973Y-72761975I-3066085J0D01*
G01*
X45828949Y-82550022D02*
G75*
G02*
X48894999Y-83820001I51J-4335978D01*
G01*
D21*
X39741975Y-64769989D02*
G75*
G03*
X41275000Y-64135000I25J2167989D01*
G01*
D22*
X120650000Y-40640000D02*
G75*
G02*
X124460000Y-44450000I0J-3810000D01*
G01*
X123189993Y-72390007D02*
G75*
G02*
X121915000Y-69311878I3078107J3078107D01*
G01*
X121919980Y-81806051D02*
G75*
G02*
X123190000Y-78740000I4336120J-49D01*
G01*
X123190015Y-78740015D02*
G75*
G03*
X124460000Y-75673949I-3066015J3066015D01*
G01*
X118745000Y-91440000D02*
G75*
G03*
X115570000Y-94615000I0J-3175000D01*
G01*
D21*
X46726975Y-63500011D02*
G75*
G02*
X48260000Y-64135000I25J-2167989D01*
G01*
D22*
X123190014Y-63500014D02*
G75*
G03*
X121920000Y-66566051I3066086J-3066086D01*
G01*
X57802349Y-41315000D02*
G75*
G03*
X60325000Y-38792349I1J2522650D01*
G01*
X120649994Y-78740006D02*
G75*
G02*
X121915000Y-81793980I-3053994J-3053994D01*
G01*
X55245014Y-83820014D02*
G75*
G02*
X58311051Y-82550000I3066086J-3066086D01*
G01*
X48894985Y-83820015D02*
G75*
G03*
X51961051Y-85090000I3066015J3066015D01*
G01*
X123189993Y-48259993D02*
G75*
G03*
X121915000Y-51338122I3078107J-3078107D01*
G01*
X33100000Y-44450000D02*
G75*
G02*
X36235000Y-41315000I3135000J0D01*
G01*
X116835000Y-82540000D02*
G75*
G02*
X119365000Y-80010000I2530000J0D01*
G01*
X125094993Y-59690000D02*
G75*
G03*
X123747961Y-56437961I-4599093J0D01*
G01*
X116835000Y-52700000D02*
G75*
G03*
X118745000Y-54610000I1910000J0D01*
G01*
X124459978Y-45193949D02*
G75*
G02*
X123189999Y-48259999I-4335978J-51D01*
G01*
D21*
X48259992Y-64135008D02*
G75*
G03*
X49793025Y-64770000I1533008J1533008D01*
G01*
D22*
X60325000Y-38792349D02*
G75*
G03*
X62172651Y-40640000I1847600J-51D01*
G01*
X100330000Y-82540000D02*
G75*
G02*
X103495000Y-79375000I3165000J0D01*
G01*
X123747966Y-62942043D02*
G75*
G03*
X125095000Y-59690000I-3252066J3252043D01*
G01*
X69850000Y-41990000D02*
G75*
G02*
X71200000Y-40640000I1350000J0D01*
G01*
X52178949Y-85089978D02*
G75*
G03*
X55244999Y-83819999I51J4335978D01*
G01*
X119385000Y-80010000D02*
G75*
G02*
X121915000Y-82540000I0J-2530000D01*
G01*
X109235000Y-87630000D02*
G75*
G02*
X115570000Y-93965000I0J-6335000D01*
G01*
X119380000Y-54610000D02*
G75*
G02*
X123716050Y-56406052I0J-6132100D01*
G01*
D21*
X41274992Y-64134992D02*
G75*
G02*
X42808025Y-63500000I1533008J-1533008D01*
G01*
X101414013Y-43629013D02*
X101600000Y-43815000D01*
X108476051Y-42545000D02*
X114940000Y-42545000D01*
X58420000Y-72390000D02*
X56778025Y-72390000D01*
X39741975Y-73660000D02*
X35823025Y-73660000D01*
X46726975Y-72390000D02*
X44450000Y-72390000D01*
X32756975Y-72390000D02*
X30480000Y-72390000D01*
X88900000Y-43180000D02*
X100330000Y-43180000D01*
X103133025Y-44450000D02*
X103876975Y-44450000D01*
X73660000Y-73660000D02*
X73768949Y-73660000D01*
X82550000Y-52705000D02*
X83185000Y-53340000D01*
X53711975Y-73660000D02*
X49793025Y-73660000D01*
X84718025Y-53975000D02*
X85725000Y-53975000D01*
X64506975Y-72390000D02*
X58420000Y-72390000D01*
X80645000Y-52070000D02*
X81016975Y-52070000D01*
X73660000Y-73660000D02*
X67573025Y-73660000D01*
X44450000Y-72390000D02*
X42808025Y-72390000D01*
X105410008Y-43815008D02*
G75*
G02*
X103876975Y-44450000I-1533008J1533008D01*
G01*
X46726975Y-72390011D02*
G75*
G02*
X48260000Y-73025000I25J-2167989D01*
G01*
X88900000Y-43180000D02*
G75*
G03*
X87630000Y-44450000I0J-1270000D01*
G01*
X41274992Y-73024992D02*
G75*
G02*
X42808025Y-72390000I1533008J-1533008D01*
G01*
X48259992Y-73025008D02*
G75*
G03*
X49793025Y-73660000I1533008J1533008D01*
G01*
X82550008Y-52704992D02*
G75*
G03*
X81016975Y-52070000I-1533008J-1533008D01*
G01*
X64506975Y-72390011D02*
G75*
G02*
X66040000Y-73025000I25J-2167989D01*
G01*
X108476051Y-42545022D02*
G75*
G03*
X105410001Y-43815001I-51J-4335978D01*
G01*
X103133025Y-44449989D02*
G75*
G02*
X101600000Y-43815000I-25J2167989D01*
G01*
X84718025Y-53974989D02*
G75*
G02*
X83185000Y-53340000I-25J2167989D01*
G01*
X87630000Y-52070000D02*
G75*
G02*
X85725000Y-53975000I-1905000J0D01*
G01*
X53711975Y-73659989D02*
G75*
G03*
X55245000Y-73025000I25J2167989D01*
G01*
X32756975Y-72390011D02*
G75*
G02*
X34290000Y-73025000I25J-2167989D01*
G01*
X101414008Y-43629018D02*
G75*
G03*
X100330000Y-43180000I-1084008J-1083982D01*
G01*
X66039992Y-73025008D02*
G75*
G03*
X67573025Y-73660000I1533008J1533008D01*
G01*
X34289992Y-73025008D02*
G75*
G03*
X35823025Y-73660000I1533008J1533008D01*
G01*
X55244992Y-73024992D02*
G75*
G02*
X56778025Y-72390000I1533008J-1533008D01*
G01*
X76834986Y-74930014D02*
G75*
G03*
X73768949Y-73660000I-3066086J-3066086D01*
G01*
X116835000Y-44440000D02*
G75*
G03*
X114940000Y-42545000I-1895000J0D01*
G01*
X39741975Y-73659989D02*
G75*
G03*
X41275000Y-73025000I25J2167989D01*
G01*
X58420000Y-69850000D02*
X64506975Y-69850000D01*
X67573025Y-71120000D02*
X85090000Y-71120000D01*
X44450000Y-69850000D02*
X42808025Y-69850000D01*
X58420000Y-69850000D02*
X56778025Y-69850000D01*
X53711975Y-71120000D02*
X49793025Y-71120000D01*
X32756975Y-69850000D02*
X30480000Y-69850000D01*
X107442000Y-72136000D02*
X88549815Y-72136000D01*
X39741975Y-71120000D02*
X35823025Y-71120000D01*
X46726975Y-69850000D02*
X44450000Y-69850000D01*
X85090000Y-71120000D02*
X86096975Y-71120000D01*
X32756975Y-69850011D02*
G75*
G02*
X34290000Y-70485000I25J-2167989D01*
G01*
X55244992Y-70484992D02*
G75*
G02*
X56778025Y-69850000I1533008J-1533008D01*
G01*
X67573025Y-71119989D02*
G75*
G02*
X66040000Y-70485000I-25J2167989D01*
G01*
X66040008Y-70484992D02*
G75*
G03*
X64506975Y-69850000I-1533008J-1533008D01*
G01*
X46726975Y-69850011D02*
G75*
G02*
X48260000Y-70485000I25J-2167989D01*
G01*
X39741975Y-71119989D02*
G75*
G03*
X41275000Y-70485000I25J2167989D01*
G01*
X48259992Y-70485008D02*
G75*
G03*
X49793025Y-71120000I1533008J1533008D01*
G01*
X87629995Y-71755005D02*
G75*
G03*
X88549815Y-72136000I919805J919805D01*
G01*
X41274992Y-70484992D02*
G75*
G02*
X42808025Y-69850000I1533008J-1533008D01*
G01*
X34289992Y-70485008D02*
G75*
G03*
X35823025Y-71120000I1533008J1533008D01*
G01*
X87630008Y-71754992D02*
G75*
G03*
X86096975Y-71120000I-1533008J-1533008D01*
G01*
X53711975Y-71119989D02*
G75*
G03*
X55245000Y-70485000I25J2167989D01*
G01*
X39741975Y-68580000D02*
X35823025Y-68580000D01*
X44450000Y-67310000D02*
X46726975Y-67310000D01*
X44450000Y-67310000D02*
X42808025Y-67310000D01*
X49793025Y-68580000D02*
X53711975Y-68580000D01*
X32756975Y-67310000D02*
X30480000Y-67310000D01*
X56778025Y-67310000D02*
X58420000Y-67310000D01*
X55245008Y-67945008D02*
G75*
G02*
X53711975Y-68580000I-1533008J1533008D01*
G01*
X48260008Y-67944992D02*
G75*
G03*
X46726975Y-67310000I-1533008J-1533008D01*
G01*
X49793025Y-68579989D02*
G75*
G02*
X48260000Y-67945000I-25J2167989D01*
G01*
X56778025Y-67310011D02*
G75*
G03*
X55245000Y-67945000I-25J-2167989D01*
G01*
X41274992Y-67944992D02*
G75*
G02*
X42808025Y-67310000I1533008J-1533008D01*
G01*
X39741975Y-68579989D02*
G75*
G03*
X41275000Y-67945000I25J2167989D01*
G01*
X34289992Y-67945008D02*
G75*
G03*
X35823025Y-68580000I1533008J1533008D01*
G01*
X32756975Y-67310011D02*
G75*
G02*
X34290000Y-67945000I25J-2167989D01*
G01*
X58420000Y-64770000D02*
X64506975Y-64770000D01*
X32756975Y-64770000D02*
X30480000Y-64770000D01*
X39741975Y-66040000D02*
X35823025Y-66040000D01*
X53711975Y-66040000D02*
X49793025Y-66040000D01*
X67573025Y-66040000D02*
X73660000Y-66040000D01*
X44450000Y-64770000D02*
X42808025Y-64770000D01*
X73660000Y-66040000D02*
X75565000Y-66040000D01*
X46726975Y-64770000D02*
X44450000Y-64770000D01*
X58420000Y-64770000D02*
X56778025Y-64770000D01*
X32756975Y-64770011D02*
G75*
G02*
X34290000Y-65405000I25J-2167989D01*
G01*
X67573025Y-66039989D02*
G75*
G02*
X66040000Y-65405000I-25J2167989D01*
G01*
X34289992Y-65405008D02*
G75*
G03*
X35823025Y-66040000I1533008J1533008D01*
G01*
X53711975Y-66039989D02*
G75*
G03*
X55245000Y-65405000I25J2167989D01*
G01*
X55244992Y-65404992D02*
G75*
G02*
X56778025Y-64770000I1533008J-1533008D01*
G01*
X41274992Y-65404992D02*
G75*
G02*
X42808025Y-64770000I1533008J-1533008D01*
G01*
X39741975Y-66039989D02*
G75*
G03*
X41275000Y-65405000I25J2167989D01*
G01*
X48259992Y-65405008D02*
G75*
G03*
X49793025Y-66040000I1533008J1533008D01*
G01*
X46726975Y-64770011D02*
G75*
G02*
X48260000Y-65405000I25J-2167989D01*
G01*
X66040008Y-65404992D02*
G75*
G03*
X64506975Y-64770000I-1533008J-1533008D01*
G01*
X46726975Y-62230000D02*
X44450000Y-62230000D01*
X44450000Y-62230000D02*
X42808025Y-62230000D01*
X58420000Y-62230000D02*
X56778025Y-62230000D01*
X39741975Y-63500000D02*
X35823025Y-63500000D01*
X53711975Y-63500000D02*
X49793025Y-63500000D01*
X32756975Y-62230000D02*
X30480000Y-62230000D01*
X46726975Y-62230011D02*
G75*
G02*
X48260000Y-62865000I25J-2167989D01*
G01*
X34289992Y-62865008D02*
G75*
G03*
X35823025Y-63500000I1533008J1533008D01*
G01*
X48259992Y-62865008D02*
G75*
G03*
X49793025Y-63500000I1533008J1533008D01*
G01*
X39741975Y-63499989D02*
G75*
G03*
X41275000Y-62865000I25J2167989D01*
G01*
X41274992Y-62864992D02*
G75*
G02*
X42808025Y-62230000I1533008J-1533008D01*
G01*
X53711975Y-63499989D02*
G75*
G03*
X55245000Y-62865000I25J2167989D01*
G01*
X32756975Y-62230011D02*
G75*
G02*
X34290000Y-62865000I25J-2167989D01*
G01*
X55244992Y-62864992D02*
G75*
G02*
X56778025Y-62230000I1533008J-1533008D01*
G01*
X44450000Y-59690000D02*
X42808025Y-59690000D01*
X32756975Y-59690000D02*
X30480000Y-59690000D01*
X39741975Y-60960000D02*
X35823025Y-60960000D01*
X46726975Y-59690000D02*
X44450000Y-59690000D01*
X58420000Y-59690000D02*
X56778025Y-59690000D01*
X53711975Y-60960000D02*
X49793025Y-60960000D01*
X41274992Y-60324992D02*
G75*
G02*
X42808025Y-59690000I1533008J-1533008D01*
G01*
X53711975Y-60959989D02*
G75*
G03*
X55245000Y-60325000I25J2167989D01*
G01*
X34289992Y-60325008D02*
G75*
G03*
X35823025Y-60960000I1533008J1533008D01*
G01*
X32756975Y-59690011D02*
G75*
G02*
X34290000Y-60325000I25J-2167989D01*
G01*
X55244992Y-60324992D02*
G75*
G02*
X56778025Y-59690000I1533008J-1533008D01*
G01*
X46726975Y-59690011D02*
G75*
G02*
X48260000Y-60325000I25J-2167989D01*
G01*
X39741975Y-60959989D02*
G75*
G03*
X41275000Y-60325000I25J2167989D01*
G01*
X48259992Y-60325008D02*
G75*
G03*
X49793025Y-60960000I1533008J1533008D01*
G01*
X39741975Y-58420000D02*
X35823025Y-58420000D01*
X58420000Y-57150000D02*
X56778025Y-57150000D01*
X44450000Y-57150000D02*
X42808025Y-57150000D01*
X46726975Y-57150000D02*
X44450000Y-57150000D01*
X53711975Y-58420000D02*
X49793025Y-58420000D01*
X32756975Y-57150000D02*
X30480000Y-57150000D01*
X53711975Y-58419989D02*
G75*
G03*
X55245000Y-57785000I25J2167989D01*
G01*
X32756975Y-57150011D02*
G75*
G02*
X34290000Y-57785000I25J-2167989D01*
G01*
X39741975Y-58419989D02*
G75*
G03*
X41275000Y-57785000I25J2167989D01*
G01*
X34289992Y-57785008D02*
G75*
G03*
X35823025Y-58420000I1533008J1533008D01*
G01*
X46726975Y-57150011D02*
G75*
G02*
X48260000Y-57785000I25J-2167989D01*
G01*
X55244992Y-57784992D02*
G75*
G02*
X56778025Y-57150000I1533008J-1533008D01*
G01*
X41274992Y-57784992D02*
G75*
G02*
X42808025Y-57150000I1533008J-1533008D01*
G01*
X48259992Y-57785008D02*
G75*
G03*
X49793025Y-58420000I1533008J1533008D01*
G01*
X58420000Y-54610000D02*
X56778025Y-54610000D01*
X44450000Y-54610000D02*
X42808025Y-54610000D01*
X53711975Y-55880000D02*
X49793025Y-55880000D01*
X46726975Y-54610000D02*
X44450000Y-54610000D01*
X39741975Y-55880000D02*
X35823025Y-55880000D01*
X32756975Y-54610000D02*
X30480000Y-54610000D01*
X53711975Y-55879989D02*
G75*
G03*
X55245000Y-55245000I25J2167989D01*
G01*
X55244992Y-55244992D02*
G75*
G02*
X56778025Y-54610000I1533008J-1533008D01*
G01*
X48259992Y-55245008D02*
G75*
G03*
X49793025Y-55880000I1533008J1533008D01*
G01*
X46726975Y-54610011D02*
G75*
G02*
X48260000Y-55245000I25J-2167989D01*
G01*
X32756975Y-54610011D02*
G75*
G02*
X34290000Y-55245000I25J-2167989D01*
G01*
X39741975Y-55879989D02*
G75*
G03*
X41275000Y-55245000I25J2167989D01*
G01*
X41274992Y-55244992D02*
G75*
G02*
X42808025Y-54610000I1533008J-1533008D01*
G01*
X34289992Y-55245008D02*
G75*
G03*
X35823025Y-55880000I1533008J1533008D01*
G01*
X64506975Y-55880000D02*
X56778025Y-55880000D01*
X53711975Y-57150000D02*
X52070000Y-57150000D01*
X73660000Y-57150000D02*
X67573025Y-57150000D01*
X52070000Y-57150000D02*
X49793025Y-57150000D01*
X39741975Y-57150000D02*
X38100000Y-57150000D01*
X46726975Y-55880000D02*
X42808025Y-55880000D01*
X53711975Y-57149989D02*
G75*
G03*
X55245000Y-56515000I25J2167989D01*
G01*
X55244992Y-56514992D02*
G75*
G02*
X56778025Y-55880000I1533008J-1533008D01*
G01*
X41274992Y-56514992D02*
G75*
G02*
X42808025Y-55880000I1533008J-1533008D01*
G01*
X64506975Y-55880011D02*
G75*
G02*
X66040000Y-56515000I25J-2167989D01*
G01*
X48259992Y-56515008D02*
G75*
G03*
X49793025Y-57150000I1533008J1533008D01*
G01*
X46726975Y-55880011D02*
G75*
G02*
X48260000Y-56515000I25J-2167989D01*
G01*
X39741975Y-57149989D02*
G75*
G03*
X41275000Y-56515000I25J2167989D01*
G01*
X66039992Y-56515008D02*
G75*
G03*
X67573025Y-57150000I1533008J1533008D01*
G01*
X39741975Y-59690000D02*
X38100000Y-59690000D01*
X52070000Y-59690000D02*
X53711975Y-59690000D01*
X67573025Y-59690000D02*
X73660000Y-59690000D01*
X52070000Y-59690000D02*
X49793025Y-59690000D01*
X56778025Y-58420000D02*
X64506975Y-58420000D01*
X46726975Y-58420000D02*
X42808025Y-58420000D01*
X55245008Y-59055008D02*
G75*
G02*
X53711975Y-59690000I-1533008J1533008D01*
G01*
X46726975Y-58420011D02*
G75*
G02*
X48260000Y-59055000I25J-2167989D01*
G01*
X67573025Y-59689989D02*
G75*
G02*
X66040000Y-59055000I-25J2167989D01*
G01*
X41274992Y-59054992D02*
G75*
G02*
X42808025Y-58420000I1533008J-1533008D01*
G01*
X66040008Y-59054992D02*
G75*
G03*
X64506975Y-58420000I-1533008J-1533008D01*
G01*
X39741975Y-59689989D02*
G75*
G03*
X41275000Y-59055000I25J2167989D01*
G01*
X48259992Y-59055008D02*
G75*
G03*
X49793025Y-59690000I1533008J1533008D01*
G01*
X56778025Y-58420011D02*
G75*
G03*
X55245000Y-59055000I-25J-2167989D01*
G01*
X73660000Y-67310000D02*
X67573025Y-67310000D01*
X52070000Y-67310000D02*
X49793025Y-67310000D01*
X64506975Y-66040000D02*
X56778025Y-66040000D01*
X39741975Y-67310000D02*
X38100000Y-67310000D01*
X53711975Y-67310000D02*
X52070000Y-67310000D01*
X46726975Y-66040000D02*
X42808025Y-66040000D01*
X66039992Y-66675008D02*
G75*
G03*
X67573025Y-67310000I1533008J1533008D01*
G01*
X55244992Y-66674992D02*
G75*
G02*
X56778025Y-66040000I1533008J-1533008D01*
G01*
X39741975Y-67309989D02*
G75*
G03*
X41275000Y-66675000I25J2167989D01*
G01*
X53711975Y-67309989D02*
G75*
G03*
X55245000Y-66675000I25J2167989D01*
G01*
X48259992Y-66675008D02*
G75*
G03*
X49793025Y-67310000I1533008J1533008D01*
G01*
X46726975Y-66040011D02*
G75*
G02*
X48260000Y-66675000I25J-2167989D01*
G01*
X64506975Y-66040011D02*
G75*
G02*
X66040000Y-66675000I25J-2167989D01*
G01*
X41274992Y-66674992D02*
G75*
G02*
X42808025Y-66040000I1533008J-1533008D01*
G01*
X62973949Y-60960000D02*
X56778025Y-60960000D01*
X39741975Y-62230000D02*
X38100000Y-62230000D01*
X53711975Y-62230000D02*
X52070000Y-62230000D01*
X46726975Y-60960000D02*
X42808025Y-60960000D01*
X80645000Y-63500000D02*
X69106051Y-63500000D01*
X52070000Y-62230000D02*
X49793025Y-62230000D01*
X62973949Y-60960022D02*
G75*
G02*
X66039999Y-62230001I51J-4335978D01*
G01*
X80645000Y-63500000D02*
G75*
G02*
X81280000Y-64135000I0J-635000D01*
G01*
X48259992Y-61595008D02*
G75*
G03*
X49793025Y-62230000I1533008J1533008D01*
G01*
X41274992Y-61594992D02*
G75*
G02*
X42808025Y-60960000I1533008J-1533008D01*
G01*
X39741975Y-62229989D02*
G75*
G03*
X41275000Y-61595000I25J2167989D01*
G01*
X66039985Y-62230015D02*
G75*
G03*
X69106051Y-63500000I3066015J3066015D01*
G01*
X46726975Y-60960011D02*
G75*
G02*
X48260000Y-61595000I25J-2167989D01*
G01*
X53711975Y-62229989D02*
G75*
G03*
X55245000Y-61595000I25J2167989D01*
G01*
X55244992Y-61594992D02*
G75*
G02*
X56778025Y-60960000I1533008J-1533008D01*
G01*
X53711975Y-50800000D02*
X51326051Y-50800000D01*
X32756975Y-52070000D02*
X30480000Y-52070000D01*
X86360000Y-48895000D02*
X58311051Y-48895000D01*
X45193949Y-48260000D02*
X44341051Y-48260000D01*
X38208949Y-50800000D02*
X35823025Y-50800000D01*
X38208949Y-50800020D02*
G75*
G03*
X41275000Y-49530000I-49J4336120D01*
G01*
X41274985Y-49529985D02*
G75*
G02*
X44341051Y-48260000I3066015J-3066015D01*
G01*
X45193949Y-48260022D02*
G75*
G02*
X48259999Y-49530001I51J-4335978D01*
G01*
X34289992Y-51434992D02*
G75*
G02*
X35823025Y-50800000I1533008J-1533008D01*
G01*
X55244985Y-50164985D02*
G75*
G02*
X58311051Y-48895000I3066015J-3066015D01*
G01*
X53711975Y-50799989D02*
G75*
G03*
X55245000Y-50165000I25J2167989D01*
G01*
X32756975Y-52069989D02*
G75*
G03*
X34290000Y-51435000I25J2167989D01*
G01*
X48259985Y-49530015D02*
G75*
G03*
X51326051Y-50800000I3066015J3066015D01*
G01*
X89525000Y-73025000D02*
X107320000Y-73025000D01*
X56778025Y-68580000D02*
X63500000Y-68580000D01*
X52070000Y-69850000D02*
X53711975Y-69850000D01*
X63500000Y-68580000D02*
X88900000Y-68580000D01*
X55245008Y-69215008D02*
G75*
G02*
X53711975Y-69850000I-1533008J1533008D01*
G01*
X56778025Y-68580011D02*
G75*
G03*
X55245000Y-69215000I-25J-2167989D01*
G01*
X109215000Y-74920000D02*
G75*
G03*
X107320000Y-73025000I-1895000J0D01*
G01*
X89525000Y-73025000D02*
G75*
G03*
X87630000Y-74920000I0J-1895000D01*
G01*
X101600000Y-33020000D02*
X81285000Y-33020000D01*
X77485000Y-36820000D02*
G75*
G02*
X81285000Y-33020000I3800000J0D01*
G01*
X101600000Y-33020000D02*
G75*
G03*
X104140000Y-30480000I0J2540000D01*
G01*
X101600000Y-30480000D02*
X100330000Y-30480000D01*
X97790000Y-27940000D02*
G75*
G03*
X100330000Y-30480000I2540000J0D01*
G01*
X111125000Y-33655000D02*
X88270000Y-33655000D01*
X85105000Y-36820000D02*
G75*
G02*
X88270000Y-33655000I3165000J0D01*
G01*
X111125000Y-33655000D02*
G75*
G03*
X114300000Y-30480000I0J3175000D01*
G01*
X111760000Y-30480000D02*
X110490000Y-30480000D01*
X107950000Y-27940000D02*
G75*
G03*
X110490000Y-30480000I2540000J0D01*
G01*
X100330000Y-99060000D02*
X100330000Y-91440000D01*
X109215000Y-82555000D02*
X109215000Y-82540000D01*
X111125000Y-85090000D02*
X111745000Y-85090000D01*
X106680000Y-85090000D02*
X111125000Y-85090000D01*
X109215000Y-82555000D02*
G75*
G02*
X106680000Y-85090000I-2535000J0D01*
G01*
X114295000Y-82540000D02*
G75*
G02*
X111745000Y-85090000I-2550000J0D01*
G01*
X106680000Y-85090000D02*
G75*
G03*
X100330000Y-91440000I0J-6350000D01*
G01*
X94537961Y-28017038D02*
X93980000Y-28575000D01*
X120650000Y-26670000D02*
X97790000Y-26670000D01*
X93980000Y-28575000D02*
X92338026Y-30216974D01*
X90170000Y-31115000D02*
X79400000Y-31115000D01*
X90170000Y-31115015D02*
G75*
G03*
X92338026Y-30216974I0J3066015D01*
G01*
X120650000Y-26670000D02*
G75*
G02*
X124460000Y-30480000I0J-3810000D01*
G01*
X94537957Y-28017034D02*
G75*
G02*
X97790000Y-26670000I3252043J-3252066D01*
G01*
X77485000Y-29200000D02*
G75*
G03*
X79400000Y-31115000I1915000J0D01*
G01*
X84455000Y-73025000D02*
X83820000Y-73025000D01*
X95250000Y-74920000D02*
X95250000Y-74930000D01*
X81280000Y-75565000D02*
X81280000Y-93980000D01*
X80010000Y-95250000D02*
X80010000Y-99060000D01*
X93345000Y-76835000D02*
X88265000Y-76835000D01*
X84455000Y-73025000D02*
G75*
G02*
X86360000Y-74930000I0J-1905000D01*
G01*
X81280000Y-75565000D02*
G75*
G02*
X83820000Y-73025000I2540000J0D01*
G01*
X93345000Y-76835000D02*
G75*
G03*
X95250000Y-74930000I0J1905000D01*
G01*
X80645000Y-94615000D02*
G75*
G03*
X81280000Y-93980000I0J635000D01*
G01*
X80010000Y-95250000D02*
G75*
G02*
X80645000Y-94615000I635000J0D01*
G01*
X86360000Y-74930000D02*
G75*
G03*
X88265000Y-76835000I1905000J0D01*
G01*
X80010000Y-75456051D02*
X80010000Y-92075000D01*
X77470000Y-94615000D02*
X77470000Y-99060000D01*
X80009978Y-75456051D02*
G75*
G03*
X78739999Y-72390001I-4335978J51D01*
G01*
X78740000Y-93345000D02*
G75*
G03*
X80010000Y-92075000I0J1270000D01*
G01*
X77470000Y-94615000D02*
G75*
G02*
X78740000Y-93345000I1270000J0D01*
G01*
X53711975Y-72390000D02*
X52070000Y-72390000D01*
X64506975Y-71120000D02*
X56778025Y-71120000D01*
X39741975Y-72390000D02*
X38100000Y-72390000D01*
X52070000Y-72390000D02*
X49793025Y-72390000D01*
X74930000Y-93980000D02*
X74930000Y-99060000D01*
X78740000Y-77470000D02*
X78740000Y-90170000D01*
X73660000Y-72390000D02*
X67573025Y-72390000D01*
X46726975Y-71120000D02*
X42808025Y-71120000D01*
X66039992Y-71755008D02*
G75*
G03*
X67573025Y-72390000I1533008J1533008D01*
G01*
X39741975Y-72389989D02*
G75*
G03*
X41275000Y-71755000I25J2167989D01*
G01*
X53711975Y-72389989D02*
G75*
G03*
X55245000Y-71755000I25J2167989D01*
G01*
X46726975Y-71120011D02*
G75*
G02*
X48260000Y-71755000I25J-2167989D01*
G01*
X41274992Y-71754992D02*
G75*
G02*
X42808025Y-71120000I1533008J-1533008D01*
G01*
X55244992Y-71754992D02*
G75*
G02*
X56778025Y-71120000I1533008J-1533008D01*
G01*
X64506975Y-71120011D02*
G75*
G02*
X66040000Y-71755000I25J-2167989D01*
G01*
X76835000Y-92075000D02*
G75*
G03*
X78740000Y-90170000I0J1905000D01*
G01*
X48259992Y-71755008D02*
G75*
G03*
X49793025Y-72390000I1533008J1533008D01*
G01*
X78740000Y-77470000D02*
G75*
G03*
X73660000Y-72390000I-5080000J0D01*
G01*
X74930000Y-93980000D02*
G75*
G02*
X76835000Y-92075000I1905000J0D01*
G01*
X72390000Y-93345000D02*
X72390000Y-99060000D01*
X56778025Y-73660000D02*
X64506975Y-73660000D01*
X52070000Y-74930000D02*
X49793025Y-74930000D01*
X52070000Y-74930000D02*
X53711975Y-74930000D01*
X46726975Y-73660000D02*
X42808025Y-73660000D01*
X77470000Y-78740000D02*
X77470000Y-88265000D01*
X67573025Y-74930000D02*
X73660000Y-74930000D01*
X39741975Y-74930000D02*
X38100000Y-74930000D01*
X39741975Y-74929989D02*
G75*
G03*
X41275000Y-74295000I25J2167989D01*
G01*
X74930000Y-90805000D02*
G75*
G03*
X77470000Y-88265000I0J2540000D01*
G01*
X46726975Y-73660011D02*
G75*
G02*
X48260000Y-74295000I25J-2167989D01*
G01*
X41274992Y-74294992D02*
G75*
G02*
X42808025Y-73660000I1533008J-1533008D01*
G01*
X77470000Y-78740000D02*
G75*
G03*
X73660000Y-74930000I-3810000J0D01*
G01*
X67573025Y-74929989D02*
G75*
G02*
X66040000Y-74295000I-25J2167989D01*
G01*
X48259992Y-74295008D02*
G75*
G03*
X49793025Y-74930000I1533008J1533008D01*
G01*
X72390000Y-93345000D02*
G75*
G02*
X74930000Y-90805000I2540000J0D01*
G01*
X56778025Y-73660011D02*
G75*
G03*
X55245000Y-74295000I-25J-2167989D01*
G01*
X66040008Y-74294992D02*
G75*
G03*
X64506975Y-73660000I-1533008J-1533008D01*
G01*
X55245008Y-74295008D02*
G75*
G02*
X53711975Y-74930000I-1533008J1533008D01*
G01*
X52070000Y-77470000D02*
X49793025Y-77470000D01*
X64506975Y-76200000D02*
X56778025Y-76200000D01*
X69850000Y-92710000D02*
X69850000Y-99060000D01*
X39741975Y-77470000D02*
X38100000Y-77470000D01*
X53711975Y-77470000D02*
X52070000Y-77470000D01*
X73660000Y-77470000D02*
X74295000Y-77470000D01*
X73660000Y-77470000D02*
X67573025Y-77470000D01*
X76200000Y-79375000D02*
X76200000Y-86360000D01*
X46726975Y-76200000D02*
X42808025Y-76200000D01*
X73025000Y-89535000D02*
G75*
G03*
X76200000Y-86360000I0J3175000D01*
G01*
X66039992Y-76835008D02*
G75*
G03*
X67573025Y-77470000I1533008J1533008D01*
G01*
X48259992Y-76835008D02*
G75*
G03*
X49793025Y-77470000I1533008J1533008D01*
G01*
X55244992Y-76834992D02*
G75*
G02*
X56778025Y-76200000I1533008J-1533008D01*
G01*
X53711975Y-77469989D02*
G75*
G03*
X55245000Y-76835000I25J2167989D01*
G01*
X46726975Y-76200011D02*
G75*
G02*
X48260000Y-76835000I25J-2167989D01*
G01*
X64506975Y-76200011D02*
G75*
G02*
X66040000Y-76835000I25J-2167989D01*
G01*
X76200000Y-79375000D02*
G75*
G03*
X74295000Y-77470000I-1905000J0D01*
G01*
X69850000Y-92710000D02*
G75*
G02*
X73025000Y-89535000I3175000J0D01*
G01*
X41274992Y-76834992D02*
G75*
G02*
X42808025Y-76200000I1533008J-1533008D01*
G01*
X39741975Y-77469989D02*
G75*
G03*
X41275000Y-76835000I25J2167989D01*
G01*
X52070000Y-80010000D02*
X53711975Y-80010000D01*
X56778025Y-78740000D02*
X64506975Y-78740000D01*
X42808025Y-78740000D02*
X46726975Y-78740000D01*
X38100000Y-80010000D02*
X39741975Y-80010000D01*
X74930000Y-81280000D02*
X74930000Y-84455000D01*
X67310000Y-92075000D02*
X67310000Y-99060000D01*
X67573025Y-80010000D02*
X73660000Y-80010000D01*
X49793025Y-80010000D02*
X52070000Y-80010000D01*
X66040008Y-79374992D02*
G75*
G03*
X64506975Y-78740000I-1533008J-1533008D01*
G01*
X67573025Y-80009989D02*
G75*
G02*
X66040000Y-79375000I-25J2167989D01*
G01*
X67310000Y-92075000D02*
G75*
G02*
X71120000Y-88265000I3810000J0D01*
G01*
X56778025Y-78740011D02*
G75*
G03*
X55245000Y-79375000I-25J-2167989D01*
G01*
X49793025Y-80009989D02*
G75*
G02*
X48260000Y-79375000I-25J2167989D01*
G01*
X55245008Y-79375008D02*
G75*
G02*
X53711975Y-80010000I-1533008J1533008D01*
G01*
X48260008Y-79374992D02*
G75*
G03*
X46726975Y-78740000I-1533008J-1533008D01*
G01*
X71120000Y-88265000D02*
G75*
G03*
X74930000Y-84455000I0J3810000D01*
G01*
X42808025Y-78740011D02*
G75*
G03*
X41275000Y-79375000I-25J-2167989D01*
G01*
X41275008Y-79375008D02*
G75*
G02*
X39741975Y-80010000I-1533008J1533008D01*
G01*
X74930000Y-81280000D02*
G75*
G03*
X73660000Y-80010000I-1270000J0D01*
G01*
X121920000Y-30480000D02*
X120523000Y-30480000D01*
X118110000Y-27940000D02*
X118110000Y-28067000D01*
X118110000Y-28067000D02*
G75*
G03*
X120523000Y-30480000I2413000J0D01*
G01*
X48817961Y-46277962D02*
X48260000Y-45720000D01*
X79220924Y-45085000D02*
X57676051Y-45085000D01*
X115570000Y-41910000D02*
X107841051Y-41910000D01*
X100701975Y-42545000D02*
X85353025Y-42545000D01*
X104775000Y-43180000D02*
X104589013Y-43365987D01*
X102420987Y-43365987D02*
X102235000Y-43180000D01*
X45193949Y-44450000D02*
X44450000Y-44450000D01*
X118110000Y-45720000D02*
X118110000Y-44450000D01*
X54610000Y-46355000D02*
X54238026Y-46726974D01*
X79220924Y-45085009D02*
G75*
G03*
X83820000Y-43180000I-24J6504109D01*
G01*
X115570000Y-41910000D02*
G75*
G02*
X118110000Y-44450000I0J-2540000D01*
G01*
X104775014Y-43180014D02*
G75*
G02*
X107841051Y-41910000I3066086J-3066086D01*
G01*
X83819992Y-43179992D02*
G75*
G02*
X85353025Y-42545000I1533008J-1533008D01*
G01*
X102420992Y-43365982D02*
G75*
G03*
X103505000Y-43815000I1084008J1083982D01*
G01*
X100701975Y-42545011D02*
G75*
G02*
X102235000Y-43180000I25J-2167989D01*
G01*
X103505000Y-43815007D02*
G75*
G03*
X104589013Y-43365987I0J1533007D01*
G01*
X52070000Y-47625015D02*
G75*
G03*
X54238026Y-46726974I0J3066015D01*
G01*
X48817957Y-46277966D02*
G75*
G03*
X52070000Y-47625000I3252043J3252066D01*
G01*
X54610014Y-46355014D02*
G75*
G02*
X57676051Y-45085000I3066086J-3066086D01*
G01*
X45193949Y-44450022D02*
G75*
G02*
X48259999Y-45720001I51J-4335978D01*
G01*
X84455000Y-50165000D02*
X91440000Y-50165000D01*
X39741975Y-52070000D02*
X38100000Y-52070000D01*
X84455000Y-50165000D02*
X57413025Y-50165000D01*
X53711975Y-52070000D02*
X52070000Y-52070000D01*
X111110000Y-50165000D02*
X117480000Y-50165000D01*
X55880000Y-50800000D02*
X55245000Y-51435000D01*
X46726975Y-50800000D02*
X42808025Y-50800000D01*
X52070000Y-52070000D02*
X49793025Y-52070000D01*
X91440000Y-50165000D02*
X99060000Y-50165000D01*
X99060000Y-50165000D02*
X107320000Y-50165000D01*
X39741975Y-52069989D02*
G75*
G03*
X41275000Y-51435000I25J2167989D01*
G01*
X48259992Y-51435008D02*
G75*
G03*
X49793025Y-52070000I1533008J1533008D01*
G01*
X53711975Y-52069989D02*
G75*
G03*
X55245000Y-51435000I25J2167989D01*
G01*
X111110000Y-50165000D02*
G75*
G03*
X109215000Y-52060000I0J-1895000D01*
G01*
X46726975Y-50800011D02*
G75*
G02*
X48260000Y-51435000I25J-2167989D01*
G01*
X119375000Y-52060000D02*
G75*
G03*
X117480000Y-50165000I-1895000J0D01*
G01*
X55879992Y-50799992D02*
G75*
G02*
X57413025Y-50165000I1533008J-1533008D01*
G01*
X109215000Y-52060000D02*
G75*
G03*
X107320000Y-50165000I-1895000J0D01*
G01*
X41274992Y-51434992D02*
G75*
G02*
X42808025Y-50800000I1533008J-1533008D01*
G01*
X107950000Y-55880000D02*
X90433025Y-55880000D01*
X111755000Y-52060000D02*
X111755000Y-52075000D01*
X88899992Y-55245008D02*
G75*
G03*
X90433025Y-55880000I1533008J1533008D01*
G01*
X107950000Y-55880000D02*
G75*
G03*
X111755000Y-52075000I0J3805000D01*
G01*
X111760000Y-43180000D02*
X113035000Y-43180000D01*
X86360000Y-46355000D02*
X108585000Y-46355000D01*
X114295000Y-44440000D02*
G75*
G03*
X113035000Y-43180000I-1260000J0D01*
G01*
X110490000Y-44450000D02*
G75*
G02*
X108585000Y-46355000I-1905000J0D01*
G01*
X111760000Y-43180000D02*
G75*
G03*
X110490000Y-44450000I0J-1270000D01*
G01*
X114305000Y-72390000D02*
X113293025Y-72390000D01*
X90170000Y-66040000D02*
X86355000Y-66040000D01*
X110226975Y-71120000D02*
X95250000Y-71120000D01*
X110226975Y-71120011D02*
G75*
G02*
X111760000Y-71755000I25J-2167989D01*
G01*
X91440000Y-67310000D02*
G75*
G03*
X95250000Y-71120000I3810000J0D01*
G01*
X111759992Y-71755008D02*
G75*
G03*
X113293025Y-72390000I1533008J1533008D01*
G01*
X85085000Y-67310000D02*
G75*
G02*
X86355000Y-66040000I1270000J0D01*
G01*
X90170000Y-66040000D02*
G75*
G02*
X91440000Y-67310000I0J-1270000D01*
G01*
X114305000Y-72390000D02*
G75*
G02*
X116835000Y-74920000I0J-2530000D01*
G01*
X46726975Y-81280000D02*
X42808025Y-81280000D01*
X39741975Y-82550000D02*
X38100000Y-82550000D01*
X52070000Y-82550000D02*
X49793025Y-82550000D01*
X73660000Y-83185000D02*
X73660000Y-82550000D01*
X73660000Y-82550000D02*
X67573025Y-82550000D01*
X53711975Y-82550000D02*
X52070000Y-82550000D01*
X64506975Y-81280000D02*
X56778025Y-81280000D01*
X64770000Y-99060000D02*
X64770000Y-91440000D01*
X69215000Y-86995000D02*
X69850000Y-86995000D01*
X69215000Y-86995000D02*
G75*
G03*
X64770000Y-91440000I0J-4445000D01*
G01*
X46726975Y-81280011D02*
G75*
G02*
X48260000Y-81915000I25J-2167989D01*
G01*
X55244992Y-81914992D02*
G75*
G02*
X56778025Y-81280000I1533008J-1533008D01*
G01*
X41274992Y-81914992D02*
G75*
G02*
X42808025Y-81280000I1533008J-1533008D01*
G01*
X53711975Y-82549989D02*
G75*
G03*
X55245000Y-81915000I25J2167989D01*
G01*
X48259992Y-81915008D02*
G75*
G03*
X49793025Y-82550000I1533008J1533008D01*
G01*
X39741975Y-82549989D02*
G75*
G03*
X41275000Y-81915000I25J2167989D01*
G01*
X64506975Y-81280011D02*
G75*
G02*
X66040000Y-81915000I25J-2167989D01*
G01*
X73660000Y-83185000D02*
G75*
G02*
X69850000Y-86995000I-3810000J0D01*
G01*
X66039992Y-81915008D02*
G75*
G03*
X67573025Y-82550000I1533008J1533008D01*
G01*
X58420000Y-80010000D02*
X56778025Y-80010000D01*
X39741975Y-81280000D02*
X35823025Y-81280000D01*
X46726975Y-80010000D02*
X44450000Y-80010000D01*
X62230000Y-99060000D02*
X62230000Y-92710000D01*
X32756975Y-80010000D02*
X30480000Y-80010000D01*
X44450000Y-80010000D02*
X42808025Y-80010000D01*
X53711975Y-81280000D02*
X49793025Y-81280000D01*
X46726975Y-80010011D02*
G75*
G02*
X48260000Y-80645000I25J-2167989D01*
G01*
X56515000Y-86995000D02*
G75*
G02*
X62230000Y-92710000I0J-5715000D01*
G01*
X32756975Y-80010011D02*
G75*
G02*
X34290000Y-80645000I25J-2167989D01*
G01*
X48259992Y-80645008D02*
G75*
G03*
X49793025Y-81280000I1533008J1533008D01*
G01*
X39741975Y-81279989D02*
G75*
G03*
X41275000Y-80645000I25J2167989D01*
G01*
X41274992Y-80644992D02*
G75*
G02*
X42808025Y-80010000I1533008J-1533008D01*
G01*
X55244992Y-80644992D02*
G75*
G02*
X56778025Y-80010000I1533008J-1533008D01*
G01*
X34289992Y-80645008D02*
G75*
G03*
X35823025Y-81280000I1533008J1533008D01*
G01*
X53711975Y-81279989D02*
G75*
G03*
X55245000Y-80645000I25J2167989D01*
G01*
X58420000Y-77470000D02*
X56778025Y-77470000D01*
X46726975Y-77470000D02*
X44450000Y-77470000D01*
X44450000Y-77470000D02*
X42808025Y-77470000D01*
X39741975Y-78740000D02*
X35823025Y-78740000D01*
X53711975Y-78740000D02*
X49793025Y-78740000D01*
X59690000Y-99060000D02*
X59690000Y-93980000D01*
X32756975Y-77470000D02*
X30480000Y-77470000D01*
X46726975Y-77470011D02*
G75*
G02*
X48260000Y-78105000I25J-2167989D01*
G01*
X32756975Y-77470011D02*
G75*
G02*
X34290000Y-78105000I25J-2167989D01*
G01*
X34289992Y-78105008D02*
G75*
G03*
X35823025Y-78740000I1533008J1533008D01*
G01*
X55244992Y-78104992D02*
G75*
G02*
X56778025Y-77470000I1533008J-1533008D01*
G01*
X48259992Y-78105008D02*
G75*
G03*
X49793025Y-78740000I1533008J1533008D01*
G01*
X55245000Y-89535000D02*
G75*
G02*
X59690000Y-93980000I0J-4445000D01*
G01*
X53711975Y-78739989D02*
G75*
G03*
X55245000Y-78105000I25J2167989D01*
G01*
X39741975Y-78739989D02*
G75*
G03*
X41275000Y-78105000I25J2167989D01*
G01*
X41274992Y-78104992D02*
G75*
G02*
X42808025Y-77470000I1533008J-1533008D01*
G01*
X58420000Y-74930000D02*
X56778025Y-74930000D01*
X46726975Y-74930000D02*
X44450000Y-74930000D01*
X53711975Y-76200000D02*
X49793025Y-76200000D01*
X44450000Y-74930000D02*
X42808025Y-74930000D01*
X39741975Y-76200000D02*
X35823025Y-76200000D01*
X32756975Y-74930000D02*
X30480000Y-74930000D01*
X57150000Y-99060000D02*
X57150000Y-95250000D01*
X53975000Y-92075000D02*
G75*
G02*
X57150000Y-95250000I0J-3175000D01*
G01*
X34289992Y-75565008D02*
G75*
G03*
X35823025Y-76200000I1533008J1533008D01*
G01*
X53711975Y-76199989D02*
G75*
G03*
X55245000Y-75565000I25J2167989D01*
G01*
X32756975Y-74930011D02*
G75*
G02*
X34290000Y-75565000I25J-2167989D01*
G01*
X55244992Y-75564992D02*
G75*
G02*
X56778025Y-74930000I1533008J-1533008D01*
G01*
X39741975Y-76199989D02*
G75*
G03*
X41275000Y-75565000I25J2167989D01*
G01*
X41274992Y-75564992D02*
G75*
G02*
X42808025Y-74930000I1533008J-1533008D01*
G01*
X46726975Y-74930011D02*
G75*
G02*
X48260000Y-75565000I25J-2167989D01*
G01*
X48259992Y-75565008D02*
G75*
G03*
X49793025Y-76200000I1533008J1533008D01*
G01*
X106411000Y-70104000D02*
X103632000Y-70104000D01*
X103632000Y-70104000D02*
X99060000Y-70104000D01*
X99070000Y-73660000D02*
X91430000Y-73660000D01*
X90170000Y-74920000D02*
G75*
G02*
X91430000Y-73660000I1260000J0D01*
G01*
X106411000Y-70104000D02*
G75*
G03*
X109215000Y-67300000I0J2804000D01*
G01*
X99070000Y-73660000D02*
G75*
G02*
X100330000Y-74920000I0J-1260000D01*
G01*
X97150000Y-69215000D02*
X106680000Y-69215000D01*
X107950000Y-67945000D02*
X107950000Y-65033025D01*
X81016975Y-43180000D02*
X78740000Y-43180000D01*
X102870000Y-41910000D02*
X84083025Y-41910000D01*
X78740000Y-43180000D02*
X76200000Y-43180000D01*
X109215000Y-61979046D02*
X109215000Y-59680000D01*
X107950000Y-67945000D02*
G75*
G02*
X106680000Y-69215000I-1270000J0D01*
G01*
X102870000Y-41910000D02*
G75*
G02*
X103505000Y-42545000I0J-635000D01*
G01*
X97150000Y-69215000D02*
G75*
G02*
X95245000Y-67310000I0J1905000D01*
G01*
X109215048Y-61979046D02*
G75*
G02*
X108585000Y-63500000I-2150948J46D01*
G01*
X108584992Y-63499992D02*
G75*
G03*
X107950000Y-65033025I1533008J-1533008D01*
G01*
X81016975Y-43179989D02*
G75*
G03*
X82550000Y-42545000I25J2167989D01*
G01*
X82549992Y-42544992D02*
G75*
G02*
X84083025Y-41910000I1533008J-1533008D01*
G01*
X111755000Y-67300000D02*
X114295000Y-67300000D01*
X87645000Y-36820000D02*
X87645000Y-36815000D01*
X96520000Y-39370000D02*
X120650000Y-39370000D01*
X95250000Y-39370000D02*
X96520000Y-39370000D01*
X90170000Y-34290000D02*
G75*
G03*
X87645000Y-36815000I0J-2525000D01*
G01*
X92710000Y-36830000D02*
G75*
G03*
X90170000Y-34290000I-2540000J0D01*
G01*
X95250000Y-39370000D02*
G75*
G02*
X92710000Y-36830000I0J2540000D01*
G01*
X57140000Y-36820000D02*
X53985000Y-36820000D01*
X57160000Y-36820000D02*
X57140000Y-36820000D01*
X67935000Y-36820000D02*
X63490000Y-36820000D01*
X57140000Y-36820000D02*
X49540000Y-36820000D01*
X67935000Y-36820000D02*
X67320000Y-36820000D01*
X57160000Y-36820000D02*
X53985000Y-36820000D01*
X63490000Y-36820000D02*
X57160000Y-36820000D01*
X49540000Y-36820000D02*
X47635000Y-36820000D01*
X67320000Y-36820000D02*
X63352651Y-36820000D01*
X72405000Y-36820000D02*
X67935000Y-36820000D01*
X51435000Y-39370000D02*
G75*
G02*
X53985000Y-36820000I2550000J0D01*
G01*
X60325000Y-33792349D02*
G75*
G03*
X63352651Y-36820000I3027600J-51D01*
G01*
X45085000Y-39370000D02*
G75*
G02*
X47635000Y-36820000I2550000J0D01*
G01*
X53711975Y-54610000D02*
X52070000Y-54610000D01*
X80536051Y-54501051D02*
X80645000Y-54610000D01*
X85244076Y-56515000D02*
X120650000Y-56515000D01*
X119375000Y-64140000D02*
X119375000Y-67300000D01*
X76200000Y-52705000D02*
X58311051Y-52705000D01*
X39741975Y-54610000D02*
X38100000Y-54610000D01*
X46726975Y-53340000D02*
X42808025Y-53340000D01*
X52070000Y-54610000D02*
X49793025Y-54610000D01*
X120650000Y-62865000D02*
G75*
G03*
X123825000Y-59690000I0J3175000D01*
G01*
X123825000Y-59690000D02*
G75*
G03*
X120650000Y-56515000I-3175000J0D01*
G01*
X46726975Y-53340011D02*
G75*
G02*
X48260000Y-53975000I25J-2167989D01*
G01*
X48259992Y-53975008D02*
G75*
G03*
X49793025Y-54610000I1533008J1533008D01*
G01*
X39741975Y-54609989D02*
G75*
G03*
X41275000Y-53975000I25J2167989D01*
G01*
X119375000Y-64140000D02*
G75*
G02*
X120650000Y-62865000I1275000J0D01*
G01*
X41274992Y-53974992D02*
G75*
G02*
X42808025Y-53340000I1533008J-1533008D01*
G01*
X55244985Y-53974985D02*
G75*
G02*
X58311051Y-52705000I3066015J-3066015D01*
G01*
X53711975Y-54609989D02*
G75*
G03*
X55245000Y-53975000I25J2167989D01*
G01*
X85244076Y-56515009D02*
G75*
G02*
X80645000Y-54610000I24J6504109D01*
G01*
X80536050Y-54501052D02*
G75*
G03*
X76200000Y-52705000I-4336050J-4336048D01*
G01*
X44450000Y-52070000D02*
X46726975Y-52070000D01*
X58311051Y-51435000D02*
X58420000Y-51435000D01*
X58420000Y-51435000D02*
X74930000Y-51435000D01*
X52070000Y-53340000D02*
X53711975Y-53340000D01*
X49793025Y-53340000D02*
X52070000Y-53340000D01*
X55245008Y-52705008D02*
G75*
G02*
X53711975Y-53340000I-1533008J1533008D01*
G01*
X58311051Y-51435022D02*
G75*
G03*
X55245001Y-52705001I-51J-4335978D01*
G01*
X49793025Y-53339989D02*
G75*
G02*
X48260000Y-52705000I-25J2167989D01*
G01*
X48260008Y-52704992D02*
G75*
G03*
X46726975Y-52070000I-1533008J-1533008D01*
G01*
X92710000Y-44450000D02*
X95250000Y-44450000D01*
X119365000Y-46990000D02*
X114305000Y-46990000D01*
X111755000Y-44440000D02*
G75*
G03*
X114305000Y-46990000I2550000J0D01*
G01*
X119365000Y-46990000D02*
G75*
G03*
X121915000Y-44440000I0J2550000D01*
G01*
X105395000Y-68580000D02*
X100330000Y-68580000D01*
X99060000Y-67310000D02*
X99060000Y-66675000D01*
X92705000Y-60320000D02*
X92705000Y-59690000D01*
X95885000Y-63500000D02*
G75*
G02*
X99060000Y-66675000I0J-3175000D01*
G01*
X105395000Y-68580000D02*
G75*
G03*
X106675000Y-67300000I0J1280000D01*
G01*
X92705000Y-60320000D02*
G75*
G03*
X95885000Y-63500000I3180000J0D01*
G01*
X99060000Y-67310000D02*
G75*
G03*
X100330000Y-68580000I1270000J0D01*
G01*
X85090000Y-65405000D02*
X95880000Y-65405000D01*
X97785000Y-67310000D02*
G75*
G03*
X95880000Y-65405000I-1905000J0D01*
G01*
X101595000Y-58420000D02*
X111760000Y-58420000D01*
X116835000Y-65400000D02*
X116835000Y-67300000D01*
X113030000Y-59690000D02*
X113030000Y-61595000D01*
X114935000Y-63500000D02*
G75*
G02*
X113030000Y-61595000I0J1905000D01*
G01*
X101595000Y-58420000D02*
G75*
G03*
X100325000Y-59690000I0J-1270000D01*
G01*
X116835000Y-65400000D02*
G75*
G03*
X114935000Y-63500000I-1900000J0D01*
G01*
X113030000Y-59690000D02*
G75*
G03*
X111760000Y-58420000I-1270000J0D01*
G01*
X99690000Y-57785000D02*
X112400000Y-57785000D01*
X99690000Y-57785000D02*
G75*
G03*
X97785000Y-59690000I0J-1905000D01*
G01*
X114295000Y-59680000D02*
G75*
G03*
X112400000Y-57785000I-1895000J0D01*
G01*
X97785000Y-57150000D02*
X119385000Y-57150000D01*
X97785000Y-57150000D02*
G75*
G03*
X95245000Y-59690000I0J-2540000D01*
G01*
X121915000Y-59680000D02*
G75*
G03*
X119385000Y-57150000I-2530000J0D01*
G01*
X90170000Y-68580000D02*
X90170000Y-67315000D01*
X73660000Y-69850000D02*
X88900000Y-69850000D01*
X90165000Y-67310000D02*
G75*
G02*
X90170000Y-67315000I0J-5000D01*
G01*
X90170000Y-68580000D02*
G75*
G02*
X88900000Y-69850000I-1270000J0D01*
G01*
M02*
