G04 #@! TF.GenerationSoftware,KiCad,Pcbnew,(6.0.8-1)-1*
G04 #@! TF.CreationDate,2022-10-07T19:58:22-07:00*
G04 #@! TF.ProjectId,LanguageCard,4c616e67-7561-4676-9543-6172642e6b69,rev?*
G04 #@! TF.SameCoordinates,Original*
G04 #@! TF.FileFunction,Soldermask,Bot*
G04 #@! TF.FilePolarity,Negative*
%FSLAX46Y46*%
G04 Gerber Fmt 4.6, Leading zero omitted, Abs format (unit mm)*
G04 Created by KiCad (PCBNEW (6.0.8-1)-1) date 2022-10-07 19:58:22*
%MOMM*%
%LPD*%
G01*
G04 APERTURE LIST*
G04 Aperture macros list*
%AMRoundRect*
0 Rectangle with rounded corners*
0 $1 Rounding radius*
0 $2 $3 $4 $5 $6 $7 $8 $9 X,Y pos of 4 corners*
0 Add a 4 corners polygon primitive as box body*
4,1,4,$2,$3,$4,$5,$6,$7,$8,$9,$2,$3,0*
0 Add four circle primitives for the rounded corners*
1,1,$1+$1,$2,$3*
1,1,$1+$1,$4,$5*
1,1,$1+$1,$6,$7*
1,1,$1+$1,$8,$9*
0 Add four rect primitives between the rounded corners*
20,1,$1+$1,$2,$3,$4,$5,0*
20,1,$1+$1,$4,$5,$6,$7,0*
20,1,$1+$1,$6,$7,$8,$9,0*
20,1,$1+$1,$8,$9,$2,$3,0*%
G04 Aperture macros list end*
G04 #@! TA.AperFunction,Profile*
%ADD10C,0.100000*%
G04 #@! TD*
%ADD11C,0.150000*%
%ADD12R,1.600000X1.600000*%
%ADD13O,1.600000X1.600000*%
%ADD14C,1.600000*%
%ADD15R,1.700000X1.700000*%
%ADD16O,1.700000X1.700000*%
%ADD17R,1.800000X1.800000*%
%ADD18O,1.800000X1.800000*%
%ADD19C,1.800000*%
%ADD20RoundRect,0.317500X-0.317500X-3.365500X0.317500X-3.365500X0.317500X3.365500X-0.317500X3.365500X0*%
G04 APERTURE END LIST*
D10*
X27305000Y-93980000D02*
G75*
G03*
X28575000Y-95250000I1270000J0D01*
G01*
X126047500Y-25400000D02*
X52705000Y-25400000D01*
X52387500Y-102235000D02*
X53022500Y-102870000D01*
X119062500Y-95250000D02*
X126047500Y-95250000D01*
X27305000Y-93980000D02*
X27305000Y-50800000D01*
X52387500Y-96520000D02*
G75*
G03*
X51117500Y-95250000I-1270000J0D01*
G01*
X127317500Y-93980000D02*
X127317500Y-26670000D01*
X52387500Y-96520000D02*
X52387500Y-102235000D01*
X28575000Y-95250000D02*
X51117500Y-95250000D01*
X126047500Y-95250000D02*
G75*
G03*
X127317500Y-93980000I0J1270000D01*
G01*
X127317500Y-26670000D02*
G75*
G03*
X126047500Y-25400000I-1270000J0D01*
G01*
X117157500Y-102870000D02*
X53022500Y-102870000D01*
X117792500Y-96520000D02*
X117792500Y-102235000D01*
X119062500Y-95250000D02*
G75*
G03*
X117792500Y-96520000I0J-1270000D01*
G01*
X117792500Y-102235000D02*
X117157500Y-102870000D01*
X52705000Y-25400000D02*
G75*
G03*
X27305000Y-50800000I0J-25400000D01*
G01*
G36*
X117475000Y-102997000D02*
G01*
X52705000Y-102997000D01*
X52705000Y-95377000D01*
X117475000Y-95377000D01*
X117475000Y-102997000D01*
G37*
D11*
X117475000Y-102997000D02*
X52705000Y-102997000D01*
X52705000Y-95377000D01*
X117475000Y-95377000D01*
X117475000Y-102997000D01*
D12*
X44450000Y-49530000D03*
D13*
X44450000Y-52070000D03*
X44450000Y-54610000D03*
X44450000Y-57150000D03*
X44450000Y-59690000D03*
X44450000Y-62230000D03*
X44450000Y-64770000D03*
X44450000Y-67310000D03*
X44450000Y-69850000D03*
X44450000Y-72390000D03*
X44450000Y-74930000D03*
X44450000Y-77470000D03*
X44450000Y-80010000D03*
X44450000Y-82550000D03*
X52070000Y-82550000D03*
X52070000Y-80010000D03*
X52070000Y-77470000D03*
X52070000Y-74930000D03*
X52070000Y-72390000D03*
X52070000Y-69850000D03*
X52070000Y-67310000D03*
X52070000Y-64770000D03*
X52070000Y-62230000D03*
X52070000Y-59690000D03*
X52070000Y-57150000D03*
X52070000Y-54610000D03*
X52070000Y-52070000D03*
X52070000Y-49530000D03*
D14*
X107950000Y-27940000D03*
D13*
X107950000Y-38100000D03*
D15*
X104155000Y-87630000D03*
D16*
X106695000Y-87630000D03*
X109235000Y-87630000D03*
D14*
X118110000Y-27940000D03*
D13*
X118110000Y-38100000D03*
D14*
X114935000Y-71120000D03*
D13*
X125095000Y-71120000D03*
D12*
X85085000Y-67310000D03*
D13*
X87625000Y-67310000D03*
X90165000Y-67310000D03*
X92705000Y-67310000D03*
X95245000Y-67310000D03*
X97785000Y-67310000D03*
X100325000Y-67310000D03*
X100325000Y-59690000D03*
X97785000Y-59690000D03*
X95245000Y-59690000D03*
X92705000Y-59690000D03*
X90165000Y-59690000D03*
X87625000Y-59690000D03*
X85085000Y-59690000D03*
D12*
X85090000Y-52070000D03*
D13*
X87630000Y-52070000D03*
X90170000Y-52070000D03*
X92710000Y-52070000D03*
X95250000Y-52070000D03*
X97790000Y-52070000D03*
X100330000Y-52070000D03*
X100330000Y-44450000D03*
X97790000Y-44450000D03*
X95250000Y-44450000D03*
X92710000Y-44450000D03*
X90170000Y-44450000D03*
X87630000Y-44450000D03*
X85090000Y-44450000D03*
D14*
X97790000Y-27940000D03*
D13*
X97790000Y-38100000D03*
D17*
X51435000Y-31750000D03*
D18*
X51435000Y-39370000D03*
D12*
X106675000Y-52060000D03*
D13*
X109215000Y-52060000D03*
X111755000Y-52060000D03*
X114295000Y-52060000D03*
X116835000Y-52060000D03*
X119375000Y-52060000D03*
X121915000Y-52060000D03*
X121915000Y-44440000D03*
X119375000Y-44440000D03*
X116835000Y-44440000D03*
X114295000Y-44440000D03*
X111755000Y-44440000D03*
X109215000Y-44440000D03*
X106675000Y-44440000D03*
D14*
X44450000Y-44450000D03*
D13*
X54610000Y-44450000D03*
D12*
X60325000Y-33792349D03*
D14*
X60325000Y-38792349D03*
D17*
X124460000Y-30480000D03*
D19*
X121920000Y-30480000D03*
D14*
X69850000Y-46990000D03*
X69850000Y-41990000D03*
X46950000Y-86995000D03*
X41950000Y-86995000D03*
D12*
X106675000Y-82540000D03*
D13*
X109215000Y-82540000D03*
X111755000Y-82540000D03*
X114295000Y-82540000D03*
X116835000Y-82540000D03*
X119375000Y-82540000D03*
X121915000Y-82540000D03*
X121915000Y-74920000D03*
X119375000Y-74920000D03*
X116835000Y-74920000D03*
X114295000Y-74920000D03*
X111755000Y-74920000D03*
X109215000Y-74920000D03*
X106675000Y-74920000D03*
D12*
X30480000Y-49530000D03*
D13*
X30480000Y-52070000D03*
X30480000Y-54610000D03*
X30480000Y-57150000D03*
X30480000Y-59690000D03*
X30480000Y-62230000D03*
X30480000Y-64770000D03*
X30480000Y-67310000D03*
X30480000Y-69850000D03*
X30480000Y-72390000D03*
X30480000Y-74930000D03*
X30480000Y-77470000D03*
X30480000Y-80010000D03*
X30480000Y-82550000D03*
X38100000Y-82550000D03*
X38100000Y-80010000D03*
X38100000Y-77470000D03*
X38100000Y-74930000D03*
X38100000Y-72390000D03*
X38100000Y-69850000D03*
X38100000Y-67310000D03*
X38100000Y-64770000D03*
X38100000Y-62230000D03*
X38100000Y-59690000D03*
X38100000Y-57150000D03*
X38100000Y-54610000D03*
X38100000Y-52070000D03*
X38100000Y-49530000D03*
D14*
X67945000Y-34250000D03*
X67945000Y-29250000D03*
X106045000Y-54610000D03*
X101045000Y-54610000D03*
X45085000Y-29210000D03*
D13*
X45085000Y-39370000D03*
D12*
X106675000Y-67300000D03*
D13*
X109215000Y-67300000D03*
X111755000Y-67300000D03*
X114295000Y-67300000D03*
X116835000Y-67300000D03*
X119375000Y-67300000D03*
X121915000Y-67300000D03*
X121915000Y-59680000D03*
X119375000Y-59680000D03*
X116835000Y-59680000D03*
X114295000Y-59680000D03*
X111755000Y-59680000D03*
X109215000Y-59680000D03*
X106675000Y-59680000D03*
D17*
X114300000Y-30480000D03*
D19*
X111760000Y-30480000D03*
D14*
X103505000Y-81280000D03*
X103505000Y-76280000D03*
D12*
X72405000Y-36820000D03*
D13*
X74945000Y-36820000D03*
X77485000Y-36820000D03*
X80025000Y-36820000D03*
X82565000Y-36820000D03*
X85105000Y-36820000D03*
X87645000Y-36820000D03*
X90185000Y-36820000D03*
X90185000Y-29200000D03*
X87645000Y-29200000D03*
X85105000Y-29200000D03*
X82565000Y-29200000D03*
X80025000Y-29200000D03*
X77485000Y-29200000D03*
X74945000Y-29200000D03*
X72405000Y-29200000D03*
D12*
X58420000Y-54610000D03*
D13*
X58420000Y-57150000D03*
X58420000Y-59690000D03*
X58420000Y-62230000D03*
X58420000Y-64770000D03*
X58420000Y-67310000D03*
X58420000Y-69850000D03*
X58420000Y-72390000D03*
X58420000Y-74930000D03*
X58420000Y-77470000D03*
X58420000Y-80010000D03*
X58420000Y-82550000D03*
X73660000Y-82550000D03*
X73660000Y-80010000D03*
X73660000Y-77470000D03*
X73660000Y-74930000D03*
X73660000Y-72390000D03*
X73660000Y-69850000D03*
X73660000Y-67310000D03*
X73660000Y-64770000D03*
X73660000Y-62230000D03*
X73660000Y-59690000D03*
X73660000Y-57150000D03*
X73660000Y-54610000D03*
D14*
X33100000Y-44450000D03*
X38100000Y-44450000D03*
D20*
X115570000Y-99060000D03*
X113030000Y-99060000D03*
X110490000Y-99060000D03*
X107950000Y-99060000D03*
X105410000Y-99060000D03*
X102870000Y-99060000D03*
X100330000Y-99060000D03*
X97790000Y-99060000D03*
X95250000Y-99060000D03*
X92710000Y-99060000D03*
X90170000Y-99060000D03*
X87630000Y-99060000D03*
X85090000Y-99060000D03*
X82550000Y-99060000D03*
X80010000Y-99060000D03*
X77470000Y-99060000D03*
X74930000Y-99060000D03*
X72390000Y-99060000D03*
X69850000Y-99060000D03*
X67310000Y-99060000D03*
X64770000Y-99060000D03*
X62230000Y-99060000D03*
X59690000Y-99060000D03*
X57150000Y-99060000D03*
X54610000Y-99060000D03*
D17*
X104140000Y-30480000D03*
D19*
X101600000Y-30480000D03*
D12*
X85090000Y-82540000D03*
D13*
X87630000Y-82540000D03*
X90170000Y-82540000D03*
X92710000Y-82540000D03*
X95250000Y-82540000D03*
X97790000Y-82540000D03*
X100330000Y-82540000D03*
X100330000Y-74920000D03*
X97790000Y-74920000D03*
X95250000Y-74920000D03*
X92710000Y-74920000D03*
X90170000Y-74920000D03*
X87630000Y-74920000D03*
X85090000Y-74920000D03*
M02*
