G04 #@! TF.GenerationSoftware,KiCad,Pcbnew,(6.0.8-1)-1*
G04 #@! TF.CreationDate,2022-10-07T21:13:29-07:00*
G04 #@! TF.ProjectId,LanguageCard,4c616e67-7561-4676-9543-6172642e6b69,rev?*
G04 #@! TF.SameCoordinates,Original*
G04 #@! TF.FileFunction,Legend,Top*
G04 #@! TF.FilePolarity,Positive*
%FSLAX46Y46*%
G04 Gerber Fmt 4.6, Leading zero omitted, Abs format (unit mm)*
G04 Created by KiCad (PCBNEW (6.0.8-1)-1) date 2022-10-07 21:13:29*
%MOMM*%
%LPD*%
G01*
G04 APERTURE LIST*
G04 #@! TA.AperFunction,Profile*
%ADD10C,0.100000*%
G04 #@! TD*
%ADD11C,0.150000*%
%ADD12C,0.300000*%
%ADD13C,0.200000*%
%ADD14C,0.120000*%
%ADD15C,0.568000*%
G04 APERTURE END LIST*
D10*
X78105000Y-93980000D02*
G75*
G03*
X79375000Y-95250000I1270000J0D01*
G01*
X176847500Y-25400000D02*
X103505000Y-25400000D01*
X103187500Y-102235000D02*
X103822500Y-102870000D01*
X169862500Y-95250000D02*
X176847500Y-95250000D01*
X78105000Y-93980000D02*
X78105000Y-50800000D01*
X103187500Y-96520000D02*
G75*
G03*
X101917500Y-95250000I-1270000J0D01*
G01*
X178117500Y-93980000D02*
X178117500Y-26670000D01*
X103187500Y-96520000D02*
X103187500Y-102235000D01*
X79375000Y-95250000D02*
X101917500Y-95250000D01*
X176847500Y-95250000D02*
G75*
G03*
X178117500Y-93980000I0J1270000D01*
G01*
X178117500Y-26670000D02*
G75*
G03*
X176847500Y-25400000I-1270000J0D01*
G01*
X167957500Y-102870000D02*
X103822500Y-102870000D01*
X168592500Y-96520000D02*
X168592500Y-102235000D01*
X169862500Y-95250000D02*
G75*
G03*
X168592500Y-96520000I0J-1270000D01*
G01*
X168592500Y-102235000D02*
X167957500Y-102870000D01*
X103505000Y-25400000D02*
G75*
G03*
X78105000Y-50800000I0J-25400000D01*
G01*
D11*
X81409166Y-91860714D02*
X81409166Y-92670238D01*
X81361547Y-92765476D01*
X81313928Y-92813095D01*
X81218690Y-92860714D01*
X81075833Y-92860714D01*
X80980595Y-92813095D01*
X81409166Y-92479761D02*
X81313928Y-92527380D01*
X81123452Y-92527380D01*
X81028214Y-92479761D01*
X80980595Y-92432142D01*
X80932976Y-92336904D01*
X80932976Y-92051190D01*
X80980595Y-91955952D01*
X81028214Y-91908333D01*
X81123452Y-91860714D01*
X81313928Y-91860714D01*
X81409166Y-91908333D01*
X81885357Y-92527380D02*
X81885357Y-91860714D01*
X81885357Y-91527380D02*
X81837738Y-91575000D01*
X81885357Y-91622619D01*
X81932976Y-91575000D01*
X81885357Y-91527380D01*
X81885357Y-91622619D01*
X82218690Y-91860714D02*
X82599642Y-91860714D01*
X82361547Y-91527380D02*
X82361547Y-92384523D01*
X82409166Y-92479761D01*
X82504404Y-92527380D01*
X82599642Y-92527380D01*
X82932976Y-92527380D02*
X82932976Y-91527380D01*
X83361547Y-92527380D02*
X83361547Y-92003571D01*
X83313928Y-91908333D01*
X83218690Y-91860714D01*
X83075833Y-91860714D01*
X82980595Y-91908333D01*
X82932976Y-91955952D01*
X84266309Y-91860714D02*
X84266309Y-92527380D01*
X83837738Y-91860714D02*
X83837738Y-92384523D01*
X83885357Y-92479761D01*
X83980595Y-92527380D01*
X84123452Y-92527380D01*
X84218690Y-92479761D01*
X84266309Y-92432142D01*
X84742500Y-92527380D02*
X84742500Y-91527380D01*
X84742500Y-91908333D02*
X84837738Y-91860714D01*
X85028214Y-91860714D01*
X85123452Y-91908333D01*
X85171071Y-91955952D01*
X85218690Y-92051190D01*
X85218690Y-92336904D01*
X85171071Y-92432142D01*
X85123452Y-92479761D01*
X85028214Y-92527380D01*
X84837738Y-92527380D01*
X84742500Y-92479761D01*
X85647261Y-92432142D02*
X85694880Y-92479761D01*
X85647261Y-92527380D01*
X85599642Y-92479761D01*
X85647261Y-92432142D01*
X85647261Y-92527380D01*
X86552023Y-92479761D02*
X86456785Y-92527380D01*
X86266309Y-92527380D01*
X86171071Y-92479761D01*
X86123452Y-92432142D01*
X86075833Y-92336904D01*
X86075833Y-92051190D01*
X86123452Y-91955952D01*
X86171071Y-91908333D01*
X86266309Y-91860714D01*
X86456785Y-91860714D01*
X86552023Y-91908333D01*
X87123452Y-92527380D02*
X87028214Y-92479761D01*
X86980595Y-92432142D01*
X86932976Y-92336904D01*
X86932976Y-92051190D01*
X86980595Y-91955952D01*
X87028214Y-91908333D01*
X87123452Y-91860714D01*
X87266309Y-91860714D01*
X87361547Y-91908333D01*
X87409166Y-91955952D01*
X87456785Y-92051190D01*
X87456785Y-92336904D01*
X87409166Y-92432142D01*
X87361547Y-92479761D01*
X87266309Y-92527380D01*
X87123452Y-92527380D01*
X87885357Y-92527380D02*
X87885357Y-91860714D01*
X87885357Y-91955952D02*
X87932976Y-91908333D01*
X88028214Y-91860714D01*
X88171071Y-91860714D01*
X88266309Y-91908333D01*
X88313928Y-92003571D01*
X88313928Y-92527380D01*
X88313928Y-92003571D02*
X88361547Y-91908333D01*
X88456785Y-91860714D01*
X88599642Y-91860714D01*
X88694880Y-91908333D01*
X88742500Y-92003571D01*
X88742500Y-92527380D01*
X89932976Y-91479761D02*
X89075833Y-92765476D01*
X90266309Y-92527380D02*
X90266309Y-91527380D01*
X90266309Y-91908333D02*
X90361547Y-91860714D01*
X90552023Y-91860714D01*
X90647261Y-91908333D01*
X90694880Y-91955952D01*
X90742500Y-92051190D01*
X90742500Y-92336904D01*
X90694880Y-92432142D01*
X90647261Y-92479761D01*
X90552023Y-92527380D01*
X90361547Y-92527380D01*
X90266309Y-92479761D01*
X91028214Y-91860714D02*
X91409166Y-91860714D01*
X91171071Y-91527380D02*
X91171071Y-92384523D01*
X91218690Y-92479761D01*
X91313928Y-92527380D01*
X91409166Y-92527380D01*
X91742500Y-92527380D02*
X91742500Y-91527380D01*
X91742500Y-91908333D02*
X91837738Y-91860714D01*
X92028214Y-91860714D01*
X92123452Y-91908333D01*
X92171071Y-91955952D01*
X92218690Y-92051190D01*
X92218690Y-92336904D01*
X92171071Y-92432142D01*
X92123452Y-92479761D01*
X92028214Y-92527380D01*
X91837738Y-92527380D01*
X91742500Y-92479761D01*
X93361547Y-91479761D02*
X92504404Y-92765476D01*
X94171071Y-92527380D02*
X93694880Y-92527380D01*
X93694880Y-91527380D01*
X94932976Y-92527380D02*
X94932976Y-92003571D01*
X94885357Y-91908333D01*
X94790119Y-91860714D01*
X94599642Y-91860714D01*
X94504404Y-91908333D01*
X94932976Y-92479761D02*
X94837738Y-92527380D01*
X94599642Y-92527380D01*
X94504404Y-92479761D01*
X94456785Y-92384523D01*
X94456785Y-92289285D01*
X94504404Y-92194047D01*
X94599642Y-92146428D01*
X94837738Y-92146428D01*
X94932976Y-92098809D01*
X95409166Y-91860714D02*
X95409166Y-92527380D01*
X95409166Y-91955952D02*
X95456785Y-91908333D01*
X95552023Y-91860714D01*
X95694880Y-91860714D01*
X95790119Y-91908333D01*
X95837738Y-92003571D01*
X95837738Y-92527380D01*
X96742500Y-91860714D02*
X96742500Y-92670238D01*
X96694880Y-92765476D01*
X96647261Y-92813095D01*
X96552023Y-92860714D01*
X96409166Y-92860714D01*
X96313928Y-92813095D01*
X96742500Y-92479761D02*
X96647261Y-92527380D01*
X96456785Y-92527380D01*
X96361547Y-92479761D01*
X96313928Y-92432142D01*
X96266309Y-92336904D01*
X96266309Y-92051190D01*
X96313928Y-91955952D01*
X96361547Y-91908333D01*
X96456785Y-91860714D01*
X96647261Y-91860714D01*
X96742500Y-91908333D01*
X97647261Y-91860714D02*
X97647261Y-92527380D01*
X97218690Y-91860714D02*
X97218690Y-92384523D01*
X97266309Y-92479761D01*
X97361547Y-92527380D01*
X97504404Y-92527380D01*
X97599642Y-92479761D01*
X97647261Y-92432142D01*
X98552023Y-92527380D02*
X98552023Y-92003571D01*
X98504404Y-91908333D01*
X98409166Y-91860714D01*
X98218690Y-91860714D01*
X98123452Y-91908333D01*
X98552023Y-92479761D02*
X98456785Y-92527380D01*
X98218690Y-92527380D01*
X98123452Y-92479761D01*
X98075833Y-92384523D01*
X98075833Y-92289285D01*
X98123452Y-92194047D01*
X98218690Y-92146428D01*
X98456785Y-92146428D01*
X98552023Y-92098809D01*
X99456785Y-91860714D02*
X99456785Y-92670238D01*
X99409166Y-92765476D01*
X99361547Y-92813095D01*
X99266309Y-92860714D01*
X99123452Y-92860714D01*
X99028214Y-92813095D01*
X99456785Y-92479761D02*
X99361547Y-92527380D01*
X99171071Y-92527380D01*
X99075833Y-92479761D01*
X99028214Y-92432142D01*
X98980595Y-92336904D01*
X98980595Y-92051190D01*
X99028214Y-91955952D01*
X99075833Y-91908333D01*
X99171071Y-91860714D01*
X99361547Y-91860714D01*
X99456785Y-91908333D01*
X100313928Y-92479761D02*
X100218690Y-92527380D01*
X100028214Y-92527380D01*
X99932976Y-92479761D01*
X99885357Y-92384523D01*
X99885357Y-92003571D01*
X99932976Y-91908333D01*
X100028214Y-91860714D01*
X100218690Y-91860714D01*
X100313928Y-91908333D01*
X100361547Y-92003571D01*
X100361547Y-92098809D01*
X99885357Y-92194047D01*
X101361547Y-92432142D02*
X101313928Y-92479761D01*
X101171071Y-92527380D01*
X101075833Y-92527380D01*
X100932976Y-92479761D01*
X100837738Y-92384523D01*
X100790119Y-92289285D01*
X100742500Y-92098809D01*
X100742500Y-91955952D01*
X100790119Y-91765476D01*
X100837738Y-91670238D01*
X100932976Y-91575000D01*
X101075833Y-91527380D01*
X101171071Y-91527380D01*
X101313928Y-91575000D01*
X101361547Y-91622619D01*
X102218690Y-92527380D02*
X102218690Y-92003571D01*
X102171071Y-91908333D01*
X102075833Y-91860714D01*
X101885357Y-91860714D01*
X101790119Y-91908333D01*
X102218690Y-92479761D02*
X102123452Y-92527380D01*
X101885357Y-92527380D01*
X101790119Y-92479761D01*
X101742500Y-92384523D01*
X101742500Y-92289285D01*
X101790119Y-92194047D01*
X101885357Y-92146428D01*
X102123452Y-92146428D01*
X102218690Y-92098809D01*
X102694880Y-92527380D02*
X102694880Y-91860714D01*
X102694880Y-92051190D02*
X102742500Y-91955952D01*
X102790119Y-91908333D01*
X102885357Y-91860714D01*
X102980595Y-91860714D01*
X103742500Y-92527380D02*
X103742500Y-91527380D01*
X103742500Y-92479761D02*
X103647261Y-92527380D01*
X103456785Y-92527380D01*
X103361547Y-92479761D01*
X103313928Y-92432142D01*
X103266309Y-92336904D01*
X103266309Y-92051190D01*
X103313928Y-91955952D01*
X103361547Y-91908333D01*
X103456785Y-91860714D01*
X103647261Y-91860714D01*
X103742500Y-91908333D01*
D12*
X110127142Y-90049047D02*
X108675714Y-90049047D01*
X109401428Y-90049047D02*
X109401428Y-87509047D01*
X109159523Y-87871904D01*
X108917619Y-88113809D01*
X108675714Y-88234761D01*
X112304285Y-87509047D02*
X111820476Y-87509047D01*
X111578571Y-87630000D01*
X111457619Y-87750952D01*
X111215714Y-88113809D01*
X111094761Y-88597619D01*
X111094761Y-89565238D01*
X111215714Y-89807142D01*
X111336666Y-89928095D01*
X111578571Y-90049047D01*
X112062380Y-90049047D01*
X112304285Y-89928095D01*
X112425238Y-89807142D01*
X112546190Y-89565238D01*
X112546190Y-88960476D01*
X112425238Y-88718571D01*
X112304285Y-88597619D01*
X112062380Y-88476666D01*
X111578571Y-88476666D01*
X111336666Y-88597619D01*
X111215714Y-88718571D01*
X111094761Y-88960476D01*
X113634761Y-90049047D02*
X113634761Y-87509047D01*
X115086190Y-90049047D02*
X113997619Y-88597619D01*
X115086190Y-87509047D02*
X113634761Y-88960476D01*
X119319523Y-90049047D02*
X118110000Y-90049047D01*
X118110000Y-87509047D01*
X120045238Y-89323333D02*
X121254761Y-89323333D01*
X119803333Y-90049047D02*
X120650000Y-87509047D01*
X121496666Y-90049047D01*
X122343333Y-90049047D02*
X122343333Y-87509047D01*
X123794761Y-90049047D01*
X123794761Y-87509047D01*
X126334761Y-87630000D02*
X126092857Y-87509047D01*
X125730000Y-87509047D01*
X125367142Y-87630000D01*
X125125238Y-87871904D01*
X125004285Y-88113809D01*
X124883333Y-88597619D01*
X124883333Y-88960476D01*
X125004285Y-89444285D01*
X125125238Y-89686190D01*
X125367142Y-89928095D01*
X125730000Y-90049047D01*
X125971904Y-90049047D01*
X126334761Y-89928095D01*
X126455714Y-89807142D01*
X126455714Y-88960476D01*
X125971904Y-88960476D01*
X127544285Y-87509047D02*
X127544285Y-89565238D01*
X127665238Y-89807142D01*
X127786190Y-89928095D01*
X128028095Y-90049047D01*
X128511904Y-90049047D01*
X128753809Y-89928095D01*
X128874761Y-89807142D01*
X128995714Y-89565238D01*
X128995714Y-87509047D01*
X130084285Y-89323333D02*
X131293809Y-89323333D01*
X129842380Y-90049047D02*
X130689047Y-87509047D01*
X131535714Y-90049047D01*
X133712857Y-87630000D02*
X133470952Y-87509047D01*
X133108095Y-87509047D01*
X132745238Y-87630000D01*
X132503333Y-87871904D01*
X132382380Y-88113809D01*
X132261428Y-88597619D01*
X132261428Y-88960476D01*
X132382380Y-89444285D01*
X132503333Y-89686190D01*
X132745238Y-89928095D01*
X133108095Y-90049047D01*
X133350000Y-90049047D01*
X133712857Y-89928095D01*
X133833809Y-89807142D01*
X133833809Y-88960476D01*
X133350000Y-88960476D01*
X134922380Y-88718571D02*
X135769047Y-88718571D01*
X136131904Y-90049047D02*
X134922380Y-90049047D01*
X134922380Y-87509047D01*
X136131904Y-87509047D01*
X140607142Y-89807142D02*
X140486190Y-89928095D01*
X140123333Y-90049047D01*
X139881428Y-90049047D01*
X139518571Y-89928095D01*
X139276666Y-89686190D01*
X139155714Y-89444285D01*
X139034761Y-88960476D01*
X139034761Y-88597619D01*
X139155714Y-88113809D01*
X139276666Y-87871904D01*
X139518571Y-87630000D01*
X139881428Y-87509047D01*
X140123333Y-87509047D01*
X140486190Y-87630000D01*
X140607142Y-87750952D01*
X141574761Y-89323333D02*
X142784285Y-89323333D01*
X141332857Y-90049047D02*
X142179523Y-87509047D01*
X143026190Y-90049047D01*
X145324285Y-90049047D02*
X144477619Y-88839523D01*
X143872857Y-90049047D02*
X143872857Y-87509047D01*
X144840476Y-87509047D01*
X145082380Y-87630000D01*
X145203333Y-87750952D01*
X145324285Y-87992857D01*
X145324285Y-88355714D01*
X145203333Y-88597619D01*
X145082380Y-88718571D01*
X144840476Y-88839523D01*
X143872857Y-88839523D01*
X146412857Y-90049047D02*
X146412857Y-87509047D01*
X147017619Y-87509047D01*
X147380476Y-87630000D01*
X147622380Y-87871904D01*
X147743333Y-88113809D01*
X147864285Y-88597619D01*
X147864285Y-88960476D01*
X147743333Y-89444285D01*
X147622380Y-89686190D01*
X147380476Y-89928095D01*
X147017619Y-90049047D01*
X146412857Y-90049047D01*
D11*
X164552857Y-91892380D02*
X164219523Y-91416190D01*
X163981428Y-91892380D02*
X163981428Y-90892380D01*
X164362380Y-90892380D01*
X164457619Y-90940000D01*
X164505238Y-90987619D01*
X164552857Y-91082857D01*
X164552857Y-91225714D01*
X164505238Y-91320952D01*
X164457619Y-91368571D01*
X164362380Y-91416190D01*
X163981428Y-91416190D01*
X165171904Y-90892380D02*
X165362380Y-90892380D01*
X165457619Y-90940000D01*
X165552857Y-91035238D01*
X165600476Y-91225714D01*
X165600476Y-91559047D01*
X165552857Y-91749523D01*
X165457619Y-91844761D01*
X165362380Y-91892380D01*
X165171904Y-91892380D01*
X165076666Y-91844761D01*
X164981428Y-91749523D01*
X164933809Y-91559047D01*
X164933809Y-91225714D01*
X164981428Y-91035238D01*
X165076666Y-90940000D01*
X165171904Y-90892380D01*
X166029047Y-91892380D02*
X166029047Y-90892380D01*
X166362380Y-91606666D01*
X166695714Y-90892380D01*
X166695714Y-91892380D01*
X167933809Y-91892380D02*
X167933809Y-90892380D01*
X168171904Y-90892380D01*
X168314761Y-90940000D01*
X168410000Y-91035238D01*
X168457619Y-91130476D01*
X168505238Y-91320952D01*
X168505238Y-91463809D01*
X168457619Y-91654285D01*
X168410000Y-91749523D01*
X168314761Y-91844761D01*
X168171904Y-91892380D01*
X167933809Y-91892380D01*
X168933809Y-91892380D02*
X168933809Y-91225714D01*
X168933809Y-90892380D02*
X168886190Y-90940000D01*
X168933809Y-90987619D01*
X168981428Y-90940000D01*
X168933809Y-90892380D01*
X168933809Y-90987619D01*
X169362380Y-91844761D02*
X169457619Y-91892380D01*
X169648095Y-91892380D01*
X169743333Y-91844761D01*
X169790952Y-91749523D01*
X169790952Y-91701904D01*
X169743333Y-91606666D01*
X169648095Y-91559047D01*
X169505238Y-91559047D01*
X169410000Y-91511428D01*
X169362380Y-91416190D01*
X169362380Y-91368571D01*
X169410000Y-91273333D01*
X169505238Y-91225714D01*
X169648095Y-91225714D01*
X169743333Y-91273333D01*
X170648095Y-91892380D02*
X170648095Y-91368571D01*
X170600476Y-91273333D01*
X170505238Y-91225714D01*
X170314761Y-91225714D01*
X170219523Y-91273333D01*
X170648095Y-91844761D02*
X170552857Y-91892380D01*
X170314761Y-91892380D01*
X170219523Y-91844761D01*
X170171904Y-91749523D01*
X170171904Y-91654285D01*
X170219523Y-91559047D01*
X170314761Y-91511428D01*
X170552857Y-91511428D01*
X170648095Y-91463809D01*
X171124285Y-91892380D02*
X171124285Y-90892380D01*
X171124285Y-91273333D02*
X171219523Y-91225714D01*
X171410000Y-91225714D01*
X171505238Y-91273333D01*
X171552857Y-91320952D01*
X171600476Y-91416190D01*
X171600476Y-91701904D01*
X171552857Y-91797142D01*
X171505238Y-91844761D01*
X171410000Y-91892380D01*
X171219523Y-91892380D01*
X171124285Y-91844761D01*
X172171904Y-91892380D02*
X172076666Y-91844761D01*
X172029047Y-91749523D01*
X172029047Y-90892380D01*
X172933809Y-91844761D02*
X172838571Y-91892380D01*
X172648095Y-91892380D01*
X172552857Y-91844761D01*
X172505238Y-91749523D01*
X172505238Y-91368571D01*
X172552857Y-91273333D01*
X172648095Y-91225714D01*
X172838571Y-91225714D01*
X172933809Y-91273333D01*
X172981428Y-91368571D01*
X172981428Y-91463809D01*
X172505238Y-91559047D01*
X173838571Y-91892380D02*
X173838571Y-90892380D01*
X173838571Y-91844761D02*
X173743333Y-91892380D01*
X173552857Y-91892380D01*
X173457619Y-91844761D01*
X173410000Y-91797142D01*
X173362380Y-91701904D01*
X173362380Y-91416190D01*
X173410000Y-91320952D01*
X173457619Y-91273333D01*
X173552857Y-91225714D01*
X173743333Y-91225714D01*
X173838571Y-91273333D01*
X164790952Y-85542380D02*
X164457619Y-85066190D01*
X164219523Y-85542380D02*
X164219523Y-84542380D01*
X164600476Y-84542380D01*
X164695714Y-84590000D01*
X164743333Y-84637619D01*
X164790952Y-84732857D01*
X164790952Y-84875714D01*
X164743333Y-84970952D01*
X164695714Y-85018571D01*
X164600476Y-85066190D01*
X164219523Y-85066190D01*
X165410000Y-84542380D02*
X165600476Y-84542380D01*
X165695714Y-84590000D01*
X165790952Y-84685238D01*
X165838571Y-84875714D01*
X165838571Y-85209047D01*
X165790952Y-85399523D01*
X165695714Y-85494761D01*
X165600476Y-85542380D01*
X165410000Y-85542380D01*
X165314761Y-85494761D01*
X165219523Y-85399523D01*
X165171904Y-85209047D01*
X165171904Y-84875714D01*
X165219523Y-84685238D01*
X165314761Y-84590000D01*
X165410000Y-84542380D01*
X166267142Y-85542380D02*
X166267142Y-84542380D01*
X166600476Y-85256666D01*
X166933809Y-84542380D01*
X166933809Y-85542380D01*
X168171904Y-85018571D02*
X168505238Y-85018571D01*
X168648095Y-85542380D02*
X168171904Y-85542380D01*
X168171904Y-84542380D01*
X168648095Y-84542380D01*
X169076666Y-84875714D02*
X169076666Y-85542380D01*
X169076666Y-84970952D02*
X169124285Y-84923333D01*
X169219523Y-84875714D01*
X169362380Y-84875714D01*
X169457619Y-84923333D01*
X169505238Y-85018571D01*
X169505238Y-85542380D01*
X170410000Y-85542380D02*
X170410000Y-85018571D01*
X170362380Y-84923333D01*
X170267142Y-84875714D01*
X170076666Y-84875714D01*
X169981428Y-84923333D01*
X170410000Y-85494761D02*
X170314761Y-85542380D01*
X170076666Y-85542380D01*
X169981428Y-85494761D01*
X169933809Y-85399523D01*
X169933809Y-85304285D01*
X169981428Y-85209047D01*
X170076666Y-85161428D01*
X170314761Y-85161428D01*
X170410000Y-85113809D01*
X170886190Y-85542380D02*
X170886190Y-84542380D01*
X170886190Y-84923333D02*
X170981428Y-84875714D01*
X171171904Y-84875714D01*
X171267142Y-84923333D01*
X171314761Y-84970952D01*
X171362380Y-85066190D01*
X171362380Y-85351904D01*
X171314761Y-85447142D01*
X171267142Y-85494761D01*
X171171904Y-85542380D01*
X170981428Y-85542380D01*
X170886190Y-85494761D01*
X171933809Y-85542380D02*
X171838571Y-85494761D01*
X171790952Y-85399523D01*
X171790952Y-84542380D01*
X172695714Y-85494761D02*
X172600476Y-85542380D01*
X172410000Y-85542380D01*
X172314761Y-85494761D01*
X172267142Y-85399523D01*
X172267142Y-85018571D01*
X172314761Y-84923333D01*
X172410000Y-84875714D01*
X172600476Y-84875714D01*
X172695714Y-84923333D01*
X172743333Y-85018571D01*
X172743333Y-85113809D01*
X172267142Y-85209047D01*
X173600476Y-85542380D02*
X173600476Y-84542380D01*
X173600476Y-85494761D02*
X173505238Y-85542380D01*
X173314761Y-85542380D01*
X173219523Y-85494761D01*
X173171904Y-85447142D01*
X173124285Y-85351904D01*
X173124285Y-85066190D01*
X173171904Y-84970952D01*
X173219523Y-84923333D01*
X173314761Y-84875714D01*
X173505238Y-84875714D01*
X173600476Y-84923333D01*
X98298095Y-46652380D02*
X98298095Y-47461904D01*
X98345714Y-47557142D01*
X98393333Y-47604761D01*
X98488571Y-47652380D01*
X98679047Y-47652380D01*
X98774285Y-47604761D01*
X98821904Y-47557142D01*
X98869523Y-47461904D01*
X98869523Y-46652380D01*
X99488571Y-47080952D02*
X99393333Y-47033333D01*
X99345714Y-46985714D01*
X99298095Y-46890476D01*
X99298095Y-46842857D01*
X99345714Y-46747619D01*
X99393333Y-46700000D01*
X99488571Y-46652380D01*
X99679047Y-46652380D01*
X99774285Y-46700000D01*
X99821904Y-46747619D01*
X99869523Y-46842857D01*
X99869523Y-46890476D01*
X99821904Y-46985714D01*
X99774285Y-47033333D01*
X99679047Y-47080952D01*
X99488571Y-47080952D01*
X99393333Y-47128571D01*
X99345714Y-47176190D01*
X99298095Y-47271428D01*
X99298095Y-47461904D01*
X99345714Y-47557142D01*
X99393333Y-47604761D01*
X99488571Y-47652380D01*
X99679047Y-47652380D01*
X99774285Y-47604761D01*
X99821904Y-47557142D01*
X99869523Y-47461904D01*
X99869523Y-47271428D01*
X99821904Y-47176190D01*
X99774285Y-47128571D01*
X99679047Y-47080952D01*
D13*
X98238571Y-67262142D02*
X98238571Y-67547857D01*
X98310000Y-67690714D01*
X98381428Y-67762142D01*
X98595714Y-67905000D01*
X98881428Y-67976428D01*
X99452857Y-67976428D01*
X99595714Y-67905000D01*
X99667142Y-67833571D01*
X99738571Y-67690714D01*
X99738571Y-67405000D01*
X99667142Y-67262142D01*
X99595714Y-67190714D01*
X99452857Y-67119285D01*
X99095714Y-67119285D01*
X98952857Y-67190714D01*
X98881428Y-67262142D01*
X98810000Y-67405000D01*
X98810000Y-67690714D01*
X98881428Y-67833571D01*
X98952857Y-67905000D01*
X99095714Y-67976428D01*
X98381428Y-66547857D02*
X98310000Y-66476428D01*
X98238571Y-66333571D01*
X98238571Y-65976428D01*
X98310000Y-65833571D01*
X98381428Y-65762142D01*
X98524285Y-65690714D01*
X98667142Y-65690714D01*
X98881428Y-65762142D01*
X99738571Y-66619285D01*
X99738571Y-65690714D01*
X98238571Y-64405000D02*
X98238571Y-64690714D01*
X98310000Y-64833571D01*
X98381428Y-64905000D01*
X98595714Y-65047857D01*
X98881428Y-65119285D01*
X99452857Y-65119285D01*
X99595714Y-65047857D01*
X99667142Y-64976428D01*
X99738571Y-64833571D01*
X99738571Y-64547857D01*
X99667142Y-64405000D01*
X99595714Y-64333571D01*
X99452857Y-64262142D01*
X99095714Y-64262142D01*
X98952857Y-64333571D01*
X98881428Y-64405000D01*
X98810000Y-64547857D01*
X98810000Y-64833571D01*
X98881428Y-64976428D01*
X98952857Y-65047857D01*
X99095714Y-65119285D01*
X98738571Y-62976428D02*
X99738571Y-62976428D01*
X98167142Y-63333571D02*
X99238571Y-63690714D01*
X99238571Y-62762142D01*
D11*
X161742380Y-36996666D02*
X161266190Y-37330000D01*
X161742380Y-37568095D02*
X160742380Y-37568095D01*
X160742380Y-37187142D01*
X160790000Y-37091904D01*
X160837619Y-37044285D01*
X160932857Y-36996666D01*
X161075714Y-36996666D01*
X161170952Y-37044285D01*
X161218571Y-37091904D01*
X161266190Y-37187142D01*
X161266190Y-37568095D01*
X161075714Y-36139523D02*
X161742380Y-36139523D01*
X160694761Y-36377619D02*
X161409047Y-36615714D01*
X161409047Y-35996666D01*
X158202380Y-33734285D02*
X158202380Y-34210476D01*
X158678571Y-34258095D01*
X158630952Y-34210476D01*
X158583333Y-34115238D01*
X158583333Y-33877142D01*
X158630952Y-33781904D01*
X158678571Y-33734285D01*
X158773809Y-33686666D01*
X159011904Y-33686666D01*
X159107142Y-33734285D01*
X159154761Y-33781904D01*
X159202380Y-33877142D01*
X159202380Y-34115238D01*
X159154761Y-34210476D01*
X159107142Y-34258095D01*
X158202380Y-32829523D02*
X158202380Y-33020000D01*
X158250000Y-33115238D01*
X158297619Y-33162857D01*
X158440476Y-33258095D01*
X158630952Y-33305714D01*
X159011904Y-33305714D01*
X159107142Y-33258095D01*
X159154761Y-33210476D01*
X159202380Y-33115238D01*
X159202380Y-32924761D01*
X159154761Y-32829523D01*
X159107142Y-32781904D01*
X159011904Y-32734285D01*
X158773809Y-32734285D01*
X158678571Y-32781904D01*
X158630952Y-32829523D01*
X158583333Y-32924761D01*
X158583333Y-33115238D01*
X158630952Y-33210476D01*
X158678571Y-33258095D01*
X158773809Y-33305714D01*
X158202380Y-32115238D02*
X158202380Y-32020000D01*
X158250000Y-31924761D01*
X158297619Y-31877142D01*
X158392857Y-31829523D01*
X158583333Y-31781904D01*
X158821428Y-31781904D01*
X159011904Y-31829523D01*
X159107142Y-31877142D01*
X159154761Y-31924761D01*
X159202380Y-32020000D01*
X159202380Y-32115238D01*
X159154761Y-32210476D01*
X159107142Y-32258095D01*
X159011904Y-32305714D01*
X158821428Y-32353333D01*
X158583333Y-32353333D01*
X158392857Y-32305714D01*
X158297619Y-32258095D01*
X158250000Y-32210476D01*
X158202380Y-32115238D01*
X152077380Y-88463333D02*
X152791666Y-88463333D01*
X152934523Y-88510952D01*
X153029761Y-88606190D01*
X153077380Y-88749047D01*
X153077380Y-88844285D01*
X153077380Y-87987142D02*
X152077380Y-87987142D01*
X152077380Y-87606190D01*
X152125000Y-87510952D01*
X152172619Y-87463333D01*
X152267857Y-87415714D01*
X152410714Y-87415714D01*
X152505952Y-87463333D01*
X152553571Y-87510952D01*
X152601190Y-87606190D01*
X152601190Y-87987142D01*
X153077380Y-86463333D02*
X153077380Y-87034761D01*
X153077380Y-86749047D02*
X152077380Y-86749047D01*
X152220238Y-86844285D01*
X152315476Y-86939523D01*
X152363095Y-87034761D01*
X152797142Y-85542380D02*
X152463809Y-85066190D01*
X152225714Y-85542380D02*
X152225714Y-84542380D01*
X152606666Y-84542380D01*
X152701904Y-84590000D01*
X152749523Y-84637619D01*
X152797142Y-84732857D01*
X152797142Y-84875714D01*
X152749523Y-84970952D01*
X152701904Y-85018571D01*
X152606666Y-85066190D01*
X152225714Y-85066190D01*
X153416190Y-84542380D02*
X153606666Y-84542380D01*
X153701904Y-84590000D01*
X153797142Y-84685238D01*
X153844761Y-84875714D01*
X153844761Y-85209047D01*
X153797142Y-85399523D01*
X153701904Y-85494761D01*
X153606666Y-85542380D01*
X153416190Y-85542380D01*
X153320952Y-85494761D01*
X153225714Y-85399523D01*
X153178095Y-85209047D01*
X153178095Y-84875714D01*
X153225714Y-84685238D01*
X153320952Y-84590000D01*
X153416190Y-84542380D01*
X154273333Y-85542380D02*
X154273333Y-84542380D01*
X154606666Y-85256666D01*
X154940000Y-84542380D01*
X154940000Y-85542380D01*
X156178095Y-85018571D02*
X156511428Y-85018571D01*
X156654285Y-85542380D02*
X156178095Y-85542380D01*
X156178095Y-84542380D01*
X156654285Y-84542380D01*
X157082857Y-85542380D02*
X157082857Y-84542380D01*
X157654285Y-85542380D01*
X157654285Y-84542380D01*
X171902380Y-36996666D02*
X171426190Y-37330000D01*
X171902380Y-37568095D02*
X170902380Y-37568095D01*
X170902380Y-37187142D01*
X170950000Y-37091904D01*
X170997619Y-37044285D01*
X171092857Y-36996666D01*
X171235714Y-36996666D01*
X171330952Y-37044285D01*
X171378571Y-37091904D01*
X171426190Y-37187142D01*
X171426190Y-37568095D01*
X170902380Y-36091904D02*
X170902380Y-36568095D01*
X171378571Y-36615714D01*
X171330952Y-36568095D01*
X171283333Y-36472857D01*
X171283333Y-36234761D01*
X171330952Y-36139523D01*
X171378571Y-36091904D01*
X171473809Y-36044285D01*
X171711904Y-36044285D01*
X171807142Y-36091904D01*
X171854761Y-36139523D01*
X171902380Y-36234761D01*
X171902380Y-36472857D01*
X171854761Y-36568095D01*
X171807142Y-36615714D01*
X168362380Y-33734285D02*
X168362380Y-34210476D01*
X168838571Y-34258095D01*
X168790952Y-34210476D01*
X168743333Y-34115238D01*
X168743333Y-33877142D01*
X168790952Y-33781904D01*
X168838571Y-33734285D01*
X168933809Y-33686666D01*
X169171904Y-33686666D01*
X169267142Y-33734285D01*
X169314761Y-33781904D01*
X169362380Y-33877142D01*
X169362380Y-34115238D01*
X169314761Y-34210476D01*
X169267142Y-34258095D01*
X168362380Y-32829523D02*
X168362380Y-33020000D01*
X168410000Y-33115238D01*
X168457619Y-33162857D01*
X168600476Y-33258095D01*
X168790952Y-33305714D01*
X169171904Y-33305714D01*
X169267142Y-33258095D01*
X169314761Y-33210476D01*
X169362380Y-33115238D01*
X169362380Y-32924761D01*
X169314761Y-32829523D01*
X169267142Y-32781904D01*
X169171904Y-32734285D01*
X168933809Y-32734285D01*
X168838571Y-32781904D01*
X168790952Y-32829523D01*
X168743333Y-32924761D01*
X168743333Y-33115238D01*
X168790952Y-33210476D01*
X168838571Y-33258095D01*
X168933809Y-33305714D01*
X168362380Y-32115238D02*
X168362380Y-32020000D01*
X168410000Y-31924761D01*
X168457619Y-31877142D01*
X168552857Y-31829523D01*
X168743333Y-31781904D01*
X168981428Y-31781904D01*
X169171904Y-31829523D01*
X169267142Y-31877142D01*
X169314761Y-31924761D01*
X169362380Y-32020000D01*
X169362380Y-32115238D01*
X169314761Y-32210476D01*
X169267142Y-32258095D01*
X169171904Y-32305714D01*
X168981428Y-32353333D01*
X168743333Y-32353333D01*
X168552857Y-32305714D01*
X168457619Y-32258095D01*
X168410000Y-32210476D01*
X168362380Y-32115238D01*
X163663333Y-72842380D02*
X163330000Y-72366190D01*
X163091904Y-72842380D02*
X163091904Y-71842380D01*
X163472857Y-71842380D01*
X163568095Y-71890000D01*
X163615714Y-71937619D01*
X163663333Y-72032857D01*
X163663333Y-72175714D01*
X163615714Y-72270952D01*
X163568095Y-72318571D01*
X163472857Y-72366190D01*
X163091904Y-72366190D01*
X164520476Y-71842380D02*
X164330000Y-71842380D01*
X164234761Y-71890000D01*
X164187142Y-71937619D01*
X164091904Y-72080476D01*
X164044285Y-72270952D01*
X164044285Y-72651904D01*
X164091904Y-72747142D01*
X164139523Y-72794761D01*
X164234761Y-72842380D01*
X164425238Y-72842380D01*
X164520476Y-72794761D01*
X164568095Y-72747142D01*
X164615714Y-72651904D01*
X164615714Y-72413809D01*
X164568095Y-72318571D01*
X164520476Y-72270952D01*
X164425238Y-72223333D01*
X164234761Y-72223333D01*
X164139523Y-72270952D01*
X164091904Y-72318571D01*
X164044285Y-72413809D01*
X169600714Y-70572380D02*
X170219761Y-70572380D01*
X169886428Y-70953333D01*
X170029285Y-70953333D01*
X170124523Y-71000952D01*
X170172142Y-71048571D01*
X170219761Y-71143809D01*
X170219761Y-71381904D01*
X170172142Y-71477142D01*
X170124523Y-71524761D01*
X170029285Y-71572380D01*
X169743571Y-71572380D01*
X169648333Y-71524761D01*
X169600714Y-71477142D01*
X170648333Y-71572380D02*
X170648333Y-70572380D01*
X170743571Y-71191428D02*
X171029285Y-71572380D01*
X171029285Y-70905714D02*
X170648333Y-71286666D01*
X171362619Y-70572380D02*
X171981666Y-70572380D01*
X171648333Y-70953333D01*
X171791190Y-70953333D01*
X171886428Y-71000952D01*
X171934047Y-71048571D01*
X171981666Y-71143809D01*
X171981666Y-71381904D01*
X171934047Y-71477142D01*
X171886428Y-71524761D01*
X171791190Y-71572380D01*
X171505476Y-71572380D01*
X171410238Y-71524761D01*
X171362619Y-71477142D01*
X133007380Y-64261904D02*
X133816904Y-64261904D01*
X133912142Y-64214285D01*
X133959761Y-64166666D01*
X134007380Y-64071428D01*
X134007380Y-63880952D01*
X133959761Y-63785714D01*
X133912142Y-63738095D01*
X133816904Y-63690476D01*
X133007380Y-63690476D01*
X133340714Y-62785714D02*
X134007380Y-62785714D01*
X132959761Y-63023809D02*
X133674047Y-63261904D01*
X133674047Y-62642857D01*
X140867142Y-62952380D02*
X141533809Y-62952380D01*
X141105238Y-63952380D01*
X142343333Y-63285714D02*
X142343333Y-63952380D01*
X142105238Y-62904761D02*
X141867142Y-63619047D01*
X142486190Y-63619047D01*
X143343333Y-63952380D02*
X142867142Y-63952380D01*
X142867142Y-62952380D01*
X143629047Y-63904761D02*
X143771904Y-63952380D01*
X144010000Y-63952380D01*
X144105238Y-63904761D01*
X144152857Y-63857142D01*
X144200476Y-63761904D01*
X144200476Y-63666666D01*
X144152857Y-63571428D01*
X144105238Y-63523809D01*
X144010000Y-63476190D01*
X143819523Y-63428571D01*
X143724285Y-63380952D01*
X143676666Y-63333333D01*
X143629047Y-63238095D01*
X143629047Y-63142857D01*
X143676666Y-63047619D01*
X143724285Y-63000000D01*
X143819523Y-62952380D01*
X144057619Y-62952380D01*
X144200476Y-63000000D01*
X144533809Y-62952380D02*
X145152857Y-62952380D01*
X144819523Y-63333333D01*
X144962380Y-63333333D01*
X145057619Y-63380952D01*
X145105238Y-63428571D01*
X145152857Y-63523809D01*
X145152857Y-63761904D01*
X145105238Y-63857142D01*
X145057619Y-63904761D01*
X144962380Y-63952380D01*
X144676666Y-63952380D01*
X144581428Y-63904761D01*
X144533809Y-63857142D01*
X145533809Y-63047619D02*
X145581428Y-63000000D01*
X145676666Y-62952380D01*
X145914761Y-62952380D01*
X146010000Y-63000000D01*
X146057619Y-63047619D01*
X146105238Y-63142857D01*
X146105238Y-63238095D01*
X146057619Y-63380952D01*
X145486190Y-63952380D01*
X146105238Y-63952380D01*
X133012380Y-49021904D02*
X133821904Y-49021904D01*
X133917142Y-48974285D01*
X133964761Y-48926666D01*
X134012380Y-48831428D01*
X134012380Y-48640952D01*
X133964761Y-48545714D01*
X133917142Y-48498095D01*
X133821904Y-48450476D01*
X133012380Y-48450476D01*
X133107619Y-48021904D02*
X133060000Y-47974285D01*
X133012380Y-47879047D01*
X133012380Y-47640952D01*
X133060000Y-47545714D01*
X133107619Y-47498095D01*
X133202857Y-47450476D01*
X133298095Y-47450476D01*
X133440952Y-47498095D01*
X134012380Y-48069523D01*
X134012380Y-47450476D01*
X140872142Y-47712380D02*
X141538809Y-47712380D01*
X141110238Y-48712380D01*
X142348333Y-48045714D02*
X142348333Y-48712380D01*
X142110238Y-47664761D02*
X141872142Y-48379047D01*
X142491190Y-48379047D01*
X143348333Y-48712380D02*
X142872142Y-48712380D01*
X142872142Y-47712380D01*
X143634047Y-48664761D02*
X143776904Y-48712380D01*
X144015000Y-48712380D01*
X144110238Y-48664761D01*
X144157857Y-48617142D01*
X144205476Y-48521904D01*
X144205476Y-48426666D01*
X144157857Y-48331428D01*
X144110238Y-48283809D01*
X144015000Y-48236190D01*
X143824523Y-48188571D01*
X143729285Y-48140952D01*
X143681666Y-48093333D01*
X143634047Y-47998095D01*
X143634047Y-47902857D01*
X143681666Y-47807619D01*
X143729285Y-47760000D01*
X143824523Y-47712380D01*
X144062619Y-47712380D01*
X144205476Y-47760000D01*
X144824523Y-47712380D02*
X144919761Y-47712380D01*
X145015000Y-47760000D01*
X145062619Y-47807619D01*
X145110238Y-47902857D01*
X145157857Y-48093333D01*
X145157857Y-48331428D01*
X145110238Y-48521904D01*
X145062619Y-48617142D01*
X145015000Y-48664761D01*
X144919761Y-48712380D01*
X144824523Y-48712380D01*
X144729285Y-48664761D01*
X144681666Y-48617142D01*
X144634047Y-48521904D01*
X144586428Y-48331428D01*
X144586428Y-48093333D01*
X144634047Y-47902857D01*
X144681666Y-47807619D01*
X144729285Y-47760000D01*
X144824523Y-47712380D01*
X145729285Y-48140952D02*
X145634047Y-48093333D01*
X145586428Y-48045714D01*
X145538809Y-47950476D01*
X145538809Y-47902857D01*
X145586428Y-47807619D01*
X145634047Y-47760000D01*
X145729285Y-47712380D01*
X145919761Y-47712380D01*
X146015000Y-47760000D01*
X146062619Y-47807619D01*
X146110238Y-47902857D01*
X146110238Y-47950476D01*
X146062619Y-48045714D01*
X146015000Y-48093333D01*
X145919761Y-48140952D01*
X145729285Y-48140952D01*
X145634047Y-48188571D01*
X145586428Y-48236190D01*
X145538809Y-48331428D01*
X145538809Y-48521904D01*
X145586428Y-48617142D01*
X145634047Y-48664761D01*
X145729285Y-48712380D01*
X145919761Y-48712380D01*
X146015000Y-48664761D01*
X146062619Y-48617142D01*
X146110238Y-48521904D01*
X146110238Y-48331428D01*
X146062619Y-48236190D01*
X146015000Y-48188571D01*
X145919761Y-48140952D01*
X151582380Y-36996666D02*
X151106190Y-37330000D01*
X151582380Y-37568095D02*
X150582380Y-37568095D01*
X150582380Y-37187142D01*
X150630000Y-37091904D01*
X150677619Y-37044285D01*
X150772857Y-36996666D01*
X150915714Y-36996666D01*
X151010952Y-37044285D01*
X151058571Y-37091904D01*
X151106190Y-37187142D01*
X151106190Y-37568095D01*
X150582380Y-36663333D02*
X150582380Y-36044285D01*
X150963333Y-36377619D01*
X150963333Y-36234761D01*
X151010952Y-36139523D01*
X151058571Y-36091904D01*
X151153809Y-36044285D01*
X151391904Y-36044285D01*
X151487142Y-36091904D01*
X151534761Y-36139523D01*
X151582380Y-36234761D01*
X151582380Y-36520476D01*
X151534761Y-36615714D01*
X151487142Y-36663333D01*
X148042380Y-33734285D02*
X148042380Y-34210476D01*
X148518571Y-34258095D01*
X148470952Y-34210476D01*
X148423333Y-34115238D01*
X148423333Y-33877142D01*
X148470952Y-33781904D01*
X148518571Y-33734285D01*
X148613809Y-33686666D01*
X148851904Y-33686666D01*
X148947142Y-33734285D01*
X148994761Y-33781904D01*
X149042380Y-33877142D01*
X149042380Y-34115238D01*
X148994761Y-34210476D01*
X148947142Y-34258095D01*
X148042380Y-32829523D02*
X148042380Y-33020000D01*
X148090000Y-33115238D01*
X148137619Y-33162857D01*
X148280476Y-33258095D01*
X148470952Y-33305714D01*
X148851904Y-33305714D01*
X148947142Y-33258095D01*
X148994761Y-33210476D01*
X149042380Y-33115238D01*
X149042380Y-32924761D01*
X148994761Y-32829523D01*
X148947142Y-32781904D01*
X148851904Y-32734285D01*
X148613809Y-32734285D01*
X148518571Y-32781904D01*
X148470952Y-32829523D01*
X148423333Y-32924761D01*
X148423333Y-33115238D01*
X148470952Y-33210476D01*
X148518571Y-33258095D01*
X148613809Y-33305714D01*
X148042380Y-32115238D02*
X148042380Y-32020000D01*
X148090000Y-31924761D01*
X148137619Y-31877142D01*
X148232857Y-31829523D01*
X148423333Y-31781904D01*
X148661428Y-31781904D01*
X148851904Y-31829523D01*
X148947142Y-31877142D01*
X148994761Y-31924761D01*
X149042380Y-32020000D01*
X149042380Y-32115238D01*
X148994761Y-32210476D01*
X148947142Y-32258095D01*
X148851904Y-32305714D01*
X148661428Y-32353333D01*
X148423333Y-32353333D01*
X148232857Y-32305714D01*
X148137619Y-32258095D01*
X148090000Y-32210476D01*
X148042380Y-32115238D01*
X105157380Y-36298095D02*
X104157380Y-36298095D01*
X104157380Y-36060000D01*
X104205000Y-35917142D01*
X104300238Y-35821904D01*
X104395476Y-35774285D01*
X104585952Y-35726666D01*
X104728809Y-35726666D01*
X104919285Y-35774285D01*
X105014523Y-35821904D01*
X105109761Y-35917142D01*
X105157380Y-36060000D01*
X105157380Y-36298095D01*
X105157380Y-34774285D02*
X105157380Y-35345714D01*
X105157380Y-35060000D02*
X104157380Y-35060000D01*
X104300238Y-35155238D01*
X104395476Y-35250476D01*
X104443095Y-35345714D01*
X101920714Y-37433095D02*
X102587380Y-37433095D01*
X101539761Y-37671190D02*
X102254047Y-37909285D01*
X102254047Y-37290238D01*
X102587380Y-36385476D02*
X102587380Y-36956904D01*
X102587380Y-36671190D02*
X101587380Y-36671190D01*
X101730238Y-36766428D01*
X101825476Y-36861666D01*
X101873095Y-36956904D01*
X101920714Y-35528333D02*
X102587380Y-35528333D01*
X101539761Y-35766428D02*
X102254047Y-36004523D01*
X102254047Y-35385476D01*
X102015952Y-34861666D02*
X101968333Y-34956904D01*
X101920714Y-35004523D01*
X101825476Y-35052142D01*
X101777857Y-35052142D01*
X101682619Y-35004523D01*
X101635000Y-34956904D01*
X101587380Y-34861666D01*
X101587380Y-34671190D01*
X101635000Y-34575952D01*
X101682619Y-34528333D01*
X101777857Y-34480714D01*
X101825476Y-34480714D01*
X101920714Y-34528333D01*
X101968333Y-34575952D01*
X102015952Y-34671190D01*
X102015952Y-34861666D01*
X102063571Y-34956904D01*
X102111190Y-35004523D01*
X102206428Y-35052142D01*
X102396904Y-35052142D01*
X102492142Y-35004523D01*
X102539761Y-34956904D01*
X102587380Y-34861666D01*
X102587380Y-34671190D01*
X102539761Y-34575952D01*
X102492142Y-34528333D01*
X102396904Y-34480714D01*
X102206428Y-34480714D01*
X102111190Y-34528333D01*
X102063571Y-34575952D01*
X102015952Y-34671190D01*
X104587380Y-32011904D02*
X103587380Y-32011904D01*
X104587380Y-31440476D02*
X104015952Y-31869047D01*
X103587380Y-31440476D02*
X104158809Y-32011904D01*
X154597380Y-49011904D02*
X155406904Y-49011904D01*
X155502142Y-48964285D01*
X155549761Y-48916666D01*
X155597380Y-48821428D01*
X155597380Y-48630952D01*
X155549761Y-48535714D01*
X155502142Y-48488095D01*
X155406904Y-48440476D01*
X154597380Y-48440476D01*
X155597380Y-47440476D02*
X155597380Y-48011904D01*
X155597380Y-47726190D02*
X154597380Y-47726190D01*
X154740238Y-47821428D01*
X154835476Y-47916666D01*
X154883095Y-48011904D01*
X162457142Y-47702380D02*
X163123809Y-47702380D01*
X162695238Y-48702380D01*
X163933333Y-48035714D02*
X163933333Y-48702380D01*
X163695238Y-47654761D02*
X163457142Y-48369047D01*
X164076190Y-48369047D01*
X164933333Y-48702380D02*
X164457142Y-48702380D01*
X164457142Y-47702380D01*
X165219047Y-48654761D02*
X165361904Y-48702380D01*
X165600000Y-48702380D01*
X165695238Y-48654761D01*
X165742857Y-48607142D01*
X165790476Y-48511904D01*
X165790476Y-48416666D01*
X165742857Y-48321428D01*
X165695238Y-48273809D01*
X165600000Y-48226190D01*
X165409523Y-48178571D01*
X165314285Y-48130952D01*
X165266666Y-48083333D01*
X165219047Y-47988095D01*
X165219047Y-47892857D01*
X165266666Y-47797619D01*
X165314285Y-47750000D01*
X165409523Y-47702380D01*
X165647619Y-47702380D01*
X165790476Y-47750000D01*
X166361904Y-48130952D02*
X166266666Y-48083333D01*
X166219047Y-48035714D01*
X166171428Y-47940476D01*
X166171428Y-47892857D01*
X166219047Y-47797619D01*
X166266666Y-47750000D01*
X166361904Y-47702380D01*
X166552380Y-47702380D01*
X166647619Y-47750000D01*
X166695238Y-47797619D01*
X166742857Y-47892857D01*
X166742857Y-47940476D01*
X166695238Y-48035714D01*
X166647619Y-48083333D01*
X166552380Y-48130952D01*
X166361904Y-48130952D01*
X166266666Y-48178571D01*
X166219047Y-48226190D01*
X166171428Y-48321428D01*
X166171428Y-48511904D01*
X166219047Y-48607142D01*
X166266666Y-48654761D01*
X166361904Y-48702380D01*
X166552380Y-48702380D01*
X166647619Y-48654761D01*
X166695238Y-48607142D01*
X166742857Y-48511904D01*
X166742857Y-48321428D01*
X166695238Y-48226190D01*
X166647619Y-48178571D01*
X166552380Y-48130952D01*
X167600000Y-47702380D02*
X167409523Y-47702380D01*
X167314285Y-47750000D01*
X167266666Y-47797619D01*
X167171428Y-47940476D01*
X167123809Y-48130952D01*
X167123809Y-48511904D01*
X167171428Y-48607142D01*
X167219047Y-48654761D01*
X167314285Y-48702380D01*
X167504761Y-48702380D01*
X167600000Y-48654761D01*
X167647619Y-48607142D01*
X167695238Y-48511904D01*
X167695238Y-48273809D01*
X167647619Y-48178571D01*
X167600000Y-48130952D01*
X167504761Y-48083333D01*
X167314285Y-48083333D01*
X167219047Y-48130952D01*
X167171428Y-48178571D01*
X167123809Y-48273809D01*
X100163333Y-42532380D02*
X99830000Y-42056190D01*
X99591904Y-42532380D02*
X99591904Y-41532380D01*
X99972857Y-41532380D01*
X100068095Y-41580000D01*
X100115714Y-41627619D01*
X100163333Y-41722857D01*
X100163333Y-41865714D01*
X100115714Y-41960952D01*
X100068095Y-42008571D01*
X99972857Y-42056190D01*
X99591904Y-42056190D01*
X100544285Y-41627619D02*
X100591904Y-41580000D01*
X100687142Y-41532380D01*
X100925238Y-41532380D01*
X101020476Y-41580000D01*
X101068095Y-41627619D01*
X101115714Y-41722857D01*
X101115714Y-41818095D01*
X101068095Y-41960952D01*
X100496666Y-42532380D01*
X101115714Y-42532380D01*
X99115714Y-43902380D02*
X99734761Y-43902380D01*
X99401428Y-44283333D01*
X99544285Y-44283333D01*
X99639523Y-44330952D01*
X99687142Y-44378571D01*
X99734761Y-44473809D01*
X99734761Y-44711904D01*
X99687142Y-44807142D01*
X99639523Y-44854761D01*
X99544285Y-44902380D01*
X99258571Y-44902380D01*
X99163333Y-44854761D01*
X99115714Y-44807142D01*
X100163333Y-44902380D02*
X100163333Y-43902380D01*
X100258571Y-44521428D02*
X100544285Y-44902380D01*
X100544285Y-44235714D02*
X100163333Y-44616666D01*
X100877619Y-43902380D02*
X101496666Y-43902380D01*
X101163333Y-44283333D01*
X101306190Y-44283333D01*
X101401428Y-44330952D01*
X101449047Y-44378571D01*
X101496666Y-44473809D01*
X101496666Y-44711904D01*
X101449047Y-44807142D01*
X101401428Y-44854761D01*
X101306190Y-44902380D01*
X101020476Y-44902380D01*
X100925238Y-44854761D01*
X100877619Y-44807142D01*
X116732142Y-36459015D02*
X116779761Y-36506634D01*
X116827380Y-36649491D01*
X116827380Y-36744729D01*
X116779761Y-36887587D01*
X116684523Y-36982825D01*
X116589285Y-37030444D01*
X116398809Y-37078063D01*
X116255952Y-37078063D01*
X116065476Y-37030444D01*
X115970238Y-36982825D01*
X115875000Y-36887587D01*
X115827380Y-36744729D01*
X115827380Y-36649491D01*
X115875000Y-36506634D01*
X115922619Y-36459015D01*
X116827380Y-35506634D02*
X116827380Y-36078063D01*
X116827380Y-35792349D02*
X115827380Y-35792349D01*
X115970238Y-35887587D01*
X116065476Y-35982825D01*
X116113095Y-36078063D01*
X109982142Y-36012380D02*
X109410714Y-36012380D01*
X109696428Y-36012380D02*
X109696428Y-35012380D01*
X109601190Y-35155238D01*
X109505952Y-35250476D01*
X109410714Y-35298095D01*
X110601190Y-35012380D02*
X110696428Y-35012380D01*
X110791666Y-35060000D01*
X110839285Y-35107619D01*
X110886904Y-35202857D01*
X110934523Y-35393333D01*
X110934523Y-35631428D01*
X110886904Y-35821904D01*
X110839285Y-35917142D01*
X110791666Y-35964761D01*
X110696428Y-36012380D01*
X110601190Y-36012380D01*
X110505952Y-35964761D01*
X110458333Y-35917142D01*
X110410714Y-35821904D01*
X110363095Y-35631428D01*
X110363095Y-35393333D01*
X110410714Y-35202857D01*
X110458333Y-35107619D01*
X110505952Y-35060000D01*
X110601190Y-35012380D01*
X111363095Y-35345714D02*
X111363095Y-36345714D01*
X111839285Y-35869523D02*
X111886904Y-35964761D01*
X111982142Y-36012380D01*
X111363095Y-35869523D02*
X111410714Y-35964761D01*
X111505952Y-36012380D01*
X111696428Y-36012380D01*
X111791666Y-35964761D01*
X111839285Y-35869523D01*
X111839285Y-35345714D01*
X112744047Y-35488571D02*
X112410714Y-35488571D01*
X112410714Y-36012380D02*
X112410714Y-35012380D01*
X112886904Y-35012380D01*
X173251904Y-34892380D02*
X173251904Y-33892380D01*
X173490000Y-33892380D01*
X173632857Y-33940000D01*
X173728095Y-34035238D01*
X173775714Y-34130476D01*
X173823333Y-34320952D01*
X173823333Y-34463809D01*
X173775714Y-34654285D01*
X173728095Y-34749523D01*
X173632857Y-34844761D01*
X173490000Y-34892380D01*
X173251904Y-34892380D01*
X174680476Y-34225714D02*
X174680476Y-34892380D01*
X174442380Y-33844761D02*
X174204285Y-34559047D01*
X174823333Y-34559047D01*
X171990000Y-25972380D02*
X172228095Y-26972380D01*
X172418571Y-26258095D01*
X172609047Y-26972380D01*
X172847142Y-25972380D01*
X173799523Y-26972380D02*
X173466190Y-26496190D01*
X173228095Y-26972380D02*
X173228095Y-25972380D01*
X173609047Y-25972380D01*
X173704285Y-26020000D01*
X173751904Y-26067619D01*
X173799523Y-26162857D01*
X173799523Y-26305714D01*
X173751904Y-26400952D01*
X173704285Y-26448571D01*
X173609047Y-26496190D01*
X173228095Y-26496190D01*
X174228095Y-26972380D02*
X174228095Y-25972380D01*
X174561428Y-25972380D02*
X175132857Y-25972380D01*
X174847142Y-26972380D02*
X174847142Y-25972380D01*
X175466190Y-26448571D02*
X175799523Y-26448571D01*
X175942380Y-26972380D02*
X175466190Y-26972380D01*
X175466190Y-25972380D01*
X175942380Y-25972380D01*
X118757142Y-44656666D02*
X118804761Y-44704285D01*
X118852380Y-44847142D01*
X118852380Y-44942380D01*
X118804761Y-45085238D01*
X118709523Y-45180476D01*
X118614285Y-45228095D01*
X118423809Y-45275714D01*
X118280952Y-45275714D01*
X118090476Y-45228095D01*
X117995238Y-45180476D01*
X117900000Y-45085238D01*
X117852380Y-44942380D01*
X117852380Y-44847142D01*
X117900000Y-44704285D01*
X117947619Y-44656666D01*
X117852380Y-44323333D02*
X117852380Y-43656666D01*
X118852380Y-44085238D01*
X121007142Y-45918571D02*
X121054761Y-45870952D01*
X121102380Y-45918571D01*
X121054761Y-45966190D01*
X121007142Y-45918571D01*
X121102380Y-45918571D01*
X121102380Y-44918571D02*
X121102380Y-45490000D01*
X121102380Y-45204285D02*
X120102380Y-45204285D01*
X120245238Y-45299523D01*
X120340476Y-45394761D01*
X120388095Y-45490000D01*
X120435714Y-44490000D02*
X121435714Y-44490000D01*
X120959523Y-44013809D02*
X121054761Y-43966190D01*
X121102380Y-43870952D01*
X120959523Y-44490000D02*
X121054761Y-44442380D01*
X121102380Y-44347142D01*
X121102380Y-44156666D01*
X121054761Y-44061428D01*
X120959523Y-44013809D01*
X120435714Y-44013809D01*
X120578571Y-43109047D02*
X120578571Y-43442380D01*
X121102380Y-43442380D02*
X120102380Y-43442380D01*
X120102380Y-42966190D01*
X95083333Y-89602142D02*
X95035714Y-89649761D01*
X94892857Y-89697380D01*
X94797619Y-89697380D01*
X94654761Y-89649761D01*
X94559523Y-89554523D01*
X94511904Y-89459285D01*
X94464285Y-89268809D01*
X94464285Y-89125952D01*
X94511904Y-88935476D01*
X94559523Y-88840238D01*
X94654761Y-88745000D01*
X94797619Y-88697380D01*
X94892857Y-88697380D01*
X95035714Y-88745000D01*
X95083333Y-88792619D01*
X95988095Y-88697380D02*
X95511904Y-88697380D01*
X95464285Y-89173571D01*
X95511904Y-89125952D01*
X95607142Y-89078333D01*
X95845238Y-89078333D01*
X95940476Y-89125952D01*
X95988095Y-89173571D01*
X96035714Y-89268809D01*
X96035714Y-89506904D01*
X95988095Y-89602142D01*
X95940476Y-89649761D01*
X95845238Y-89697380D01*
X95607142Y-89697380D01*
X95511904Y-89649761D01*
X95464285Y-89602142D01*
X93821428Y-87352142D02*
X93869047Y-87399761D01*
X93821428Y-87447380D01*
X93773809Y-87399761D01*
X93821428Y-87352142D01*
X93821428Y-87447380D01*
X94821428Y-87447380D02*
X94250000Y-87447380D01*
X94535714Y-87447380D02*
X94535714Y-86447380D01*
X94440476Y-86590238D01*
X94345238Y-86685476D01*
X94250000Y-86733095D01*
X95250000Y-86780714D02*
X95250000Y-87780714D01*
X95726190Y-87304523D02*
X95773809Y-87399761D01*
X95869047Y-87447380D01*
X95250000Y-87304523D02*
X95297619Y-87399761D01*
X95392857Y-87447380D01*
X95583333Y-87447380D01*
X95678571Y-87399761D01*
X95726190Y-87304523D01*
X95726190Y-86780714D01*
X96630952Y-86923571D02*
X96297619Y-86923571D01*
X96297619Y-87447380D02*
X96297619Y-86447380D01*
X96773809Y-86447380D01*
X174712380Y-79968095D02*
X175521904Y-79968095D01*
X175617142Y-79920476D01*
X175664761Y-79872857D01*
X175712380Y-79777619D01*
X175712380Y-79587142D01*
X175664761Y-79491904D01*
X175617142Y-79444285D01*
X175521904Y-79396666D01*
X174712380Y-79396666D01*
X175712380Y-78396666D02*
X175712380Y-78968095D01*
X175712380Y-78682380D02*
X174712380Y-78682380D01*
X174855238Y-78777619D01*
X174950476Y-78872857D01*
X174998095Y-78968095D01*
X174712380Y-77777619D02*
X174712380Y-77682380D01*
X174760000Y-77587142D01*
X174807619Y-77539523D01*
X174902857Y-77491904D01*
X175093333Y-77444285D01*
X175331428Y-77444285D01*
X175521904Y-77491904D01*
X175617142Y-77539523D01*
X175664761Y-77587142D01*
X175712380Y-77682380D01*
X175712380Y-77777619D01*
X175664761Y-77872857D01*
X175617142Y-77920476D01*
X175521904Y-77968095D01*
X175331428Y-78015714D01*
X175093333Y-78015714D01*
X174902857Y-77968095D01*
X174807619Y-77920476D01*
X174760000Y-77872857D01*
X174712380Y-77777619D01*
X162457142Y-78192380D02*
X163123809Y-78192380D01*
X162695238Y-79192380D01*
X163933333Y-78525714D02*
X163933333Y-79192380D01*
X163695238Y-78144761D02*
X163457142Y-78859047D01*
X164076190Y-78859047D01*
X164933333Y-79192380D02*
X164457142Y-79192380D01*
X164457142Y-78192380D01*
X165219047Y-79144761D02*
X165361904Y-79192380D01*
X165600000Y-79192380D01*
X165695238Y-79144761D01*
X165742857Y-79097142D01*
X165790476Y-79001904D01*
X165790476Y-78906666D01*
X165742857Y-78811428D01*
X165695238Y-78763809D01*
X165600000Y-78716190D01*
X165409523Y-78668571D01*
X165314285Y-78620952D01*
X165266666Y-78573333D01*
X165219047Y-78478095D01*
X165219047Y-78382857D01*
X165266666Y-78287619D01*
X165314285Y-78240000D01*
X165409523Y-78192380D01*
X165647619Y-78192380D01*
X165790476Y-78240000D01*
X166409523Y-78192380D02*
X166504761Y-78192380D01*
X166600000Y-78240000D01*
X166647619Y-78287619D01*
X166695238Y-78382857D01*
X166742857Y-78573333D01*
X166742857Y-78811428D01*
X166695238Y-79001904D01*
X166647619Y-79097142D01*
X166600000Y-79144761D01*
X166504761Y-79192380D01*
X166409523Y-79192380D01*
X166314285Y-79144761D01*
X166266666Y-79097142D01*
X166219047Y-79001904D01*
X166171428Y-78811428D01*
X166171428Y-78573333D01*
X166219047Y-78382857D01*
X166266666Y-78287619D01*
X166314285Y-78240000D01*
X166409523Y-78192380D01*
X167600000Y-78192380D02*
X167409523Y-78192380D01*
X167314285Y-78240000D01*
X167266666Y-78287619D01*
X167171428Y-78430476D01*
X167123809Y-78620952D01*
X167123809Y-79001904D01*
X167171428Y-79097142D01*
X167219047Y-79144761D01*
X167314285Y-79192380D01*
X167504761Y-79192380D01*
X167600000Y-79144761D01*
X167647619Y-79097142D01*
X167695238Y-79001904D01*
X167695238Y-78763809D01*
X167647619Y-78668571D01*
X167600000Y-78620952D01*
X167504761Y-78573333D01*
X167314285Y-78573333D01*
X167219047Y-78620952D01*
X167171428Y-78668571D01*
X167123809Y-78763809D01*
X84328095Y-46652380D02*
X84328095Y-47461904D01*
X84375714Y-47557142D01*
X84423333Y-47604761D01*
X84518571Y-47652380D01*
X84709047Y-47652380D01*
X84804285Y-47604761D01*
X84851904Y-47557142D01*
X84899523Y-47461904D01*
X84899523Y-46652380D01*
X85423333Y-47652380D02*
X85613809Y-47652380D01*
X85709047Y-47604761D01*
X85756666Y-47557142D01*
X85851904Y-47414285D01*
X85899523Y-47223809D01*
X85899523Y-46842857D01*
X85851904Y-46747619D01*
X85804285Y-46700000D01*
X85709047Y-46652380D01*
X85518571Y-46652380D01*
X85423333Y-46700000D01*
X85375714Y-46747619D01*
X85328095Y-46842857D01*
X85328095Y-47080952D01*
X85375714Y-47176190D01*
X85423333Y-47223809D01*
X85518571Y-47271428D01*
X85709047Y-47271428D01*
X85804285Y-47223809D01*
X85851904Y-47176190D01*
X85899523Y-47080952D01*
D13*
X84268571Y-67897142D02*
X84268571Y-68182857D01*
X84340000Y-68325714D01*
X84411428Y-68397142D01*
X84625714Y-68540000D01*
X84911428Y-68611428D01*
X85482857Y-68611428D01*
X85625714Y-68540000D01*
X85697142Y-68468571D01*
X85768571Y-68325714D01*
X85768571Y-68040000D01*
X85697142Y-67897142D01*
X85625714Y-67825714D01*
X85482857Y-67754285D01*
X85125714Y-67754285D01*
X84982857Y-67825714D01*
X84911428Y-67897142D01*
X84840000Y-68040000D01*
X84840000Y-68325714D01*
X84911428Y-68468571D01*
X84982857Y-68540000D01*
X85125714Y-68611428D01*
X84411428Y-67182857D02*
X84340000Y-67111428D01*
X84268571Y-66968571D01*
X84268571Y-66611428D01*
X84340000Y-66468571D01*
X84411428Y-66397142D01*
X84554285Y-66325714D01*
X84697142Y-66325714D01*
X84911428Y-66397142D01*
X85768571Y-67254285D01*
X85768571Y-66325714D01*
X84268571Y-65040000D02*
X84268571Y-65325714D01*
X84340000Y-65468571D01*
X84411428Y-65540000D01*
X84625714Y-65682857D01*
X84911428Y-65754285D01*
X85482857Y-65754285D01*
X85625714Y-65682857D01*
X85697142Y-65611428D01*
X85768571Y-65468571D01*
X85768571Y-65182857D01*
X85697142Y-65040000D01*
X85625714Y-64968571D01*
X85482857Y-64897142D01*
X85125714Y-64897142D01*
X84982857Y-64968571D01*
X84911428Y-65040000D01*
X84840000Y-65182857D01*
X84840000Y-65468571D01*
X84911428Y-65611428D01*
X84982857Y-65682857D01*
X85125714Y-65754285D01*
X84768571Y-63611428D02*
X85768571Y-63611428D01*
X84197142Y-63968571D02*
X85268571Y-64325714D01*
X85268571Y-63397142D01*
D11*
X116852142Y-31916666D02*
X116899761Y-31964285D01*
X116947380Y-32107142D01*
X116947380Y-32202380D01*
X116899761Y-32345238D01*
X116804523Y-32440476D01*
X116709285Y-32488095D01*
X116518809Y-32535714D01*
X116375952Y-32535714D01*
X116185476Y-32488095D01*
X116090238Y-32440476D01*
X115995000Y-32345238D01*
X115947380Y-32202380D01*
X115947380Y-32107142D01*
X115995000Y-31964285D01*
X116042619Y-31916666D01*
X116042619Y-31535714D02*
X115995000Y-31488095D01*
X115947380Y-31392857D01*
X115947380Y-31154761D01*
X115995000Y-31059523D01*
X116042619Y-31011904D01*
X116137857Y-30964285D01*
X116233095Y-30964285D01*
X116375952Y-31011904D01*
X116947380Y-31583333D01*
X116947380Y-30964285D01*
X119102142Y-33178571D02*
X119149761Y-33130952D01*
X119197380Y-33178571D01*
X119149761Y-33226190D01*
X119102142Y-33178571D01*
X119197380Y-33178571D01*
X119197380Y-32178571D02*
X119197380Y-32750000D01*
X119197380Y-32464285D02*
X118197380Y-32464285D01*
X118340238Y-32559523D01*
X118435476Y-32654761D01*
X118483095Y-32750000D01*
X118530714Y-31750000D02*
X119530714Y-31750000D01*
X119054523Y-31273809D02*
X119149761Y-31226190D01*
X119197380Y-31130952D01*
X119054523Y-31750000D02*
X119149761Y-31702380D01*
X119197380Y-31607142D01*
X119197380Y-31416666D01*
X119149761Y-31321428D01*
X119054523Y-31273809D01*
X118530714Y-31273809D01*
X118673571Y-30369047D02*
X118673571Y-30702380D01*
X119197380Y-30702380D02*
X118197380Y-30702380D01*
X118197380Y-30226190D01*
X154178333Y-57217142D02*
X154130714Y-57264761D01*
X153987857Y-57312380D01*
X153892619Y-57312380D01*
X153749761Y-57264761D01*
X153654523Y-57169523D01*
X153606904Y-57074285D01*
X153559285Y-56883809D01*
X153559285Y-56740952D01*
X153606904Y-56550476D01*
X153654523Y-56455238D01*
X153749761Y-56360000D01*
X153892619Y-56312380D01*
X153987857Y-56312380D01*
X154130714Y-56360000D01*
X154178333Y-56407619D01*
X155035476Y-56645714D02*
X155035476Y-57312380D01*
X154797380Y-56264761D02*
X154559285Y-56979047D01*
X155178333Y-56979047D01*
X152916428Y-54967142D02*
X152964047Y-55014761D01*
X152916428Y-55062380D01*
X152868809Y-55014761D01*
X152916428Y-54967142D01*
X152916428Y-55062380D01*
X153916428Y-55062380D02*
X153345000Y-55062380D01*
X153630714Y-55062380D02*
X153630714Y-54062380D01*
X153535476Y-54205238D01*
X153440238Y-54300476D01*
X153345000Y-54348095D01*
X154345000Y-54395714D02*
X154345000Y-55395714D01*
X154821190Y-54919523D02*
X154868809Y-55014761D01*
X154964047Y-55062380D01*
X154345000Y-54919523D02*
X154392619Y-55014761D01*
X154487857Y-55062380D01*
X154678333Y-55062380D01*
X154773571Y-55014761D01*
X154821190Y-54919523D01*
X154821190Y-54395714D01*
X155725952Y-54538571D02*
X155392619Y-54538571D01*
X155392619Y-55062380D02*
X155392619Y-54062380D01*
X155868809Y-54062380D01*
X98707380Y-34456666D02*
X98231190Y-34790000D01*
X98707380Y-35028095D02*
X97707380Y-35028095D01*
X97707380Y-34647142D01*
X97755000Y-34551904D01*
X97802619Y-34504285D01*
X97897857Y-34456666D01*
X98040714Y-34456666D01*
X98135952Y-34504285D01*
X98183571Y-34551904D01*
X98231190Y-34647142D01*
X98231190Y-35028095D01*
X98707380Y-33504285D02*
X98707380Y-34075714D01*
X98707380Y-33790000D02*
X97707380Y-33790000D01*
X97850238Y-33885238D01*
X97945476Y-33980476D01*
X97993095Y-34075714D01*
X96337380Y-34885238D02*
X96337380Y-35456666D01*
X96337380Y-35170952D02*
X95337380Y-35170952D01*
X95480238Y-35266190D01*
X95575476Y-35361428D01*
X95623095Y-35456666D01*
X95337380Y-34266190D02*
X95337380Y-34170952D01*
X95385000Y-34075714D01*
X95432619Y-34028095D01*
X95527857Y-33980476D01*
X95718333Y-33932857D01*
X95956428Y-33932857D01*
X96146904Y-33980476D01*
X96242142Y-34028095D01*
X96289761Y-34075714D01*
X96337380Y-34170952D01*
X96337380Y-34266190D01*
X96289761Y-34361428D01*
X96242142Y-34409047D01*
X96146904Y-34456666D01*
X95956428Y-34504285D01*
X95718333Y-34504285D01*
X95527857Y-34456666D01*
X95432619Y-34409047D01*
X95385000Y-34361428D01*
X95337380Y-34266190D01*
X96337380Y-33504285D02*
X95337380Y-33504285D01*
X95956428Y-33409047D02*
X96337380Y-33123333D01*
X95670714Y-33123333D02*
X96051666Y-33504285D01*
X154597380Y-64251904D02*
X155406904Y-64251904D01*
X155502142Y-64204285D01*
X155549761Y-64156666D01*
X155597380Y-64061428D01*
X155597380Y-63870952D01*
X155549761Y-63775714D01*
X155502142Y-63728095D01*
X155406904Y-63680476D01*
X154597380Y-63680476D01*
X154597380Y-62728095D02*
X154597380Y-63204285D01*
X155073571Y-63251904D01*
X155025952Y-63204285D01*
X154978333Y-63109047D01*
X154978333Y-62870952D01*
X155025952Y-62775714D01*
X155073571Y-62728095D01*
X155168809Y-62680476D01*
X155406904Y-62680476D01*
X155502142Y-62728095D01*
X155549761Y-62775714D01*
X155597380Y-62870952D01*
X155597380Y-63109047D01*
X155549761Y-63204285D01*
X155502142Y-63251904D01*
X162457142Y-62952380D02*
X163123809Y-62952380D01*
X162695238Y-63952380D01*
X163933333Y-63285714D02*
X163933333Y-63952380D01*
X163695238Y-62904761D02*
X163457142Y-63619047D01*
X164076190Y-63619047D01*
X164933333Y-63952380D02*
X164457142Y-63952380D01*
X164457142Y-62952380D01*
X165219047Y-63904761D02*
X165361904Y-63952380D01*
X165600000Y-63952380D01*
X165695238Y-63904761D01*
X165742857Y-63857142D01*
X165790476Y-63761904D01*
X165790476Y-63666666D01*
X165742857Y-63571428D01*
X165695238Y-63523809D01*
X165600000Y-63476190D01*
X165409523Y-63428571D01*
X165314285Y-63380952D01*
X165266666Y-63333333D01*
X165219047Y-63238095D01*
X165219047Y-63142857D01*
X165266666Y-63047619D01*
X165314285Y-63000000D01*
X165409523Y-62952380D01*
X165647619Y-62952380D01*
X165790476Y-63000000D01*
X166409523Y-62952380D02*
X166504761Y-62952380D01*
X166600000Y-63000000D01*
X166647619Y-63047619D01*
X166695238Y-63142857D01*
X166742857Y-63333333D01*
X166742857Y-63571428D01*
X166695238Y-63761904D01*
X166647619Y-63857142D01*
X166600000Y-63904761D01*
X166504761Y-63952380D01*
X166409523Y-63952380D01*
X166314285Y-63904761D01*
X166266666Y-63857142D01*
X166219047Y-63761904D01*
X166171428Y-63571428D01*
X166171428Y-63333333D01*
X166219047Y-63142857D01*
X166266666Y-63047619D01*
X166314285Y-63000000D01*
X166409523Y-62952380D01*
X167314285Y-63380952D02*
X167219047Y-63333333D01*
X167171428Y-63285714D01*
X167123809Y-63190476D01*
X167123809Y-63142857D01*
X167171428Y-63047619D01*
X167219047Y-63000000D01*
X167314285Y-62952380D01*
X167504761Y-62952380D01*
X167600000Y-63000000D01*
X167647619Y-63047619D01*
X167695238Y-63142857D01*
X167695238Y-63190476D01*
X167647619Y-63285714D01*
X167600000Y-63333333D01*
X167504761Y-63380952D01*
X167314285Y-63380952D01*
X167219047Y-63428571D01*
X167171428Y-63476190D01*
X167123809Y-63571428D01*
X167123809Y-63761904D01*
X167171428Y-63857142D01*
X167219047Y-63904761D01*
X167314285Y-63952380D01*
X167504761Y-63952380D01*
X167600000Y-63904761D01*
X167647619Y-63857142D01*
X167695238Y-63761904D01*
X167695238Y-63571428D01*
X167647619Y-63476190D01*
X167600000Y-63428571D01*
X167504761Y-63380952D01*
X163091904Y-34892380D02*
X163091904Y-33892380D01*
X163330000Y-33892380D01*
X163472857Y-33940000D01*
X163568095Y-34035238D01*
X163615714Y-34130476D01*
X163663333Y-34320952D01*
X163663333Y-34463809D01*
X163615714Y-34654285D01*
X163568095Y-34749523D01*
X163472857Y-34844761D01*
X163330000Y-34892380D01*
X163091904Y-34892380D01*
X163996666Y-33892380D02*
X164615714Y-33892380D01*
X164282380Y-34273333D01*
X164425238Y-34273333D01*
X164520476Y-34320952D01*
X164568095Y-34368571D01*
X164615714Y-34463809D01*
X164615714Y-34701904D01*
X164568095Y-34797142D01*
X164520476Y-34844761D01*
X164425238Y-34892380D01*
X164139523Y-34892380D01*
X164044285Y-34844761D01*
X163996666Y-34797142D01*
X162758571Y-26972380D02*
X162425238Y-26496190D01*
X162187142Y-26972380D02*
X162187142Y-25972380D01*
X162568095Y-25972380D01*
X162663333Y-26020000D01*
X162710952Y-26067619D01*
X162758571Y-26162857D01*
X162758571Y-26305714D01*
X162710952Y-26400952D01*
X162663333Y-26448571D01*
X162568095Y-26496190D01*
X162187142Y-26496190D01*
X163187142Y-26448571D02*
X163520476Y-26448571D01*
X163663333Y-26972380D02*
X163187142Y-26972380D01*
X163187142Y-25972380D01*
X163663333Y-25972380D01*
X164044285Y-26686666D02*
X164520476Y-26686666D01*
X163949047Y-26972380D02*
X164282380Y-25972380D01*
X164615714Y-26972380D01*
X164949047Y-26972380D02*
X164949047Y-25972380D01*
X165187142Y-25972380D01*
X165330000Y-26020000D01*
X165425238Y-26115238D01*
X165472857Y-26210476D01*
X165520476Y-26400952D01*
X165520476Y-26543809D01*
X165472857Y-26734285D01*
X165425238Y-26829523D01*
X165330000Y-26924761D01*
X165187142Y-26972380D01*
X164949047Y-26972380D01*
X152412142Y-78946666D02*
X152459761Y-78994285D01*
X152507380Y-79137142D01*
X152507380Y-79232380D01*
X152459761Y-79375238D01*
X152364523Y-79470476D01*
X152269285Y-79518095D01*
X152078809Y-79565714D01*
X151935952Y-79565714D01*
X151745476Y-79518095D01*
X151650238Y-79470476D01*
X151555000Y-79375238D01*
X151507380Y-79232380D01*
X151507380Y-79137142D01*
X151555000Y-78994285D01*
X151602619Y-78946666D01*
X151507380Y-78089523D02*
X151507380Y-78280000D01*
X151555000Y-78375238D01*
X151602619Y-78422857D01*
X151745476Y-78518095D01*
X151935952Y-78565714D01*
X152316904Y-78565714D01*
X152412142Y-78518095D01*
X152459761Y-78470476D01*
X152507380Y-78375238D01*
X152507380Y-78184761D01*
X152459761Y-78089523D01*
X152412142Y-78041904D01*
X152316904Y-77994285D01*
X152078809Y-77994285D01*
X151983571Y-78041904D01*
X151935952Y-78089523D01*
X151888333Y-78184761D01*
X151888333Y-78375238D01*
X151935952Y-78470476D01*
X151983571Y-78518095D01*
X152078809Y-78565714D01*
X154662142Y-80208571D02*
X154709761Y-80160952D01*
X154757380Y-80208571D01*
X154709761Y-80256190D01*
X154662142Y-80208571D01*
X154757380Y-80208571D01*
X154757380Y-79208571D02*
X154757380Y-79780000D01*
X154757380Y-79494285D02*
X153757380Y-79494285D01*
X153900238Y-79589523D01*
X153995476Y-79684761D01*
X154043095Y-79780000D01*
X154090714Y-78780000D02*
X155090714Y-78780000D01*
X154614523Y-78303809D02*
X154709761Y-78256190D01*
X154757380Y-78160952D01*
X154614523Y-78780000D02*
X154709761Y-78732380D01*
X154757380Y-78637142D01*
X154757380Y-78446666D01*
X154709761Y-78351428D01*
X154614523Y-78303809D01*
X154090714Y-78303809D01*
X154233571Y-77399047D02*
X154233571Y-77732380D01*
X154757380Y-77732380D02*
X153757380Y-77732380D01*
X153757380Y-77256190D01*
X120327380Y-33771904D02*
X121136904Y-33771904D01*
X121232142Y-33724285D01*
X121279761Y-33676666D01*
X121327380Y-33581428D01*
X121327380Y-33390952D01*
X121279761Y-33295714D01*
X121232142Y-33248095D01*
X121136904Y-33200476D01*
X120327380Y-33200476D01*
X120327380Y-32819523D02*
X120327380Y-32200476D01*
X120708333Y-32533809D01*
X120708333Y-32390952D01*
X120755952Y-32295714D01*
X120803571Y-32248095D01*
X120898809Y-32200476D01*
X121136904Y-32200476D01*
X121232142Y-32248095D01*
X121279761Y-32295714D01*
X121327380Y-32390952D01*
X121327380Y-32676666D01*
X121279761Y-32771904D01*
X121232142Y-32819523D01*
X128960952Y-32462380D02*
X129627619Y-32462380D01*
X129199047Y-33462380D01*
X130437142Y-32795714D02*
X130437142Y-33462380D01*
X130199047Y-32414761D02*
X129960952Y-33129047D01*
X130580000Y-33129047D01*
X131437142Y-33462380D02*
X130960952Y-33462380D01*
X130960952Y-32462380D01*
X131722857Y-33414761D02*
X131865714Y-33462380D01*
X132103809Y-33462380D01*
X132199047Y-33414761D01*
X132246666Y-33367142D01*
X132294285Y-33271904D01*
X132294285Y-33176666D01*
X132246666Y-33081428D01*
X132199047Y-33033809D01*
X132103809Y-32986190D01*
X131913333Y-32938571D01*
X131818095Y-32890952D01*
X131770476Y-32843333D01*
X131722857Y-32748095D01*
X131722857Y-32652857D01*
X131770476Y-32557619D01*
X131818095Y-32510000D01*
X131913333Y-32462380D01*
X132151428Y-32462380D01*
X132294285Y-32510000D01*
X133246666Y-33462380D02*
X132675238Y-33462380D01*
X132960952Y-33462380D02*
X132960952Y-32462380D01*
X132865714Y-32605238D01*
X132770476Y-32700476D01*
X132675238Y-32748095D01*
X133580000Y-32462380D02*
X134246666Y-32462380D01*
X133818095Y-33462380D01*
X135103809Y-32462380D02*
X134627619Y-32462380D01*
X134580000Y-32938571D01*
X134627619Y-32890952D01*
X134722857Y-32843333D01*
X134960952Y-32843333D01*
X135056190Y-32890952D01*
X135103809Y-32938571D01*
X135151428Y-33033809D01*
X135151428Y-33271904D01*
X135103809Y-33367142D01*
X135056190Y-33414761D01*
X134960952Y-33462380D01*
X134722857Y-33462380D01*
X134627619Y-33414761D01*
X134580000Y-33367142D01*
X116078095Y-51732380D02*
X116078095Y-52541904D01*
X116125714Y-52637142D01*
X116173333Y-52684761D01*
X116268571Y-52732380D01*
X116459047Y-52732380D01*
X116554285Y-52684761D01*
X116601904Y-52637142D01*
X116649523Y-52541904D01*
X116649523Y-51732380D01*
X117030476Y-51732380D02*
X117697142Y-51732380D01*
X117268571Y-52732380D01*
D13*
X117518571Y-76115714D02*
X116804285Y-76615714D01*
X117518571Y-76972857D02*
X116018571Y-76972857D01*
X116018571Y-76401428D01*
X116090000Y-76258571D01*
X116161428Y-76187142D01*
X116304285Y-76115714D01*
X116518571Y-76115714D01*
X116661428Y-76187142D01*
X116732857Y-76258571D01*
X116804285Y-76401428D01*
X116804285Y-76972857D01*
X116018571Y-75187142D02*
X116018571Y-74901428D01*
X116090000Y-74758571D01*
X116232857Y-74615714D01*
X116518571Y-74544285D01*
X117018571Y-74544285D01*
X117304285Y-74615714D01*
X117447142Y-74758571D01*
X117518571Y-74901428D01*
X117518571Y-75187142D01*
X117447142Y-75330000D01*
X117304285Y-75472857D01*
X117018571Y-75544285D01*
X116518571Y-75544285D01*
X116232857Y-75472857D01*
X116090000Y-75330000D01*
X116018571Y-75187142D01*
X117518571Y-73901428D02*
X116018571Y-73901428D01*
X117090000Y-73401428D01*
X116018571Y-72901428D01*
X117518571Y-72901428D01*
X116732857Y-70544285D02*
X116732857Y-71044285D01*
X117518571Y-71044285D02*
X116018571Y-71044285D01*
X116018571Y-70330000D01*
X116661428Y-69544285D02*
X116590000Y-69687142D01*
X116518571Y-69758571D01*
X116375714Y-69830000D01*
X116304285Y-69830000D01*
X116161428Y-69758571D01*
X116090000Y-69687142D01*
X116018571Y-69544285D01*
X116018571Y-69258571D01*
X116090000Y-69115714D01*
X116161428Y-69044285D01*
X116304285Y-68972857D01*
X116375714Y-68972857D01*
X116518571Y-69044285D01*
X116590000Y-69115714D01*
X116661428Y-69258571D01*
X116661428Y-69544285D01*
X116732857Y-69687142D01*
X116804285Y-69758571D01*
X116947142Y-69830000D01*
X117232857Y-69830000D01*
X117375714Y-69758571D01*
X117447142Y-69687142D01*
X117518571Y-69544285D01*
X117518571Y-69258571D01*
X117447142Y-69115714D01*
X117375714Y-69044285D01*
X117232857Y-68972857D01*
X116947142Y-68972857D01*
X116804285Y-69044285D01*
X116732857Y-69115714D01*
X116661428Y-69258571D01*
X118090000Y-66758571D02*
X118018571Y-66830000D01*
X117804285Y-66972857D01*
X117661428Y-67044285D01*
X117447142Y-67115714D01*
X117090000Y-67187142D01*
X116804285Y-67187142D01*
X116447142Y-67115714D01*
X116232857Y-67044285D01*
X116090000Y-66972857D01*
X115875714Y-66830000D01*
X115804285Y-66758571D01*
X116161428Y-66258571D02*
X116090000Y-66187142D01*
X116018571Y-66044285D01*
X116018571Y-65687142D01*
X116090000Y-65544285D01*
X116161428Y-65472857D01*
X116304285Y-65401428D01*
X116447142Y-65401428D01*
X116661428Y-65472857D01*
X117518571Y-66330000D01*
X117518571Y-65401428D01*
X116018571Y-64901428D02*
X116018571Y-63901428D01*
X117518571Y-64544285D01*
X117518571Y-62544285D02*
X117518571Y-63401428D01*
X117518571Y-62972857D02*
X116018571Y-62972857D01*
X116232857Y-63115714D01*
X116375714Y-63258571D01*
X116447142Y-63401428D01*
X116018571Y-61258571D02*
X116018571Y-61544285D01*
X116090000Y-61687142D01*
X116161428Y-61758571D01*
X116375714Y-61901428D01*
X116661428Y-61972857D01*
X117232857Y-61972857D01*
X117375714Y-61901428D01*
X117447142Y-61830000D01*
X117518571Y-61687142D01*
X117518571Y-61401428D01*
X117447142Y-61258571D01*
X117375714Y-61187142D01*
X117232857Y-61115714D01*
X116875714Y-61115714D01*
X116732857Y-61187142D01*
X116661428Y-61258571D01*
X116590000Y-61401428D01*
X116590000Y-61687142D01*
X116661428Y-61830000D01*
X116732857Y-61901428D01*
X116875714Y-61972857D01*
X118090000Y-60615714D02*
X118018571Y-60544285D01*
X117804285Y-60401428D01*
X117661428Y-60330000D01*
X117447142Y-60258571D01*
X117090000Y-60187142D01*
X116804285Y-60187142D01*
X116447142Y-60258571D01*
X116232857Y-60330000D01*
X116090000Y-60401428D01*
X115875714Y-60544285D01*
X115804285Y-60615714D01*
D11*
X86233333Y-42557142D02*
X86185714Y-42604761D01*
X86042857Y-42652380D01*
X85947619Y-42652380D01*
X85804761Y-42604761D01*
X85709523Y-42509523D01*
X85661904Y-42414285D01*
X85614285Y-42223809D01*
X85614285Y-42080952D01*
X85661904Y-41890476D01*
X85709523Y-41795238D01*
X85804761Y-41700000D01*
X85947619Y-41652380D01*
X86042857Y-41652380D01*
X86185714Y-41700000D01*
X86233333Y-41747619D01*
X86566666Y-41652380D02*
X87185714Y-41652380D01*
X86852380Y-42033333D01*
X86995238Y-42033333D01*
X87090476Y-42080952D01*
X87138095Y-42128571D01*
X87185714Y-42223809D01*
X87185714Y-42461904D01*
X87138095Y-42557142D01*
X87090476Y-42604761D01*
X86995238Y-42652380D01*
X86709523Y-42652380D01*
X86614285Y-42604761D01*
X86566666Y-42557142D01*
X84971428Y-44807142D02*
X85019047Y-44854761D01*
X84971428Y-44902380D01*
X84923809Y-44854761D01*
X84971428Y-44807142D01*
X84971428Y-44902380D01*
X85971428Y-44902380D02*
X85400000Y-44902380D01*
X85685714Y-44902380D02*
X85685714Y-43902380D01*
X85590476Y-44045238D01*
X85495238Y-44140476D01*
X85400000Y-44188095D01*
X86400000Y-44235714D02*
X86400000Y-45235714D01*
X86876190Y-44759523D02*
X86923809Y-44854761D01*
X87019047Y-44902380D01*
X86400000Y-44759523D02*
X86447619Y-44854761D01*
X86542857Y-44902380D01*
X86733333Y-44902380D01*
X86828571Y-44854761D01*
X86876190Y-44759523D01*
X86876190Y-44235714D01*
X87780952Y-44378571D02*
X87447619Y-44378571D01*
X87447619Y-44902380D02*
X87447619Y-43902380D01*
X87923809Y-43902380D01*
X152931904Y-34892380D02*
X152931904Y-33892380D01*
X153170000Y-33892380D01*
X153312857Y-33940000D01*
X153408095Y-34035238D01*
X153455714Y-34130476D01*
X153503333Y-34320952D01*
X153503333Y-34463809D01*
X153455714Y-34654285D01*
X153408095Y-34749523D01*
X153312857Y-34844761D01*
X153170000Y-34892380D01*
X152931904Y-34892380D01*
X153884285Y-33987619D02*
X153931904Y-33940000D01*
X154027142Y-33892380D01*
X154265238Y-33892380D01*
X154360476Y-33940000D01*
X154408095Y-33987619D01*
X154455714Y-34082857D01*
X154455714Y-34178095D01*
X154408095Y-34320952D01*
X153836666Y-34892380D01*
X154455714Y-34892380D01*
X151431904Y-26448571D02*
X151574761Y-26496190D01*
X151622380Y-26543809D01*
X151670000Y-26639047D01*
X151670000Y-26781904D01*
X151622380Y-26877142D01*
X151574761Y-26924761D01*
X151479523Y-26972380D01*
X151098571Y-26972380D01*
X151098571Y-25972380D01*
X151431904Y-25972380D01*
X151527142Y-26020000D01*
X151574761Y-26067619D01*
X151622380Y-26162857D01*
X151622380Y-26258095D01*
X151574761Y-26353333D01*
X151527142Y-26400952D01*
X151431904Y-26448571D01*
X151098571Y-26448571D01*
X152050952Y-26686666D02*
X152527142Y-26686666D01*
X151955714Y-26972380D02*
X152289047Y-25972380D01*
X152622380Y-26972380D01*
X152955714Y-26972380D02*
X152955714Y-25972380D01*
X153527142Y-26972380D01*
X153527142Y-25972380D01*
X154003333Y-26972380D02*
X154003333Y-25972380D01*
X154574761Y-26972380D02*
X154146190Y-26400952D01*
X154574761Y-25972380D02*
X154003333Y-26543809D01*
X156289047Y-26972380D02*
X155717619Y-26972380D01*
X156003333Y-26972380D02*
X156003333Y-25972380D01*
X155908095Y-26115238D01*
X155812857Y-26210476D01*
X155717619Y-26258095D01*
X133012380Y-79491904D02*
X133821904Y-79491904D01*
X133917142Y-79444285D01*
X133964761Y-79396666D01*
X134012380Y-79301428D01*
X134012380Y-79110952D01*
X133964761Y-79015714D01*
X133917142Y-78968095D01*
X133821904Y-78920476D01*
X133012380Y-78920476D01*
X133012380Y-78015714D02*
X133012380Y-78206190D01*
X133060000Y-78301428D01*
X133107619Y-78349047D01*
X133250476Y-78444285D01*
X133440952Y-78491904D01*
X133821904Y-78491904D01*
X133917142Y-78444285D01*
X133964761Y-78396666D01*
X134012380Y-78301428D01*
X134012380Y-78110952D01*
X133964761Y-78015714D01*
X133917142Y-77968095D01*
X133821904Y-77920476D01*
X133583809Y-77920476D01*
X133488571Y-77968095D01*
X133440952Y-78015714D01*
X133393333Y-78110952D01*
X133393333Y-78301428D01*
X133440952Y-78396666D01*
X133488571Y-78444285D01*
X133583809Y-78491904D01*
X140867142Y-78192380D02*
X141533809Y-78192380D01*
X141105238Y-79192380D01*
X142343333Y-78525714D02*
X142343333Y-79192380D01*
X142105238Y-78144761D02*
X141867142Y-78859047D01*
X142486190Y-78859047D01*
X143343333Y-79192380D02*
X142867142Y-79192380D01*
X142867142Y-78192380D01*
X143629047Y-79144761D02*
X143771904Y-79192380D01*
X144010000Y-79192380D01*
X144105238Y-79144761D01*
X144152857Y-79097142D01*
X144200476Y-79001904D01*
X144200476Y-78906666D01*
X144152857Y-78811428D01*
X144105238Y-78763809D01*
X144010000Y-78716190D01*
X143819523Y-78668571D01*
X143724285Y-78620952D01*
X143676666Y-78573333D01*
X143629047Y-78478095D01*
X143629047Y-78382857D01*
X143676666Y-78287619D01*
X143724285Y-78240000D01*
X143819523Y-78192380D01*
X144057619Y-78192380D01*
X144200476Y-78240000D01*
X144819523Y-78192380D02*
X144914761Y-78192380D01*
X145010000Y-78240000D01*
X145057619Y-78287619D01*
X145105238Y-78382857D01*
X145152857Y-78573333D01*
X145152857Y-78811428D01*
X145105238Y-79001904D01*
X145057619Y-79097142D01*
X145010000Y-79144761D01*
X144914761Y-79192380D01*
X144819523Y-79192380D01*
X144724285Y-79144761D01*
X144676666Y-79097142D01*
X144629047Y-79001904D01*
X144581428Y-78811428D01*
X144581428Y-78573333D01*
X144629047Y-78382857D01*
X144676666Y-78287619D01*
X144724285Y-78240000D01*
X144819523Y-78192380D01*
X145724285Y-78620952D02*
X145629047Y-78573333D01*
X145581428Y-78525714D01*
X145533809Y-78430476D01*
X145533809Y-78382857D01*
X145581428Y-78287619D01*
X145629047Y-78240000D01*
X145724285Y-78192380D01*
X145914761Y-78192380D01*
X146010000Y-78240000D01*
X146057619Y-78287619D01*
X146105238Y-78382857D01*
X146105238Y-78430476D01*
X146057619Y-78525714D01*
X146010000Y-78573333D01*
X145914761Y-78620952D01*
X145724285Y-78620952D01*
X145629047Y-78668571D01*
X145581428Y-78716190D01*
X145533809Y-78811428D01*
X145533809Y-79001904D01*
X145581428Y-79097142D01*
X145629047Y-79144761D01*
X145724285Y-79192380D01*
X145914761Y-79192380D01*
X146010000Y-79144761D01*
X146057619Y-79097142D01*
X146105238Y-79001904D01*
X146105238Y-78811428D01*
X146057619Y-78716190D01*
X146010000Y-78668571D01*
X145914761Y-78620952D01*
D14*
X171704000Y-90297000D02*
X167894000Y-90297000D01*
X167894000Y-90297000D02*
X167894000Y-88773000D01*
X167894000Y-88773000D02*
X171704000Y-88773000D01*
X171704000Y-88773000D02*
X171704000Y-90297000D01*
G36*
X171704000Y-90297000D02*
G01*
X167894000Y-90297000D01*
X167894000Y-88773000D01*
X171704000Y-88773000D01*
X171704000Y-90297000D01*
G37*
X171958000Y-90551000D02*
X165862000Y-90551000D01*
X165862000Y-90551000D02*
X165862000Y-88519000D01*
X165862000Y-88519000D02*
X171958000Y-88519000D01*
X171958000Y-88519000D02*
X171958000Y-90551000D01*
D15*
X167162000Y-89535000D02*
G75*
G03*
X167162000Y-89535000I-284000J0D01*
G01*
X171226000Y-86995000D02*
G75*
G03*
X171226000Y-86995000I-284000J0D01*
G01*
D14*
X165862000Y-85979000D02*
X171958000Y-85979000D01*
X171958000Y-85979000D02*
X171958000Y-88011000D01*
X171958000Y-88011000D02*
X165862000Y-88011000D01*
X165862000Y-88011000D02*
X165862000Y-85979000D01*
X166116000Y-86233000D02*
X169926000Y-86233000D01*
X169926000Y-86233000D02*
X169926000Y-87757000D01*
X169926000Y-87757000D02*
X166116000Y-87757000D01*
X166116000Y-87757000D02*
X166116000Y-86233000D01*
G36*
X166116000Y-86233000D02*
G01*
X169926000Y-86233000D01*
X169926000Y-87757000D01*
X166116000Y-87757000D01*
X166116000Y-86233000D01*
G37*
X101710000Y-48200000D02*
X100060000Y-48200000D01*
X96410000Y-83880000D02*
X101710000Y-83880000D01*
X96410000Y-48200000D02*
X96410000Y-83880000D01*
X98060000Y-48200000D02*
X96410000Y-48200000D01*
X101710000Y-83880000D02*
X101710000Y-48200000D01*
X98060000Y-48200000D02*
G75*
G03*
X100060000Y-48200000I1000000J0D01*
G01*
X158750000Y-37060000D02*
X158750000Y-36290000D01*
X157380000Y-29750000D02*
X157380000Y-36290000D01*
X160120000Y-29750000D02*
X157380000Y-29750000D01*
X157380000Y-36290000D02*
X160120000Y-36290000D01*
X160120000Y-36290000D02*
X160120000Y-29750000D01*
X158750000Y-28980000D02*
X158750000Y-29750000D01*
X156225000Y-86300000D02*
X161365000Y-86300000D01*
X154955000Y-88960000D02*
X153625000Y-88960000D01*
X156225000Y-88960000D02*
X156225000Y-86300000D01*
X153625000Y-88960000D02*
X153625000Y-87630000D01*
X161365000Y-88960000D02*
X161365000Y-86300000D01*
X156225000Y-88960000D02*
X161365000Y-88960000D01*
X168910000Y-37060000D02*
X168910000Y-36290000D01*
X167540000Y-29750000D02*
X167540000Y-36290000D01*
X168910000Y-28980000D02*
X168910000Y-29750000D01*
X167540000Y-36290000D02*
X170280000Y-36290000D01*
X170280000Y-29750000D02*
X167540000Y-29750000D01*
X170280000Y-36290000D02*
X170280000Y-29750000D01*
X167545000Y-72490000D02*
X174085000Y-72490000D01*
X174085000Y-69750000D02*
X167545000Y-69750000D01*
X167545000Y-69750000D02*
X167545000Y-72490000D01*
X166775000Y-71120000D02*
X167545000Y-71120000D01*
X174085000Y-72490000D02*
X174085000Y-69750000D01*
X174855000Y-71120000D02*
X174085000Y-71120000D01*
X152455000Y-66150000D02*
X152455000Y-60850000D01*
X134555000Y-60850000D02*
X134555000Y-62500000D01*
X134555000Y-64500000D02*
X134555000Y-66150000D01*
X152455000Y-60850000D02*
X134555000Y-60850000D01*
X134555000Y-66150000D02*
X152455000Y-66150000D01*
X134555000Y-64500000D02*
G75*
G03*
X134555000Y-62500000I0J1000000D01*
G01*
X134560000Y-49260000D02*
X134560000Y-50910000D01*
X152460000Y-50910000D02*
X152460000Y-45610000D01*
X152460000Y-45610000D02*
X134560000Y-45610000D01*
X134560000Y-50910000D02*
X152460000Y-50910000D01*
X134560000Y-45610000D02*
X134560000Y-47260000D01*
X134560000Y-49260000D02*
G75*
G03*
X134560000Y-47260000I0J1000000D01*
G01*
X148590000Y-37060000D02*
X148590000Y-36290000D01*
X149960000Y-36290000D02*
X149960000Y-29750000D01*
X147220000Y-36290000D02*
X149960000Y-36290000D01*
X149960000Y-29750000D02*
X147220000Y-29750000D01*
X148590000Y-28980000D02*
X148590000Y-29750000D01*
X147220000Y-29750000D02*
X147220000Y-36290000D01*
X103705000Y-38280000D02*
X103375000Y-38280000D01*
X103705000Y-33860000D02*
X100765000Y-33860000D01*
X100765000Y-32840000D02*
X100765000Y-38280000D01*
X103375000Y-32840000D02*
X103705000Y-32840000D01*
X103705000Y-33620000D02*
X100765000Y-33620000D01*
X101095000Y-32840000D02*
X100765000Y-32840000D01*
X103705000Y-33740000D02*
X100765000Y-33740000D01*
X100765000Y-38280000D02*
X101095000Y-38280000D01*
X103705000Y-32840000D02*
X103705000Y-38280000D01*
X174045000Y-45600000D02*
X156145000Y-45600000D01*
X174045000Y-50900000D02*
X174045000Y-45600000D01*
X156145000Y-50900000D02*
X174045000Y-50900000D01*
X156145000Y-45600000D02*
X156145000Y-47250000D01*
X156145000Y-49250000D02*
X156145000Y-50900000D01*
X156145000Y-49250000D02*
G75*
G03*
X156145000Y-47250000I0J1000000D01*
G01*
X97060000Y-45820000D02*
X103600000Y-45820000D01*
X103600000Y-45820000D02*
X103600000Y-43080000D01*
X97060000Y-43080000D02*
X97060000Y-45820000D01*
X96290000Y-44450000D02*
X97060000Y-44450000D01*
X103600000Y-43080000D02*
X97060000Y-43080000D01*
X104370000Y-44450000D02*
X103600000Y-44450000D01*
X110085000Y-39333349D02*
X108384000Y-39333349D01*
X110085000Y-38773349D02*
X107875000Y-38773349D01*
X110085000Y-37973349D02*
X107403000Y-37973349D01*
X110085000Y-39253349D02*
X108299000Y-39253349D01*
X113412000Y-39693349D02*
X112165000Y-39693349D01*
X113525000Y-39613349D02*
X112165000Y-39613349D01*
X110085000Y-37893349D02*
X107368000Y-37893349D01*
X110085000Y-38693349D02*
X107816000Y-38693349D01*
X110085000Y-39213349D02*
X108258000Y-39213349D01*
X110085000Y-38053349D02*
X107439000Y-38053349D01*
X115190000Y-36652349D02*
X107060000Y-36652349D01*
X113840000Y-32282651D02*
X113040000Y-32282651D01*
X114594000Y-38453349D02*
X112165000Y-38453349D01*
X110085000Y-38133349D02*
X107478000Y-38133349D01*
X110085000Y-39413349D02*
X108474000Y-39413349D01*
X114375000Y-38773349D02*
X112165000Y-38773349D01*
X114709000Y-38253349D02*
X112165000Y-38253349D01*
X114618000Y-38413349D02*
X112165000Y-38413349D01*
X110085000Y-39373349D02*
X108428000Y-39373349D01*
X114882000Y-37893349D02*
X112165000Y-37893349D01*
X114988000Y-37613349D02*
X107262000Y-37613349D01*
X110085000Y-39493349D02*
X108569000Y-39493349D01*
X112938000Y-39973349D02*
X109312000Y-39973349D01*
X115149000Y-36972349D02*
X107101000Y-36972349D01*
X115193000Y-36612349D02*
X107057000Y-36612349D01*
X114946000Y-37733349D02*
X107304000Y-37733349D01*
X115050000Y-37413349D02*
X107200000Y-37413349D01*
X113909000Y-39293349D02*
X112165000Y-39293349D01*
X110085000Y-39653349D02*
X108780000Y-39653349D01*
X114772000Y-38133349D02*
X112165000Y-38133349D01*
X114434000Y-38693349D02*
X112165000Y-38693349D01*
X113776000Y-39413349D02*
X112165000Y-39413349D01*
X115204000Y-36412349D02*
X107046000Y-36412349D01*
X114915000Y-37813349D02*
X112165000Y-37813349D01*
X110085000Y-38093349D02*
X107459000Y-38093349D01*
X114975000Y-37653349D02*
X107275000Y-37653349D01*
X110085000Y-39013349D02*
X108070000Y-39013349D01*
X115196000Y-36572349D02*
X107054000Y-36572349D01*
X115061000Y-37373349D02*
X107189000Y-37373349D01*
X110085000Y-39693349D02*
X108838000Y-39693349D01*
X114215000Y-38973349D02*
X112165000Y-38973349D01*
X114811000Y-38053349D02*
X112165000Y-38053349D01*
X113992000Y-39213349D02*
X112165000Y-39213349D01*
X111658000Y-40373349D02*
X110592000Y-40373349D01*
X114865000Y-37933349D02*
X112165000Y-37933349D01*
X110085000Y-39133349D02*
X108180000Y-39133349D01*
X113089000Y-39893349D02*
X109161000Y-39893349D01*
X113159000Y-39853349D02*
X109091000Y-39853349D01*
X114180000Y-39013349D02*
X112165000Y-39013349D01*
X113729000Y-39453349D02*
X112165000Y-39453349D01*
X110085000Y-38653349D02*
X107787000Y-38653349D01*
X113866000Y-39333349D02*
X112165000Y-39333349D01*
X110085000Y-38973349D02*
X108035000Y-38973349D01*
X110085000Y-38853349D02*
X107936000Y-38853349D01*
X110085000Y-37853349D02*
X107351000Y-37853349D01*
X110085000Y-39453349D02*
X108521000Y-39453349D01*
X110085000Y-39293349D02*
X108341000Y-39293349D01*
X115072000Y-37333349D02*
X107178000Y-37333349D01*
X115135000Y-37053349D02*
X107115000Y-37053349D01*
X115027000Y-37493349D02*
X107223000Y-37493349D01*
X115101000Y-37213349D02*
X107149000Y-37213349D01*
X110085000Y-39053349D02*
X108106000Y-39053349D01*
X110085000Y-38533349D02*
X107707000Y-38533349D01*
X110085000Y-38933349D02*
X108001000Y-38933349D01*
X114517000Y-38573349D02*
X112165000Y-38573349D01*
X110085000Y-38813349D02*
X107905000Y-38813349D01*
X113579000Y-39573349D02*
X112165000Y-39573349D01*
X114665000Y-38333349D02*
X112165000Y-38333349D01*
X114490000Y-38613349D02*
X112165000Y-38613349D01*
X110085000Y-39533349D02*
X108620000Y-39533349D01*
X114960000Y-37693349D02*
X107290000Y-37693349D01*
X114569000Y-38493349D02*
X112165000Y-38493349D01*
X110085000Y-38453349D02*
X107656000Y-38453349D01*
X114731000Y-38213349D02*
X112165000Y-38213349D01*
X115082000Y-37293349D02*
X107168000Y-37293349D01*
X114249000Y-38933349D02*
X112165000Y-38933349D01*
X113227000Y-39813349D02*
X112165000Y-39813349D01*
X112578000Y-40133349D02*
X109672000Y-40133349D01*
X115119000Y-37133349D02*
X107131000Y-37133349D01*
X115127000Y-37093349D02*
X107123000Y-37093349D01*
X115201000Y-36492349D02*
X107049000Y-36492349D01*
X115155000Y-36932349D02*
X107095000Y-36932349D01*
X110085000Y-38013349D02*
X107421000Y-38013349D01*
X110085000Y-38733349D02*
X107845000Y-38733349D01*
X115167000Y-36852349D02*
X107083000Y-36852349D01*
X110085000Y-39173349D02*
X108218000Y-39173349D01*
X115199000Y-36532349D02*
X107051000Y-36532349D01*
X112677000Y-40093349D02*
X109573000Y-40093349D01*
X114829000Y-38013349D02*
X112165000Y-38013349D01*
X114345000Y-38813349D02*
X112165000Y-38813349D01*
X115002000Y-37573349D02*
X107248000Y-37573349D01*
X113440000Y-31882651D02*
X113440000Y-32682651D01*
X114108000Y-39093349D02*
X112165000Y-39093349D01*
X112856000Y-40013349D02*
X109394000Y-40013349D01*
X114281000Y-38893349D02*
X112165000Y-38893349D01*
X115142000Y-37013349D02*
X107108000Y-37013349D01*
X115202000Y-36452349D02*
X107048000Y-36452349D01*
X110085000Y-38893349D02*
X107969000Y-38893349D01*
X110085000Y-38373349D02*
X107608000Y-38373349D01*
X110085000Y-38173349D02*
X107498000Y-38173349D01*
X115162000Y-36892349D02*
X107088000Y-36892349D01*
X114144000Y-39053349D02*
X112165000Y-39053349D01*
X115186000Y-36692349D02*
X107064000Y-36692349D01*
X110085000Y-38613349D02*
X107760000Y-38613349D01*
X111893000Y-40333349D02*
X110357000Y-40333349D01*
X115173000Y-36812349D02*
X107077000Y-36812349D01*
X110085000Y-39813349D02*
X109023000Y-39813349D01*
X115014000Y-37533349D02*
X107236000Y-37533349D01*
X114543000Y-38533349D02*
X112165000Y-38533349D01*
X113630000Y-39533349D02*
X112165000Y-39533349D01*
X110085000Y-37933349D02*
X107385000Y-37933349D01*
X110085000Y-39093349D02*
X108142000Y-39093349D01*
X110085000Y-38253349D02*
X107541000Y-38253349D01*
X115205000Y-36372349D02*
X107045000Y-36372349D01*
X115205000Y-36292349D02*
X107045000Y-36292349D01*
X110085000Y-38493349D02*
X107681000Y-38493349D01*
X110085000Y-37773349D02*
X107320000Y-37773349D01*
X110085000Y-38413349D02*
X107632000Y-38413349D01*
X114463000Y-38653349D02*
X112165000Y-38653349D01*
X110085000Y-39773349D02*
X108959000Y-39773349D01*
X112471000Y-40173349D02*
X109779000Y-40173349D01*
X110085000Y-37813349D02*
X107335000Y-37813349D01*
X114899000Y-37853349D02*
X112165000Y-37853349D01*
X114930000Y-37773349D02*
X112165000Y-37773349D01*
X113822000Y-39373349D02*
X112165000Y-39373349D01*
X113353000Y-39733349D02*
X112165000Y-39733349D01*
X113470000Y-39653349D02*
X112165000Y-39653349D01*
X115177000Y-36772349D02*
X107073000Y-36772349D01*
X110085000Y-38573349D02*
X107733000Y-38573349D01*
X115182000Y-36732349D02*
X107068000Y-36732349D01*
X114070000Y-39133349D02*
X112165000Y-39133349D01*
X115110000Y-37173349D02*
X107140000Y-37173349D01*
X113015000Y-39933349D02*
X109235000Y-39933349D01*
X112073000Y-40293349D02*
X110177000Y-40293349D01*
X113681000Y-39493349D02*
X112165000Y-39493349D01*
X112354000Y-40213349D02*
X109896000Y-40213349D01*
X110085000Y-39733349D02*
X108897000Y-39733349D01*
X114314000Y-38853349D02*
X112165000Y-38853349D01*
X114752000Y-38173349D02*
X112165000Y-38173349D01*
X110085000Y-38213349D02*
X107519000Y-38213349D01*
X112223000Y-40253349D02*
X110027000Y-40253349D01*
X115092000Y-37253349D02*
X107158000Y-37253349D01*
X114847000Y-37973349D02*
X112165000Y-37973349D01*
X112770000Y-40053349D02*
X109480000Y-40053349D01*
X110085000Y-39573349D02*
X108671000Y-39573349D01*
X114642000Y-38373349D02*
X112165000Y-38373349D01*
X110085000Y-38333349D02*
X107585000Y-38333349D01*
X114032000Y-39173349D02*
X112165000Y-39173349D01*
X114405000Y-38733349D02*
X112165000Y-38733349D01*
X113291000Y-39773349D02*
X112165000Y-39773349D01*
X110085000Y-38293349D02*
X107563000Y-38293349D01*
X115039000Y-37453349D02*
X107211000Y-37453349D01*
X113951000Y-39253349D02*
X112165000Y-39253349D01*
X115205000Y-36332349D02*
X107045000Y-36332349D01*
X114791000Y-38093349D02*
X112165000Y-38093349D01*
X114687000Y-38293349D02*
X112165000Y-38293349D01*
X110085000Y-39613349D02*
X108725000Y-39613349D01*
X115245000Y-36292349D02*
G75*
G03*
X115245000Y-36292349I-4120000J0D01*
G01*
X176550000Y-32025000D02*
X176550000Y-28935000D01*
X176550000Y-28935170D02*
G75*
G03*
X171000000Y-30480462I-2560000J-1544830D01*
G01*
X171000000Y-30479538D02*
G75*
G03*
X176550000Y-32024830I2990000J-462D01*
G01*
X176490000Y-30480000D02*
G75*
G03*
X176490000Y-30480000I-2500000J0D01*
G01*
X119530000Y-48110000D02*
X121770000Y-48110000D01*
X121770000Y-48110000D02*
X121770000Y-40870000D01*
X119530000Y-40870000D02*
X121770000Y-40870000D01*
X119530000Y-48110000D02*
X119530000Y-40870000D01*
X91630000Y-88115000D02*
X91630000Y-85875000D01*
X98870000Y-88115000D02*
X91630000Y-88115000D01*
X98870000Y-88115000D02*
X98870000Y-85875000D01*
X98870000Y-85875000D02*
X91630000Y-85875000D01*
X156145000Y-76080000D02*
X156145000Y-77730000D01*
X174045000Y-81380000D02*
X174045000Y-76080000D01*
X174045000Y-76080000D02*
X156145000Y-76080000D01*
X156145000Y-79730000D02*
X156145000Y-81380000D01*
X156145000Y-81380000D02*
X174045000Y-81380000D01*
X156145000Y-79730000D02*
G75*
G03*
X156145000Y-77730000I0J1000000D01*
G01*
X87740000Y-83880000D02*
X87740000Y-48200000D01*
X82440000Y-48200000D02*
X82440000Y-83880000D01*
X84090000Y-48200000D02*
X82440000Y-48200000D01*
X82440000Y-83880000D02*
X87740000Y-83880000D01*
X87740000Y-48200000D02*
X86090000Y-48200000D01*
X84090000Y-48200000D02*
G75*
G03*
X86090000Y-48200000I1000000J0D01*
G01*
X117625000Y-35370000D02*
X119865000Y-35370000D01*
X119865000Y-35370000D02*
X119865000Y-28130000D01*
X117625000Y-28130000D02*
X119865000Y-28130000D01*
X117625000Y-35370000D02*
X117625000Y-28130000D01*
X157965000Y-53490000D02*
X150725000Y-53490000D01*
X150725000Y-55730000D02*
X150725000Y-53490000D01*
X157965000Y-55730000D02*
X150725000Y-55730000D01*
X157965000Y-55730000D02*
X157965000Y-53490000D01*
X97255000Y-37560000D02*
X97255000Y-31020000D01*
X94515000Y-37560000D02*
X97255000Y-37560000D01*
X94515000Y-31020000D02*
X94515000Y-37560000D01*
X95885000Y-30250000D02*
X95885000Y-31020000D01*
X95885000Y-38330000D02*
X95885000Y-37560000D01*
X97255000Y-31020000D02*
X94515000Y-31020000D01*
X156145000Y-60840000D02*
X156145000Y-62490000D01*
X174045000Y-66140000D02*
X174045000Y-60840000D01*
X156145000Y-66140000D02*
X174045000Y-66140000D01*
X174045000Y-60840000D02*
X156145000Y-60840000D01*
X156145000Y-64490000D02*
X156145000Y-66140000D01*
X156145000Y-64490000D02*
G75*
G03*
X156145000Y-62490000I0J1000000D01*
G01*
X166390000Y-32025000D02*
X166390000Y-28935000D01*
X160840000Y-30479538D02*
G75*
G03*
X166390000Y-32024830I2990000J-462D01*
G01*
X166390000Y-28935170D02*
G75*
G03*
X160840000Y-30480462I-2560000J-1544830D01*
G01*
X166330000Y-30480000D02*
G75*
G03*
X166330000Y-30480000I-2500000J0D01*
G01*
X153185000Y-82400000D02*
X153185000Y-75160000D01*
X153185000Y-82400000D02*
X155425000Y-82400000D01*
X153185000Y-75160000D02*
X155425000Y-75160000D01*
X155425000Y-82400000D02*
X155425000Y-75160000D01*
X121875000Y-30360000D02*
X121875000Y-32010000D01*
X121875000Y-34010000D02*
X121875000Y-35660000D01*
X142315000Y-30360000D02*
X121875000Y-30360000D01*
X121875000Y-35660000D02*
X142315000Y-35660000D01*
X142315000Y-35660000D02*
X142315000Y-30360000D01*
X121875000Y-34010000D02*
G75*
G03*
X121875000Y-32010000I0J1000000D01*
G01*
X110380000Y-83880000D02*
X123300000Y-83880000D01*
X123300000Y-53280000D02*
X117840000Y-53280000D01*
X123300000Y-83880000D02*
X123300000Y-53280000D01*
X115840000Y-53280000D02*
X110380000Y-53280000D01*
X110380000Y-53280000D02*
X110380000Y-83880000D01*
X115840000Y-53280000D02*
G75*
G03*
X117840000Y-53280000I1000000J0D01*
G01*
X90020000Y-43330000D02*
X90020000Y-45570000D01*
X82780000Y-43330000D02*
X90020000Y-43330000D01*
X82780000Y-43330000D02*
X82780000Y-45570000D01*
X82780000Y-45570000D02*
X90020000Y-45570000D01*
X156230000Y-32025000D02*
X156230000Y-28935000D01*
X156230000Y-28935170D02*
G75*
G03*
X150680000Y-30480462I-2560000J-1544830D01*
G01*
X150680000Y-30479538D02*
G75*
G03*
X156230000Y-32024830I2990000J-462D01*
G01*
X156170000Y-30480000D02*
G75*
G03*
X156170000Y-30480000I-2500000J0D01*
G01*
X152460000Y-81380000D02*
X152460000Y-76080000D01*
X152460000Y-76080000D02*
X134560000Y-76080000D01*
X134560000Y-79730000D02*
X134560000Y-81380000D01*
X134560000Y-81380000D02*
X152460000Y-81380000D01*
X134560000Y-76080000D02*
X134560000Y-77730000D01*
X134560000Y-79730000D02*
G75*
G03*
X134560000Y-77730000I0J1000000D01*
G01*
M02*
