M48
; DRILL file {KiCad (6.0.5-0)} date Wednesday, September 28, 2022 at 11:43:29 PM
; FORMAT={-:-/ absolute / inch / decimal}
; #@! TF.CreationDate,2022-09-28T23:43:29-07:00
; #@! TF.GenerationSoftware,Kicad,Pcbnew,(6.0.5-0)
; #@! TF.FileFunction,MixedPlating,1,2
FMAT,2
INCH
; #@! TA.AperFunction,Plated,PTH,ViaDrill
T1C0.0200
; #@! TA.AperFunction,Plated,PTH,ComponentDrill
T2C0.0315
; #@! TA.AperFunction,Plated,PTH,ComponentDrill
T3C0.0354
; #@! TA.AperFunction,Plated,PTH,ComponentDrill
T4C0.0394
%
G90
G05
T1
X2.125Y-3.625
X2.175Y-3.525
X2.225Y-3.425
X2.95Y-2.025
X2.975Y-2.6
X3.0Y-1.7
X3.0Y-2.075
X3.025Y-2.95
X3.1Y-2.85
X3.175Y-2.05
X3.2Y-2.525
X3.35Y-2.575
X3.4Y-1.825
X3.4Y-1.925
X3.5Y-2.175
X3.5Y-2.7
X3.6Y-1.975
X3.9Y-2.76
X4.075Y-1.675
X4.23Y-2.84
X4.35Y-3.7
X4.45Y-3.7
X4.65Y-1.8
X4.75Y-1.55
T2
X1.2Y-1.95
X1.2Y-2.05
X1.2Y-2.15
X1.2Y-2.25
X1.2Y-2.35
X1.2Y-2.45
X1.2Y-2.55
X1.2Y-2.65
X1.2Y-2.75
X1.2Y-2.85
X1.2Y-2.95
X1.2Y-3.05
X1.2Y-3.15
X1.2Y-3.25
X1.3031Y-1.75
X1.5Y-1.75
X1.5Y-1.95
X1.5Y-2.05
X1.5Y-2.15
X1.5Y-2.25
X1.5Y-2.35
X1.5Y-2.45
X1.5Y-2.55
X1.5Y-2.65
X1.5Y-2.75
X1.5Y-2.85
X1.5Y-2.95
X1.5Y-3.05
X1.5Y-3.15
X1.5Y-3.25
X1.6516Y-3.425
X1.75Y-1.75
X1.75Y-1.95
X1.75Y-2.05
X1.75Y-2.15
X1.75Y-2.25
X1.75Y-2.35
X1.75Y-2.45
X1.75Y-2.55
X1.75Y-2.65
X1.75Y-2.75
X1.75Y-2.85
X1.75Y-2.95
X1.75Y-3.05
X1.75Y-3.15
X1.75Y-3.25
X1.775Y-1.15
X1.775Y-1.55
X1.8484Y-3.425
X2.05Y-1.95
X2.05Y-2.05
X2.05Y-2.15
X2.05Y-2.25
X2.05Y-2.35
X2.05Y-2.45
X2.05Y-2.55
X2.05Y-2.65
X2.05Y-2.75
X2.05Y-2.85
X2.05Y-2.95
X2.05Y-3.05
X2.05Y-3.15
X2.05Y-3.25
X2.15Y-1.75
X2.3Y-2.15
X2.3Y-2.25
X2.3Y-2.35
X2.3Y-2.45
X2.3Y-2.55
X2.3Y-2.65
X2.3Y-2.75
X2.3Y-2.85
X2.3Y-2.95
X2.3Y-3.05
X2.3Y-3.15
X2.3Y-3.25
X2.375Y-1.3304
X2.375Y-1.5273
X2.675Y-1.1516
X2.675Y-1.3484
X2.75Y-1.6531
X2.75Y-1.85
X2.8506Y-1.1496
X2.8506Y-1.4496
X2.9Y-2.15
X2.9Y-2.25
X2.9Y-2.35
X2.9Y-2.45
X2.9Y-2.55
X2.9Y-2.65
X2.9Y-2.75
X2.9Y-2.85
X2.9Y-2.95
X2.9Y-3.05
X2.9Y-3.15
X2.9Y-3.25
X2.9506Y-1.1496
X2.9506Y-1.4496
X3.0506Y-1.1496
X3.0506Y-1.4496
X3.1506Y-1.1496
X3.1506Y-1.4496
X3.2506Y-1.1496
X3.2506Y-1.4496
X3.3498Y-2.35
X3.3498Y-2.65
X3.35Y-1.75
X3.35Y-2.05
X3.35Y-2.9496
X3.35Y-3.2496
X3.3506Y-1.1496
X3.3506Y-1.4496
X3.4498Y-2.35
X3.4498Y-2.65
X3.45Y-1.75
X3.45Y-2.05
X3.45Y-2.9496
X3.45Y-3.2496
X3.4506Y-1.1496
X3.4506Y-1.4496
X3.5498Y-2.35
X3.5498Y-2.65
X3.55Y-1.75
X3.55Y-2.05
X3.55Y-2.9496
X3.55Y-3.2496
X3.5506Y-1.1496
X3.5506Y-1.4496
X3.6498Y-2.35
X3.6498Y-2.65
X3.65Y-1.75
X3.65Y-2.05
X3.65Y-2.9496
X3.65Y-3.2496
X3.7498Y-2.35
X3.7498Y-2.65
X3.75Y-1.75
X3.75Y-2.05
X3.75Y-2.9496
X3.75Y-3.2496
X3.8498Y-2.35
X3.8498Y-2.65
X3.85Y-1.1
X3.85Y-1.5
X3.85Y-1.75
X3.85Y-2.05
X3.85Y-2.9496
X3.85Y-3.2496
X3.9498Y-2.35
X3.9498Y-2.65
X3.95Y-1.75
X3.95Y-2.05
X3.95Y-2.9496
X3.95Y-3.2496
X3.9781Y-2.15
X4.075Y-3.0031
X4.075Y-3.2
X4.175Y-2.15
X4.1998Y-1.7496
X4.1998Y-2.0496
X4.1998Y-2.3496
X4.1998Y-2.6496
X4.1998Y-2.9496
X4.1998Y-3.2496
X4.25Y-1.1
X4.25Y-1.5
X4.2998Y-1.7496
X4.2998Y-2.0496
X4.2998Y-2.3496
X4.2998Y-2.6496
X4.2998Y-2.9496
X4.2998Y-3.2496
X4.3998Y-1.7496
X4.3998Y-2.0496
X4.3998Y-2.3496
X4.3998Y-2.6496
X4.3998Y-2.9496
X4.3998Y-3.2496
X4.4998Y-1.7496
X4.4998Y-2.0496
X4.4998Y-2.3496
X4.4998Y-2.6496
X4.4998Y-2.9496
X4.4998Y-3.2496
X4.525Y-2.8
X4.5998Y-1.7496
X4.5998Y-2.0496
X4.5998Y-2.3496
X4.5998Y-2.6496
X4.5998Y-2.9496
X4.5998Y-3.2496
X4.65Y-1.1
X4.65Y-1.5
X4.6998Y-1.7496
X4.6998Y-2.0496
X4.6998Y-2.3496
X4.6998Y-2.6496
X4.6998Y-2.9496
X4.6998Y-3.2496
X4.7998Y-1.7496
X4.7998Y-2.0496
X4.7998Y-2.3496
X4.7998Y-2.6496
X4.7998Y-2.9496
X4.7998Y-3.2496
X4.925Y-2.8
T3
X2.025Y-1.25
X2.025Y-1.55
X4.0Y-1.2
X4.1Y-1.2
X4.4Y-1.2
X4.5Y-1.2
X4.8Y-1.2
X4.9Y-1.2
T4
X4.1006Y-3.45
X4.2006Y-3.45
X4.3006Y-3.45
T0
M30
