M48
; DRILL file {KiCad (6.0.5-0)} date Wednesday, August 03, 2022 at 01:33:31 AM
; FORMAT={-:-/ absolute / inch / decimal}
; #@! TF.CreationDate,2022-08-03T01:33:31-07:00
; #@! TF.GenerationSoftware,Kicad,Pcbnew,(6.0.5-0)
; #@! TF.FileFunction,Plated,1,2,PTH
FMAT,2
INCH
; #@! TA.AperFunction,Plated,PTH,ViaDrill
T1C0.0200
; #@! TA.AperFunction,Plated,PTH,ComponentDrill
T2C0.0315
; #@! TA.AperFunction,Plated,PTH,ComponentDrill
T3C0.0354
; #@! TA.AperFunction,Plated,PTH,ComponentDrill
T4C0.0394
%
G90
G05
T1
X8.125Y-3.625
X8.175Y-3.525
X8.225Y-3.425
X8.95Y-2.025
X8.975Y-2.6
X9.0Y-1.7
X9.0Y-2.075
X9.025Y-2.95
X9.1Y-2.85
X9.175Y-2.05
X9.2Y-2.525
X9.35Y-2.575
X9.4Y-1.825
X9.4Y-1.925
X9.5Y-2.175
X9.5Y-2.7
X9.6Y-1.975
X9.9Y-2.76
X10.075Y-1.675
X10.23Y-2.84
X10.35Y-3.7
X10.45Y-3.7
X10.65Y-1.8
X10.75Y-1.55
T2
X7.2Y-1.95
X7.2Y-2.05
X7.2Y-2.15
X7.2Y-2.25
X7.2Y-2.35
X7.2Y-2.45
X7.2Y-2.55
X7.2Y-2.65
X7.2Y-2.75
X7.2Y-2.85
X7.2Y-2.95
X7.2Y-3.05
X7.2Y-3.15
X7.2Y-3.25
X7.3031Y-1.75
X7.5Y-1.75
X7.5Y-1.95
X7.5Y-2.05
X7.5Y-2.15
X7.5Y-2.25
X7.5Y-2.35
X7.5Y-2.45
X7.5Y-2.55
X7.5Y-2.65
X7.5Y-2.75
X7.5Y-2.85
X7.5Y-2.95
X7.5Y-3.05
X7.5Y-3.15
X7.5Y-3.25
X7.6516Y-3.425
X7.75Y-1.75
X7.75Y-1.95
X7.75Y-2.05
X7.75Y-2.15
X7.75Y-2.25
X7.75Y-2.35
X7.75Y-2.45
X7.75Y-2.55
X7.75Y-2.65
X7.75Y-2.75
X7.75Y-2.85
X7.75Y-2.95
X7.75Y-3.05
X7.75Y-3.15
X7.75Y-3.25
X7.775Y-1.25
X7.775Y-1.55
X7.8484Y-3.425
X8.05Y-1.75
X8.05Y-1.95
X8.05Y-2.05
X8.05Y-2.15
X8.05Y-2.25
X8.05Y-2.35
X8.05Y-2.45
X8.05Y-2.55
X8.05Y-2.65
X8.05Y-2.75
X8.05Y-2.85
X8.05Y-2.95
X8.05Y-3.05
X8.05Y-3.15
X8.05Y-3.25
X8.3Y-2.15
X8.3Y-2.25
X8.3Y-2.35
X8.3Y-2.45
X8.3Y-2.55
X8.3Y-2.65
X8.3Y-2.75
X8.3Y-2.85
X8.3Y-2.95
X8.3Y-3.05
X8.3Y-3.15
X8.3Y-3.25
X8.375Y-1.3304
X8.375Y-1.5273
X8.675Y-1.1516
X8.675Y-1.3484
X8.75Y-1.6531
X8.75Y-1.85
X8.8506Y-1.1496
X8.8506Y-1.4496
X8.9Y-2.15
X8.9Y-2.25
X8.9Y-2.35
X8.9Y-2.45
X8.9Y-2.55
X8.9Y-2.65
X8.9Y-2.75
X8.9Y-2.85
X8.9Y-2.95
X8.9Y-3.05
X8.9Y-3.15
X8.9Y-3.25
X8.9506Y-1.1496
X8.9506Y-1.4496
X9.0506Y-1.1496
X9.0506Y-1.4496
X9.1506Y-1.1496
X9.1506Y-1.4496
X9.2506Y-1.1496
X9.2506Y-1.4496
X9.3498Y-2.35
X9.3498Y-2.65
X9.35Y-1.75
X9.35Y-2.05
X9.35Y-2.9496
X9.35Y-3.2496
X9.3506Y-1.1496
X9.3506Y-1.4496
X9.4498Y-2.35
X9.4498Y-2.65
X9.45Y-1.75
X9.45Y-2.05
X9.45Y-2.9496
X9.45Y-3.2496
X9.4506Y-1.1496
X9.4506Y-1.4496
X9.5498Y-2.35
X9.5498Y-2.65
X9.55Y-1.75
X9.55Y-2.05
X9.55Y-2.9496
X9.55Y-3.2496
X9.5506Y-1.1496
X9.5506Y-1.4496
X9.6498Y-2.35
X9.6498Y-2.65
X9.65Y-1.75
X9.65Y-2.05
X9.65Y-2.9496
X9.65Y-3.2496
X9.7498Y-2.35
X9.7498Y-2.65
X9.75Y-1.75
X9.75Y-2.05
X9.75Y-2.9496
X9.75Y-3.2496
X9.8498Y-2.35
X9.8498Y-2.65
X9.85Y-1.2
X9.85Y-1.5
X9.85Y-1.75
X9.85Y-2.05
X9.85Y-2.9496
X9.85Y-3.2496
X9.9498Y-2.35
X9.9498Y-2.65
X9.95Y-1.75
X9.95Y-2.05
X9.95Y-2.9496
X9.95Y-3.2496
X9.9781Y-2.15
X10.075Y-3.0031
X10.075Y-3.2
X10.175Y-2.15
X10.1998Y-1.7496
X10.1998Y-2.0496
X10.1998Y-2.3496
X10.1998Y-2.6496
X10.1998Y-2.9496
X10.1998Y-3.2496
X10.25Y-1.2
X10.25Y-1.5
X10.2998Y-1.7496
X10.2998Y-2.0496
X10.2998Y-2.3496
X10.2998Y-2.6496
X10.2998Y-2.9496
X10.2998Y-3.2496
X10.3998Y-1.7496
X10.3998Y-2.0496
X10.3998Y-2.3496
X10.3998Y-2.6496
X10.3998Y-2.9496
X10.3998Y-3.2496
X10.4998Y-1.7496
X10.4998Y-2.0496
X10.4998Y-2.3496
X10.4998Y-2.6496
X10.4998Y-2.9496
X10.4998Y-3.2496
X10.5998Y-1.7496
X10.5998Y-2.0496
X10.5998Y-2.3496
X10.5998Y-2.6496
X10.5998Y-2.9496
X10.5998Y-3.2496
X10.625Y-2.8
X10.65Y-1.2
X10.65Y-1.5
X10.6998Y-1.7496
X10.6998Y-2.0496
X10.6998Y-2.3496
X10.6998Y-2.6496
X10.6998Y-2.9496
X10.6998Y-3.2496
X10.7998Y-1.7496
X10.7998Y-2.0496
X10.7998Y-2.3496
X10.7998Y-2.6496
X10.7998Y-2.9496
X10.7998Y-3.2496
X10.925Y-2.8
T3
X8.025Y-1.25
X8.025Y-1.55
X10.0Y-1.2
X10.1Y-1.2
X10.4Y-1.2
X10.5Y-1.2
X10.8Y-1.2
X10.9Y-1.2
T4
X10.1006Y-3.45
X10.2006Y-3.45
X10.3006Y-3.45
T0
M30
